<?xml version="1.0" encoding="utf-8"?>
<!-- Generator: Adobe Illustrator 25.0.0, SVG Export Plug-In . SVG Version: 6.00 Build 0)  -->
<svg version="1.1" id="Layer_1" xmlns="http://www.w3.org/2000/svg" xmlns:xlink="http://www.w3.org/1999/xlink" x="0px" y="0px"
	 viewBox="0 0 1000 500" style="enable-background:new 0 0 1000 500;" xml:space="preserve">
<style type="text/css">
	.st0{fill:#BB9956;}
</style>
<g>
	<g>
		<g>
			<path class="st0" d="M634,304.8c-2.5-1.3-3.8-1.3-12.6-4.7c-3.6-1.4-5.6-2.8-7.4-4.2c-3.2-2.4-5.1-3.9-6-6.5
				c-1.9-5.8,3.3-11.6,3.8-12.2c0.8-0.9,2.8-3,6-3.9c3.3-0.9,9-1.1,10.6,2.2c1.3,2.5,0,6.4-2,7.2c-1.2,0.5-2-0.4-3.2,0.1
				c-1.5,0.6-2.4,3.1-2,4.7c0.8,3.3,7.5,5.6,11.5,3.2c4-2.4,4.5-9,2.4-13c-3.6-6.7-16-9-23.5-3.4c-6.5,4.8-7.3,14-5.4,20
				c1.8,5.6,6.3,9.3,11.3,13.5c4.2,3.4,5.8,3.6,9.8,7.4c3,2.8,6.2,5.9,7.8,9.7c3.5,8.4-0.1,24.2-11.9,27.4
				c-9.2,2.5-19.1-3.8-22.2-11.7c-0.2-0.5-3.2-8.9,1.3-14.1c1.4-1.6,4.4-4,7.3-3.3c3.5,0.8,3.8,5.4,6.8,5.6c2.2,0.1,4.3-2.2,5-4.3
				c1-3.1-0.6-6.3-2.5-7.9c-3.9-3.3-10.7-1.3-14.5,1.3c-6,4-8.7,11.7-7.6,18.6c1.7,10.6,11.8,15.1,13.3,15.7
				c9.6,4,20.4,0.5,26.8-5.5c8.5-7.8,11-20.4,7-29.9C643.3,315,640.6,308.3,634,304.8z"/>
			<path class="st0" d="M517.5,268.9h-18.6v5.8h6.7v75h-6.7v3.8h6.7h15.2c6.7,0,12-2.6,16-8.3c5.3-7.5,11.3-19.4,11.5-35
				c0.1-6.8-0.9-13-2.5-18.3C541.8,278.5,530.8,268.9,517.5,268.9z M533.8,311.5c0,11.1-0.1,16-2,22.4c-1.7,6.1-3.7,9.1-6.5,11
				c-3,2.1-6.2,2.5-8,2.5c0.1-24.3,0.1-48.6,0.1-72.9c1.4-0.2,4-0.5,6.8,0.9c0.9,0.4,3.5,1.8,5.8,5.9
				C533.6,287.5,533.8,295.4,533.8,311.5z"/>
			<path class="st0" d="M573.9,273c-12.5,0-22.6,18-22.6,40.3c0,22.2,10.1,40.3,22.6,40.3s22.6-18,22.6-40.3
				C596.5,291,586.4,273,573.9,273z M573.9,349.3c-7.1,0-11.6-18.7-11.6-36c0-17.3,4.5-34.7,11.6-34.7c7.1,0,12,17.4,12,34.7
				C585.9,330.6,581,349.3,573.9,349.3z"/>
		</g>
		<g>
			<path class="st0" d="M878.2,304.8c-2.5-1.3-3.8-1.3-12.5-4.7c-3.6-1.4-5.6-2.8-7.4-4.2c-3.2-2.4-5.1-3.9-6-6.5
				c-1.9-5.8,3.3-11.6,3.8-12.2c0.8-0.9,2.8-2.9,6-3.9c3.3-0.9,9-1.1,10.6,2.2c1.3,2.5,0,6.4-2,7.2c-1.2,0.5-2-0.4-3.2,0.1
				c-1.5,0.6-2.4,3.1-2,4.7c0.8,3.3,7.5,5.6,11.4,3.2c4-2.4,4.5-9,2.4-13c-3.6-6.7-16-9-23.5-3.4c-6.5,4.8-7.3,14-5.4,19.9
				c1.8,5.6,6.3,9.3,11.3,13.5c4.2,3.4,5.8,3.6,9.8,7.4c2.9,2.8,6.2,5.9,7.7,9.7c3.5,8.4-0.1,24.2-11.9,27.3
				c-9.2,2.5-19.1-3.9-22.2-11.7c-0.2-0.5-3.2-8.8,1.3-14.1c1.4-1.6,4.4-4,7.3-3.3c3.5,0.8,3.8,5.4,6.8,5.6c2.2,0.1,4.3-2.2,5-4.3
				c1-3.1-0.6-6.3-2.5-7.9c-3.9-3.3-10.7-1.3-14.5,1.3c-6,4-8.7,11.7-7.6,18.6c1.7,10.6,11.8,15.1,13.3,15.7
				c9.6,4,20.4,0.5,26.8-5.5c8.5-7.8,11-20.4,7-29.9C887.6,315,884.7,308.3,878.2,304.8z"/>
			<path class="st0" d="M833,346.9c-1.4,2.4-3.4,3.6-4.6,4.2h-13c0-13.6,0.1-27.3,0.1-40.9h8.4v5.6h2.8v-17.9h-2.8v6h-8.4V276
				l14.2-0.3c2-0.1,3.5,0.9,3.8,2.3s-0.8,2.8-1.6,3.5c-2.5,2-5.4-0.4-6.8,1.2c-1.2,1.4-0.4,5.3,1.6,6.8c3.1,2.3,9.4-0.8,10.8-5.1
				c0.9-2.8-0.3-6.4-0.9-8.4c-0.3-1-0.7-2.4-0.9-2.4c-12.5,0-24.9,0-37.4,0v5h5.8v75h36.9v-20.9h-8.8
				C834.8,337.3,835.3,342.9,833,346.9z"/>
			<path class="st0" d="M744.4,346.9c-1.4,2.4-3.5,3.6-4.7,4.2h-13.1c0-13.6,0.1-27.3,0.1-40.9h8.4v5.6h2.8v-17.9h-2.8v6h-8.4V276
				l14.2-0.3c2-0.1,3.5,0.9,3.9,2.3c0.3,1.3-0.8,2.8-1.7,3.5c-2.5,2-5.4-0.4-6.8,1.2c-1.2,1.4-0.4,5.3,1.6,6.8
				c3.1,2.3,9.5-0.8,10.8-5.1c0.9-2.8-0.3-6.4-0.9-8.4c-0.3-1-0.7-2.4-0.9-2.4c-12.5,0-25,0-37.5,0v5h5.8v75h37v-20.9h-8.8
				C746.4,337.3,746.8,342.9,744.4,346.9z"/>
			<path class="st0" d="M702.1,346.9c-1.3,2.4-3.2,3.6-4.3,4.2h-4.3h-8V342l0,0c0-10.6,0-21.3,0.1-31.9l0,0v-6.3l0,0v-27.9l8.3-0.1
				v-2.4c-11.7,0-12.8,0-24.6,0v5h5.4V342v7.9h-3.1v3.6h3.1h18.7h16v-20.9h-8.3C703.9,337.3,704.3,342.9,702.1,346.9z"/>
			<path class="st0" d="M777.1,268.9c-13.7,0-24.8,18.9-24.8,42.3s11.1,42.3,24.8,42.3c13.7,0,24.8-18.9,24.8-42.3
				C801.9,287.9,790.8,268.9,777.1,268.9z M777.1,349.1c-7.7,0-12.7-19.7-12.7-37.8s4.9-36.4,12.7-36.4c7.7,0,13.1,18.2,13.1,36.4
				C790.2,329.4,784.9,349.1,777.1,349.1z"/>
			<path class="st0" d="M766.4,262.9c2.1-0.2,2.6-2.7,4.3-3.5c3.3-1.8,7.2,4.5,12.2,3.6c4.6-0.8,8.2-7.2,7.1-9.1
				c-0.3-0.6-1.2-0.9-1.9-0.8c-1.7,0.2-1.6,2.8-3.5,3.6c-1.2,0.5-2.5,0.2-3.9-0.3c-1-0.4-1.9-0.9-2.7-1.3c-0.4-0.2-1-0.5-1.8-0.9
				c-0.6-0.2-1.4-0.5-2.3-0.6c-0.4-0.1-0.8-0.1-1-0.1c-0.7,0-1.3,0.1-2,0.3c-2.1,0.8-4,2.6-5.1,4.5c-1.1,1.7-1.6,3.4-1,4
				C765,263,766.1,262.9,766.4,262.9z"/>
		</g>
	</g>
	<g>
		<path class="st0" d="M225.6,165.1c3-0.7,3.7-0.8,4.7-1.4c1.4-0.9,1.9-1.9,2.8-3.2c3.7-5.4,9.6-8.8,13-9.7c0.3-0.1,1-0.2,1-0.3
			c0-0.1-5.1,0.3-9.1,1.5c-10.7,3.2-17.7,12.9-16.8,14C221.3,166.2,221.5,166,225.6,165.1z"/>
		<path class="st0" d="M211.8,215.5c1.5,6.2,3,7.9,3.6,14c0.2,2.1,0.3,4.6,0.9,4.7c0.5,0.1,1.3-1.5,1.3-2.9c0.1-0.8-0.1-1.2-0.6-2.8
			c-0.7-2.4-0.5-2.1-0.9-3.6c-0.9-2.8-1.3-3-1.8-4.9c-0.3-1.3-0.4-2.3-0.4-4c-0.1-2.3-0.1-8.2,1.5-17.6c0.7-4.1,1-5,1.5-5.9
			c0.6-1.2,1.3-2,1.5-3.4c0.2-1.6-0.2-2.8-0.4-3.6c-1.4-4.6,0-10,1.3-15.2c0.5-1.8,0.8-2.6,0.6-2.8c-0.6-0.3-5.3,5.6-7.9,12.7
			c-2.5,7-2.3,13-1.8,21.6C210.4,206.3,210.6,210.3,211.8,215.5z"/>
		<path class="st0" d="M192.6,252.1c5.4,2.8,14.1-7,13.7-7.7c-0.4-0.6-8.6,5.3-11.4,2.9c-1.5-1.3-0.7-4-2.3-4.7
			c-1-0.4-2.4,0.1-3,0.9C187.9,245.4,189.6,250.5,192.6,252.1z"/>
		<path class="st0" d="M160.2,307.5c0.4,0-0.1-2.7,1.7-5c0.4-0.4,1.8-2.3,3.9-2.5c1.6-0.2,2.9,0.6,3.4,0c0.4-0.4,0.1-1.2,0.1-1.3
			c-0.7-2.4,1.7-9.9,5.4-15.7c2.3-3.5,5.8-9,11.6-11.1c0.6-0.2,4-1.4,3.9-2.3c-0.1-0.5-1.1-0.4-1.7-1.2c-0.7-1-0.4-2.5,0.2-3.4
			c0.6-0.9,1.5-1.3,1.7-1.5c5.3-2.6,14.3-11.3,18.7-11.9c0.3-0.1,1.5-0.2,2.5-1c0.6-0.5,0.9-1.1,1-1.3c0.7-1.5,7-15.1,5.9-15.5
			c-0.6-0.2-1.8,3.6-6.1,8.4c-3.5,4-6.7,6.2-9,7.8c0,0-7.4,5.1-18.7,14.8c0,0-10.3,8.8-20.2,22.7c-1.7,2.4-5.1,7.3-5.4,13.8
			C159.1,304.6,159.8,307.6,160.2,307.5z"/>
		<path class="st0" d="M210.5,304.8c-0.2,0.9-0.4,1.4-0.2,1.4c0.4,0.2,5.4-6.8,6.2-15.5c0.3-3.5,0.7-7.7-1.7-11.4
			c-4.5-7.1-15.2-7.6-21.6-6.4c-8.5,1.6-14.3,7.2-14,7.7c0.2,0.4,6-4.1,14.7-4.5c3-0.1,10.3-0.4,14.6,4.4c3.5,4,3.4,9.6,3.4,13.2
			C211.7,300.1,210.5,304.8,210.5,304.8z"/>
		<path class="st0" d="M211.4,335.6c-0.4-0.1-0.2,0-1.3,0c-3.4,0.1-7,0.1-7,0.1c-3.9,0-7-0.1-7.7-0.1c-2.9-0.1-5.9,0.1-8.8-0.1
			c-0.1,0-0.7-0.1-1.3,0.1c-0.5,0.1-1,0.2-1,0.2c-0.5,0.1-0.9,0.3-1.2,0.4c0,0-0.6,0.3-1.2,0.6c-5.3,2.7-11.3,4.5-11.3,4.5
			c-8.3,2.6-16.8,3.6-16.8,3.9c0,0.1,0.5,0,1.7,0c0,0,0.1,0,5.3-0.1c54.9-0.4,82.4,0.1,82.4,0.1c14.6,0.2,29.3-0.6,43.8,0.4
			c0.1,0,5.9,0.4,6-0.1c0.1-0.4-3.7-0.7-9.4-2.6c-5-1.6-8.5-3.3-10.3-4.3c-1-0.6-1.9-1-3.6-2.1c-6.1-3.6-9.3-5.5-12.6-8.4
			c-2.2-2-3.3-3-3.7-3.4c-1.8-1.9-2.4-3.1-3.2-2.9c-1,0.2-0.5,2.5-2.4,4.4c-0.4,0.4-1,1-1.8,1c-1.1,0.1-1.7-0.7-2.4-0.3
			c-0.6,0.3-0.4,1.1-1,1.3c-0.5,0.2-1.2,0-1.7-0.3c-1.2-1,0.1-2.9-0.8-5.3c-0.6-1.7-2.3-3.6-4.3-3.9c-1.5-0.2-2.9,0.4-3.3-0.3
			c-0.2-0.2-0.1-0.6,0.1-0.9c0.3-1.5-0.7-3.3-1.6-4.1c-1.1-1-2.6-1-4.8-1.1c-1.7-0.1-2.5,0.2-2.6-0.1c-0.2-0.5,2.1-1.2,4.1-3.7
			c1.2-1.5,2.1-3.2,2.1-3.2c0.7-1.1,1-2,1.5-2c0.4,0.1,0.4,0.9,0.5,1.2c0.1,0.6,0.1,1.3-0.4,2.4c-0.6,1.4-1.2,1.9-1,2.3
			c0.1,0.2,0.4,0.1,1.5,0.1c1.5,0,1.4,0.1,1.8,0c0.9-0.2,1.1-0.7,2.3-1.4c0.6-0.4,1.8-1.1,3.3-1.2c1.3,0,2.3,0.5,2.6,0.6
			c1.3,0.7,1.9,1.8,2.2,1.7c0.2-0.1,0-0.7-0.1-1.7c0,0-0.1-0.6-0.1-2.2c0-4.8,1.3-9.2,1.3-9.2c1.2-4,3.1-10.5,8.6-12.9
			c2.2-1,4.2-0.9,7.4-0.7c4.2,0.2,7.2,0.3,9.7,2.5c3.2,2.9,4.7,8.3,3.1,11.7c-0.4,0.9-1.3,2.1-0.9,2.6c0.3,0.4,1.5,0.1,2-0.6
			c0.2-0.2,0.2-0.4,0.4-1.2c0.2-0.5,0.4-1,0.6-1.5c2.6-7.7,5.6-15.4,8-23.1c5.9-19,3.3-16,4.8-19.1c0.1-0.2,0.6-1.1,0.2-1.5
			c-0.7-0.9-4.8,1.7-11.3,5.8c-7.3,4.7-10.4,6.6-11.4,7.3c-7.4,4.7-20.5,12.8-30.5,8.6c-2.4-1-4.6-3.2-8.8-7.6
			c-6.5-6.7-10.6-13.6-10.7-13.5c-0.1,0,0.9,1.2,1.6,2.6c2.7,5.3,2.4,10.7,1.8,10.8c-0.5,0.1-1.3-3.9-4.1-6.1
			c-0.4-0.3-0.9-0.7-1.6-0.6c-1,0.1-1.5,1.3-1.9,2c-0.7,1.2-2.4,2.1-5.8,4c-1.2,0.7-3.9,2.1-6.4,2.8c-1.3,0.4-2.7,0.7-4,1
			c0,0-0.4,0.1-0.9,0.2c-0.7,0.2-2,0.6-2,0.7c0,0.1,1,0,1.2,0c1.8-0.2,3.9-0.1,8,0c3.6,0.1,5.9,0.1,8.6,1.2c1,0.4,5.3,2.4,7.5,7
			c0.9,1.9,1.3,3.9,1.3,7.3c0,2.5-0.3,10-5,19.8c-2.1,4.4-4.2,8.9-8.6,13.3c-4.4,4.5-9.9,10-13.5,11.5c-0.4,0.2-1.8,0.7-1.8,1.5
			c0,0.6,0.7,1.2,1.3,1.3c0.6,0.1,0.7-0.2,1.8-0.5c0.6-0.1,0.6,0,2.4-0.1c0.5,0,0.4,0,1.5-0.1c1.3-0.1,1.8-0.1,2.3,0.1
			c0.2,0.1,0.6,0.2,1,0.4c0.7,0.4,1,1,1.7,1.4c0.4,0.2,0.6,0.2,0.9,0.3c0.4,0.1,1.3,0.3,2.3-0.1c0.2-0.1,1-0.4,1.5-1.2
			c0.3-0.4,0.4-0.7,0.7-0.9c0.4-0.2,0.9,0.1,1,0.1c0.7,0.4,0.6,0.8,1.1,1.1c0.7,0.4,1.3-0.1,1.7,0.3c0.2,0.3,0.1,1-0.2,1.2
			C212,335.7,211.8,335.6,211.4,335.6z M223.4,317.8c1.1,0.1,2.8,0.6,3.2,1.8c0.4,1-0.4,1.7,0.1,2.5c0.6,0.9,1.7,0.5,3,1.3
			c1.7,1,2.5,3.6,2,5.7c-0.4,1.8-1.8,3.2-2.3,3c-0.5-0.2,0.3-2-0.4-4.8c-0.4-1.2-0.6-2.1-1.3-2.6c-1.2-1-2.9-0.7-3.1-1.4
			c0-0.1,0.1-0.2,0.2-0.6c0.4-0.8,0.6-1.3,0.6-1.7c-0.1-0.8-1.9-1.3-3.4-1.3c-2,0.1-3.2,1.1-3.3,1
			C218.6,320.3,220.5,317.6,223.4,317.8z M217.8,331.4c0.3-1.7-0.7-4-0.8-4.2c-0.3-0.6-0.7-1.2-0.6-1.3c0.2-0.1,1.1,1.4,2.6,1.5
			c1.1,0.1,2-0.7,2.1-0.5c0.1,0.2-0.7,0.6-1.2,1.6c-0.7,1.6,0.1,4.1,1,4.9c0.1,0.1,0.6,0.5,0.6,1.1c0,0.1,0.1,0.3-0.1,0.4
			c-0.2,0.3-0.9,0.1-1.5,0.1c-0.1,0-0.8,0-2.2,0c-2.3,0-2.6,0.2-2.7-0.1C214.9,334.5,217.5,333.5,217.8,331.4z"/>
		<path class="st0" d="M133.4,317.8c0.7-0.1,0.9-0.4,1.8-0.9c0,0,0.9-0.4,2.6-0.9c5.8-1.5,13.5,1.3,13.5,1.3
			c5.1,1.9,10.2,5.3,9.8,6.2c-0.4,0.9-7.4-2-21.2-3.9c-3-0.4-3.5-0.4-3.9-0.4c-9.1,0.7-21,13.5-16.8,24.4
			c3.3,8.6,14.7,10.9,21.4,9.7c1.8-0.3,4.9-0.9,7.1-3.6c2.7-3.2,2.1-7.2,2.1-7.7c-0.7-4.5-4.7-8.7-9.5-8.9c-4-0.2-8.9,2.5-9.1,5.9
			c-0.1,2.3,1.8,5,4,5.3c1.2,0.1,3-0.6,4-1.7c0.6-0.7,0.7-1.2,1.2-1.2c0.9-0.1,2.1,1.5,2.1,2.9c0.1,2.3-2.5,4.2-2.9,4.5
			c-3.7,2.4-10,1.8-13.8-2.1c-4.3-4.4-3-10.8-2.9-11.4c1.8-8,10.7-10.8,12-11.2c4.8-1.5,8.9-0.7,15.7,0.7c8.2,1.7,9.3,3.4,14.7,4.6
			c2,0.4,14.3,3,23.9-3.4c9.4-6.2,15.4-20.3,10.6-30.6c-3.2-6.7-11.6-12.7-17.6-10.5c-3.1,1.2-5.6,4.6-5.8,8.1
			c-0.2,4.3,2.9,9.2,6.2,9.2c2.2,0,4.2-2.2,5.1-4.2c1.7-3.9-0.6-7.3,0.8-8.3c1.2-0.8,3.8,0.7,5.4,2.1c5.5,4.8,4.7,13.5,4.7,14
			c-0.9,9.2-9.1,19.5-16.9,18.2c-4-0.6-7.9-4.4-9-8.7c-0.2-0.7-1.4-5.4,1-8.8c0.9-1.3,2.1-2.1,2-3.2c-0.3-1.3-2.6-1.8-2.9-2
			c-3.4-0.8-8.1,0.9-9.9,4.5c-1.4,2.7-0.9,6.2-0.9,6.4c0.2,1.5,0.7,2.3,0.4,2.5c-0.7,0.5-3.3-3.5-7.7-6.2c-1.1-0.7-8.6-5.6-14.3-2.9
			c-2.9,1.4-5.4,4.9-6.9,6.9c-0.7,0.9-0.9,1.5-1.8,2.5c-0.6,0.6-0.9,0.9-0.9,1.2C130.8,317.1,132.2,318,133.4,317.8z"/>
		<path class="st0" d="M297.5,317.4c0,0,7.7-2.9,13.5-1.3c1.8,0.5,2.6,0.9,2.6,0.9c1,0.5,1.2,0.9,1.8,0.9c1.2,0.1,2.6-0.7,2.6-1.5
			c0-0.4-0.3-0.6-0.9-1.2c-1-1-1.2-1.7-1.8-2.5c-1.5-2-4-5.4-6.9-6.9c-5.6-2.8-13.2,2.1-14.3,2.9c-4.3,2.8-6.9,6.8-7.7,6.2
			c-0.3-0.2,0.1-1,0.4-2.5c0-0.2,0.5-3.7-0.9-6.4c-1.8-3.5-6.5-5.2-9.9-4.5c-0.4,0.1-2.7,0.6-2.9,2c-0.2,1.1,1,1.9,2,3.2
			c2.4,3.4,1.2,8.1,1,8.8c-1.1,4.2-5,8-9,8.7c-7.7,1.2-15.9-9-16.9-18.2c-0.1-0.6-0.8-9.2,4.7-14c1.6-1.4,4.2-2.9,5.4-2.1
			c1.4,1-0.9,4.5,0.8,8.3c0.9,2,2.9,4.2,5.1,4.2c3.3,0,6.4-4.9,6.2-9.2c-0.2-3.6-2.7-7-5.8-8.1c-6-2.2-14.4,3.9-17.6,10.5
			c-4.8,10.2,1.2,24.3,10.6,30.6c9.7,6.4,21.9,3.9,23.9,3.4c5.4-1.2,6.5-2.8,14.7-4.6c6.8-1.4,10.9-2.2,15.7-0.7
			c1.3,0.4,10.2,3.2,12,11.2c0.1,0.6,1.5,7-2.9,11.4c-3.8,3.9-10.2,4.4-13.8,2.1c-0.5-0.3-3.1-2.1-2.9-4.5c0.1-1.5,1.3-3.1,2.1-2.9
			c0.5,0.1,0.6,0.6,1.2,1.2c1,1.2,2.8,1.8,4,1.7c2.2-0.2,4.1-2.9,4-5.3c-0.2-3.4-5.1-6.1-9.1-5.9c-4.8,0.2-8.8,4.3-9.5,8.9
			c-0.1,0.5-0.6,4.5,2.1,7.7c2.2,2.6,5.3,3.2,7.1,3.6c6.7,1.2,18.1-1.2,21.4-9.7c4.2-10.9-7.7-23.6-16.8-24.4
			c-0.4-0.1-0.9-0.1-3.9,0.4c-13.8,1.8-20.8,4.8-21.2,3.9C287.3,322.7,292.4,319.3,297.5,317.4z"/>
		<path class="st0" d="M86.1,346c0.6,0.4,4.8,2.9,10,2c3.9-0.6,6.3-2.7,8.8-4.9c2.8-2.4,2.6-3,9.4-11.4c4.3-5.2,5.5-6.4,6.7-7.3
			c2.8-2.2,5.4-3.6,5.1-4.1c-0.2-0.5-3.3,0.4-3.5,0.4c-1.6,0.5-8.2,2.7-15.2,11.6c-1.5,1.8-1.2,1.7-2.3,3.1
			c-2.8,3.3-6.4,7.5-11.3,7.5c-3.5,0-7.7-2.3-9.3-6.4c-1.8-4.7,0.4-9.8,3.8-12.2c2.8-1.9,7.3-2.8,9.3-0.7c1.2,1.3,1.5,3.9,0.6,4.9
			c-0.2,0.3-0.5,0.2-2.4,1.2c-0.7,0.3-1.2,0.6-1.5,0.7c-1.8,1-3.4,4.4-2.3,6.2c1,1.5,3.6,1.6,5.1,1.2c4.2-0.9,7.8-6.1,7.2-11
			c-0.7-5.7-7.1-9.2-12.3-9.1c-6.6,0.1-11.4,5.6-12.9,11C77.4,335.5,80.8,342.7,86.1,346z"/>
		<path class="st0" d="M32.3,349.5c2.4,0.1,4.2-0.1,5.1-0.1c2.1-0.2,2.9-0.3,16.9,0.1c4,0.1,8.1,0,12.2,0.1c5.8,0.2,11.2,0.7,12-1.2
			c0.1-0.1,0.3-0.7,0-1.2c-0.4-0.7-1.6-0.5-3.1-0.4c-1.6,0.1-5,0.1-5.3-0.7c-0.2-0.7,1.3-1.3,2.5-3.2c0,0,1.2-1.9,1.3-4.7
			c0.1-4.7-4.3-10.5-10.5-11.3c-5.3-0.7-9.1,2.9-9.7,3.5c-2,1.9-5.3,6.5-3.5,10.2c1.7,3.4,6.8,3.6,7.6,3.7c1.3,0.1,5.4,0.2,7.2-2.8
			c1.2-2,0.9-5.1-0.7-6.6c-1-0.9-2.7-1.4-3.5-0.7c-0.4,0.3-0.6,1.1-0.9,2.6c-0.2,1.3-0.2,1.5-0.4,1.8c-0.8,0.8-3.3,0.4-4-0.9
			c-0.8-1.5,1-4.3,3.2-5.4c2.8-1.4,6.3-0.2,8.4,1.7c0.2,0.2,3.7,3.5,2.6,7.5c-1,3.5-4.8,4.7-5.6,5c-1.8,0.6-2.9,0.3-6.2,0.2
			c0,0,0,0-8.3,0.3c-10,0.4-15.1,0.6-15.1,0.6c-7.2,0.2-11.7,0.1-11.8,0.4c0,0.1,0.8,0.3,2.3,0.7C26.9,348.9,29.2,349.4,32.3,349.5z
			"/>
		<path class="st0" d="M381.8,349.7c4-0.2,8.1,0,12.2-0.1c14-0.4,14.7-0.3,16.9-0.1c1,0.1,2.7,0.2,5.1,0.1c3.1-0.1,5.4-0.6,7.5-1
			c1.5-0.3,2.3-0.5,2.3-0.7c0-0.4-4.5-0.3-11.8-0.4c0,0-5-0.2-15.1-0.6c-8.3-0.3-8.3-0.3-8.3-0.3c-3.3,0.1-4.4,0.4-6.2-0.2
			c-0.9-0.3-4.7-1.5-5.6-5c-1.1-4,2.4-7.3,2.6-7.5c2.1-1.9,5.6-3.1,8.4-1.7c2.2,1.2,4,3.9,3.2,5.4c-0.7,1.3-3.1,1.7-4,0.9
			c-0.3-0.2-0.2-0.6-0.4-1.8c-0.3-1.5-0.5-2.3-0.9-2.6c-0.8-0.6-2.5-0.1-3.5,0.7c-1.7,1.5-2,4.5-0.7,6.6c1.7,2.9,5.8,2.8,7.2,2.8
			c0.8,0,5.9-0.2,7.6-3.7c1.8-3.7-1.5-8.3-3.5-10.2c-0.6-0.6-4.4-4.2-9.7-3.5c-6.1,0.7-10.7,6.6-10.5,11.3c0.1,2.8,1.3,4.7,1.3,4.7
			c1.2,2,2.8,2.6,2.5,3.2c-0.3,0.9-3.7,0.8-5.3,0.7c-1.4-0.1-2.6-0.2-3.1,0.4c-0.3,0.5-0.1,1.2,0,1.2
			C370.6,350.4,375.9,349.9,381.8,349.7z"/>
		<path class="st0" d="M227.3,235c-0.6,0.2,0.6,3.8,1.2,5.5c1.3,3.4,3.1,5.9,3.3,5.9c0,0,0.1-0.1-0.1-0.8c0-0.2-0.1-0.6-0.1-1
			c0-0.5,0-0.9,0-1c0-0.2-0.1-1.5-0.6-2.8C230.5,239.3,228,234.6,227.3,235z"/>
		<path class="st0" d="M228.6,224.6c-0.1-0.4-0.2-0.7-0.4-0.7c-0.4,0.1-0.9,3.7-0.1,7c0.9,3.7,2.3,3.2,4.1,8.1
			c1.3,3.6,1.9,5.3,1.9,6.4c0,0.1,0,0.7,0.2,0.8c0.2,0.1,0.7-0.8,0.7-1c1.2-2.5,0.2-6.2,0.2-6.5c-0.4-1.7-1-2.7-2-4.6
			c-1.6-3.1-1.8-2.5-2.6-4.5C230.1,228,229.3,226.3,228.6,224.6z"/>
		<path class="st0" d="M233.2,215.9c0-0.1,0.1-0.6-0.1-0.7c-0.3-0.1-1.1,0.7-1.5,1.3c-0.2,0.4-1,1.8-0.6,5.7c0.2,2,0.4,2.9,0.9,4.2
			c0.5,1.2,0.8,1.3,2.3,3.8c1,1.7,1.5,2.4,2,3.7c0.6,1.4,1.2,2.9,1.3,4.9c0.1,1.7-0.2,2.8,0.1,2.9c0.4,0.1,1.3-1.3,1.8-2.7
			c1.5-3.9-0.1-8-0.8-9.6c-1.6-3.9-2.7-3.1-3.6-6.4C233.7,218.9,233.2,216.9,233.2,215.9z"/>
		<path class="st0" d="M237.4,211.2c-0.7,0.1-2.4,5.6-0.1,10.3c2.3,4.5,7.1,5.9,8.4,6.4c2.2,0.7,5.5,1,5.7,0.4
			c0.1-0.1-0.1-0.3-0.3-0.5c0,0-1.7-1.7-3.1-4.7c-0.5-1.1-0.7-2-0.7-2.4c-0.4-2.3,0.1-3.5-0.4-3.8c-0.6-0.4-1.5,1.3-3.2,1.5
			c-1.7,0.1-3.1-1.4-3.7-2.1C237.9,213.8,237.9,211.2,237.4,211.2z"/>
		<path class="st0" d="M253.1,212.1c-1.2,1.3-3.9,5-3.8,7.9c0.1,3.4,1.8,7.6,5,8.8c0.4,0.1,2,0.2,5.3,0.4c1.1,0.1,2,0.1,2.1-0.3
			c0.2-0.4-0.6-1-1.2-1.7c-1.7-1.7-2.8-3.6-3.1-4.4c-0.9-2-1.2-5.1,0.4-7c0.7-0.9,1.7-1.3,1.9-1.3c3.2-1.2,7.9,1,12.2,3
			c0.2,0.1,0.6,0.3,0.7,0.2c0.2-0.3-1.7-2.6-3.9-4.3c-2.7-2-3.6-1.2-6.9-3c-1.2-0.6-3.7-2.1-5.9-5c-1.2-1.6-2.4-3.8-2.8-5.4
			c-0.1-0.2-0.2-0.8-0.5-1.9c-0.4-1.4-0.4-1.6-0.6-1.8c-0.6-0.7-1.5-0.4-2.5-0.7c-2.2-0.7-2.8-3.6-3.2-3.5c-0.7,0.2,1.3,7.1-0.4,7.9
			c-0.2,0.1-0.6,0.1-0.6,0.2c-0.1,0.4,2.9,1.2,5.6,3.6c2.3,2.1,2.9,3.8,3.1,4.5c0.3,1.2,0.1,2.1,0,2.3
			C253.8,211.3,253.2,211.8,253.1,212.1z"/>
		<path class="st0" d="M243.1,179.2c-0.4,0.1-0.9-0.1-1.2-0.4c-1-0.6-1.3-1.5-1.5-1.3c-0.2,0.1,0,1.2,0.4,2.4
			c0.7,1.9,1.7,3.1,2.5,4.2c0.7,0.8,1.3,1.7,1.7,1.5c0.3-0.1,0.1-1.1-0.1-1.8c-0.2-1.8,0.2-3.1,1-5.8c1.3-4.2,3.5-6.6,3.1-6.9
			c-0.2-0.2-1,0.6-1.3,0.9c-1.7,1.5-2.6,3.5-3.1,4.7C244,178.1,243.8,179.1,243.1,179.2z"/>
		<path class="st0" d="M251.1,161.1c-0.1-0.1-0.2-0.2-0.2-0.2c-0.2-0.2-0.1-0.6-0.6-0.9c-0.5-0.4-0.9-0.2-2.3-0.2
			c-1.6,0-1.9-0.2-2.1,0.1c-0.4,0.6,0.4,2,0.9,2.5c0.4,0.6,1.1,1.4,2.1,1.5c0.7,0.1,1-0.4,2-0.4c0.6-0.1,1,0.1,1.9,0.3
			c1.6,0.4,2.8,0.7,3,1.5c0.1,0.6-0.3,1.2-0.4,1.2c-0.4,0.5-0.9,0.4-1.7,0.7c-1.2,0.5-2,1.5-1.8,1.7c0.1,0.1,0.5-0.1,1.2-0.2
			c1.5-0.4,1.8-0.1,3.1-0.3c1.4-0.2,2.4-0.4,2.8-1c0.8-1.3-0.6-4-2.4-5.3c-0.7-0.6-1.5-1.1-2.6-1.1
			C253.4,161.1,251.6,161.4,251.1,161.1z"/>
		<path class="st0" d="M247.8,158.3c0.4,0.6,0.8,0.7,0.9,0.7c0.6,0,0.7-0.9,1.5-1.3c1.3-0.9,3.3,0.5,3.7-0.1c0.2-0.4-0.5-1-1.2-2.4
			c-0.5-1-1.3-2.7-0.9-4.2c0.4-1.5,1.8-2.9,3.4-3.1c0,0,2.4-0.3,6.2,2.9c0.2,0.1,0.4,0.4,0.7,0.4c0.5,0.1,0.9-0.1,1,0.1
			c0.1,0.1,0.1,0.3,0.2,0.4c0.1,0.1,0.2,0.1,0.3,0.1c1.6,0.1,2.4,0.1,4.3,0c0.3,0,0.4,0,0.4,0c0.4,0,0.4,0.1,0.5,0
			c0.2-0.2-0.2-0.9-0.6-1.1c-0.2-0.1-0.4-0.1-0.4-0.1c-0.1,0-0.2,0-0.2,0c-0.6,0.1-3.2-0.2-4-0.1c-0.1,0-0.2,0.1-0.4,0
			c-0.2-0.1-0.3-0.2-0.4-0.2c-0.2-0.2-1.9-2-2.6-2.6c-0.3-0.2-1-0.9-2.1-1.2c-0.6-0.1-1-0.2-2.9-0.1c-1.6,0.1-2.4,0.1-2.5,0.1
			c-2.6,0.4-5.3,3.1-6,6.4C246.3,155.4,247.2,157.5,247.8,158.3z"/>
		<path class="st0" d="M256.5,148.6c-0.7-0.1-1.5-0.1-2.3,0.4c-0.8,0.6-0.9,1.5-1.1,2.4c0,0-0.5,2.6,1.2,5.3
			c0.1,0.2,0.4,0.6,0.6,0.5c0.4,0,0.5-1,1-1.8c0.9-1.3,2.7-1.7,2.9-1.7c0.7-0.1,2.1-0.2,3.4-0.1c0.4,0,0.8,0.1,0.9-0.2
			c0.1-0.3-0.4-0.8-0.8-1.2C260.8,150.5,259.2,148.8,256.5,148.6z"/>
		<path class="st0" d="M269.8,156.5c0.2,1-0.3,1.2-0.1,2.2c0.1,0.4,0.3,0.7,0.6,1.2c1.5,2.5,1.5,3.1,2.1,3.2
			c0.8,0.1,1.5-1.3,1.7-1.8c0.9-1.7,1.7-5.1-0.4-7.6c-1.5-1.7-3.7-2.2-3.8-2.1c-0.1,0.1,0.6,0.4,1.2,1c1.6,1.8,1.4,4.8,0.9,4.9
			c-0.2,0.1-0.5-0.4-1-1.3c-1.2-1.8-1.7-3.1-1.9-3.1c-0.1,0.1-0.1,0.4-0.1,0.6C268.9,155.2,269.6,155.4,269.8,156.5z"/>
		<path class="st0" d="M272,166c-0.6,0.7-0.1,2,0.4,3.2c0,0,0.9,2.4,2.9,4.5c0.2,0.2,0.9,0.9,1.3,1.3c0.2,0.2,0.2,0.2,0.5,0.4
			c0.4,0.4,0.5,0.5,0.6,0.5c0.3,0,0.8-0.8,0.7-1.5c-0.1-0.7-1.2-0.6-2.1-1.7c-0.2-0.2-0.6-0.7-0.4-1c0.2-0.4,1.6-0.6,2.4,0.1
			c0.1,0.1,0.5,0.4,1,0.7c0.2,0.1,0.3,0.2,0.6,0.2c0.3,0.1,0.6,0,0.7-0.1c0.6-0.3,0.4-1.7,0.4-1.8c-0.2-2.3-3.1-4.3-5.8-5
			C274.2,165.6,272.6,165.2,272,166z M273.9,168c0.2-0.1,0.4-0.1,1,0.1c0.2,0.1,0.7,0.1,1.2,0.4c1.5,0.7,3.7,2.8,3.5,2.9
			c-0.1,0.1-1.1-0.6-1.5-0.9c-1-0.8-1.2-1.2-2-1.7c-0.1-0.1-1.3-0.6-1.7-0.3c-0.3,0.3-0.1,1.3,0.5,1.9c0.2,0.1,0.4,0.3,0.4,0.6
			c0,0.1-0.1,0.2-0.2,0.2c-0.3,0.1-0.6-0.6-0.8-0.9C274.2,170,273.4,168.4,273.9,168z"/>
		<path class="st0" d="M279,173c-0.2,0.1,0.5,0.8,0.7,2.3c0.1,0.6,0.1,1,0.4,1.2c0.3,0.2,0.7-0.1,0.9,0.2c0.1,0.2,0,0.4,0.1,0.6
			c0.2,0.2,0.9,0.2,1.1-0.1c0.1-0.1,0.1-0.4-1-1.8C280.7,174.4,279.3,172.8,279,173z"/>
		<path class="st0" d="M285,178.5c0.9,0.9,2.3,2.3,2.4,2.9c0,0.1,0.1,0.4,0.2,0.4c0.1,0.1,0.2,0,0.6,0c0.2,0,0.2,0,0.4,0
			c0.8,0,1.2,0,1.5-0.1c0.2,0,0.3-0.1,0.5-0.1c0.2,0,0.4,0.1,0.4,0.1c0.1-0.1,0.1-0.3,0-0.5c-0.1-0.2-0.2-0.2-0.5-0.4
			c-0.1-0.1-0.2-0.2-0.4-0.4c-0.4-0.4-0.8-0.7-0.8-0.7c-0.6-0.6-5.9-6.2-7.4-6.8c-0.1-0.1-0.4-0.1-0.4-0.1c-0.1,0.1,0.2,0.6,0.3,0.7
			C284,177.1,283.7,177.1,285,178.5z"/>
		<path class="st0" d="M290.3,182.6c-0.2,0.1-0.1,0.6,0.1,1c0.2,0.9,0.7,1.1,1.3,2.1c0.6,1,0.6,1.5,0.9,1.5c0.3,0.1,0.6-0.3,1.1-1
			c0.4-0.6,0.7-0.9,0.6-1.2c-0.1-0.2-0.4-0.3-0.6-0.4C291.9,184.1,290.8,182.3,290.3,182.6z"/>
		<path class="st0" d="M291.6,186.8c-0.1-1.6-2.3-2.9-2.6-2.6c-0.1,0.1-0.1,0.3-0.1,0.4c0.1,0.7,0.9,0.7,1.2,1.5
			c0.2,0.5,0,0.6,0.2,1.1c0.2,0.4,0.6,0.8,0.9,0.7C291.6,187.7,291.6,187.2,291.6,186.8z"/>
		<path class="st0" d="M284,184.5c-0.7,0.4-1.1,1.2-1.5,2.1c0,0-0.3,0.7-0.4,1.7c0.1-0.2,1.3-0.6,4.2-0.1c1.4,0.3,3.2,0.8,3.2,1.3
			c0,0.1-0.1,0.3-0.2,0.4c-0.1,0.1-0.3-0.1-0.4-0.1c-0.7-0.4-2.6-0.9-2.7-0.9c-0.9-0.2-1.6-0.1-2.1-0.1c-0.7,0.1-1.8,0.2-1.9,0
			c0,0.2,0,0.4,0,0.7c0,0.1,0.1,0.2,0.1,0.4c0.3,0.5,1,0.6,2.3,0.7c0.9,0.1,1.3,0.1,4.3,0.2c0.1,0,0.3,0,0.5-0.1
			c0.2-0.1,0.3-0.2,0.6-0.7c0.4-0.6,0.6-0.9,0.6-1.4c0,0,0.1-0.4,0.1-0.6c0-1.3-2.4-2.3-3.1-2.6C285.9,184.5,284.9,184,284,184.5z
			 M289.9,188.9c-0.1,0.1-0.2,0.2-0.3,0.2c-0.2,0-0.3-0.2-0.3-0.2c-0.5-0.7-2.1-1.7-2.2-1.8c-0.7-0.5-1.4-0.7-1.9-0.8
			c-0.7-0.2-1.8-0.4-1.8-0.7c0,0,0-0.1,0.1-0.2c0.1-0.1,0.1-0.2,0.1-0.2c0.1-0.2,1.5-0.1,3.9,1.4
			C288.6,187.3,290.1,188.4,289.9,188.9z"/>
		<path class="st0" d="M282.1,188.6c0,0.1,0,0.2,0,0.2l0,0c0-0.1,0-0.3,0-0.4C282.1,188.4,282.1,188.5,282.1,188.6z"/>
		<path class="st0" d="M282.1,188.3C282.1,188.3,282.1,188.3,282.1,188.3C282.1,188.3,282.1,188.3,282.1,188.3
			C282.1,188.3,282.1,188.3,282.1,188.3z"/>
		<path class="st0" d="M268.4,168.7c0.6,0.4,1,0.9,1.1,1c0.7,1,1.5,2,2.1,3c1.2,1.7,1.1,1.2,2.4,2.9c0.5,0.7,1.2,1.8,1.6,1.7
			c0.1-0.1,0.1-0.1,0.4-0.6c0.3-0.4,0.3-0.4,0.4-0.6c0.2-0.5-0.7-1.2-1.5-2.1c-0.4-0.5-0.9-1.1-1.2-1.7c-2.4-3.2-2.4-3.7-3.7-4.7
			c0,0-1.5-1.2-2.8-1c-0.5,0.1-1,0.1-1.3,0.4c-0.1,0.1-0.2,0.2-0.4,0.2c-0.1,0-0.4,0.1-0.6,0c-0.2-0.1-0.2-0.4-0.5-0.6
			c-0.2-0.1-0.4-0.1-0.6-0.1c-1.2,0.1-1.5-0.3-2.1,0c-0.5,0.2-1,0.6-1,1c0.1,0.5,0.8,0.8,1,0.9c1.6,0.7,2.2,3.2,3.1,6.2
			c1.9,6.5,2.9,7.9,3.5,8.7c1.8,2.2,3.1,2.4,3.6,2.4c1-0.1,1.7-0.6,1.8-0.7c1-0.7,0.9-1.5,2-2.4c0.8-0.7,1.6-0.9,1.8-1
			c0.9-0.2,1.7-0.1,2.9,0c0.4,0.1,1,0.1,1.8,0c0.4-0.1,0.8-0.1,0.9-0.2c0.1-0.4-2.1-0.7-4.7-1.9c-2.1-1-3.4-2.1-3.7-2.4
			c-1-0.8-0.6-0.7-3.7-4.3c-1.2-1.4-2.1-2.9-3.5-4.2c-0.1-0.1-0.6-0.5-0.5-0.6C267.2,168.1,267.8,168.4,268.4,168.7z"/>
		<path class="st0" d="M258,183.6c0,0.1-0.1,0.4,0.1,0.5c0.2,0.2,0.6,0.1,0.7,0.1c1-0.2,1.3-1.3,1.7-1.2c0.2,0.1,0.1,0.7,0.1,1.2
			c-0.1,1.3-0.5,1.8-0.2,2.1c0.4,0.4,1.4-0.5,2,0c0.3,0.2,0.4,0.7,0.4,0.9c0,0.6-0.3,1-0.5,1.2c-0.4,0.5-0.7,0.6-0.7,0.9
			s0.3,0.5,0.6,0.6c0.6,0.3,1.2-0.3,1.5-0.1c0.3,0.2,0,0.7,0.2,1.7c0.1,0.2,0.2,1,0.6,1c0.2,0,0.4-0.4,0.7-0.8
			c0.7-0.9,2.2-0.8,2.4-0.8c1,0.1,1.9,0.8,3.6,2.3c1.2,1,1.7,1.7,2.1,1.5c0.3-0.1,0.4-0.7,0.4-1.2c0-0.4,0.1-1-0.3-1.6
			c-0.4-0.7-1.1-0.7-1-1c0.1-0.3,1.3-0.6,2.3-0.2c0.2,0.1,0.5,0.2,0.9,0.2c0.1,0,0.8,0,0.9-0.3c0.2-0.6-2.3-2.3-4.2-3.5
			c-2.5-1.4-2.4-0.9-3.6-1.8c-3.1-2.3-3.9-6.2-4-7.1c-0.1-1.5-0.1-1.7-0.1-1.7c0.1-0.6,0.1-0.9-0.1-1c-0.3-0.4-1.2-0.4-1.5,0.1
			c-0.6,0.7,0.5,1.9-0.1,2.6c-0.5,0.6-1.5,0.1-2,0.7c-0.3,0.4,0,0.7-0.1,1.3C260.4,181.7,258,182.5,258,183.6z"/>
		<path class="st0" d="M279.1,184.9c-1.1-0.6-1.1-1.1-1.8-1.3c-0.9-0.2-2,0.5-2.6,1.3c-0.8,1.3-0.2,2.9,0,3.2
			c0.9,2.1,3.2,2.8,4.1,2.9c0.4,0.1,2.4,0.7,2.9-0.1c0.4-0.6-0.7-1.2-0.7-3.1c0-0.4-0.1-1.8,0.9-2.6c0.3-0.3,0.6-0.3,0.6-0.6
			c0.2-0.7-1.2-2.1-2.8-2.3c-0.4-0.1-1-0.1-1,0.1c-0.1,0.2,0.3,0.4,0.7,0.9c0.5,0.5,1.2,1.3,1,1.6
			C280.2,185.4,279.5,185.1,279.1,184.9z"/>
		<path class="st0" d="M289.1,195.1c0.6-0.7,1.1-0.8,1.6-1.8c0.2-0.5,0.5-1.3,0.2-1.5c-0.4-0.3-1.2,1.2-3.1,1.6
			c-1.6,0.4-2.9-0.3-3.1,0c-0.1,0.2,0.3,0.4,1.2,1.2c1,0.9,1.4,1.3,1.6,1.5c0.9,1.3,0.7,3.2,0.7,3.2
			C288.2,200.8,288.9,195.4,289.1,195.1z"/>
		<path class="st0" d="M274.5,192.6c-0.4,0.5-0.4,1.4,0.1,1.8c0.4,0.4,1,0.3,1.3,0.2c3.7-0.6,5.6-0.8,5.6-1c0-0.1-0.2-0.2-1.8-0.6
			C275.1,192.1,274.7,192.4,274.5,192.6z"/>
		<path class="st0" d="M288.1,200.4c-0.3-0.7-0.9-0.6-1.5-1.3c-1-1.3,0-2.9-1-4c-0.4-0.4-0.9-0.5-1.8-0.7c-0.5-0.1-1.7-0.2-4,0.4
			c-2,0.6-2,1-3.8,1.3c-2.1,0.4-2.9,0.1-3.1-0.1c-0.8-0.4-0.9-1-1.4-1.7c-1.5-1.8-4.7-2.8-6.2-1.7c-1.1,0.8-1.1,2.4-1.2,3.7
			c0,1.8,0.4,5.1,2.9,7.8c2.4,2.6,4,1.6,6.9,4.7c1.6,1.7,2.4,3.4,2.9,3.2c0.6-0.2,0.5-1.7,0.4-2.4c-0.1-0.4-0.3-2.2-1.6-3.4
			c-0.3-0.3-0.7-0.6-0.9-1c-0.1-0.4-0.2-1.1,0.1-1.5c0.4-0.6,1.3-0.5,1.8-0.4c0,0,5.8,0.4,9.1,0.1c0.3,0,0.9-0.1,1.5-0.6
			C288.1,202.2,288.4,201.2,288.1,200.4z"/>
		<path class="st0" d="M278.6,213.9c0.1,0.3,0.2,0.7,0.6,1c0.4,0.2,1,0.2,1.2-0.1c0.2-0.3-0.1-0.7,0.1-0.9c0.2-0.2,1,0.5,1.9,0.2
			c0.3-0.1,0.7-0.4,0.7-0.7c0.1-0.7-1.7-0.7-2.6-2.1c-0.5-0.7-0.2-1-0.7-2.4c-0.1-0.2-0.9-1.8-1.2-1.8c-0.2,0.1-0.1,0.9-0.1,3.4
			C278.3,210.8,278.3,212.1,278.6,213.9z"/>
		<path class="st0" d="M285.3,226.2c0.2,0,0.3-0.2,0.6-0.6c0.3-0.4,0.6-0.8,0.7-1c0.4-0.8,0.6-2.4,0.1-4.1c-0.6-1.7-1.7-3-1.9-2.9
			c-0.1,0.1,0.1,0.4,0.4,1.3c0.3,1.1,0.5,2.6,0.2,2.6c-0.2,0.1-0.5-0.9-1.3-1.9c-1.5-1.9-3.9-2.9-4.3-2.5c-0.1,0.1,0.1,0.7,0.4,1.7
			c0.6,1.6,0.9,2.3,0.7,2.5c-0.1,0.1-0.5,0.1-1.3,0.1c-0.4,0-0.6,0-0.7,0.1c-0.2,0.2-0.2,0.5-0.2,0.6c0,0.2,0,0.4,0.1,0.6
			c0.2,0.3,0.7,0.2,1.5,0.2c0.6,0,1.2,0,1.7,0.2c0.6,0.2,1,0.6,1.8,1.4C284.5,225.7,284.8,226.3,285.3,226.2z"/>
		<path class="st0" d="M259.9,242.4c0.2,0.3,0.7,0.6,1,0.4c0.6-0.1,0.8-0.8,0.9-1c0.9-2.1,5.3-4.7,7.3-5.8c1.2-0.6,2.1-0.9,4.1-2
			c2.3-1.2,2.2-1.5,2.2-1.6c-0.1-0.2-1.2-0.1-2.7,0.1c-4.5,0.4-8.5-0.1-9.6,1.2c-0.1,0.1-0.3,0.4-0.7,0.6c-0.7,0.2-1.4-0.1-1.5-0.1
			c-0.4-0.2-0.4-0.4-0.9-0.9c0,0-0.4-0.4-1.5-1c-1.8-1.1-6-1.8-6.2-1.3c-0.1,0.2,0.4,0.3,1.3,1.2c0.6,0.5,1,0.9,1.6,1.8
			c2.8,3.6,4.7,5.8,4.3,7.5C259.7,241.5,259.6,242,259.9,242.4z"/>
		<path class="st0" d="M280,230c-0.3,0.1-1,0.2-1.3,0.9c-0.2,0.4-0.2,1,0.1,1.3c0.4,0.3,0.9,0.2,2.1-0.1c2.5-0.6,3-0.4,3.1-0.7
			C284.1,230.9,281.9,229.5,280,230z"/>
		<path class="st0" d="M287.8,226.8c-0.6-0.2-1.6-0.8-2.2-0.4c-0.2,0.2-0.5,0.5-0.4,0.9c0.1,0.6,1,0.5,1.6,1.2
			c0.7,0.8,0.2,1.7,0.7,2.3c0.7,0.9,2.5,0.1,6.2-0.4c2.4-0.2,2.7,0,5.4-0.4c1.8-0.2,2.8-0.5,3.7-0.7c1.1-0.2,8.7-1.5,13.5,2.4
			c2.2,1.8,2.9,4,3.7,3.7c0.7-0.2,0.8-2.3,0.2-3.9c-1.2-3.5-5.9-5.4-9.8-5.7c-3.7-0.2-3.7,1.2-11.4,2.1c-2,0.2-4,0.3-6.5,0
			C289.4,227.5,288,226.8,287.8,226.8z"/>
		<path class="st0" d="M314.3,233.4c1.2,1.6,1.6,3.1,2.1,3c0.3-0.1,0.2-0.7,0.9-1.2c0.5-0.4,0.9-0.2,1-0.6c0.2-0.4-0.4-1-0.6-1.2
			c-1.5-1.6-2.3-2.5-4-3.2c-1.6-0.7-3.3-1-4.2-0.4c-0.1,0.1-0.4,0.2-0.4,0.4c0.1,0.2,0.9,0.2,1.4,0.3
			C312.3,230.7,313.5,232.5,314.3,233.4z"/>
		<path class="st0" d="M305.2,231.5c-0.9,0.2-1,0.6-2.1,0.9c-0.7,0.2-1,0.1-1.1,0c-0.2-0.1-0.1-0.2-0.3-0.4
			c-0.3-0.4-0.9-0.4-0.9-0.4c-0.4,0-0.6,0.2-1.6,1c-1.1,0.9-1.4,1.2-1.3,1.6c0,0.2,0.1,0.4,0.2,0.5c0.4,0.5,0.8,0.4,1.5,0.7
			c0.6,0.4,0.6,0.6,1,0.7c0.5,0.1,0.9-0.1,1.2-0.1c0.6-0.2,1.3-0.1,2.9,0c0.9,0.1,2.1,0.2,3.6,0.8c1.3,0.6,2.8,1.1,3.7,2.6
			c1.3,2,1,5,0,5.5c-0.2,0.1-0.5,0.2-0.7,0.6c-0.1,0.2,0,0.4-0.1,1.2c0,0.1-0.1,0.3,0.1,0.4c0.1,0.1,0.4,0.1,0.4,0
			c0.3-0.1,0.8-0.1,1.5-0.1c-0.2-0.1-0.3-0.3-0.3-0.6c0-0.4,0.6-0.7,0.9-0.9c2-1.1,3.1-3.2,3.4-3.7c0.3-0.6,0.6-1,0.4-1.7
			c-0.1-0.5-0.3-0.7-0.6-1.7c-0.1-0.5-0.2-0.9-0.1-0.9c-0.1,0-0.1,0-0.1,0c-0.1,0-0.3-0.1-0.4-0.1c-0.3-0.1-1.3-0.2-2.5-0.5
			c0,0-1.3-0.3-1.8-1c-0.2-0.2-0.2-0.6-0.2-0.6c-0.1-0.3,0-0.6,0-0.7c0.1-0.7,0-2.4-0.9-3.1c-0.1-0.1-0.4-0.4-0.9-0.4
			c-0.2,0-0.4,0-0.4,0c-0.7,0.1-1.2-0.1-3.4,0C305.6,231.5,305.3,231.5,305.2,231.5z"/>
		<path class="st0" d="M319.5,238.5c-0.5-0.3-1.1-0.4-2.3-0.6l0,0c0.2,0.1,0.5,0.3,0.7,0.6c1,1.2,0.3,3.2,0.2,3.5
			c-0.2,0.4-0.4,0.8-0.8,1.4c-0.1,0.1-1.2,1.8-3.1,3.3c-0.2,0.2-0.5,0.4-0.7,0.4h0.1c0.6,0.1,1.3,0.1,2,0c1.9-0.1,3.5-0.2,4.7-1.4
			c1.2-1.2,1.7-3.3,1-5C321.2,240.4,320.7,239.2,319.5,238.5z"/>
		<path class="st0" d="M296.2,265.1c-1.5,8.8-7.3,32.5-7.3,40.2c0,0.4,0,2.4,0.6,2.6c0.4,0.1,0.7-0.7,1.8-1.7
			c1.7-1.6,2.8-1.3,3.7-2.5c0.9-1.2,0.7-2.8,0.6-3.5c-0.1-1,1.5-8.3,4.7-22.9c2.4-11,2.6-11.4,3.4-15.7c0.5-2.6,0.9-5,1.7-9.3
			c1-5,1.5-7.5,1.5-7.7c0.5-1.7,1-2.4,0.7-3.5c-0.6-2.6-4.2-4.5-5.4-3.7c-0.6,0.4-0.7,1.1-0.7,1.5c-0.4,3.3-1.3,6.5-1.7,9.8
			c-0.4,3.9-0.9,3.2-2.6,12.9C296.5,263.4,296.3,264.5,296.2,265.1z"/>
		<path class="st0" d="M305.7,272.6c0.9-4.8,0.6-4.5,1.3-8.2c1-5.1,1.6-5.4,2.1-9.4c0.4-2.6,0.2-3.2,0.7-5.4c0.1-0.6,0.6-2.4,1-4.9
			c0.3-1.5,0.4-2.1,0.1-2.9c-0.5-1.6-2.1-2.9-2.8-2.6c-0.6,0.2-0.4,1.7-0.4,2.8c0.2,3.2-0.8,6.3-1.2,9.5c-0.7,6.2-1.7,8.2-3.5,18.3
			c-1.4,8.2-0.7,6.9-2,13.2c-0.6,2.8-2.8,13.9-3.2,16.1c-0.2,1.3-0.1,1.4-0.4,2.2c-0.2,0.7-0.4,1.1-0.2,1.3c0.2,0.4,1.1,0.5,1.6,0.1
			c0.4-0.3,0.4-0.9,0.4-1.8c0.1-0.8,0.1-0.5,0.6-2.7c0.6-2.5,1.3-6.8,1.6-7.9c0.4-2,0.3-1.3,2.1-9.3
			C304.9,276.5,305.3,274.2,305.7,272.6z"/>
		<path class="st0" d="M317.2,296.7c-1.9-3.2-2.5-7.1-3.2-12.1c-0.9-6.4-1.3-9.6-1.5-11.6c-0.2-4.1-0.2-9.2,0-19.3c0,0,0.1-5,0-5
			c0,0,0,1-0.2,2.3c-0.2,1.2-0.4,1.4-0.7,2.4c-0.3,1.2-0.2,1.6-0.4,3.4c-0.1,1-0.2,1.8-0.5,3.4c-1.2,6.7-3.1,15-3.1,15
			c-1.9,7.8-2.3,16.1-4.9,23.8c-0.1,0.4-0.7,1.8-0.1,2.2c0.2,0.2,0.6,0.1,0.7,0c1.7-0.6,3.6-0.1,5.3-0.2c3.4-0.2,8.5,3.2,11,7.5
			c1.1,1.9,2,3.3,1.9,5.3c0,1.1-0.3,2.4,0.1,2.6c0.1,0.1,0.4,0.1,1-0.4c1-0.9,2.7-3.1,2.6-6.3c0-3.4-2-5.8-2.6-6.5
			c-0.9-1-1.2-0.9-2.5-2.3C320.3,300.8,318.6,299.1,317.2,296.7z"/>
		<path class="st0" d="M321.6,319.5c-0.2,0.5,2.4,1.9,5.1,4.1c1.2,0.9,2.4,2.1,6.7,7.3c6.9,8.4,6.6,9,9.4,11.4
			c2.6,2.1,5,4.2,8.8,4.9c5.3,0.9,9.4-1.6,10-2c5.4-3.3,8.8-10.5,6.9-17.3c-1.5-5.3-6.4-10.9-12.9-11c-5.3-0.1-11.6,3.4-12.3,9.1
			c-0.6,4.8,3,10,7.2,11c1.7,0.4,4.2,0.3,5.1-1.2c1.2-1.8-0.4-5.2-2.3-6.2c-0.2-0.2-0.9-0.4-1.5-0.7c-2-1-2.1-0.9-2.4-1.2
			c-0.9-1-0.6-3.6,0.6-4.9c2-2.1,6.6-1.2,9.3,0.7c3.4,2.4,5.6,7.5,3.8,12.2c-1.6,4.1-5.8,6.4-9.3,6.4c-4.8,0.1-8.4-4.2-11.3-7.5
			c-1.1-1.3-0.8-1.2-2.3-3.1c-7-8.9-13.6-11.1-15.2-11.6C324.9,319.9,321.9,319,321.6,319.5z"/>
	</g>
	<g>
		<g>
			<path class="st0" d="M682.8,235.1c4.3-6.2,9.2-16.1,9.4-28.9c0.1-5.6-0.8-10.7-2-15.1c-3.2-11.1-12.2-19-23.1-19h-15.3v4.8h5.4
				v63.3h-5.4v1.8h5.4h12.5C675.2,241.9,679.6,239.8,682.8,235.1z M673.5,234.9c-2.5,1.8-5.1,2-6.6,2.1c0-20.1,0-40.2,0.1-60.3
				c1.2-0.2,3.3-0.4,5.6,0.7c0.7,0.3,2.8,1.5,4.8,4.8c2.9,5.2,3.1,11.7,3,25c0,9.2-0.1,13.2-1.6,18.5
				C677.4,230.8,675.8,233.3,673.5,234.9z"/>
			<path class="st0" d="M714.9,171.9c-11.8,0-21.4,15.7-21.4,35.2s9.6,35.2,21.4,35.2c11.8,0,21.4-15.7,21.4-35.2
				C736.3,187.6,726.7,171.9,714.9,171.9z M714.9,238.5c-6.7,0-10.9-16.3-10.9-31.5c0-15.1,4.3-30.3,10.9-30.3s11.3,15.2,11.3,30.3
				C726.2,222.1,721.6,238.5,714.9,238.5z"/>
		</g>
		<g>
			<polygon class="st0" points="417.3,239.1 414.8,239.1 414.8,242.1 424.8,242.1 424.8,239.1 422.2,239.1 422.5,192.7 424.5,192.7 
				434.6,242.1 441.4,242.1 450.3,193.4 452.3,193.4 452.3,238.7 449.8,238.7 449.9,242.1 462.4,242.1 462.4,238.8 459.9,238.8 
				459.9,175.7 464.3,175.7 464.3,173.3 446.2,173.3 446.2,181.9 437.9,215.6 429.8,181.6 429.9,173.3 411.5,173.3 411.5,176 
				417.3,176 			"/>
			<path class="st0" d="M505.6,171.9c-2.2-0.1-4.4,0.1-6.5,0c0,17.1-0.1,36.2-0.2,53.4c0,3.3-1.2,6.6-3.6,8.7
				c-0.6,0.5-1.3,0.9-2,1.3c-1.1,0.5-2.3,0.8-3.6,0.8c-5.8,0.1-10.4-5.3-10.4-11.5c-0.1-16.9,0.1-35.8,0-52.6c-4.6,0-9.4,0-14.1,0
				v4.3h5.1c0,17.3,0.1,34.7,0.1,52.1c0,1.9,0.4,3.9,1.3,5.6c2.7,4.8,7.4,8,12.5,8.3c6.9,0.4,13.5-4.6,15.8-12.2
				c0.3-1,0.4-2.1,0.4-3.1v-50.2h5.2V171.9L505.6,171.9z"/>
			<path class="st0" d="M588.5,228.8c0,1.8,0.4,3.7,1.3,5.4c2.7,4.6,7.4,7.7,12.5,7.9c6.9,0.3,13.5-4.5,15.8-11.7
				c0.3-0.9,0.4-2,0.4-3v-47.8h5.2v-4.6c-2.2,0-4.4,0.1-6.5,0c0,16.4-0.1,34.7-0.2,51.1c0,3.2-1.2,6.3-3.6,8.3
				c-0.6,0.5-1.3,0.9-2,1.2c-1.1,0.5-2.3,0.8-3.6,0.8c-5.8,0.1-10.4-5.1-10.4-11c-0.1-16.2,0.1-34.3,0-50.4c-4.6,0-9.4,0-14.1,0v4.1
				h5.1C588.4,195.6,588.4,212.2,588.5,228.8z"/>
			<path class="st0" d="M548.8,211c-0.5-1.1-3.1-6.8-9-9.7c-2.2-1.1-3.4-1.1-11.5-4c-3.3-1.2-5.1-2.3-6.8-3.5
				c-2.9-2-4.7-3.3-5.5-5.4c-1.8-4.9,3-9.7,3.5-10.2c0.8-0.8,2.5-2.5,5.5-3.3c3-0.8,8.1-0.9,9.7,1.8c1.2,2.1,0,5.4-1.8,6
				c-1.1,0.4-1.8-0.3-2.9,0.1c-1.4,0.5-2.1,2.6-1.8,4c0.7,2.7,6.8,4.7,10.4,2.7c3.6-2,4-7.5,2.1-10.8c-3.3-5.6-14.6-7.5-21.4-2.8
				c-5.9,4-6.6,11.7-5,16.7c1.6,4.7,5.7,7.8,10.3,11.2c3.8,2.8,5.3,3,8.9,6.2c2.7,2.3,5.6,4.9,7.1,8.1c3.1,7,0,20.2-10.8,22.9
				c-8.4,2.1-17.4-3.2-20.2-9.9c-0.1-0.4-3-7.4,1.2-11.8c1.3-1.3,4-3.3,6.6-2.7c3.2,0.7,3.5,4.5,6.2,4.6c2,0.1,3.9-1.8,4.5-3.6
				c0.9-2.6-0.6-5.3-2.3-6.6c-3.6-2.7-9.7-1.1-13.2,1c-5.4,3.3-7.9,9.8-6.9,15.5c1.5,8.9,10.8,12.6,12.1,13.1
				c8.8,3.4,18.5,0.4,24.4-4.6C550.1,229.5,552.4,219,548.8,211z"/>
			<path class="st0" d="M574.3,242.1h8.3v-5.7v-12h-7.4c2.5,4,2.8,8.7,0.9,12.1c-1.2,2-2.9,3.1-3.9,3.6h-10.9c0-11.6,0-23.2,0-34.7
				h7.1v4.8h2.4v-15.2h-2.4v5.1h-7.1v-23.5l11.8-0.2c1.7-0.1,3,0.8,3.2,1.9c0.2,1.1-0.6,2.4-1.4,2.9c-2.1,1.7-4.5-0.3-5.6,0.9
				c-1,1.2-0.3,4.5,1.3,5.8c2.6,2,7.9-0.7,9-4.4c0.7-2.4-0.2-5.4-0.8-7.1c-0.3-0.9-0.6-2-0.8-2c-10.5,0-20.9,0-31.4,0v4.3h4.9v63.6
				H574.3z"/>
		</g>
		<g>
			<path class="st0" d="M819.1,239.6v2.6h1.6h27.7v-17.4h-6.7c2.2,3.9,2.5,8.6,0.8,11.9c-1.1,2-2.6,3-3.5,3.5h-9.8
				c0-11.4,0-22.7,0-34.1l0,0v-5.2h0v-23.2l6.7-0.1v-2c-9.3,0-10.3,0-19.6,0v4.2h4.4v59.9H819.1z"/>
			<path class="st0" d="M957.8,174c-10.8,0-19.6,15.2-19.6,34.1s8.8,34.1,19.6,34.1s19.6-15.2,19.6-34.1
				C977.4,189.3,968.6,174,957.8,174z M957.8,238.6c-6.1,0-10-15.8-10-30.5c0-14.7,3.9-29.3,10-29.3s10.4,14.7,10.4,29.3
				C968.2,222.8,964,238.6,957.8,238.6z"/>
			<path class="st0" d="M755.5,239.8c-1.1,0-2.3,0-3.3,0c0,0.8,0,1.6,0.1,2.3c3.3,0,6.7-0.1,10-0.1c-0.1-8.9-0.1-17.8-0.2-26.6
				c1.7,0,4.8-0.2,8.2-1.9c0.8-0.4,2.6-1.2,4.1-2.9c3.1-3.4,6.7-8.9,6.8-16.1c0.1-3.1-0.5-5.9-1.5-8.4c-2.3-6.2-8.8-10.6-16.6-10.6
				h-11v2.7h3.9C755.7,198.7,755.6,219.3,755.5,239.8z M762.9,178.1c0.9-0.1,2.4-0.2,4,0.4c0.5,0.2,2.7,0.4,4.3,2
				c2.8,2.9,4.7,4.9,4.7,12.3c0,5.1-0.4,7.4-1.5,10.4c-1,2.8-5.2,6.3-6.9,7.2c-1.8,1-3.7,1.1-4.7,1.2
				C762.8,200.5,762.9,189.3,762.9,178.1z"/>
			<path class="st0" d="M931.9,200.8v-23.2v-2l-10.6,0v3.5h3.5v61.6l0,0v1.4h7v-2c0-11.4,0-22.7,0-34.1L931.9,200.8L931.9,200.8z"/>
			<path class="st0" d="M873.6,242.2h14.7v-2.8h-2.8l-9.7-63.8H862v1.3l2.6,0l-12.7,63.3H850v2h9.1v-1.9h-2.5l2.1-13.3
				c2.2,1.8,5.8,2,7.9,0c2.4-2.2,2.7-6.8,1.2-8.1c-0.8-0.7-2.4-0.7-3.2,0.1c-0.5,0.5-0.9,1.3-0.8,2c0,0.9,0.5,1.2,0.4,1.6
				c-0.2,0.9-2.3,1.5-3.3,0.8c-1.4-1.1-1.3-5.3,0.7-7.5c2.1-2.3,6.1-2.1,8.4-0.4c1.5,1.2,2.2,2.9,2.7,4.5l2.9,20.2h-2V242.2
				L873.6,242.2z M870.1,213.1c-2.4-0.5-6.3-1.3-9.4,1.1l5-31.5h1.7l4.4,30.8C871.2,213.3,870.7,213.2,870.1,213.1z"/>
			<path class="st0" d="M801.6,242.2h14.7v-2.8h-2.8l-9.7-63.8H790v1.3l2.6,0l-12.7,63.3H778v2h9.1v-1.9h-2.5l2.1-13.3
				c2.2,1.8,5.8,2,7.9,0c2.4-2.2,2.7-6.8,1.2-8.1c-0.8-0.7-2.4-0.7-3.2,0.1c-0.5,0.5-0.9,1.3-0.8,2c0,0.9,0.5,1.2,0.4,1.6
				c-0.2,0.9-2.3,1.5-3.3,0.8c-1.4-1.1-1.3-5.3,0.7-7.5c2.1-2.3,6.1-2.1,8.4-0.4c1.5,1.2,2.2,2.9,2.7,4.5l2.9,20.2h-2L801.6,242.2
				L801.6,242.2z M798.1,213.1c-2.4-0.5-6.3-1.3-9.4,1.1l5-31.5h1.7l4.4,30.8C799.2,213.3,798.6,213.2,798.1,213.1z"/>
			<path class="st0" d="M871.6,168c-1,0.8-1.8,1.4-2.4,1.8c0.1,0.8,0.4,1.7,1.2,2.2c1,0.5,1.9-0.2,5.1-1.5c0.7-0.3,0.7-0.2,1.7-0.6
				c1.4-0.5,2.6-1,3.4-1.3c-0.3-1.2-1.1-4.2-2.8-4.6c-0.1,0-0.1,0-0.2,0"/>
			<path class="st0" d="M916.7,223.7c-1.2-0.8-3.3-0.1-3.9,1.1c-0.4,0.9,0.2,1.7,0.8,4.1c0.5,2.1,1,3.9,0.6,5.6
				c-0.6,2.2-2.7,4.1-4.9,4.6c0,0,0,0,0,0c0,0-0.1,0-0.1,0c-0.6,0.1-1.5,0.4-2.5,0.1c-0.8-0.2-1.6-0.7-1.6-0.7c0,0,0,0,0,0s0,0,0,0
				c-0.7-0.3-1.6-0.9-2.6-2c-6.4-7.6-5.7-28.1-5.7-28.1c0.5-14.3,1.2-30.5,7.7-32.7c1.5-0.5,4.3-0.6,6.3,1c1.7,1.4,2.1,3.4,2.7,5.8
				c0.4,1.8,1.2,5.7-0.2,10.4c-0.3,1.1-2.3,7.4-5.3,7.5c-1.7,0-3.7-2.1-3.4-3c0.2-0.5,1-0.3,1.7-1.1c0.9-1,1.2-3.2,0.1-4.5
				c-1-1.2-2.7-1-2.8-1c-2.3,0.4-3.2,3.3-3.3,3.7c-1,3.2,0.9,6.1,1.1,6.3c2.1,3.1,6.7,4.6,9.6,3.2c6.7-3.1,9-23.3,1.2-29
				c-4-2.9-10.4-2-14.8,1.1c-16.1,11.5-11.7,58.4,2.9,64.5c0.5,0.2,1.1,0.4,1.7,0.5l0,0v0c0.9,0.2,2,0.4,3.3,0.4
				c2.8,0.1,5.1-0.7,6.6-1.3c1.8-0.9,3.4-2.1,4.5-3.8C919.3,232.3,919.1,225.1,916.7,223.7z"/>
		</g>
	</g>
</g>
</svg>
