<?xml version="1.0" encoding="utf-8"?>
<!-- Generator: Adobe Illustrator 25.0.0, SVG Export Plug-In . SVG Version: 6.00 Build 0)  -->
<svg version="1.1" id="Layer_1" xmlns="http://www.w3.org/2000/svg" xmlns:xlink="http://www.w3.org/1999/xlink" x="0px" y="0px"
	 viewBox="0 0 1000 1000" style="enable-background:new 0 0 1000 1000;" xml:space="preserve">
<style type="text/css">
	.st0{fill:#BA9956;}
</style>
<g>
	<polygon class="st0" points="184.3,557.9 179.2,557.9 179.2,564.2 200.3,564.2 200.3,557.9 194.7,557.9 195.4,459.9 199.5,459.9 
		221,564.2 235.2,564.2 254.1,461.3 258.3,461.3 258.3,557 253,557 253.2,564.2 279.6,564.2 279.6,557.2 274.4,557.2 274.4,424 
		283.7,424 283.7,419 245.4,419 245.4,437.2 227.9,508.3 210.8,436.4 211,419 172.2,419 172.2,424.7 184.4,424.7 	"/>
	<path class="st0" d="M370.8,416c-4.6-0.2-9.2,0.2-13.8,0c-0.1,36.2-0.3,76.5-0.4,112.7c0,7-2.6,13.9-7.7,18.3
		c-1.3,1.1-2.7,2-4.3,2.8c-2.4,1.1-4.9,1.7-7.5,1.7c-12.2,0.3-21.9-11.2-22-24.3c-0.2-35.6,0.2-75.5,0.1-111.1
		c-9.7,0.1-19.9-0.1-29.7,0v9h10.7c0.1,36.6,0.2,73.3,0.3,109.9c0,4.1,0.9,8.3,2.8,11.8c5.8,10.2,15.7,16.9,26.4,17.5
		c14.6,0.8,28.5-9.8,33.3-25.8c0.6-2.1,0.8-4.4,0.8-6.6V426h11V416z"/>
	<path class="st0" d="M545.7,536.1c0,3.9,0.9,7.9,2.8,11.3c5.8,9.8,15.7,16.2,26.4,16.7c14.6,0.7,28.5-9.4,33.3-24.7
		c0.6-2,0.8-4.2,0.8-6.4V432h11v-9.7c-4.6-0.1-9.2,0.2-13.8,0c-0.1,34.7-0.3,73.2-0.4,107.9c0,6.7-2.6,13.3-7.7,17.5
		c-1.3,1-2.7,1.9-4.3,2.6c-2.4,1-4.9,1.6-7.5,1.6c-12.2,0.3-21.9-10.7-22-23.3c-0.2-34.1,0.2-72.3,0.1-106.4
		c-9.7,0.1-19.9-0.1-29.7,0v8.6h10.7C545.5,466,545.6,501.1,545.7,536.1z"/>
	<path class="st0" d="M461.9,498.6c-1.1-2.4-6.5-14.3-19.1-20.5c-4.7-2.3-7.2-2.3-24.2-8.4c-7-2.6-10.7-4.9-14.3-7.4
		c-6.2-4.3-9.9-6.9-11.6-11.5c-3.7-10.3,6.4-20.5,7.3-21.5c1.6-1.6,5.3-5.2,11.6-6.9c6.3-1.7,17.2-1.9,20.5,3.9
		c2.5,4.4,0,11.4-3.8,12.7c-2.3,0.8-3.7-0.7-6.1,0.2c-2.9,1.1-4.5,5.4-3.8,8.4c1.4,5.8,14.4,9.9,22,5.7c7.7-4.2,8.5-15.9,4.5-22.8
		c-6.9-11.9-30.8-15.8-45.2-6c-12.5,8.5-14,24.7-10.5,35.2c3.4,9.9,12.1,16.5,21.8,23.7c8,6,11.1,6.4,18.8,13.1
		c5.6,4.9,11.9,10.4,14.9,17c6.6,14.8-0.1,42.6-22.7,48.3c-17.7,4.4-36.8-6.8-42.7-20.8c-0.3-0.8-6.3-15.6,2.5-24.9
		c2.7-2.8,8.5-7,14-5.8c6.8,1.4,7.4,9.5,13.1,9.8c4.2,0.2,8.2-3.9,9.6-7.7c2-5.4-1.2-11.1-4.8-13.9c-7.5-5.8-20.5-2.3-27.9,2.2
		c-11.4,7-16.7,20.7-14.6,32.8c3.2,18.7,22.7,26.6,25.5,27.7c18.5,7.2,39.1,0.9,51.6-9.7C464.7,537.6,469.5,515.4,461.9,498.6z"/>
	<path class="st0" d="M811,851.6c-4.3-2.3-6.5-2.2-21.7-8.2c-6.3-2.5-9.6-4.8-12.8-7.3c-5.5-4.2-8.9-6.8-10.4-11.3
		c-3.3-10.1,5.7-20.1,6.6-21.1c1.4-1.5,4.8-5.1,10.4-6.7c5.7-1.6,15.5-1.9,18.4,3.8c2.2,4.3,0,11.1-3.4,12.5c-2,0.8-3.4-0.7-5.5,0.2
		c-2.6,1-4.1,5.3-3.4,8.2c1.3,5.7,12.9,9.7,19.8,5.6c6.9-4.1,7.7-15.6,4.1-22.4c-6.2-11.6-27.7-15.5-40.7-5.8
		c-11.2,8.3-12.6,24.2-9.4,34.5c3.1,9.7,10.9,16.1,19.6,23.3c7.2,5.9,10,6.3,16.9,12.8c5.1,4.8,10.7,10.2,13.4,16.7
		c6,14.6-0.1,41.8-20.5,47.3c-15.9,4.3-33.1-6.7-38.4-20.3c-0.3-0.8-5.6-15.3,2.3-24.4c2.4-2.8,7.6-6.9,12.6-5.7
		c6.1,1.4,6.6,9.3,11.8,9.6c3.8,0.2,7.4-3.8,8.6-7.5c1.8-5.3-1.1-10.9-4.3-13.6c-6.7-5.7-18.5-2.2-25.1,2.2
		c-10.3,6.9-15,20.3-13.1,32.1c2.9,18.3,20.4,26.1,23,27.1c16.6,7,35.2,0.8,46.4-9.5c14.7-13.5,19-35.3,12.1-51.7
		C827.2,869.3,822.3,857.7,811,851.6z"/>
	<path class="st0" d="M400.5,851.6c-4.3-2.3-6.5-2.2-21.7-8.2c-6.3-2.5-9.6-4.8-12.8-7.3c-5.5-4.2-8.9-6.8-10.4-11.3
		c-3.3-10.1,5.7-20.1,6.6-21.1c1.4-1.5,4.8-5.1,10.4-6.7c5.7-1.6,15.5-1.9,18.4,3.8c2.2,4.3,0,11.1-3.4,12.5c-2,0.8-3.4-0.7-5.5,0.2
		c-2.6,1-4.1,5.3-3.4,8.2c1.3,5.7,12.9,9.7,19.8,5.6c6.9-4.1,7.7-15.6,4.1-22.4c-6.2-11.6-27.7-15.5-40.7-5.8
		c-11.2,8.3-12.6,24.2-9.4,34.5c3.1,9.7,10.9,16.1,19.6,23.3c7.2,5.9,10,6.3,16.9,12.8c5.1,4.8,10.7,10.2,13.4,16.7
		c6,14.5-0.1,41.8-20.5,47.3c-15.9,4.3-33.1-6.6-38.4-20.3c-0.3-0.8-5.6-15.3,2.3-24.4c2.4-2.8,7.6-6.9,12.6-5.7
		c6.1,1.4,6.6,9.3,11.8,9.6c3.8,0.2,7.4-3.8,8.6-7.5c1.8-5.3-1.1-10.9-4.3-13.6c-6.7-5.7-18.5-2.2-25.1,2.2
		c-10.3,6.9-15,20.3-13.1,32.1c2.9,18.3,20.4,26.1,23,27.1c16.6,7,35.2,0.8,46.4-9.5c14.7-13.5,19-35.3,12.1-51.7
		C416.7,869.3,411.9,857.7,400.5,851.6z"/>
	<path class="st0" d="M732.8,924.4c-2.4,4.2-5.9,6.2-8,7.2h-22.5c0-23.6,0.1-47.2,0.1-70.8h14.6v9.7h4.9v-31h-4.9v10.4h-14.6v-48
		l24.5-0.5c3.4-0.2,6.1,1.6,6.6,3.9c0.5,2.3-1.3,4.8-2.8,6c-4.4,3.4-9.4-0.7-11.7,2c-2,2.4-0.7,9.1,2.8,11.8
		c5.4,4,16.3-1.4,18.6-8.9c1.5-4.9-0.5-11.1-1.6-14.5c-0.6-1.7-1.2-4.2-1.6-4.2c-21.6,0-43.1,0-64.7,0v8.7h10v129.7h63.8v-36.1H731
		C736,907.8,736.8,917.5,732.8,924.4z"/>
	<path class="st0" d="M579.7,924.4c-2.4,4.2-6,6.2-8.1,7.2H549c0-23.6,0.1-47.2,0.1-70.8h14.6v9.7h4.9v-31h-4.9v10.4h-14.6v-48
		l24.6-0.5c3.4-0.2,6.1,1.6,6.7,3.9c0.5,2.3-1.3,4.8-2.9,6c-4.4,3.4-9.4-0.7-11.7,2c-2.1,2.4-0.7,9.1,2.8,11.8
		c5.4,4,16.4-1.4,18.7-8.9c1.5-4.9-0.5-11.1-1.6-14.5c-0.6-1.7-1.2-4.2-1.6-4.2c-21.6,0-43.3,0-64.9,0v8.7h10.1v129.7h64v-36.1
		h-15.3C583,907.8,583.7,917.5,579.7,924.4z"/>
	<path class="st0" d="M369,770.8v7.5h4.8H455v-51h-19.5c6.4,11.4,7.3,25.1,2.3,34.8c-3.1,5.9-7.6,8.8-10.2,10.2h-28.7
		c0-33.3,0.1-66.6,0.1-100H399V657h0.1v-68l19.5-0.2V583c-27.4,0-30.1,0-57.5,0v12.3h12.8v175.5H369z"/>
	<path class="st0" d="M506.4,924.4c-2.3,4.2-5.6,6.2-7.5,7.2h-7.4h-13.8l0-15.7h0c0-18.4,0-36.8,0.1-55.1h0v-10.9h0v-48.2l14.4-0.1
		v-4.1c-20.3,0-22.2,0-42.5,0v8.7h9.4v109.7v13.7h-5.4v6.2h5.4h32.4h27.6v-36.1h-14.4C509.5,907.8,510.2,917.5,506.4,924.4z"/>
	<path class="st0" d="M715.1,549.3c9.1-13.1,19.5-33.9,19.9-61.1c0.2-11.9-1.6-22.6-4.3-31.9c-6.8-23.4-25.8-40.2-48.8-40.2h-32.2
		v10.2h11.5v133.6h-11.5v3.8h11.5h26.3C699.1,563.7,708.3,559.1,715.1,549.3z M695.5,548.8c-5.2,3.7-10.7,4.3-13.9,4.4
		c0.1-42.4,0.1-84.8,0.2-127.2c2.5-0.4,7-0.8,11.8,1.5c1.5,0.7,6,3.1,10.1,10.2c6.1,10.9,6.5,24.7,6.4,52.8c0,19.4-0.2,27.9-3.4,39
		C703.7,540.1,700.3,545.4,695.5,548.8z"/>
	<path class="st0" d="M199.2,789.6H167v10.1h11.5v129.7H167v6.5h11.5h26.3c11.5,0,20.7-4.5,27.6-14.3c9.1-13,19.5-33.6,19.9-60.5
		c0.2-11.8-1.6-22.4-4.3-31.6C241.2,806.2,222.2,789.6,199.2,789.6z M227.3,863.3c0,19.2-0.2,27.6-3.4,38.7
		c-3,10.5-6.4,15.7-11.2,19.1c-5.2,3.7-10.7,4.3-13.9,4.4c0.1-42,0.1-84.1,0.2-126.1c2.5-0.4,7-0.8,11.8,1.5
		c1.5,0.7,6,3.1,10.1,10.2C227,821.8,227.4,835.5,227.3,863.3z"/>
	<path class="st0" d="M782.8,415.8c-24.9,0-45.1,33.2-45.1,74.2c0,41,20.2,74.2,45.1,74.2c24.9,0,45.1-33.2,45.1-74.2
		C828,449,807.8,415.8,782.8,415.8z M782.8,556.4c-14.1,0-23.1-34.5-23.1-66.4s9-63.9,23.1-63.9s23.9,32,23.9,63.9
		S797,556.4,782.8,556.4z"/>
	<path class="st0" d="M775.7,578.5c-31.7,0-57.4,44.7-57.4,99.9c0,55.2,25.7,99.9,57.4,99.9c31.7,0,57.4-44.7,57.4-99.9
		C833,623.2,807.4,578.5,775.7,578.5z M775.7,767.8c-18,0-29.4-46.4-29.4-89.4c0-43,11.4-86,29.4-86c18,0,30.4,43.1,30.4,86
		C806,721.4,793.7,767.8,775.7,767.8z"/>
	<path class="st0" d="M636.2,789.6c-23.7,0-42.9,32.7-42.9,73.1c0,40.4,19.2,73.1,42.9,73.1c23.7,0,42.9-32.7,42.9-73.1
		C679,822.4,659.8,789.6,636.2,789.6z M636.2,928.2c-13.4,0-22-34-22-65.4c0-31.4,8.5-63,22-63c13.4,0,22.7,31.5,22.7,63
		C658.9,894.2,649.6,928.2,636.2,928.2z"/>
	<path class="st0" d="M296.6,796.7c-21.6,0-39.1,31.1-39.1,69.6c0,38.4,17.5,69.6,39.1,69.6c21.6,0,39.1-31.1,39.1-69.6
		C335.8,827.8,318.3,796.7,296.6,796.7z M296.6,928.6c-12.3,0-20-32.4-20-62.3c0-29.9,7.8-59.9,20-59.9c12.3,0,20.7,30,20.7,59.9
		C317.4,896.2,308.9,928.6,296.6,928.6z"/>
	<path class="st0" d="M182.6,771.4c-3.3,0-6.6,0.1-9.8,0.1c0.1,2.3,0.1,4.6,0.2,6.8c9.7-0.1,19.5-0.2,29.2-0.4
		c-0.2-26-0.3-52.1-0.5-78.1c5.1,0,14.1-0.7,23.9-5.7c2.4-1.2,7.6-3.4,12.1-8.4c9.1-10.1,19.5-26.1,19.9-47.1
		c0.2-9.2-1.6-17.4-4.3-24.6c-6.8-18.1-25.8-31-48.8-31h-32.2v7.8h11.5C183.3,651,182.9,711.2,182.6,771.4z M204.3,590.6
		c2.5-0.3,7-0.6,11.8,1.1c1.5,0.5,8,1.1,12.7,5.9c8.2,8.4,13.8,14.4,13.7,36c0,15-1.3,21.8-4.4,30.5c-3,8.1-15.3,18.5-20.1,21.2
		c-5.2,2.9-10.7,3.3-13.9,3.4C204.1,656,204.2,623.3,204.3,590.6z"/>
	<path class="st0" d="M699.8,657v-68v-5.9l-31-0.1v10.4h10.4V774h0v4.2h20.6l0-6c0-33.3,0.1-66.6,0.1-100V657z"/>
	<path class="st0" d="M528.9,778.3h43.2V770H564l-28.5-187h-40.7l0,3.9l7.5-0.1L465,772.3h-5.3v5.9h26.6v-5.7H479l6.2-39.1
		c6.4,5.2,16.9,5.8,23.3-0.1c7-6.5,8-19.9,3.6-23.8c-2.3-2-6.9-2.1-9.5,0.4c-1.5,1.4-2.5,3.8-2.4,6c0.1,2.6,1.6,3.4,1.2,4.8
		c-0.7,2.5-6.7,4.4-9.7,2.2c-4.2-3.2-3.8-15.5,2-22c6.2-6.8,17.9-6.3,24.7-1.1c4.5,3.5,6.5,8.6,7.8,13.2l8.5,59.3h-5.8V778.3z
		 M518.6,693.1c-6.9-1.5-18.4-3.8-27.6,3.1l14.6-92.3h5l12.9,90.3C521.9,693.8,520.2,693.4,518.6,693.1z"/>
	<path class="st0" d="M317.8,778.3H361V770h-8.1l-28.5-187h-40.7l0,3.9l7.5-0.1l-37.3,185.5h-5.3v5.9h26.6v-5.7h-7.4l6.2-39.1
		c6.4,5.2,16.9,5.8,23.3-0.1c7-6.5,8-19.9,3.6-23.8c-2.3-2-6.9-2.1-9.5,0.4c-1.5,1.4-2.5,3.8-2.4,6c0.1,2.6,1.6,3.4,1.2,4.8
		c-0.7,2.5-6.7,4.4-9.7,2.2c-4.2-3.2-3.8-15.5,2-22c6.2-6.8,17.9-6.3,24.7-1.1c4.5,3.5,6.5,8.6,7.8,13.2l8.5,59.3h-5.8V778.3z
		 M307.5,693.1c-6.9-1.5-18.4-3.8-27.6,3.1l14.6-92.3h5l12.9,90.3C310.7,693.8,309,693.4,307.5,693.1z"/>
	<path class="st0" d="M516.7,580.5c2.9,1.6,5.7-0.7,15-4.5c2.1-0.8,2-0.7,5.1-1.9c4.2-1.6,7.6-2.9,9.9-3.9
		c-0.8-3.6-3.2-12.4-8.3-13.4c-0.2,0-0.4,0-0.7-0.1v12h-17.6c-2.9,2.2-5.3,4.1-7,5.4C513.5,576.3,514.4,579.2,516.7,580.5z"/>
	<path class="st0" d="M515.7,564.2h17.6v-12v-25.4h-15.6c5.2,8.4,5.9,18.4,1.8,25.5c-2.5,4.3-6.1,6.5-8.2,7.5h-23.1
		c0-24.4,0.1-48.9,0.1-73.3h14.9v10.1h5v-32.1h-5v10.8h-14.9v-49.7l25-0.5c3.5-0.2,6.3,1.7,6.8,4c0.5,2.4-1.3,5-2.9,6.2
		c-4.5,3.5-9.6-0.7-11.9,2c-2.1,2.5-0.7,9.4,2.8,12.2c5.5,4.2,16.7-1.5,19.1-9.3c1.5-5-0.5-11.4-1.6-15c-0.6-1.8-1.2-4.3-1.6-4.3
		c-22.1,0-44.1,0-66.2,0v9h10.3v134.3H515.7z"/>
	<path class="st0" d="M655.2,724.1c-3.6-2.2-9.8-0.3-11.5,3.3c-1.3,2.7,0.6,5.1,2.4,12c1.6,6.3,3,11.5,1.7,16.4
		c-1.7,6.4-7.9,11.9-14.5,13.4c1.4,0.5,2.4,1.1,3.1,1.5c1.3,0.7,2.9,1.5,4.6,2.2c5.4-2.6,10.1-6.2,13.3-11
		C662.8,749.4,662.2,728.3,655.2,724.1z"/>
	<path class="st0" d="M606.9,773.8c1.6,0.7,3.3,1.2,5.1,1.6c2-3.2,5.3-6.4,8.9-7.7c-2.1-0.9-4.8-2.6-7.6-5.9
		c-18.9-22.2-16.6-82.5-16.6-82.5c1.6-41.8,3.4-89.4,22.7-95.9c4.4-1.5,12.7-1.9,18.6,2.9c4.9,4,6.2,9.9,7.8,17.1
		c1.1,5.2,3.5,16.8-0.7,30.5c-1,3.3-6.7,21.7-15.6,21.9c-5.1,0.1-10.7-6.1-9.9-8.8c0.5-1.6,3-0.9,5.1-3.3c2.7-2.9,3.5-9.3,0.3-13.1
		c-3-3.6-7.8-3-8.1-2.9c-6.7,1.1-9.5,9.7-9.8,10.9c-2.9,9.4,2.6,17.9,3.1,18.5c6.1,9.2,19.7,13.4,28.1,9.4
		c19.7-9.1,26.4-68.3,3.4-85c-11.7-8.5-30.5-5.8-43.4,3.3C551,618.5,563.9,755.9,606.9,773.8z"/>
	<path class="st0" d="M615.7,788.3c3.7-0.3,4.5-4.6,7.5-6.1c5.7-3.1,12.4,7.8,21.1,6.3c7.9-1.4,14.2-12.4,12.2-15.8
		c-0.6-1-2.1-1.5-3.3-1.4c-3,0.4-2.8,4.9-6.1,6.3c-2,0.9-4.4,0.3-6.8-0.6c-1.7-0.7-3.2-1.5-4.6-2.2c-0.7-0.4-1.7-0.9-3.1-1.5
		c-1.1-0.4-2.4-0.9-4-1.1c-0.7-0.1-1.4-0.2-1.7-0.2c-1.2,0-2.3,0.2-3.4,0.6c-3.6,1.3-6.9,4.5-8.9,7.7c-1.9,2.9-2.7,5.8-1.8,7
		C613.4,788.5,615.3,788.4,615.7,788.3z"/>
	<path class="st0" d="M506.2,94.6c4.9-1.2,6.1-1.3,7.7-2.3c2.3-1.4,3.1-3.1,4.6-5.2c6.1-8.8,15.6-14.4,21.2-15.8
		c0.5-0.1,1.6-0.4,1.6-0.5c0-0.2-8.3,0.5-14.9,2.5c-17.4,5.3-28.9,21.1-27.5,22.9C499.2,96.5,499.5,96.2,506.2,94.6z"/>
	<path class="st0" d="M483.7,177c2.4,10.2,4.9,12.9,5.8,22.9c0.3,3.5,0.5,7.5,1.5,7.6c0.8,0.1,2.1-2.4,2.2-4.8
		c0.1-1.3-0.2-2-0.9-4.5c-1.1-3.9-0.8-3.4-1.5-5.8c-1.4-4.5-2.2-4.9-3-8c-0.5-2.1-0.7-3.8-0.7-6.5c-0.1-3.7-0.1-13.4,2.4-28.7
		c1.1-6.7,1.7-8.2,2.4-9.7c1-1.9,2.1-3.2,2.4-5.6c0.4-2.6-0.4-4.6-0.7-5.9c-2.3-7.5,0-16.4,2.2-24.9c0.8-3,1.3-4.3,1-4.5
		c-1-0.5-8.7,9.1-12.9,20.7c-4.1,11.4-3.7,21.3-3,35.2C481.3,161.9,481.6,168.5,483.7,177z"/>
	<path class="st0" d="M452.2,236.7c8.8,4.5,23.1-11.5,22.4-12.6c-0.6-0.9-14,8.7-18.6,4.7c-2.4-2.1-1.1-6.5-3.8-7.7
		c-1.6-0.7-3.9,0.1-4.9,1.5C444.6,225.9,447.4,234.2,452.2,236.7z"/>
	<path class="st0" d="M399.3,327.3c0.6,0-0.1-4.4,2.8-8.2c0.6-0.7,2.9-3.7,6.3-4.1c2.6-0.3,4.7,1,5.6,0c0.6-0.7,0.2-1.9,0.2-2.2
		c-1.1-4,2.7-16.2,8.8-25.6c3.7-5.7,9.5-14.7,19-18.1c0.9-0.3,6.6-2.3,6.3-3.7c-0.1-0.8-1.8-0.6-2.8-2c-1.1-1.6-0.6-4.1,0.4-5.6
		c1-1.5,2.4-2.2,2.8-2.4c8.7-4.2,23.3-18.4,30.6-19.4c0.5-0.1,2.5-0.3,4.1-1.7c1-0.8,1.5-1.8,1.7-2.2c1.2-2.5,11.5-24.6,9.7-25.3
		c-0.9-0.4-2.9,5.8-9.9,13.8c-5.7,6.5-11,10.1-14.7,12.7c0,0-12.1,8.4-30.6,24.2c0,0-16.8,14.4-33,37.1c-2.8,3.9-8.3,12-8.8,22.5
		C397.6,322.5,398.7,327.4,399.3,327.3z"/>
	<path class="st0" d="M481.5,322.8c-0.3,1.4-0.6,2.3-0.4,2.3c0.7,0.3,8.9-11.1,10.1-25.3c0.5-5.7,1.1-12.5-2.8-18.6
		c-7.3-11.6-24.9-12.4-35.2-10.4c-13.9,2.6-23.3,11.7-22.9,12.5c0.4,0.7,9.8-6.7,24-7.3c4.9-0.2,16.8-0.7,23.8,7.2
		c5.7,6.5,5.6,15.7,5.5,21.6C483.4,315.2,481.5,322.8,481.5,322.8z"/>
	<path class="st0" d="M482.9,373.1c-0.6-0.1-0.4,0-2.2,0c-5.5,0.1-11.4,0.1-11.4,0.1c-6.3,0-11.4-0.1-12.5-0.1
		c-4.8-0.1-9.6,0.2-14.4-0.1c-0.2,0-1.1-0.1-2.1,0.1c-0.8,0.1-1.6,0.3-1.6,0.3c-0.8,0.2-1.5,0.5-2,0.7c0,0-0.9,0.5-1.9,1
		c-8.7,4.4-18.4,7.4-18.4,7.4c-13.6,4.2-27.5,5.9-27.4,6.3c0,0.1,0.8,0,2.7,0c0,0,0.2,0,8.7-0.1c89.6-0.6,134.5,0.1,134.5,0.1
		c23.9,0.4,47.8-1,71.6,0.6c0.1,0,9.7,0.6,9.8-0.1c0.1-0.6-6-1.2-15.3-4.2c-8.2-2.6-13.9-5.4-16.9-7c-1.7-0.9-3.1-1.7-5.9-3.4
		c-9.9-5.9-15.2-9-20.6-13.8c-3.6-3.3-5.4-4.9-6-5.5c-3-3.1-4-5-5.2-4.7c-1.6,0.4-0.8,4.1-4,7.2c-0.7,0.7-1.6,1.6-3,1.7
		c-1.8,0.2-2.8-1.1-4-0.5c-1,0.5-0.7,1.8-1.7,2.2c-0.8,0.4-2,0-2.7-0.5c-2-1.6,0.2-4.7-1.3-8.7c-1-2.8-3.8-5.8-7-6.3
		c-2.4-0.4-4.8,0.6-5.4-0.5c-0.3-0.4-0.1-0.9,0.1-1.5c0.5-2.5-1.1-5.4-2.6-6.7c-1.8-1.6-4.3-1.7-7.8-1.8c-2.7-0.1-4.1,0.3-4.3-0.2
		c-0.3-0.8,3.5-1.9,6.7-6.1c1.9-2.5,3.5-5.3,3.5-5.3c1.1-1.8,1.7-3.3,2.4-3.2c0.6,0.1,0.7,1.5,0.8,2c0.1,0.9,0.1,2.2-0.6,3.9
		c-0.9,2.3-2,3.1-1.7,3.7c0.2,0.3,0.6,0.2,2.5,0.2c2.4,0,2.3,0.1,2.9,0c1.5-0.3,1.8-1.1,3.7-2.3c0.9-0.6,2.9-1.8,5.4-1.9
		c2.2,0,3.8,0.8,4.2,1c2.2,1.2,3.1,3,3.6,2.8c0.3-0.2,0-1.1-0.2-2.8c0,0-0.1-1-0.1-3.6c0-7.9,2.1-15,2.1-15c2-6.6,5.1-17.2,14-21.1
		c3.6-1.6,6.9-1.4,12.1-1.2c6.8,0.3,11.8,0.5,15.8,4.1c5.3,4.7,7.7,13.6,5.1,19.1c-0.7,1.5-2.1,3.5-1.5,4.2c0.5,0.6,2.4,0.1,3.3-0.9
		c0.3-0.4,0.3-0.6,0.7-2c0.3-0.8,0.6-1.7,0.9-2.5c4.3-12.6,9.1-25.1,13-37.8c9.7-31.1,5.4-26.2,7.9-31.2c0.2-0.4,0.9-1.8,0.4-2.4
		c-1.2-1.4-7.9,2.8-18.4,9.5c-12,7.6-17,10.8-18.7,11.9c-12.1,7.6-33.4,20.9-49.8,14c-4-1.7-7.5-5.2-14.4-12.4
		c-10.6-10.9-17.3-22.2-17.5-22.1c-0.1,0,1.4,1.9,2.6,4.3c4.4,8.7,3.9,17.5,3,17.7c-0.8,0.1-2.2-6.4-6.7-9.9
		c-0.6-0.5-1.5-1.1-2.6-0.9c-1.6,0.2-2.4,2.1-3.1,3.2c-1.2,2-4,3.5-9.4,6.6c-2,1.1-6.3,3.5-10.4,4.5c-2.2,0.6-4.4,1.1-6.6,1.7
		c0,0-0.6,0.1-1.4,0.4c-1.2,0.3-3.3,0.9-3.3,1.1c0,0.2,1.7,0,2,0c2.9-0.3,6.3-0.1,13.1,0c5.8,0.1,9.7,0.2,14,2
		c1.6,0.7,8.7,3.9,12.3,11.5c1.5,3.1,2.2,6.4,2.1,11.9c0,4.1-0.5,16.4-8.1,32.4c-3.4,7.2-6.8,14.5-14,21.7
		c-7.2,7.3-16.2,16.4-22,18.8c-0.6,0.3-2.9,1.2-3,2.5c0,0.9,1.1,2,2.2,2.2c1,0.2,1.2-0.4,2.9-0.8c1-0.2,1,0,4-0.1
		c0.8,0,0.6,0,2.5-0.1c2.2-0.1,2.9-0.1,3.7,0.1c0.4,0.1,1,0.3,1.7,0.7c1.2,0.7,1.6,1.7,2.7,2.3c0.6,0.3,1,0.4,1.4,0.5
		c0.6,0.1,2.1,0.5,3.8-0.2c0.4-0.1,1.7-0.7,2.5-1.9c0.5-0.6,0.6-1.1,1.1-1.4c0.7-0.3,1.5,0.1,1.7,0.2c1.1,0.6,0.9,1.3,1.8,1.8
		c1.2,0.7,2.2-0.2,2.8,0.5c0.4,0.5,0.2,1.6-0.3,2C484,373.3,483.6,373.2,482.9,373.1z M502.5,344.1c1.8,0.1,4.5,1,5.3,3
		c0.7,1.7-0.6,2.7,0.2,4.1c0.9,1.5,2.8,0.8,4.9,2.1c2.8,1.7,4.1,5.9,3.3,9.3c-0.7,2.9-2.9,5.2-3.7,4.9c-0.8-0.3,0.5-3.3-0.7-7.8
		c-0.6-2-0.9-3.4-2.1-4.3c-2-1.6-4.8-1.2-5-2.3c0-0.2,0.1-0.3,0.4-1c0.6-1.3,1-2.2,0.9-2.8c-0.2-1.3-3.1-2.2-5.5-2.2
		c-3.3,0.1-5.2,1.8-5.4,1.6C494.7,348.1,497.9,343.8,502.5,344.1z M493.5,366.3c0.5-2.8-1.1-6.5-1.3-6.8c-0.5-1-1.1-2-0.9-2.2
		c0.3-0.2,1.8,2.3,4.2,2.5c1.8,0.2,3.2-1.1,3.4-0.8c0.2,0.3-1.2,1-1.9,2.6c-1.1,2.6,0.2,6.7,1.6,8c0.1,0.1,0.9,0.8,1,1.8
		c0,0.2,0.1,0.5-0.1,0.7c-0.3,0.5-1.4,0.2-2.5,0.1c-0.1,0-1.3,0-3.6,0c-3.7,0-4.3,0.3-4.4-0.1C488.7,371.3,492.9,369.8,493.5,366.3z
		"/>
	<path class="st0" d="M355.5,344.1c1.1-0.1,1.4-0.7,3-1.5c0,0,1.4-0.7,4.3-1.5c9.4-2.5,22,2.2,22,2.2c8.3,3.1,16.6,8.7,16,10.1
		c-0.7,1.5-12.1-3.3-34.7-6.3c-4.9-0.6-5.7-0.6-6.3-0.6c-14.9,1.2-34.3,22.1-27.4,39.9c5.4,14,24,17.8,35,15.8c3-0.5,8-1.5,11.6-5.8
		c4.4-5.3,3.5-11.8,3.4-12.6c-1.1-7.4-7.7-14.2-15.5-14.5c-6.6-0.3-14.6,4.1-14.9,9.7c-0.2,3.7,3,8.2,6.5,8.6c2,0.2,4.9-0.9,6.5-2.8
		c0.9-1.1,1.1-2,1.9-2c1.4-0.2,3.4,2.4,3.5,4.8c0.2,3.8-4.1,6.8-4.8,7.3c-6,3.9-16.4,2.9-22.5-3.4c-7.1-7.2-4.9-17.7-4.7-18.6
		c3-13,17.5-17.6,19.6-18.3c7.9-2.5,14.6-1.2,25.7,1.1c13.4,2.8,15.2,5.6,24,7.5c3.3,0.7,23.3,4.9,39.1-5.6
		c15.4-10.2,25.2-33.2,17.3-49.9c-5.2-10.9-18.9-20.8-28.7-17.2c-5.1,1.9-9.2,7.5-9.5,13.3c-0.4,7.1,4.7,15.1,10.1,15.1
		c3.6,0,6.9-3.6,8.4-6.9c2.8-6.3-1-12,1.3-13.6c1.9-1.3,6.2,1.1,8.8,3.4c9,7.8,7.7,22,7.6,22.9c-1.5,15.1-14.9,31.8-27.6,29.8
		c-6.6-1-12.9-7.2-14.7-14.2c-0.3-1.1-2.3-8.8,1.7-14.3c1.5-2.1,3.5-3.5,3.2-5.2c-0.5-2.2-4.2-3-4.8-3.2c-5.6-1.3-13.2,1.5-16.2,7.3
		c-2.3,4.4-1.5,10.1-1.5,10.4c0.3,2.4,1.1,3.7,0.6,4.1c-1.1,0.8-5.4-5.7-12.5-10.2c-1.8-1.1-14.1-9.1-23.3-4.7
		c-4.7,2.3-8.8,8-11.2,11.2c-1.1,1.4-1.4,2.4-3,4.1c-1,1-1.5,1.4-1.5,2C351.3,343,353.6,344.4,355.5,344.1z"/>
	<path class="st0" d="M623.6,343.4c0,0,12.6-4.7,22-2.2c2.9,0.8,4.3,1.5,4.3,1.5c1.6,0.8,1.9,1.4,3,1.5c2,0.2,4.2-1.1,4.3-2.4
		c0-0.7-0.5-1-1.5-2c-1.6-1.7-1.9-2.7-3-4.1c-2.4-3.2-6.5-8.9-11.2-11.2c-9.2-4.5-21.5,3.5-23.3,4.7c-7.1,4.6-11.3,11.1-12.5,10.2
		c-0.5-0.4,0.2-1.7,0.6-4.1c0-0.3,0.8-6-1.5-10.4c-3-5.7-10.6-8.5-16.2-7.3c-0.6,0.1-4.4,1-4.8,3.2c-0.4,1.8,1.7,3.1,3.2,5.2
		c3.9,5.5,2,13.2,1.7,14.3c-1.8,6.9-8.1,13.1-14.7,14.2c-12.6,2-26-14.7-27.6-29.8c-0.1-0.9-1.3-15.1,7.6-22.9
		c2.6-2.3,6.9-4.7,8.8-3.4c2.3,1.7-1.5,7.3,1.3,13.6c1.4,3.3,4.8,6.9,8.4,6.9c5.4,0,10.5-8,10.1-15.1c-0.3-5.8-4.4-11.4-9.5-13.3
		c-9.8-3.6-23.5,6.3-28.7,17.2c-7.9,16.7,1.9,39.7,17.3,49.9c15.8,10.5,35.8,6.3,39.1,5.6c8.9-1.9,10.6-4.6,24-7.5
		c11.1-2.3,17.8-3.6,25.7-1.1c2.1,0.7,16.6,5.3,19.6,18.3c0.2,1,2.4,11.4-4.7,18.6c-6.2,6.3-16.6,7.2-22.5,3.4
		c-0.8-0.5-5.1-3.4-4.8-7.3c0.2-2.4,2.1-5,3.5-4.8c0.8,0.1,0.9,1,1.9,2c1.7,1.9,4.5,3,6.5,2.8c3.6-0.4,6.7-4.8,6.5-8.6
		c-0.3-5.6-8.3-10-14.9-9.7c-7.8,0.3-14.3,7.1-15.5,14.5c-0.1,0.8-1,7.3,3.4,12.6c3.6,4.3,8.6,5.3,11.6,5.8c11,2,29.6-1.9,35-15.8
		c6.9-17.8-12.5-38.6-27.4-39.9c-0.6-0.1-1.5-0.1-6.3,0.6c-22.5,3-34,7.9-34.7,6.3C607,352.1,615.3,346.5,623.6,343.4z"/>
	<path class="st0" d="M278.4,390.2c1,0.6,7.8,4.7,16.4,3.2c6.3-1,10.3-4.4,14.4-8c4.6-3.9,4.2-4.9,15.4-18.6c7-8.5,9-10.4,10.9-11.9
		c4.5-3.6,8.8-5.9,8.4-6.7c-0.4-0.8-5.4,0.7-5.7,0.7c-2.6,0.8-13.4,4.4-24.8,18.9c-2.4,3-1.9,2.8-3.7,5
		c-4.6,5.4-10.5,12.2-18.4,12.2c-5.7,0-12.5-3.7-15.2-10.4c-3-7.6,0.6-16,6.2-19.9c4.5-3.1,11.9-4.6,15.2-1.2c2,2.1,2.5,6.3,1,8
		c-0.4,0.5-0.8,0.4-4,2c-1.1,0.5-2,1-2.5,1.2c-3,1.7-5.6,7.2-3.7,10.2c1.6,2.4,5.8,2.6,8.4,2c6.8-1.5,12.7-9.9,11.7-17.9
		c-1.2-9.3-11.6-15-20.1-14.9c-10.7,0.1-18.7,9.2-21.1,17.9C264.1,373,269.6,384.8,278.4,390.2z"/>
	<path class="st0" d="M190.5,395.9c3.9,0.1,6.8-0.1,8.4-0.2c3.5-0.3,4.7-0.5,27.6,0.2c6.6,0.2,13.3,0,19.9,0.2
		c9.5,0.4,18.3,1.1,19.6-2c0.1-0.1,0.5-1.2,0-2c-0.7-1.1-2.6-0.8-5-0.7c-2.6,0.1-8.2,0.2-8.7-1.2c-0.4-1.1,2.2-2.1,4.1-5.3
		c0,0,1.9-3.1,2.1-7.6c0.2-7.6-7.1-17.2-17.1-18.4c-8.7-1.1-14.9,4.8-15.9,5.7c-3.2,3.1-8.7,10.6-5.7,16.6c2.8,5.6,11.1,5.9,12.4,6
		c2.1,0.1,8.9,0.3,11.7-4.5c1.9-3.3,1.5-8.3-1.2-10.7c-1.6-1.4-4.4-2.3-5.7-1.2c-0.7,0.5-1,1.8-1.5,4.2c-0.4,2.1-0.3,2.5-0.7,3
		c-1.3,1.3-5.4,0.6-6.5-1.5c-1.3-2.5,1.6-7.1,5.2-8.9c4.6-2.3,10.3-0.3,13.7,2.7c0.3,0.3,6,5.7,4.2,12.2c-1.6,5.7-7.8,7.7-9.2,8.2
		c-3,1-4.8,0.5-10.2,0.4c0,0,0,0-13.6,0.5c-16.4,0.6-24.6,0.9-24.6,0.9c-11.8,0.3-19.1,0.1-19.2,0.7c0,0.2,1.3,0.5,3.8,1.1
		C181.6,394.9,185.4,395.7,190.5,395.9z"/>
	<path class="st0" d="M761.2,396.2c6.6-0.3,13.3,0,19.9-0.2c22.9-0.7,24-0.5,27.6-0.2c1.6,0.1,4.4,0.4,8.4,0.2
		c5.1-0.2,8.9-1,12.2-1.7c2.5-0.5,3.8-0.8,3.8-1.1c0-0.6-7.4-0.5-19.2-0.7c0,0-8.2-0.3-24.6-0.9c-13.6-0.5-13.6-0.5-13.6-0.5
		c-5.4,0.1-7.2,0.6-10.2-0.4c-1.4-0.5-7.6-2.5-9.2-8.2c-1.8-6.5,3.9-11.9,4.2-12.2c3.4-3.1,9.1-5.1,13.7-2.7
		c3.6,1.9,6.5,6.4,5.2,8.9c-1.1,2.1-5.1,2.8-6.5,1.5c-0.5-0.4-0.3-0.9-0.7-3c-0.5-2.4-0.8-3.7-1.5-4.2c-1.3-1-4.1-0.2-5.7,1.2
		c-2.8,2.4-3.2,7.4-1.2,10.7c2.8,4.8,9.5,4.5,11.7,4.5c1.3,0,9.6-0.3,12.4-6c3-6-2.5-13.5-5.7-16.6c-1-0.9-7.2-6.8-15.9-5.7
		c-10,1.2-17.4,10.8-17.1,18.4c0.1,4.5,2.1,7.6,2.1,7.6c2,3.2,4.5,4.2,4.1,5.3c-0.5,1.5-6.1,1.3-8.7,1.2c-2.3-0.1-4.3-0.3-5,0.7
		c-0.5,0.8-0.1,1.9,0,2C742.9,397.3,751.7,396.5,761.2,396.2z"/>
	<path class="st0" d="M508.9,208.8c-0.9,0.4,1,6.2,2,9c2.1,5.5,5.1,9.7,5.4,9.6c0,0,0.1-0.1-0.1-1.3c0-0.4-0.1-0.9-0.1-1.6
		c0-0.8,0-1.4,0-1.6c0-0.3-0.1-2.4-0.9-4.5C514.2,215.9,510,208.2,508.9,208.8z"/>
	<path class="st0" d="M511.1,191.8c-0.2-0.6-0.4-1.1-0.6-1.1c-0.6,0.1-1.4,6-0.1,11.5c1.4,6,3.8,5.3,6.7,13.3
		c2.1,5.8,3.1,8.7,3.1,10.5c0,0.2,0,1.2,0.3,1.3c0.4,0.1,1.1-1.3,1.2-1.7c2-4.1,0.4-10.1,0.3-10.6c-0.7-2.7-1.6-4.4-3.2-7.5
		c-2.6-5-3-4.1-4.3-7.3C513.5,197.4,512.2,194.6,511.1,191.8z"/>
	<path class="st0" d="M518.6,177.6c0-0.2,0.1-0.9-0.2-1.1c-0.5-0.2-1.8,1.2-2.4,2.2c-0.4,0.6-1.7,2.9-1,9.3c0.4,3.2,0.6,4.8,1.4,6.8
		c0.8,2,1.3,2.1,3.7,6.2c1.6,2.7,2.4,4,3.2,6c1,2.3,2,4.7,2.2,8c0.2,2.8-0.4,4.6,0.1,4.8c0.6,0.2,2.1-2.1,2.9-4.4
		c2.4-6.4-0.2-13-1.3-15.7c-2.6-6.4-4.4-5.1-5.9-10.5C519.4,182.6,518.5,179.3,518.6,177.6z"/>
	<path class="st0" d="M525.5,170c-1.2,0.1-4,9.1-0.1,16.9c3.8,7.4,11.6,9.7,13.8,10.4c3.6,1.1,9,1.7,9.3,0.7
		c0.1-0.2-0.2-0.5-0.5-0.8c0,0-2.8-2.8-5-7.6c-0.8-1.8-1.1-3.3-1.2-4c-0.7-3.7,0.2-5.7-0.7-6.2c-1-0.6-2.4,2.2-5.2,2.4
		c-2.7,0.2-5-2.3-6.1-3.5C526.2,174.2,526.3,170,525.5,170z"/>
	<path class="st0" d="M551,171.4c-2,2.2-6.3,8.2-6.2,12.9c0.1,5.5,3,12.4,8.2,14.3c0.6,0.2,3.3,0.4,8.7,0.7c1.8,0.1,3.3,0.2,3.5-0.5
		c0.3-0.6-0.9-1.6-2-2.7c-2.8-2.8-4.5-5.8-5.1-7.2c-1.5-3.3-1.9-8.3,0.7-11.5c1.2-1.5,2.7-2.1,3.1-2.2c5.2-2,12.9,1.6,20,4.9
		c0.3,0.2,1,0.5,1.1,0.3c0.4-0.5-2.8-4.3-6.4-7c-4.4-3.2-5.8-1.9-11.3-4.9c-1.9-1-6.1-3.4-9.6-8.1c-1.9-2.6-4-6.2-4.5-8.9
		c-0.1-0.4-0.3-1.3-0.8-3.1c-0.6-2.3-0.7-2.6-1-3c-1-1.1-2.4-0.6-4.1-1.1c-3.6-1.1-4.5-5.9-5.2-5.7c-1.1,0.4,2.1,11.6-0.6,12.9
		c-0.4,0.2-0.9,0.1-0.9,0.3c-0.2,0.7,4.8,2,9.1,5.8c3.8,3.4,4.8,6.2,5,7.4c0.5,2,0.1,3.4,0,3.7C552.2,170.1,551.3,171,551,171.4z"/>
	<path class="st0" d="M534.8,117.7c-0.7,0.1-1.4-0.2-2-0.6c-1.7-0.9-2.2-2.4-2.5-2.2c-0.3,0.1,0,1.9,0.7,3.9
		c1.1,3.1,2.7,5.1,4.1,6.8c1.1,1.3,2.2,2.7,2.7,2.4c0.5-0.2,0.1-1.8-0.1-2.9c-0.4-3,0.3-5.1,1.6-9.4c2.2-6.8,5.7-10.8,5.1-11.3
		c-0.3-0.3-1.6,0.9-2.1,1.4c-2.7,2.5-4.3,5.7-5.1,7.7C536.2,115.9,535.9,117.5,534.8,117.7z"/>
	<path class="st0" d="M547.8,88.1c-0.2-0.1-0.3-0.3-0.3-0.3c-0.3-0.4-0.2-0.9-0.9-1.4c-0.8-0.6-1.4-0.4-3.8-0.4
		c-2.6,0-3.1-0.3-3.4,0.1c-0.7,0.9,0.7,3.2,1.5,4.1c0.7,0.9,1.8,2.3,3.5,2.4c1.2,0.1,1.6-0.6,3.3-0.7c1-0.1,1.7,0.1,3.1,0.5
		c2.6,0.7,4.6,1.2,4.9,2.5c0.2,1-0.5,1.9-0.6,2c-0.7,0.8-1.5,0.6-2.8,1.2c-1.9,0.8-3.2,2.4-3,2.8c0.1,0.2,0.8-0.1,1.9-0.3
		c2.4-0.6,3-0.2,5.1-0.5c2.3-0.4,3.9-0.6,4.6-1.7c1.3-2.1-1-6.5-4-8.6c-1.2-0.9-2.5-1.8-4.2-1.8C551.6,88.2,548.6,88.6,547.8,88.1z"
		/>
	<path class="st0" d="M542.4,83.5c0.7,1,1.3,1.1,1.5,1.1c1,0,1.2-1.4,2.4-2.2c2.2-1.5,5.4,0.8,6.1-0.1c0.4-0.6-0.8-1.7-1.9-4
		c-0.8-1.7-2.1-4.4-1.4-6.9c0.6-2.4,2.9-4.8,5.5-5.1c0,0,4-0.5,10.2,4.8c0.3,0.2,0.6,0.6,1.2,0.7c0.8,0.2,1.4-0.1,1.7,0.2
		c0.2,0.2,0.1,0.5,0.3,0.7c0.2,0.1,0.4,0.1,0.5,0.1c2.6,0.1,3.9,0.1,7.1,0c0.5,0,0.7,0,0.7,0c0.6,0,0.7,0.1,0.8,0
		c0.3-0.3-0.3-1.5-1-1.8c-0.3-0.1-0.6-0.1-0.6-0.1c-0.2,0-0.4,0-0.4,0c-1,0.2-5.3-0.3-6.5-0.1c-0.1,0-0.3,0.1-0.6,0
		c-0.3-0.1-0.5-0.3-0.6-0.4c-0.3-0.4-3.1-3.3-4.3-4.3c-0.5-0.4-1.7-1.4-3.5-1.9c-0.9-0.2-1.6-0.3-4.7-0.1c-2.6,0.1-3.9,0.2-4.1,0.2
		c-4.2,0.6-8.7,5.1-9.8,10.4C540,78.9,541.5,82.2,542.4,83.5z"/>
	<path class="st0" d="M556.7,67.8c-1.2-0.1-2.5-0.2-3.7,0.7c-1.3,0.9-1.5,2.4-1.8,3.9c0,0-0.8,4.2,2,8.6c0.2,0.4,0.6,0.9,1,0.8
		c0.7,0,0.8-1.6,1.7-3c1.5-2.2,4.4-2.7,4.8-2.8c1.2-0.2,3.5-0.3,5.5-0.2c0.6,0,1.3,0.1,1.5-0.3c0.2-0.5-0.6-1.3-1.3-2
		C563.7,70.8,561,68.1,556.7,67.8z"/>
	<path class="st0" d="M578.3,80.6c0.3,1.6-0.5,1.9-0.1,3.6c0.2,0.7,0.5,1.2,0.9,2c2.4,4.1,2.5,5.1,3.4,5.2c1.3,0.1,2.5-2.2,2.8-2.9
		c1.4-2.8,2.8-8.4-0.7-12.4c-2.4-2.8-6.1-3.6-6.2-3.4c-0.1,0.1,1,0.6,2,1.7c2.6,2.9,2.3,7.8,1.5,8c-0.3,0.1-0.8-0.7-1.7-2.1
		c-1.9-3-2.7-5.1-3.1-5c-0.2,0.1-0.2,0.7-0.2,1C576.9,78.5,578,78.9,578.3,80.6z"/>
	<path class="st0" d="M581.9,96.2c-1,1.2-0.2,3.2,0.6,5.3c0,0,1.4,3.9,4.8,7.3c0.4,0.4,1.4,1.4,2.2,2.1c0.4,0.3,0.4,0.3,0.8,0.7
		c0.7,0.6,0.8,0.8,1,0.8c0.5,0,1.3-1.3,1.1-2.5c-0.2-1.2-1.9-0.9-3.4-2.7c-0.4-0.4-1-1.2-0.7-1.7c0.3-0.7,2.6-0.9,3.9,0.1
		c0.2,0.2,0.8,0.6,1.6,1.1c0.3,0.1,0.5,0.3,0.9,0.3c0.5,0.1,1,0,1.2-0.1c1-0.5,0.7-2.8,0.7-3c-0.4-3.7-5-7.1-9.5-8.1
		C585.5,95.5,583,94.9,581.9,96.2z M585,99.4c0.3-0.2,0.7-0.1,1.7,0.1c0.3,0.1,1.1,0.2,1.9,0.6c2.4,1.1,6,4.5,5.7,4.8
		c-0.2,0.2-1.8-1-2.4-1.4c-1.7-1.3-1.9-2-3.3-2.7c-0.2-0.1-2.1-1-2.7-0.5c-0.5,0.5-0.1,2.2,0.8,3.1c0.3,0.2,0.7,0.5,0.6,0.9
		c0,0.2-0.2,0.4-0.4,0.4c-0.5,0.1-1-1-1.3-1.5C585.6,102.7,584.2,100,585,99.4z"/>
	<path class="st0" d="M593.4,107.6c-0.3,0.2,0.8,1.3,1.2,3.7c0.2,0.9,0.1,1.7,0.7,2c0.5,0.3,1.2-0.1,1.5,0.3c0.2,0.3,0,0.7,0.2,0.9
		c0.3,0.4,1.5,0.3,1.8-0.2c0.1-0.2,0.2-0.7-1.6-3C596.1,109.9,593.8,107.3,593.4,107.6z"/>
	<path class="st0" d="M603.1,116.6c1.4,1.4,3.7,3.7,3.9,4.8c0,0.1,0.1,0.6,0.4,0.7c0.2,0.1,0.3,0,0.9,0c0.3,0,0.3,0,0.6,0
		c1.3,0,2,0,2.5-0.1c0.3,0,0.5-0.1,0.8-0.1c0.4,0,0.6,0.2,0.7,0.1c0.2-0.1,0.1-0.5,0-0.8c-0.1-0.3-0.3-0.4-0.8-0.7
		c-0.2-0.2-0.4-0.4-0.6-0.6c-0.7-0.6-1.3-1.2-1.3-1.2c-1-0.9-9.7-10.2-12.1-11.1c-0.1-0.1-0.6-0.2-0.7-0.1c-0.2,0.2,0.3,1,0.5,1.2
		C601.5,114.2,601,114.3,603.1,116.6z"/>
	<path class="st0" d="M611.9,123.2c-0.3,0.2-0.1,1,0.1,1.6c0.4,1.5,1.2,1.8,2.2,3.4c0.9,1.6,0.9,2.5,1.5,2.5
		c0.5,0.1,0.9-0.5,1.8-1.6c0.7-0.9,1.2-1.5,1-2c-0.2-0.4-0.7-0.5-1-0.6C614.5,125.7,612.6,122.7,611.9,123.2z"/>
	<path class="st0" d="M613.9,130.1c-0.2-2.6-3.7-4.8-4.3-4.3c-0.2,0.1-0.1,0.5-0.1,0.7c0.2,1.1,1.4,1.1,2,2.4c0.3,0.8,0,1,0.4,1.8
		c0.3,0.6,1,1.3,1.5,1.1C613.9,131.6,614,130.7,613.9,130.1z"/>
	<path class="st0" d="M601.5,126.3c-1.2,0.6-1.8,1.9-2.4,3.4c0,0-0.5,1.2-0.6,2.8c0.1-0.3,2.2-1,6.8-0.1c2.3,0.5,5.2,1.3,5.2,2.1
		c0,0.1-0.1,0.5-0.4,0.6c-0.2,0.1-0.5-0.1-0.6-0.1c-1.2-0.7-4.3-1.4-4.4-1.5c-1.4-0.3-2.6-0.2-3.4-0.2c-1.2,0.1-2.9,0.4-3.1,0
		c0,0.3,0,0.7,0,1.1c0,0.2,0.1,0.4,0.2,0.6c0.5,0.8,1.6,0.9,3.7,1.1c1.4,0.1,2.1,0.2,7.1,0.3c0.1,0,0.5,0,0.8-0.2
		c0.3-0.1,0.5-0.4,0.9-1.2c0.6-1,0.9-1.5,1-2.3c0,0,0.1-0.6,0.1-0.9c0-2.1-3.9-3.8-5.1-4.3C604.6,126.3,603,125.6,601.5,126.3z
		 M611.2,133.5c-0.1,0.1-0.3,0.4-0.5,0.4c-0.3,0-0.5-0.3-0.5-0.4c-0.8-1.1-3.5-2.8-3.6-2.9c-1.2-0.8-2.3-1.1-3.1-1.3
		c-1.2-0.3-3-0.7-3-1.1c0,0,0-0.1,0.1-0.3c0.1-0.2,0.2-0.4,0.2-0.4c0.2-0.3,2.4-0.2,6.4,2.3C609.1,130.9,611.5,132.7,611.2,133.5z"
		/>
	<path class="st0" d="M598.4,133c0,0.2,0,0.3,0,0.3c0,0,0,0,0,0c0-0.2,0-0.5,0-0.7C598.5,132.7,598.5,132.9,598.4,133z"/>
	<path class="st0" d="M598.5,132.6C598.5,132.6,598.5,132.5,598.5,132.6C598.5,132.5,598.5,132.5,598.5,132.6
		C598.5,132.5,598.5,132.6,598.5,132.6z"/>
	<path class="st0" d="M576,100.5c1,0.6,1.6,1.4,1.8,1.7c1.2,1.6,2.4,3.3,3.5,4.9c1.9,2.7,1.8,1.9,3.9,4.8c0.8,1.1,2,2.9,2.6,2.7
		c0.1-0.1,0.1-0.2,0.6-0.9c0.5-0.7,0.5-0.7,0.6-0.9c0.3-0.8-1.1-1.9-2.5-3.5c-0.7-0.8-1.4-1.8-2-2.7c-4-5.2-4-6.1-6.1-7.6
		c0,0-2.5-1.9-4.5-1.7c-0.8,0.1-1.6,0.1-2.1,0.7c-0.1,0.1-0.3,0.3-0.6,0.4c-0.1,0-0.6,0.2-1,0c-0.4-0.2-0.4-0.6-0.8-0.9
		c-0.3-0.2-0.7-0.2-1-0.1c-1.9,0.2-2.4-0.5-3.5,0c-0.8,0.3-1.7,1-1.6,1.7c0.1,0.8,1.3,1.3,1.7,1.4c2.6,1.2,3.6,5.2,5.1,10.2
		c3.1,10.6,4.7,12.9,5.7,14.2c2.9,3.6,5,3.9,5.9,3.9c1.6-0.1,2.8-1,3-1.1c1.7-1.2,1.4-2.5,3.2-4c1.3-1.1,2.6-1.5,2.9-1.6
		c1.4-0.4,2.7-0.2,4.8,0c0.6,0.1,1.7,0.2,3,0c0.7-0.1,1.3-0.2,1.4-0.4c0.1-0.6-3.5-1.1-7.6-3.1c-3.4-1.6-5.6-3.5-6-3.9
		c-1.6-1.3-0.9-1.1-6-7.1c-1.9-2.3-3.5-4.8-5.7-6.8c-0.2-0.2-0.9-0.8-0.8-1C574.1,99.6,575.1,100,576,100.5z"/>
	<path class="st0" d="M559,124.9c0,0.1-0.1,0.6,0.2,0.8c0.3,0.3,0.9,0.2,1.1,0.2c1.6-0.3,2.2-2.1,2.7-1.9c0.3,0.1,0.2,1.2,0.2,1.9
		c-0.2,2.2-0.8,3-0.4,3.4c0.6,0.6,2.3-0.8,3.3,0c0.5,0.4,0.6,1.2,0.6,1.4c0,0.9-0.5,1.6-0.8,2c-0.6,0.8-1.1,1-1.1,1.4
		c0,0.4,0.5,0.8,0.9,1c1,0.5,1.9-0.5,2.4-0.1c0.5,0.4,0,1.1,0.4,2.7c0.1,0.4,0.4,1.6,0.9,1.6c0.4,0,0.6-0.7,1.1-1.3
		c1.2-1.5,3.6-1.3,4-1.3c1.7,0.1,3.1,1.3,5.9,3.7c1.9,1.6,2.8,2.7,3.5,2.4c0.5-0.2,0.6-1.2,0.6-2c0-0.6,0.1-1.7-0.5-2.6
		c-0.7-1.1-1.8-1.2-1.7-1.6c0.1-0.5,2.1-0.9,3.7-0.3c0.4,0.2,0.8,0.4,1.5,0.4c0.1,0,1.3,0,1.5-0.5c0.4-1-3.7-3.8-6.9-5.7
		c-4.1-2.3-3.9-1.5-5.8-2.9c-5.1-3.8-6.4-10.1-6.5-11.6c-0.1-2.5-0.1-2.7-0.1-2.7c0.1-1,0.2-1.4-0.1-1.7c-0.5-0.6-1.9-0.6-2.5,0.1
		c-0.9,1.1,0.8,3.1-0.1,4.2c-0.8,0.9-2.4,0.1-3.2,1.1c-0.5,0.6,0,1.1-0.2,2.2C563,121.8,559.1,123.1,559,124.9z"/>
	<path class="st0" d="M593.5,127c-1.8-0.9-1.8-1.8-2.9-2.1c-1.4-0.4-3.3,0.8-4.2,2.2c-1.3,2.2-0.3,4.7,0,5.3
		c1.5,3.5,5.3,4.5,6.7,4.8c0.7,0.2,4,1.1,4.7-0.1c0.6-0.9-1.2-2-1.2-5c0-0.7-0.1-3,1.4-4.3c0.5-0.5,0.9-0.5,1-0.9
		c0.4-1.2-2-3.4-4.5-3.7c-0.7-0.1-1.6-0.1-1.7,0.2c-0.1,0.3,0.5,0.6,1.2,1.4c0.8,0.8,1.9,2.2,1.6,2.6
		C595.4,127.8,594.2,127.3,593.5,127z"/>
	<path class="st0" d="M609.8,143.7c0.9-1.2,1.8-1.3,2.6-2.9c0.4-0.8,0.8-2.2,0.4-2.5c-0.6-0.5-2,2-5,2.6c-2.6,0.6-4.8-0.5-5,0
		c-0.1,0.3,0.5,0.7,2,2c1.6,1.4,2.3,2.1,2.6,2.5c1.4,2.2,1.1,5.3,1.1,5.3C608.4,153,609.5,144.1,609.8,143.7z"/>
	<path class="st0" d="M586,139.6c-0.7,0.8-0.6,2.3,0.1,3c0.6,0.6,1.6,0.5,2.2,0.4c6.1-0.9,9.1-1.3,9.1-1.7c0-0.2-0.3-0.3-2.9-0.9
		C587,138.8,586.3,139.3,586,139.6z"/>
	<path class="st0" d="M608.3,152.4c-0.5-1.2-1.4-1-2.4-2.2c-1.7-2.2,0-4.7-1.6-6.5c-0.6-0.7-1.4-0.8-2.9-1.1
		c-0.8-0.2-2.8-0.4-6.5,0.6c-3.3,0.9-3.3,1.6-6.2,2.2c-3.4,0.7-4.7,0.1-5.1-0.1c-1.3-0.7-1.4-1.6-2.3-2.7c-2.4-3-7.6-4.6-10.1-2.8
		c-1.8,1.3-1.8,4-1.9,6.1c0,3,0.7,8.3,4.7,12.7c4,4.3,6.6,2.6,11.2,7.6c2.6,2.8,3.9,5.6,4.8,5.2c0.9-0.3,0.8-2.8,0.6-4
		c-0.1-0.7-0.5-3.6-2.6-5.6c-0.5-0.5-1.1-0.9-1.4-1.7c-0.2-0.7-0.3-1.8,0.2-2.5c0.7-0.9,2.2-0.8,3-0.7c0,0,9.4,0.6,14.9,0.2
		c0.5,0,1.5-0.1,2.4-0.9C608.3,155.3,608.8,153.7,608.3,152.4z"/>
	<path class="st0" d="M592.8,174.4c0.1,0.5,0.3,1.2,0.9,1.6c0.6,0.4,1.6,0.3,1.9-0.1c0.3-0.5-0.2-1.1,0.1-1.4
		c0.4-0.4,1.7,0.8,3.1,0.4c0.5-0.2,1.2-0.6,1.2-1.1c0.1-1.1-2.8-1.1-4.2-3.4c-0.8-1.2-0.3-1.6-1.2-3.9c-0.2-0.4-1.4-3-2-2.9
		c-0.4,0.1-0.1,1.4-0.2,5.6C592.3,169.3,592.2,171.5,592.8,174.4z"/>
	<path class="st0" d="M603.6,194.5c0.3,0,0.5-0.3,1-0.9c0.5-0.6,0.9-1.3,1.1-1.7c0.7-1.3,1-4,0.1-6.7c-0.9-2.8-2.8-4.9-3.1-4.7
		c-0.1,0.1,0.2,0.7,0.6,2.2c0.5,1.8,0.8,4.2,0.4,4.3c-0.3,0.1-0.8-1.4-2.1-3.1c-2.4-3.1-6.3-4.8-7-4.1c-0.2,0.2,0.1,1.1,0.6,2.7
		c0.9,2.6,1.5,3.7,1.1,4.1c-0.1,0.1-0.8,0.1-2.2,0.1c-0.6,0-1,0-1.2,0.2c-0.3,0.3-0.3,0.8-0.4,1c0,0.3,0,0.6,0.1,0.9
		c0.3,0.5,1.2,0.4,2.4,0.4c0.9,0,1.9,0,2.8,0.3c1,0.3,1.6,1,2.9,2.3C602.4,193.6,602.9,194.7,603.6,194.5z"/>
	<path class="st0" d="M562.1,221c0.4,0.5,1.1,0.9,1.7,0.7c0.9-0.2,1.3-1.3,1.4-1.6c1.5-3.5,8.7-7.7,12-9.4c2-1,3.5-1.5,6.7-3.2
		c3.7-2,3.6-2.5,3.6-2.6c-0.1-0.4-1.9-0.1-4.4,0.1c-7.3,0.7-13.9-0.1-15.6,1.9c-0.1,0.1-0.5,0.6-1.2,0.9c-1.2,0.4-2.3-0.2-2.4-0.2
		c-0.6-0.3-0.7-0.7-1.4-1.4c0,0-0.7-0.7-2.4-1.7c-3-1.8-9.8-3-10.1-2.2c-0.1,0.3,0.7,0.5,2.2,1.9c0.9,0.8,1.6,1.5,2.6,2.9
		c4.6,5.8,7.6,9.5,7,12.2C561.9,219.4,561.7,220.3,562.1,221z"/>
	<path class="st0" d="M595,200.6c-0.5,0.1-1.7,0.4-2.2,1.5c-0.3,0.7-0.4,1.7,0.2,2.2c0.6,0.5,1.5,0.3,3.5-0.2c4.1-0.9,4.9-0.7,5-1.1
		C601.7,202.1,598.1,199.9,595,200.6z"/>
	<path class="st0" d="M607.8,195.4c-0.9-0.4-2.6-1.3-3.6-0.6c-0.4,0.3-0.8,0.8-0.7,1.4c0.2,0.9,1.6,0.8,2.6,1.9
		c1.2,1.3,0.3,2.7,1.1,3.7c1.2,1.5,4.1,0.1,10.2-0.6c4-0.4,4.4,0,8.8-0.6c3-0.4,4.6-0.8,6.1-1.1c1.8-0.3,14.2-2.5,22.1,4
		c3.6,2.9,4.8,6.5,6.1,6.1c1.1-0.4,1.3-3.7,0.4-6.3c-2-5.7-9.7-8.9-16-9.3c-6.1-0.4-6.1,2-18.6,3.4c-3.3,0.3-6.6,0.5-10.6,0
		C610.4,196.6,608,195.5,607.8,195.4z"/>
	<path class="st0" d="M651,206.2c2,2.6,2.6,5.1,3.4,4.9c0.5-0.1,0.4-1.1,1.4-1.9c0.8-0.6,1.4-0.4,1.6-0.9c0.3-0.6-0.6-1.6-1-2
		c-2.5-2.6-3.8-4.1-6.6-5.2c-2.6-1.1-5.4-1.6-6.9-0.7c-0.2,0.1-0.6,0.4-0.6,0.6c0.1,0.4,1.5,0.4,2.3,0.5
		C647.7,201.9,649.8,204.7,651,206.2z"/>
	<path class="st0" d="M636.2,203.2c-1.4,0.3-1.7,1-3.4,1.5c-1.2,0.3-1.6,0.2-1.8,0c-0.3-0.2-0.2-0.4-0.5-0.7
		c-0.5-0.6-1.4-0.6-1.5-0.6c-0.6,0-1,0.3-2.6,1.7c-1.8,1.5-2.3,2-2.2,2.6c0,0.3,0.2,0.6,0.4,0.8c0.6,0.8,1.3,0.6,2.4,1.2
		c1,0.6,0.9,1,1.7,1.2c0.8,0.2,1.4-0.1,1.9-0.2c1-0.3,2.2-0.2,4.7,0c1.4,0.1,3.5,0.3,5.8,1.3c2.1,0.9,4.5,1.8,6.1,4.2
		c2.1,3.3,1.6,8.1,0,9c-0.3,0.2-0.8,0.4-1.1,0.9c-0.2,0.4,0,0.6-0.1,1.9c0,0.2-0.1,0.5,0.1,0.6c0.2,0.2,0.6,0.1,0.7,0
		c0.5-0.1,1.3-0.1,2.4-0.1c-0.3-0.1-0.5-0.5-0.5-0.9c0-0.7,1-1.2,1.4-1.4c3.3-1.8,5.1-5.3,5.5-6c0.5-1,0.9-1.7,0.7-2.7
		c-0.1-0.8-0.5-1.1-0.9-2.7c-0.2-0.8-0.4-1.4-0.1-1.5c-0.1,0-0.1,0-0.2,0c-0.2,0-0.5-0.1-0.7-0.1c-0.5-0.1-2.1-0.3-4.1-0.8
		c0,0-2.2-0.5-2.9-1.6c-0.3-0.4-0.4-0.9-0.4-0.9c-0.1-0.5,0-1,0-1.1c0.2-1.1,0-3.9-1.4-5.1c-0.2-0.1-0.7-0.6-1.4-0.7
		c-0.4,0-0.6,0-0.7,0c-1.2,0.2-2-0.1-5.5,0C636.8,203.2,636.4,203.2,636.2,203.2z"/>
	<path class="st0" d="M659.6,214.6c-0.8-0.5-1.8-0.7-3.7-1c0,0,0,0,0,0c0.3,0.2,0.8,0.5,1.1,0.9c1.6,2,0.5,5.3,0.3,5.7
		c-0.3,0.7-0.6,1.3-1.3,2.3c-0.1,0.1-1.9,2.9-5,5.4c-0.4,0.3-0.8,0.6-1.2,0.7c0,0,0.1,0,0.1,0c1,0.1,2.1,0.1,3.2,0
		c3.1-0.2,5.7-0.4,7.7-2.3c2-2,2.8-5.4,1.7-8.2C662.3,217.7,661.5,215.7,659.6,214.6z"/>
	<path class="st0" d="M621.5,258c-2.5,14.3-12,53-12,65.6c0,0.7,0,4,1,4.2c0.7,0.2,1.2-1.1,2.9-2.7c2.7-2.6,4.5-2.2,6-4.1
		c1.5-2,1.1-4.6,1-5.7c-0.2-1.6,2.4-13.5,7.6-37.4c3.9-17.9,4.2-18.7,5.5-25.7c0.8-4.3,1.4-8.2,2.7-15.2c1.6-8.2,2.4-12.3,2.5-12.5
		c0.8-2.7,1.6-3.9,1.1-5.7c-1-4.2-6.8-7.3-8.9-6c-0.9,0.6-1.1,1.8-1.1,2.4c-0.6,5.4-2.2,10.6-2.7,16c-0.6,6.4-1.4,5.2-4.3,21.1
		C622,255.2,621.7,257,621.5,258z"/>
	<path class="st0" d="M636.9,270.2c1.5-7.9,1-7.4,2.2-13.4c1.7-8.4,2.6-8.9,3.5-15.4c0.6-4.3,0.4-5.3,1.2-8.8c0.2-0.9,1-3.9,1.7-8
		c0.5-2.5,0.6-3.5,0.2-4.7c-0.8-2.6-3.5-4.8-4.6-4.2c-1,0.4-0.7,2.7-0.6,4.5c0.3,5.2-1.3,10.3-1.9,15.5c-1.1,10.1-2.8,13.4-5.7,29.9
		c-2.3,13.4-1.2,11.2-3.2,21.5c-0.9,4.5-4.6,22.7-5.2,26.3c-0.4,2.1-0.2,2.3-0.6,3.6c-0.4,1.2-0.7,1.8-0.4,2.2
		c0.4,0.7,1.8,0.8,2.6,0.2c0.7-0.5,0.6-1.4,0.7-3c0.1-1.3,0.2-0.8,1-4.4c0.9-4.1,2.2-11.1,2.6-12.9c0.6-3.3,0.5-2.1,3.4-15.2
		C635.6,276.7,636.4,272.9,636.9,270.2z"/>
	<path class="st0" d="M655.8,309.6c-3.1-5.3-4.1-11.6-5.2-19.8c-1.4-10.4-2.2-15.6-2.4-18.9c-0.4-6.7-0.3-15,0-31.6
		c0,0,0.1-8.2,0-8.2c0,0,0,1.6-0.4,3.7c-0.3,1.9-0.7,2.3-1.1,4c-0.5,2-0.3,2.6-0.6,5.6c-0.2,1.6-0.4,2.9-0.8,5.6
		c-1.9,11-5.1,24.5-5.1,24.5c-3.1,12.8-3.7,26.3-8,38.8c-0.2,0.6-1.1,3-0.2,3.6c0.4,0.3,1,0.1,1.2,0c2.7-0.9,5.8-0.2,8.7-0.4
		c5.6-0.3,13.9,5.2,18,12.2c1.8,3.1,3.2,5.4,3.1,8.6c0,1.8-0.5,4,0.2,4.3c0.2,0.1,0.6,0.2,1.6-0.7c1.6-1.4,4.4-5,4.3-10.3
		c0-5.6-3.3-9.5-4.2-10.6c-1.5-1.6-2-1.5-4.1-3.7C660.8,316.3,658.1,313.5,655.8,309.6z"/>
	<path class="st0" d="M663,346.8c-0.4,0.8,4,3.1,8.4,6.7c1.9,1.5,3.9,3.4,10.9,11.9c11.2,13.7,10.8,14.7,15.4,18.6
		c4.2,3.5,8.1,6.9,14.4,8c8.6,1.4,15.4-2.6,16.4-3.2c8.8-5.4,14.3-17.2,11.2-28.3c-2.5-8.7-10.4-17.8-21.1-17.9
		c-8.6-0.1-18.9,5.6-20.1,14.9c-1,7.9,4.9,16.4,11.7,17.9c2.7,0.6,6.9,0.5,8.4-2c1.9-3-0.7-8.5-3.7-10.2c-0.4-0.3-1.4-0.7-2.5-1.2
		c-3.2-1.6-3.5-1.5-4-2c-1.5-1.6-1-5.8,1-8c3.3-3.4,10.7-1.9,15.2,1.2c5.6,3.9,9.2,12.3,6.2,19.9c-2.6,6.7-9.4,10.4-15.2,10.4
		c-7.9,0.1-13.8-6.8-18.4-12.2c-1.8-2.1-1.3-1.9-3.7-5c-11.5-14.5-22.2-18.1-24.8-18.9C668.4,347.5,663.4,346,663,346.8z"/>
</g>
</svg>
