<svg id="Layer_1" data-name="Layer 1" xmlns="http://www.w3.org/2000/svg" viewBox="0 0 1345.78 1085.5"><defs><style>.cls-1{fill:none;}.cls-1,.cls-2,.cls-3{stroke:#fff;}.cls-1,.cls-3{stroke-linecap:round;stroke-linejoin:round;stroke-width:11px;}.cls-2{fill:#fff;}.cls-3{fill:#0f0505;}</style></defs><line class="cls-1" x1="53.48" y1="403.38" x2="571.48" y2="612.53"/><path class="cls-1" d="M138.09,329.61c-20.44-5.6-30.66,6.3-30.66,24.49,0,11.8,17.36,20.69,30.66,18.9,18.95-2.57,24.91-26,25.55-28.7,2.19-18.89-15.62-23.85-15.33-44.78,0-1.22.71-24.91,19-32.89,11.59-5.07,28.6-3.09,37.23,8.39,9,12.06,7,32.15-5.11,37.79-9.63,4.47-24.48-.65-29.93-11.19a22,22,0,0,1-1.46-15.4" transform="translate(-3.72 -8.5)"/><path class="cls-1" d="M46.08,538.86C27,530,27.6,514.58,40.24,501c8.21-8.8,27.33-4.35,36,5.49,12.35,14,.5,35.3-.9,37.72-11.5,15.48-28.22,7.81-42.56,23.6-.83.92-16.78,19-8.71,36.65,5.12,11.18,19.19,20.57,33.6,17.52,15.12-3.2,27.6-19.47,22.45-31.44-4.07-9.49-18.7-15.15-30.09-10.77a23.4,23.4,0,0,0-11.79,10.54" transform="translate(-3.72 -8.5)"/><path class="cls-1" d="M83.34,473.77c1.17.49,11.48,4.68,21.17-.7,8.59-4.78,11.53-14.22,10.95-21-1.24-14.51-19.49-26.93-35.77-24.49-17.94,2.69-27,22.49-27,37.09,0,13.21,7.28,26.91,19,33.59,25.75,14.68,70.51-6,85.41-36.39,5.08-10.38,5.64-21.74,5.84-25.19.33-5.85,1.25-21.81-7.3-37.09-8.34-14.9-30.15-37.16-52.56-30.79C88,373.07,73.45,390,77.5,406.59,82.27,426,110.56,436,122.76,428.28c5.68-3.61,8.2-11.27,8-17.49-.3-11.08-9.12-17.44-10.22-18.2" transform="translate(-3.72 -8.5)"/><path class="cls-1" d="M154.88,489.86c-5.06,11.11-1.94,23.36,6.57,29.39,9.88,7,23.33,3,30.14-2.37,11.76-9.27,13.83-30.51,1.25-50.11" transform="translate(-3.72 -8.5)"/><path class="cls-1" d="M185.49,424.55c4.47-10.39,14.81-15.2,24.23-12.21,10.94,3.46,16.54,16.11,17.09,24.49.94,14.45-12.33,28.5-33.59,30.36" transform="translate(-3.72 -8.5)"/><path class="cls-1" d="M241,508.76c-2.9-7.61-1.35-14.9,2.92-17.5,5.8-3.54,14.72,2.6,17.52,9.1,4.56,10.6-6.92,29.43-23.36,31.49-17.49,2.2-31.14-14.19-29.93-30.79.94-12.9,12.83-21.34,14.6-22.39" transform="translate(-3.72 -8.5)"/><path class="cls-1" d="M261.4,472.52c-8,1.94-13.26,7.15-13.1,11.87.21,6.42,10.27,9.94,17.27,8.53,11.42-2.3,20.93-21.51,13.63-35.34-7.76-14.72-29-16.26-42.32-6.2C226.56,459.19,226,473,226.08,475" transform="translate(-3.72 -8.5)"/><path class="cls-1" d="M282.62,539.55a16.41,16.41,0,0,1-7.29-4.2,15.91,15.91,0,0,1-3.65-16.1c3.07-8.22,12.43-5.76,17.51-14,5.78-9.35-2.71-18.29,3.65-24.49,3.74-3.65,11.31-5.09,16.06-2.1a9.92,9.92,0,0,1,3.65,4.19" transform="translate(-3.72 -8.5)"/><path class="cls-1" d="M314,536.75c-3.45-3.1-7-7-5.84-9.8,1.63-4,11.47-1.78,13.87-6.3,2.75-5.16-7.5-13-5.11-16.79,1-1.58,4.38-2.82,16.06,0" transform="translate(-3.72 -8.5)"/><ellipse class="cls-1" cx="298.98" cy="293.47" rx="13.5" ry="12.95"/><line class="cls-1" x1="198.61" y1="201.44" x2="287.24" y2="286.42"/><path class="cls-1" d="M312.55,347.23l32.16-30.82L333,257.33a149.52,149.52,0,0,1-83.07-4.9,227.64,227.64,0,0,1,10.08,45,227.07,227.07,0,0,1,1.35,37.08Z" transform="translate(-3.72 -8.5)"/><polygon class="cls-1" points="298.98 359.18 321.24 379.89 389.86 314.11 364.04 291.33 298.98 359.18"/><path class="cls-1" d="M325,388.39A820.47,820.47,0,0,0,444,506.66a842,842,0,0,0,143.8,93.77l27-25.89a899.46,899.46,0,0,0-84.68-119.67,921.24,921.24,0,0,0-136.5-132.26" transform="translate(-3.72 -8.5)"/><path class="cls-1" d="M365.83,404.58c.61.6,6.1,5.8,13.72,4.71a15.91,15.91,0,0,0,12.57-10.75c3.06-9.59-5.32-22-16.37-24.39-12.19-2.65-23.22,7.81-27.12,17.14-3.52,8.44-2.49,19,3.23,26.11,12.58,15.66,46.67,13.37,64.28-2.45,6-5.4,9.37-12.53,10.41-14.69,1.77-3.66,6.59-13.64,5.17-25.5-1.38-11.56-9.42-31.12-25.44-32.51-10.75-.93-24.57,6.36-26.37,17.94-2.11,13.61,13.33,26.9,23.19,24.91,4.59-.92,8.24-5.21,9.78-9.23,2.74-7.16-1.21-13.37-1.71-14.13" transform="translate(-3.72 -8.5)"/><path class="cls-1" d="M401.56,437.11c-7.84,7.19-9.68,17.94-5.13,25.49,5.28,8.77,17.2,9.93,24.41,7.86,12.44-3.56,21.48-19.77,18.49-39.42" transform="translate(-3.72 -8.5)"/><path class="cls-1" d="M448.67,393.18c7.56-7.16,17.93-7.65,24.67-1.93,7.82,6.64,7.79,19.14,5.15,26.33-4.56,12.41-20.8,19.63-39.17,13.91" transform="translate(-3.72 -8.5)"/><path class="cls-1" d="M472.79,494.7c-1-8.62,2.48-15.5,7.47-16.77,6.78-1.74,14.22,7.32,15.38,14.79,1.89,12.18-14.58,27.57-31.75,24.42-18.26-3.35-27.86-24.28-22.36-40.7,4.28-12.76,18.49-17.51,20.55-18" transform="translate(-3.72 -8.5)"/><path class="cls-1" d="M502.93,464.2c-8.38-.39-15,3.59-16.19,8.76-1.6,7,7.29,14,14.56,14.66,11.86,1.09,26.59-16.76,23.3-34-3.49-18.38-23.94-26.71-39.81-20-12.33,5.23-16.76,20-17.22,22.18" transform="translate(-3.72 -8.5)"/><path class="cls-1" d="M501.19,550.9a19.25,19.25,0,0,1-5.48-28.15C502.5,514,512.8,520.14,522,512c10.45-9.21,3.64-22.89,13.61-28.13,5.86-3.07,15.48-2.18,20.06,3.05a12.09,12.09,0,0,1,2.8,6.3" transform="translate(-3.72 -8.5)"/><line class="cls-1" x1="598.21" y1="578.34" x2="415.19" y2="402.89"/><line class="cls-1" x1="1298.3" y1="403.38" x2="780.31" y2="612.53"/><path class="cls-1" d="M1221.14,329.61c20.44-5.6,30.66,6.3,30.66,24.49,0,11.8-17.36,20.69-30.66,18.9-19-2.57-24.91-26-25.55-28.7-2.19-18.89,15.61-23.85,15.33-44.78,0-1.22-.71-24.91-19-32.89-11.59-5.07-28.6-3.09-37.23,8.39-9,12.06-7,32.15,5.11,37.79,9.63,4.47,24.48-.65,29.93-11.19a22,22,0,0,0,1.46-15.4" transform="translate(-3.72 -8.5)"/><path class="cls-1" d="M1313.15,538.86c19.13-8.88,18.48-24.28,5.83-37.84-8.2-8.8-27.32-4.35-36,5.49-12.35,14-.5,35.3.89,37.72,11.5,15.48,28.23,7.81,42.57,23.6.83.92,16.78,19,8.71,36.65-5.13,11.18-19.19,20.57-33.6,17.52-15.13-3.2-27.6-19.47-22.46-31.44,4.08-9.49,18.71-15.15,30.1-10.77A23.44,23.44,0,0,1,1321,590.33" transform="translate(-3.72 -8.5)"/><path class="cls-1" d="M1275.89,473.77c-1.17.49-11.49,4.68-21.17-.7-8.6-4.78-11.54-14.22-11-21,1.24-14.51,19.48-26.93,35.77-24.49,17.94,2.69,27,22.49,27,37.09,0,13.21-7.27,26.91-19,33.59-25.74,14.68-70.5-6-85.4-36.39-5.09-10.38-5.64-21.74-5.84-25.19-.34-5.85-1.25-21.81,7.3-37.09,8.34-14.9,30.15-37.16,52.56-30.79,15,4.27,29.6,21.23,25.55,37.79C1277,426,1248.67,436,1236.47,428.28c-5.68-3.61-8.2-11.27-8-17.49.3-11.08,9.12-17.44,10.22-18.2" transform="translate(-3.72 -8.5)"/><path class="cls-1" d="M1204.35,489.86c5.06,11.11,1.94,23.36-6.57,29.39-9.89,7-23.33,3-30.14-2.37-11.77-9.27-13.84-30.51-1.25-50.11" transform="translate(-3.72 -8.5)"/><path class="cls-1" d="M1173.74,424.55c-4.47-10.39-14.81-15.2-24.23-12.21-10.94,3.46-16.54,16.11-17.09,24.49-.94,14.45,12.33,28.5,33.59,30.36" transform="translate(-3.72 -8.5)"/><path class="cls-1" d="M1118.21,508.76c2.9-7.61,1.34-14.9-2.92-17.5-5.8-3.54-14.72,2.6-17.52,9.1-4.56,10.6,6.92,29.43,23.36,31.49,17.49,2.2,31.14-14.19,29.93-30.79-.94-12.9-12.83-21.34-14.6-22.39" transform="translate(-3.72 -8.5)"/><path class="cls-1" d="M1097.83,472.52c8,1.94,13.26,7.15,13.1,11.87-.21,6.42-10.27,9.94-17.27,8.53-11.42-2.3-20.93-21.51-13.63-35.34,7.76-14.72,29-16.26,42.32-6.2,10.32,7.81,10.88,21.63,10.79,23.57" transform="translate(-3.72 -8.5)"/><path class="cls-1" d="M1076.6,539.55a16.38,16.38,0,0,0,7.3-4.2,15.91,15.91,0,0,0,3.65-16.1c-3.08-8.22-12.43-5.76-17.52-14-5.77-9.35,2.71-18.29-3.65-24.49-3.73-3.65-11.3-5.09-16.06-2.1a10.06,10.06,0,0,0-3.65,4.19" transform="translate(-3.72 -8.5)"/><path class="cls-1" d="M1045.22,536.75c3.44-3.1,7-7,5.83-9.8-1.62-4-11.46-1.78-13.86-6.3-2.75-5.16,7.5-13,5.11-16.79-1-1.58-4.38-2.82-16.06,0" transform="translate(-3.72 -8.5)"/><ellipse class="cls-1" cx="1052.81" cy="293.47" rx="13.5" ry="12.95"/><line class="cls-1" x1="1153.18" y1="201.44" x2="1064.54" y2="286.42"/><path class="cls-1" d="M1046.67,347.23l-32.15-30.82,11.72-59.08a149.52,149.52,0,0,0,83.07-4.9,226.42,226.42,0,0,0-11.43,82.07Z" transform="translate(-3.72 -8.5)"/><polygon class="cls-1" points="1052.81 359.18 1030.54 379.89 961.93 314.11 987.75 291.33 1052.81 359.18"/><path class="cls-1" d="M1034.27,388.39a821,821,0,0,1-119,118.27,842.34,842.34,0,0,1-143.8,93.77l-27-25.89a900.23,900.23,0,0,1,84.67-119.67A921.26,921.26,0,0,1,965.65,322.61" transform="translate(-3.72 -8.5)"/><path class="cls-1" d="M993.4,404.58c-.62.6-6.1,5.8-13.72,4.71a15.92,15.92,0,0,1-12.58-10.75c-3.05-9.59,5.32-22,16.38-24.39,12.19-2.65,23.22,7.81,27.11,17.14,3.53,8.44,2.49,19-3.22,26.11-12.58,15.66-46.67,13.37-64.28-2.45-6-5.4-9.37-12.53-10.41-14.69-1.77-3.66-6.59-13.64-5.17-25.5,1.38-11.56,9.42-31.12,25.44-32.51,10.75-.93,24.57,6.36,26.37,17.94,2.11,13.61-13.33,26.9-23.2,24.91-4.58-.92-8.23-5.21-9.77-9.23-2.74-7.16,1.21-13.37,1.71-14.13" transform="translate(-3.72 -8.5)"/><path class="cls-1" d="M957.67,437.11c7.84,7.19,9.68,17.94,5.13,25.49-5.28,8.77-17.2,9.93-24.41,7.86C926,466.9,916.91,450.69,919.9,431" transform="translate(-3.72 -8.5)"/><path class="cls-1" d="M910.56,393.18c-7.56-7.16-17.93-7.65-24.67-1.93-7.82,6.64-7.79,19.14-5.15,26.33,4.56,12.41,20.8,19.63,39.16,13.91" transform="translate(-3.72 -8.5)"/><path class="cls-1" d="M886.43,494.7c1-8.62-2.47-15.5-7.46-16.77-6.78-1.74-14.22,7.32-15.38,14.79-1.9,12.18,14.58,27.57,31.75,24.42,18.26-3.35,27.85-24.28,22.36-40.7-4.28-12.76-18.49-17.51-20.55-18" transform="translate(-3.72 -8.5)"/><path class="cls-1" d="M856.3,464.2c8.38-.39,15,3.59,16.19,8.76,1.59,7-7.29,14-14.56,14.66-11.86,1.09-26.59-16.76-23.3-34,3.49-18.38,23.94-26.71,39.81-20,12.33,5.23,16.76,20,17.22,22.18" transform="translate(-3.72 -8.5)"/><path class="cls-1" d="M858,550.9a19.24,19.24,0,0,0,5.49-28.15c-6.79-8.8-17.09-2.61-26.3-10.72-10.45-9.21-3.64-22.89-13.61-28.13-5.86-3.07-15.48-2.18-20.07,3.05a12.15,12.15,0,0,0-2.79,6.3" transform="translate(-3.72 -8.5)"/><line class="cls-1" x1="753.58" y1="578.34" x2="936.6" y2="402.89"/><line class="cls-1" x1="416.14" y1="54.95" x2="630.08" y2="553.22"/><path class="cls-1" d="M537.72,59.68C527.33,41.91,511.34,43.45,498,56.36c-8.67,8.37-2.89,26.41,7.87,34.12,15.33,11,36.78-1.63,39.22-3.11,15.44-11.93,6.44-27.48,22-42.14C568,44.37,585.9,28,604.73,34.7,616.68,38.94,627.3,51.83,625,65.81c-2.43,14.66-18.62,27.57-31.39,23.36-10.12-3.33-16.9-17-13-28.15,2.37-6.83,8-10.56,10.28-11.92" transform="translate(-3.72 -8.5)"/><path class="cls-1" d="M318.65,146.05c-7-19.22,4.73-29.71,23.67-30.8,12.29-.7,22.59,15.38,21.51,28.21-1.54,18.29-25.58,25.39-28.35,26.17-19.54,3.22-25.77-13.52-47.55-12-1.27.09-25.89,2.17-33.12,20.13-4.58,11.4-1.5,27.56,11,35.12,13.09,8,33.89,4.83,39.05-7.14,4.08-9.49-2.15-23.39-13.45-28a24.89,24.89,0,0,0-16.12-.47" transform="translate(-3.72 -8.5)"/><path class="cls-1" d="M392.93,125c.47,1.14,4.71,11.08,15.54,13.8,9.61,2.41,18.63-2.3,23.2-7.5,9.78-11.14,6-32.28-7.39-41.54-14.71-10.21-35.67-2.26-46.42,8.08-9.73,9.35-14.62,24-11.21,36.66,7.48,27.81,54.41,43.38,87.35,31.85,11.24-3.93,20-11.62,22.66-13.94,4.53-3.92,16.91-14.63,22.07-31.25,5-16.21,5.91-46.74-14.67-57.35-13.81-7.12-36.61-4.93-45.9,9.57-10.91,17,1.81,43.23,16.18,46,6.68,1.27,14.1-2.46,18.55-7,7.92-8.07,6.34-18.54,6.12-19.82" transform="translate(-3.72 -8.5)"/><path class="cls-1" d="M431.88,184.76c-11.75,4.46-18.55,15.26-16.94,25.29,1.87,11.65,14.35,17.89,23.14,18.68,15.16,1.36,32.23-12.31,37.71-34.73" transform="translate(-3.72 -8.5)"/><path class="cls-1" d="M501.6,159.08c10.81-4.36,21.67-.79,26.17,7.69,5.22,9.85-.11,22.61-5.87,28.93-9.95,10.89-29.7,11.9-46.15-1.14" transform="translate(-3.72 -8.5)"/><path class="cls-1" d="M479.13,256.34c3.53-7.35,10-11.48,14.92-10.44,6.73,1.4,8.54,11.78,5.75,18.28-4.55,10.61-26.53,16.22-39.72,6.58-14-10.25-11.67-31.1,1.39-42.07,10.15-8.52,24.79-6.48,26.82-6" transform="translate(-3.72 -8.5)"/><path class="cls-1" d="M520.22,244.39c-7.09-4-14.66-3.88-18-.43-4.57,4.71,0,14,6,17.72,9.79,6.08,30.66-1.13,35.64-15.87,5.31-15.69-8.66-31.15-25.47-33-13.07-1.43-23.63,8-25,9.45" transform="translate(-3.72 -8.5)"/><path class="cls-1" d="M486,306.29a15.08,15.08,0,0,1-2.1-7.91,16.4,16.4,0,0,1,9.24-13.88c8.23-3.76,13.06,4.3,22.72,1.9,11-2.74,11.52-14.82,20.59-14.92,5.33-.07,11.75,4,12.94,9.35a9.52,9.52,0,0,1-.5,5.45" transform="translate(-3.72 -8.5)"/><path class="cls-1" d="M510.36,325.51c-.17-4.53.24-9.7,3.06-10.9,4.09-1.75,9.45,6.48,14.47,4.9,5.74-1.81,4.22-14.29,8.72-15.37,1.86-.45,5.17.95,11.39,10.84" transform="translate(-3.72 -8.5)"/><line class="cls-1" x1="930.2" y1="54.95" x2="716.26" y2="553.22"/><path class="cls-1" d="M816.06,59.68c10.39-17.77,26.38-16.23,39.75-3.32,8.67,8.37,2.89,26.41-7.87,34.12-15.33,11-36.78-1.63-39.22-3.11-15.44-11.93-6.44-27.48-22-42.14-.91-.86-18.81-17.2-37.64-10.53-11.95,4.24-22.57,17.13-20.25,31.11,2.43,14.66,18.62,27.57,31.4,23.36,10.12-3.33,16.89-17,13-28.15-2.37-6.83-8-10.56-10.28-11.92" transform="translate(-3.72 -8.5)"/><path class="cls-1" d="M1035.13,146.05c7-19.22-4.73-29.71-23.67-30.8-12.28-.7-22.58,15.38-21.51,28.21,1.54,18.29,25.58,25.39,28.35,26.17,19.55,3.22,25.77-13.52,47.55-12,1.27.09,25.89,2.17,33.12,20.13,4.58,11.4,1.5,27.56-11,35.12-13.09,8-33.89,4.83-39-7.14-4.08-9.49,2.14-23.39,13.44-28a24.88,24.88,0,0,1,16.12-.47" transform="translate(-3.72 -8.5)"/><path class="cls-1" d="M960.85,125c-.47,1.14-4.71,11.08-15.54,13.8-9.61,2.41-18.63-2.3-23.2-7.5-9.78-11.14-6-32.28,7.39-41.54,14.71-10.21,35.67-2.26,46.42,8.08,9.73,9.35,14.62,24,11.22,36.66-7.49,27.81-54.42,43.38-87.36,31.85-11.23-3.93-20-11.62-22.66-13.94-4.53-3.92-16.91-14.63-22.07-31.25-5-16.21-5.91-46.74,14.67-57.35,13.81-7.12,36.61-4.93,45.9,9.57,10.92,17-1.81,43.23-16.17,46-6.68,1.27-14.11-2.46-18.56-7-7.92-8.07-6.33-18.54-6.12-19.82" transform="translate(-3.72 -8.5)"/><path class="cls-1" d="M921.9,184.76c11.75,4.46,18.55,15.26,16.94,25.29-1.87,11.65-14.35,17.89-23.14,18.68C900.55,230.09,883.47,216.42,878,194" transform="translate(-3.72 -8.5)"/><path class="cls-1" d="M852.18,159.08c-10.81-4.36-21.67-.79-26.17,7.69-5.22,9.85.11,22.61,5.88,28.93,10,10.89,29.69,11.9,46.14-1.14" transform="translate(-3.72 -8.5)"/><path class="cls-1" d="M874.66,256.34c-3.54-7.35-10-11.48-14.93-10.44-6.72,1.4-8.54,11.78-5.75,18.28,4.55,10.61,26.53,16.22,39.72,6.58,14-10.25,11.67-31.1-1.39-42.07-10.14-8.52-24.79-6.48-26.82-6" transform="translate(-3.72 -8.5)"/><path class="cls-1" d="M833.56,244.39c7.09-4,14.66-3.88,18-.43,4.57,4.71,0,14-6,17.72-9.79,6.08-30.66-1.13-35.64-15.87-5.31-15.69,8.66-31.15,25.47-33,13.07-1.43,23.63,8,25,9.45" transform="translate(-3.72 -8.5)"/><path class="cls-1" d="M867.75,306.29a15,15,0,0,0,2.1-7.91,16.4,16.4,0,0,0-9.24-13.88c-8.23-3.76-13.06,4.3-22.72,1.9-11-2.74-11.52-14.82-20.59-14.92-5.32-.07-11.75,4-12.94,9.35a9.52,9.52,0,0,0,.5,5.45" transform="translate(-3.72 -8.5)"/><path class="cls-1" d="M843.42,325.51c.17-4.53-.23-9.7-3.06-10.9-4.09-1.75-9.44,6.48-14.47,4.9-5.74-1.81-4.21-14.29-8.71-15.37-1.87-.45-5.18.95-11.4,10.84" transform="translate(-3.72 -8.5)"/><ellipse class="cls-1" cx="673.65" cy="144.91" rx="13.5" ry="12.95"/><line class="cls-1" x1="672.23" y1="11.77" x2="670.71" y2="131.93"/><path class="cls-1" d="M650.46,191.78l45.47.53L731.84,143a143,143,0,0,1-26.72-20.95,138.41,138.41,0,0,1-27.64-39.47,234.9,234.9,0,0,1-26.55,38.34,240.94,240.94,0,0,1-26.73,26.84Z" transform="translate(-3.72 -8.5)"/><polygon class="cls-1" points="624.6 190.81 624.68 220.55 721.72 221.67 720.68 188.05 624.6 190.81"/><path class="cls-1" d="M628.41,229.05a772.33,772.33,0,0,0,25.28,328.39l38.2.44A867.67,867.67,0,0,0,722.06,416.2a863.58,863.58,0,0,0,3.38-186" transform="translate(-3.72 -8.5)"/><path class="cls-1" d="M644.87,268.39c0,.84-.07,8.23,6.07,12.71,5.44,4,12.47,3.26,16.81,1.11,9.28-4.6,12.69-19,6.76-28.27-6.54-10.22-22-10.47-31.73-6.63-8.76,3.48-15.91,11.55-17.24,20.45-2.91,19.57,22.62,41.36,46.73,42.38,8.22.35,15.9-2.32,18.24-3.11,4-1.34,14.78-5,22.65-14.27,7.66-9,16.64-28.2,6.49-40.16-6.82-8-21.91-12.41-31.81-5.55-11.63,8-10.77,27.93-2.39,33.3,3.89,2.51,9.64,2,13.72.26a16.84,16.84,0,0,0,9.35-11" transform="translate(-3.72 -8.5)"/><path class="cls-1" d="M645.54,315.63c-10.84-.36-20.15,5.88-22.61,14.28-2.85,9.75,4.61,18.73,11.18,22.24,11.35,6,29.77.92,42.35-14.86" transform="translate(-3.72 -8.5)"/><path class="cls-1" d="M711.24,317.26c10.63.18,18.24,7,18.68,15.57.5,10-8.84,18.71-16.06,21.93-12.45,5.54-29.18-.56-37.74-17.15" transform="translate(-3.72 -8.5)"/><path class="cls-1" d="M652.32,404.72c5.75-6.69,13.3-9.13,17.73-6.6,6,3.45,4.47,14.88-.29,20.89-7.78,9.81-30.77,9.26-40.41-4.72-10.26-14.87-1.33-36.08,14.76-43.77,12.51-6,26,.45,27.79,1.51" transform="translate(-3.72 -8.5)"/><path class="cls-1" d="M696.13,404.09c-5.56-6-13.17-7.79-17.85-5-6.36,3.82-5.35,14.78-.77,20.23,7.47,8.9,31.08,6.53,41.69-7.79,11.28-15.24,3.21-35.09-12.9-41.27-12.52-4.8-26.67,2.5-28.58,3.68" transform="translate(-3.72 -8.5)"/><path class="cls-1" d="M630.2,463.46a18.88,18.88,0,0,1,.64-10.21A21.29,21.29,0,0,1,647.38,440c11.31-1.48,13.89,9.91,26.38,10.55,14.18.74,19.63-13.48,30.5-10.3,6.39,1.87,12.44,9.09,11.74,15.89a12.19,12.19,0,0,1-2.75,6.32" transform="translate(-3.72 -8.5)"/><line class="cls-1" x1="670.02" y1="549.17" x2="673.14" y2="301.06"/><ellipse class="cls-1" cx="140.94" cy="652.98" rx="13.17" ry="12.95"/><line class="cls-1" x1="5.5" y1="655.94" x2="127.77" y2="655.94"/><path class="cls-1" d="M184,686.8V643.21l-50.58-33.83a138.14,138.14,0,0,1-21,25.87,141.35,141.35,0,0,1-39.82,27,240.2,240.2,0,0,1,39.32,25,238.69,238.69,0,0,1,27.62,25.3Z" transform="translate(-3.72 -8.5)"/><polygon class="cls-1" points="188.21 699.44 218.47 699 218.47 605.97 184.27 607.36 188.21 699.44"/><path class="cls-1" d="M222.19,707.49a832.13,832.13,0,0,0,167.16,3A830.67,830.67,0,0,0,556,679.29V642.67a931,931,0,0,0-333.81-28.2" transform="translate(-3.72 -8.5)"/><path class="cls-1" d="M262,691.24c.85,0,8.37,0,12.85-6,4-5.26,3.17-12,.93-16.13C271,660.3,256.33,657.21,247,663c-10.31,6.39-10.39,21.26-6.37,30.5,3.64,8.35,12,15.11,21,16.27,19.95,2.56,41.82-22.18,42.57-45.3.26-7.89-2.55-15.21-3.38-17.45-1.42-3.78-5.28-14.11-14.78-21.54-9.27-7.24-28.89-15.61-40.94-5.73-8.08,6.63-12.37,21.15-5.27,30.56,8.33,11,28.54,10,33.91,1.89,2.5-3.77,1.93-9.27.1-13.16-3.25-6.91-10.46-8.63-11.34-8.83" transform="translate(-3.72 -8.5)"/><path class="cls-1" d="M310.08,690c-.24,10.4,6.22,19.25,14.79,21.5,9.95,2.62,19-4.63,22.5-11,6-11,.59-28.55-15.62-40.42" transform="translate(-3.72 -8.5)"/><path class="cls-1" d="M311,627c.06-10.19,6.87-17.56,15.63-18.08,10.16-.61,19.14,8.24,22.49,15.12,5.79,11.87-.22,28-17,36.39" transform="translate(-3.72 -8.5)"/><path class="cls-1" d="M400.64,682.45c-6.87-5.43-9.44-12.64-6.92-16.91,3.43-5.83,15.08-4.47,21.25,0,10.07,7.34,9.78,29.39-4.33,38.8-15,10-36.68,1.71-44.7-13.63-6.23-11.91.15-24.91,1.21-26.66" transform="translate(-3.72 -8.5)"/><path class="cls-1" d="M399.48,640.46c-6.06,5.4-7.77,12.72-4.86,17.17,4,6.06,15.1,5,20.59.49,9-7.26,6.28-29.87-8.42-39.86-15.64-10.63-35.74-2.66-41.84,12.86-4.74,12.06,2.86,25.54,4.08,27.35" transform="translate(-3.72 -8.5)"/><path class="cls-1" d="M460.66,702.94a20.12,20.12,0,0,1-10.39-.49c-7.32-2.4-12.66-9.19-13.64-15.69-1.65-10.83,9.91-13.44,10.42-25.41.58-13.6-13.95-18.66-10.85-29.12,1.83-6.15,9.11-12,16-11.45a12.83,12.83,0,0,1,6.47,2.56" transform="translate(-3.72 -8.5)"/><line class="cls-1" x1="552.28" y1="651.57" x2="299.81" y2="651.57"/><ellipse class="cls-1" cx="1204.42" cy="652.98" rx="13.17" ry="12.95"/><line class="cls-1" x1="1339.82" y1="655.94" x2="1217.58" y2="655.94"/><path class="cls-1" d="M1168.78,686.8V643.21l50.57-33.83a138.14,138.14,0,0,0,21,25.87,141.33,141.33,0,0,0,39.81,27,240.16,240.16,0,0,0-39.31,25,237.7,237.7,0,0,0-27.61,25.3Z" transform="translate(-3.72 -8.5)"/><polygon class="cls-1" points="1157.15 699.44 1126.9 699 1126.9 605.97 1161.09 607.36 1157.15 699.44"/><path class="cls-1" d="M1130.62,707.49a831.75,831.75,0,0,1-167.12,3,830.36,830.36,0,0,1-166.61-31.17V642.67a930.54,930.54,0,0,1,333.73-28.2" transform="translate(-3.72 -8.5)"/><path class="cls-1" d="M1090.8,691.24c-.86,0-8.38,0-12.86-6-4-5.26-3.17-12-.93-16.13,4.79-8.84,19.48-11.93,28.83-6.14,10.32,6.39,10.4,21.26,6.37,30.5-3.63,8.35-11.94,15.11-21,16.27-19.94,2.56-41.81-22.18-42.56-45.3-.26-7.89,2.55-15.21,3.38-17.45,1.42-3.78,5.27-14.11,14.78-21.54,9.27-7.24,28.88-15.61,40.93-5.73,8.08,6.63,12.36,21.15,5.27,30.56-8.33,11-28.53,10-33.9,1.89-2.5-3.77-1.94-9.27-.11-13.16,3.26-6.91,10.46-8.63,11.35-8.83" transform="translate(-3.72 -8.5)"/><path class="cls-1" d="M1042.76,690c.23,10.4-6.23,19.25-14.8,21.5-10,2.62-19-4.63-22.49-11-6-11-.59-28.55,15.61-40.42" transform="translate(-3.72 -8.5)"/><path class="cls-1" d="M1041.87,627c-.06-10.19-6.86-17.56-15.62-18.08-10.17-.61-19.14,8.24-22.49,15.12-5.79,11.87.22,28,17,36.39" transform="translate(-3.72 -8.5)"/><path class="cls-1" d="M952.21,682.45c6.87-5.43,9.44-12.64,6.92-16.91-3.43-5.83-15.07-4.47-21.25,0-10.06,7.34-9.78,29.39,4.33,38.8,15,10,36.68,1.71,44.69-13.63,6.23-11.91-.15-24.91-1.21-26.66" transform="translate(-3.72 -8.5)"/><path class="cls-1" d="M953.37,640.46c6.07,5.4,7.77,12.72,4.86,17.17-4,6.06-15.09,5-20.59.49-8.95-7.26-6.27-29.87,8.42-39.86,15.64-10.63,35.73-2.66,41.83,12.86,4.74,12.06-2.86,25.54-4.08,27.35" transform="translate(-3.72 -8.5)"/><path class="cls-1" d="M892.2,702.94a20.16,20.16,0,0,0,10.4-.49c7.31-2.4,12.65-9.19,13.64-15.69,1.64-10.83-9.91-13.44-10.43-25.41-.58-13.6,14-18.66,10.85-29.12-1.83-6.15-9.11-12-16-11.45a12.79,12.79,0,0,0-6.46,2.56" transform="translate(-3.72 -8.5)"/><line class="cls-1" x1="793.17" y1="651.57" x2="1045.57" y2="651.57"/><path class="cls-1" d="M676.81,14C308.33,14,9.62,286.74,9.62,623.17c0,336.89-.13,465.33,662.88,465.33,670,0,671.5-105,671.5-465.33C1344,286.74,1045.29,14,676.81,14Zm-1,772.28c-64.32,0-116.47-50-116.47-111.66S611.45,563,675.77,563s116.48,50,116.48,111.67S740.1,786.28,675.77,786.28Z" transform="translate(-3.72 -8.5)"/><path class="cls-2" d="M298.71,1008.28H235.29V838.6H302.6c56.13,0,90.15,24.31,90.15,82.65C392.75,982.51,353.87,1008.28,298.71,1008.28ZM299,878.46h-10.7v89.47H299.2c25.76,0,38.88-17.51,38.88-44C338.08,897.91,328.84,878.46,299,878.46Z" transform="translate(-3.72 -8.5)"/><path class="cls-2" d="M497.48,1012.66c-54.91,0-86.5-20.91-86.5-89.22,0-56.16,31.1-89.22,88-89.22,53.7,0,86.51,22.85,86.51,87.52C585.45,981.05,555.56,1012.66,497.48,1012.66Zm.49-135.9c-25.76,0-31.35,20.67-31.35,44.49,0,33.55,7.54,48.86,31.84,48.86,24.78,0,31.34-19.44,31.34-46.18C529.8,893.54,522.76,876.76,498,876.76Z" transform="translate(-3.72 -8.5)"/><path class="cls-2" d="M610,1008.28V838.6H721.28v39.86H663v23.1h49.09V940.7H663v27.71h59v39.87Z" transform="translate(-3.72 -8.5)"/><path class="cls-2" d="M914.47,1008.28c0-39.38-.73-84.6-2.43-117.9h-.25l-32.07,117.9H829.66L798.8,890.38h-.24c-1.7,33.3-3.16,78.52-3.16,117.9H748c0-51.54,3.41-115.72,8-169.68H833.3l24.3,93.59,25.52-93.59h77.27c4.38,54,7.29,118.14,7.29,169.68Z" transform="translate(-3.72 -8.5)"/><path class="cls-2" d="M1101.09,1008.28c-1.94-8.51-4.38-19.45-6.8-29.41h-51.52c-2.92,10.69-5.35,20.42-7.53,29.41H984c15.31-54.45,32.08-107.45,54.68-169.68h67.07c20.65,57.13,40.33,115.71,55.16,169.68Zm-31.35-120.82h-.24c-5.83,18-10.94,34.76-15.79,51.78h30.61C1079.46,921.25,1075.33,905.45,1069.74,887.46Z" transform="translate(-3.72 -8.5)"/><line class="cls-3" x1="10.78" y1="743.85" x2="588.78" y2="743.85"/><line class="cls-3" x1="755.78" y1="743.85" x2="1338.78" y2="743.85"/></svg>