<svg id="Layer_1" data-name="Layer 1" xmlns="http://www.w3.org/2000/svg" viewBox="0 0 1345.78 859.52"><defs><style>.cls-1{fill:none;stroke:#fff;stroke-linecap:round;stroke-linejoin:round;stroke-width:11px;}</style></defs><line class="cls-1" x1="53.48" y1="403.2" x2="571.48" y2="612.26"/><path class="cls-1" d="M138.09,312c-20.44-5.6-30.66,6.29-30.66,24.48,0,11.79,17.36,20.68,30.66,18.88,18.95-2.56,24.91-26,25.55-28.68,2.19-18.88-15.62-23.84-15.33-44.76,0-1.22.71-24.9,19-32.88,11.59-5.06,28.6-3.08,37.23,8.4,9,12,7,32.13-5.11,37.77-9.63,4.47-24.48-.66-29.93-11.19A22,22,0,0,1,168,268.58" transform="translate(-3.72 9.02)"/><path class="cls-1" d="M46.08,521.11C27,512.23,27.6,496.84,40.24,483.28c8.21-8.8,27.33-4.34,36,5.49,12.35,14,.5,35.28-.9,37.7-11.5,15.48-28.22,7.8-42.56,23.59-.83.92-16.78,19-8.71,36.63,5.12,11.18,19.19,20.56,33.6,17.52,15.12-3.21,27.6-19.46,22.45-31.43C76.05,563.3,61.42,557.64,50,562a23.44,23.44,0,0,0-11.79,10.54" transform="translate(-3.72 9.02)"/><path class="cls-1" d="M83.34,456c1.17.5,11.48,4.68,21.17-.7,8.59-4.77,11.53-14.21,10.95-21-1.24-14.51-19.49-26.93-35.77-24.49-17.94,2.69-27,22.49-27,37.08,0,13.2,7.28,26.9,19,33.57,25.75,14.68,70.51-6,85.41-36.37,5.08-10.38,5.64-21.73,5.84-25.18.33-5.85,1.25-21.8-7.3-37.08-8.34-14.89-30.15-37.14-52.56-30.77-15,4.27-29.6,21.22-25.55,37.77,4.77,19.44,33.06,29.44,45.26,21.68,5.68-3.6,8.2-11.26,8-17.48-.3-11.07-9.12-17.43-10.22-18.19" transform="translate(-3.72 9.02)"/><path class="cls-1" d="M154.88,472.13c-5.06,11.1-1.94,23.34,6.57,29.38,9.88,7,23.33,3,30.14-2.37,11.76-9.27,13.83-30.5,1.25-50.09" transform="translate(-3.72 9.02)"/><path class="cls-1" d="M185.49,406.84c4.47-10.38,14.81-15.19,24.23-12.2,10.94,3.46,16.54,16.11,17.09,24.48.94,14.45-12.33,28.49-33.59,30.35" transform="translate(-3.72 9.02)"/><path class="cls-1" d="M241,491c-2.9-7.6-1.35-14.88,2.92-17.48,5.8-3.54,14.72,2.59,17.52,9.09,4.56,10.6-6.92,29.41-23.36,31.48-17.49,2.19-31.14-14.19-29.93-30.78.94-12.9,12.83-21.33,14.6-22.38" transform="translate(-3.72 9.02)"/><path class="cls-1" d="M261.4,454.79c-8,1.94-13.26,7.15-13.1,11.86.21,6.43,10.27,9.94,17.27,8.53,11.42-2.29,20.93-21.5,13.63-35.32-7.76-14.71-29-16.25-42.32-6.2-10.32,7.81-10.89,21.62-10.8,23.57" transform="translate(-3.72 9.02)"/><path class="cls-1" d="M282.62,521.79a16.41,16.41,0,0,1-7.29-4.2,15.88,15.88,0,0,1-3.65-16.08c3.07-8.22,12.43-5.77,17.51-14,5.78-9.34-2.71-18.29,3.65-24.49,3.74-3.64,11.31-5.07,16.06-2.09a9.92,9.92,0,0,1,3.65,4.19" transform="translate(-3.72 9.02)"/><path class="cls-1" d="M314,519c-3.45-3.1-7-7-5.84-9.79,1.63-4,11.47-1.78,13.87-6.29,2.75-5.17-7.5-13-5.11-16.79,1-1.58,4.38-2.82,16.06,0" transform="translate(-3.72 9.02)"/><ellipse class="cls-1" cx="298.98" cy="293.34" rx="13.5" ry="12.94"/><line class="cls-1" x1="198.61" y1="201.36" x2="287.24" y2="286.29"/><path class="cls-1" d="M312.55,329.56l32.16-30.81L333,239.7a149.52,149.52,0,0,1-83.07-4.9,227.58,227.58,0,0,1,10.08,45,226.88,226.88,0,0,1,1.35,37.07Z" transform="translate(-3.72 9.02)"/><polygon class="cls-1" points="298.98 359.02 321.24 379.73 389.86 313.97 364.04 291.2 298.98 359.02"/><path class="cls-1" d="M325,370.7A820.42,820.42,0,0,0,444,488.92a842.07,842.07,0,0,0,143.8,93.73l27-25.88a898.59,898.59,0,0,0-84.68-119.62A921,921,0,0,0,393.58,305" transform="translate(-3.72 9.02)"/><path class="cls-1" d="M365.83,386.88c.61.61,6.1,5.8,13.72,4.72a15.92,15.92,0,0,0,12.57-10.76c3.06-9.58-5.32-22-16.37-24.37-12.19-2.65-23.22,7.81-27.12,17.13-3.52,8.43-2.49,19,3.23,26.1,12.58,15.66,46.67,13.36,64.28-2.46,6-5.39,9.37-12.52,10.41-14.68,1.77-3.65,6.59-13.63,5.17-25.49-1.38-11.55-9.42-31.1-25.44-32.49-10.75-.93-24.57,6.36-26.37,17.94-2.11,13.59,13.33,26.88,23.19,24.89,4.59-.92,8.24-5.2,9.78-9.23,2.74-7.15-1.21-13.36-1.71-14.12" transform="translate(-3.72 9.02)"/><path class="cls-1" d="M401.56,419.4c-7.84,7.19-9.68,17.93-5.13,25.48,5.28,8.76,17.2,9.92,24.41,7.86,12.44-3.56,21.48-19.77,18.49-39.41" transform="translate(-3.72 9.02)"/><path class="cls-1" d="M448.67,375.49c7.56-7.16,17.93-7.65,24.67-1.93,7.82,6.63,7.79,19.13,5.15,26.32-4.56,12.41-20.8,19.62-39.17,13.91" transform="translate(-3.72 9.02)"/><path class="cls-1" d="M472.79,477c-1-8.61,2.48-15.49,7.47-16.76,6.78-1.73,14.22,7.31,15.38,14.78,1.89,12.18-14.58,27.56-31.75,24.41C445.63,496,436,475.12,441.53,458.71c4.28-12.75,18.49-17.5,20.55-18" transform="translate(-3.72 9.02)"/><path class="cls-1" d="M502.93,446.48c-8.38-.4-15,3.59-16.19,8.75-1.6,7,7.29,14,14.56,14.66,11.86,1.09,26.59-16.76,23.3-34-3.49-18.37-23.94-26.7-39.81-20-12.33,5.23-16.76,20-17.22,22.17" transform="translate(-3.72 9.02)"/><path class="cls-1" d="M501.19,533.14A19.25,19.25,0,0,1,495.71,505c6.79-8.79,17.09-2.61,26.3-10.72,10.45-9.2,3.64-22.88,13.61-28.11,5.86-3.08,15.48-2.18,20.06,3a12.16,12.16,0,0,1,2.8,6.3" transform="translate(-3.72 9.02)"/><line class="cls-1" x1="598.21" y1="578.09" x2="415.19" y2="402.71"/><line class="cls-1" x1="1298.3" y1="403.2" x2="780.31" y2="612.26"/><path class="cls-1" d="M1221.14,312c20.44-5.6,30.66,6.29,30.66,24.48,0,11.79-17.36,20.68-30.66,18.88-19-2.56-24.91-26-25.55-28.68-2.19-18.88,15.61-23.84,15.33-44.76,0-1.22-.71-24.9-19-32.88-11.59-5.06-28.6-3.08-37.23,8.4-9,12-7,32.13,5.11,37.77,9.63,4.47,24.48-.66,29.93-11.19a22,22,0,0,0,1.46-15.39" transform="translate(-3.72 9.02)"/><path class="cls-1" d="M1313.15,521.11c19.13-8.88,18.48-24.27,5.83-37.83-8.2-8.8-27.32-4.34-36,5.49-12.35,14-.5,35.28.89,37.7,11.5,15.48,28.23,7.8,42.57,23.59.83.92,16.78,19,8.71,36.63-5.13,11.18-19.19,20.56-33.6,17.52-15.13-3.21-27.6-19.46-22.46-31.43,4.08-9.48,18.71-15.14,30.1-10.77A23.48,23.48,0,0,1,1321,572.55" transform="translate(-3.72 9.02)"/><path class="cls-1" d="M1275.89,456c-1.17.5-11.49,4.68-21.17-.7-8.6-4.77-11.54-14.21-11-21,1.24-14.51,19.48-26.93,35.77-24.49,17.94,2.69,27,22.49,27,37.08,0,13.2-7.27,26.9-19,33.57-25.74,14.68-70.5-6-85.4-36.37-5.09-10.38-5.64-21.73-5.84-25.18-.34-5.85-1.25-21.8,7.3-37.08,8.34-14.89,30.15-37.14,52.56-30.77,15,4.27,29.6,21.22,25.55,37.77-4.77,19.44-33.06,29.44-45.26,21.68-5.68-3.6-8.2-11.26-8-17.48.3-11.07,9.12-17.43,10.22-18.19" transform="translate(-3.72 9.02)"/><path class="cls-1" d="M1204.35,472.13c5.06,11.1,1.94,23.34-6.57,29.38-9.89,7-23.33,3-30.14-2.37-11.77-9.27-13.84-30.5-1.25-50.09" transform="translate(-3.72 9.02)"/><path class="cls-1" d="M1173.74,406.84c-4.47-10.38-14.81-15.19-24.23-12.2-10.94,3.46-16.54,16.11-17.09,24.48-.94,14.45,12.33,28.49,33.59,30.35" transform="translate(-3.72 9.02)"/><path class="cls-1" d="M1118.21,491c2.9-7.6,1.34-14.88-2.92-17.48-5.8-3.54-14.72,2.59-17.52,9.09-4.56,10.6,6.92,29.41,23.36,31.48,17.49,2.19,31.14-14.19,29.93-30.78-.94-12.9-12.83-21.33-14.6-22.38" transform="translate(-3.72 9.02)"/><path class="cls-1" d="M1097.83,454.79c8,1.94,13.26,7.15,13.1,11.86-.21,6.43-10.27,9.94-17.27,8.53-11.42-2.29-20.93-21.5-13.63-35.32,7.76-14.71,29-16.25,42.32-6.2,10.32,7.81,10.88,21.62,10.79,23.57" transform="translate(-3.72 9.02)"/><path class="cls-1" d="M1076.6,521.79a16.38,16.38,0,0,0,7.3-4.2,15.88,15.88,0,0,0,3.65-16.08c-3.08-8.22-12.43-5.77-17.52-14-5.77-9.34,2.71-18.29-3.65-24.49-3.73-3.64-11.3-5.07-16.06-2.09a10.06,10.06,0,0,0-3.65,4.19" transform="translate(-3.72 9.02)"/><path class="cls-1" d="M1045.22,519c3.44-3.1,7-7,5.83-9.79-1.62-4-11.46-1.78-13.86-6.29-2.75-5.17,7.5-13,5.11-16.79-1-1.58-4.38-2.82-16.06,0" transform="translate(-3.72 9.02)"/><ellipse class="cls-1" cx="1052.81" cy="293.34" rx="13.5" ry="12.94"/><line class="cls-1" x1="1153.18" y1="201.36" x2="1064.54" y2="286.29"/><path class="cls-1" d="M1046.67,329.56l-32.15-30.81,11.72-59.05a149.52,149.52,0,0,0,83.07-4.9,226.24,226.24,0,0,0-11.43,82Z" transform="translate(-3.72 9.02)"/><polygon class="cls-1" points="1052.81 359.02 1030.54 379.73 961.93 313.97 987.75 291.2 1052.81 359.02"/><path class="cls-1" d="M1034.27,370.7a820.93,820.93,0,0,1-119,118.22,842.46,842.46,0,0,1-143.8,93.73l-27-25.88a899.37,899.37,0,0,1,84.67-119.62A921,921,0,0,1,965.65,305" transform="translate(-3.72 9.02)"/><path class="cls-1" d="M993.4,386.88c-.62.61-6.1,5.8-13.72,4.72a15.93,15.93,0,0,1-12.58-10.76c-3.05-9.58,5.32-22,16.38-24.37,12.19-2.65,23.22,7.81,27.11,17.13,3.53,8.43,2.49,19-3.22,26.1-12.58,15.66-46.67,13.36-64.28-2.46-6-5.39-9.37-12.52-10.41-14.68-1.77-3.65-6.59-13.63-5.17-25.49,1.38-11.55,9.42-31.1,25.44-32.49,10.75-.93,24.57,6.36,26.37,17.94,2.11,13.59-13.33,26.88-23.2,24.89-4.58-.92-8.23-5.2-9.77-9.23-2.74-7.15,1.21-13.36,1.71-14.12" transform="translate(-3.72 9.02)"/><path class="cls-1" d="M957.67,419.4c7.84,7.19,9.68,17.93,5.13,25.48-5.28,8.76-17.2,9.92-24.41,7.86C926,449.18,916.91,433,919.9,413.33" transform="translate(-3.72 9.02)"/><path class="cls-1" d="M910.56,375.49c-7.56-7.16-17.93-7.65-24.67-1.93-7.82,6.63-7.79,19.13-5.15,26.32,4.56,12.41,20.8,19.62,39.16,13.91" transform="translate(-3.72 9.02)"/><path class="cls-1" d="M886.43,477c1-8.61-2.47-15.49-7.46-16.76-6.78-1.73-14.22,7.31-15.38,14.78-1.9,12.18,14.58,27.56,31.75,24.41,18.26-3.35,27.85-24.27,22.36-40.68-4.28-12.75-18.49-17.5-20.55-18" transform="translate(-3.72 9.02)"/><path class="cls-1" d="M856.3,446.48c8.38-.4,15,3.59,16.19,8.75,1.59,7-7.29,14-14.56,14.66-11.86,1.09-26.59-16.76-23.3-34,3.49-18.37,23.94-26.7,39.81-20,12.33,5.23,16.76,20,17.22,22.17" transform="translate(-3.72 9.02)"/><path class="cls-1" d="M858,533.14A19.24,19.24,0,0,0,863.52,505c-6.79-8.79-17.09-2.61-26.3-10.72-10.45-9.2-3.64-22.88-13.61-28.11-5.86-3.08-15.48-2.18-20.07,3a12.21,12.21,0,0,0-2.79,6.3" transform="translate(-3.72 9.02)"/><line class="cls-1" x1="753.58" y1="578.09" x2="936.6" y2="402.71"/><line class="cls-1" x1="416.14" y1="54.92" x2="630.08" y2="552.98"/><path class="cls-1" d="M537.72,42.14C527.33,24.37,511.34,25.91,498,38.82c-8.67,8.37-2.89,26.39,7.87,34.1,15.33,11,36.78-1.63,39.22-3.11,15.44-11.92,6.44-27.46,22-42.12.91-.85,18.81-17.19,37.64-10.52C616.68,21.4,627.3,34.29,625,48.26c-2.43,14.66-18.62,27.56-31.39,23.36-10.12-3.33-16.9-17-13-28.15,2.37-6.82,8-10.55,10.28-11.91" transform="translate(-3.72 9.02)"/><path class="cls-1" d="M318.65,128.47c-7-19.21,4.73-29.7,23.67-30.79,12.29-.7,22.59,15.37,21.51,28.2-1.54,18.28-25.58,25.38-28.35,26.15-19.54,3.23-25.77-13.51-47.55-12-1.27.08-25.89,2.16-33.12,20.11-4.58,11.4-1.5,27.55,11,35.11,13.09,7.94,33.89,4.83,39.05-7.14,4.08-9.48-2.15-23.38-13.45-28a24.91,24.91,0,0,0-16.12-.48" transform="translate(-3.72 9.02)"/><path class="cls-1" d="M392.93,107.45c.47,1.14,4.71,11.07,15.54,13.79,9.61,2.42,18.63-2.3,23.2-7.5,9.78-11.13,6-32.26-7.39-41.52C409.57,62,388.61,70,377.86,80.3c-9.73,9.34-14.62,24-11.21,36.64,7.48,27.8,54.41,43.36,87.35,31.84,11.24-3.93,20-11.61,22.66-13.93,4.53-3.92,16.91-14.63,22.07-31.24,5-16.2,5.91-46.72-14.67-57.32-13.81-7.12-36.61-4.93-45.9,9.56-10.91,17,1.81,43.21,16.18,45.94,6.68,1.27,14.1-2.46,18.55-7,7.92-8.06,6.34-18.53,6.12-19.81" transform="translate(-3.72 9.02)"/><path class="cls-1" d="M431.88,167.16c-11.75,4.46-18.55,15.25-16.94,25.28,1.87,11.65,14.35,17.88,23.14,18.67,15.16,1.36,32.23-12.31,37.71-34.71" transform="translate(-3.72 9.02)"/><path class="cls-1" d="M501.6,141.49c10.81-4.36,21.67-.79,26.17,7.69,5.22,9.84-.11,22.6-5.87,28.91C512,189,492.2,190,475.75,177" transform="translate(-3.72 9.02)"/><path class="cls-1" d="M479.13,238.71c3.53-7.35,10-11.47,14.92-10.44,6.73,1.41,8.54,11.78,5.75,18.28-4.55,10.6-26.53,16.2-39.72,6.57-14-10.25-11.67-31.08,1.39-42.05,10.15-8.51,24.79-6.48,26.82-6" transform="translate(-3.72 9.02)"/><path class="cls-1" d="M520.22,226.76c-7.09-4-14.66-3.88-18-.42-4.57,4.7,0,14,6,17.71,9.79,6.08,30.66-1.13,35.64-15.87,5.31-15.68-8.66-31.13-25.47-33-13.07-1.43-23.63,8-25,9.44" transform="translate(-3.72 9.02)"/><path class="cls-1" d="M486,288.64a15.09,15.09,0,0,1-2.1-7.9,16.41,16.41,0,0,1,9.24-13.89c8.23-3.75,13.06,4.31,22.72,1.9,11-2.73,11.52-14.8,20.59-14.91,5.33-.06,11.75,4,12.94,9.35a9.48,9.48,0,0,1-.5,5.44" transform="translate(-3.72 9.02)"/><path class="cls-1" d="M510.36,307.85c-.17-4.53.24-9.69,3.06-10.9,4.09-1.74,9.45,6.48,14.47,4.9,5.74-1.81,4.22-14.28,8.72-15.37,1.86-.45,5.17,1,11.39,10.84" transform="translate(-3.72 9.02)"/><line class="cls-1" x1="930.2" y1="54.92" x2="716.26" y2="552.98"/><path class="cls-1" d="M816.06,42.14c10.39-17.77,26.38-16.23,39.75-3.32,8.67,8.37,2.89,26.39-7.87,34.1-15.33,11-36.78-1.63-39.22-3.11-15.44-11.92-6.44-27.46-22-42.12-.91-.85-18.81-17.19-37.64-10.52C737.1,21.4,726.48,34.29,728.8,48.26c2.43,14.66,18.62,27.56,31.4,23.36,10.12-3.33,16.89-17,13-28.15-2.37-6.82-8-10.55-10.28-11.91" transform="translate(-3.72 9.02)"/><path class="cls-1" d="M1035.13,128.47c7-19.21-4.73-29.7-23.67-30.79-12.28-.7-22.58,15.37-21.51,28.2,1.54,18.28,25.58,25.38,28.35,26.15,19.55,3.23,25.77-13.51,47.55-12,1.27.08,25.89,2.16,33.12,20.11,4.58,11.4,1.5,27.55-11,35.11-13.09,7.94-33.89,4.83-39-7.14-4.08-9.48,2.14-23.38,13.44-28a24.9,24.9,0,0,1,16.12-.48" transform="translate(-3.72 9.02)"/><path class="cls-1" d="M960.85,107.45c-.47,1.14-4.71,11.07-15.54,13.79-9.61,2.42-18.63-2.3-23.2-7.5-9.78-11.13-6-32.26,7.39-41.52C944.21,62,965.17,70,975.92,80.3c9.73,9.34,14.62,24,11.22,36.64-7.49,27.8-54.42,43.36-87.36,31.84-11.23-3.93-20-11.61-22.66-13.93-4.53-3.92-16.91-14.63-22.07-31.24-5-16.2-5.91-46.72,14.67-57.32,13.81-7.12,36.61-4.93,45.9,9.56,10.92,17-1.81,43.21-16.17,45.94-6.68,1.27-14.11-2.46-18.56-7C873,86.74,874.56,76.27,874.77,75" transform="translate(-3.72 9.02)"/><path class="cls-1" d="M921.9,167.16c11.75,4.46,18.55,15.25,16.94,25.28-1.87,11.65-14.35,17.88-23.14,18.67-15.15,1.36-32.23-12.31-37.71-34.71" transform="translate(-3.72 9.02)"/><path class="cls-1" d="M852.18,141.49c-10.81-4.36-21.67-.79-26.17,7.69-5.22,9.84.11,22.6,5.88,28.91C841.84,189,861.58,190,878,177" transform="translate(-3.72 9.02)"/><path class="cls-1" d="M874.66,238.71c-3.54-7.35-10-11.47-14.93-10.44-6.72,1.41-8.54,11.78-5.75,18.28,4.55,10.6,26.53,16.2,39.72,6.57,14-10.25,11.67-31.08-1.39-42.05-10.14-8.51-24.79-6.48-26.82-6" transform="translate(-3.72 9.02)"/><path class="cls-1" d="M833.56,226.76c7.09-4,14.66-3.88,18-.42,4.57,4.7,0,14-6,17.71-9.79,6.08-30.66-1.13-35.64-15.87-5.31-15.68,8.66-31.13,25.47-33,13.07-1.43,23.63,8,25,9.44" transform="translate(-3.72 9.02)"/><path class="cls-1" d="M867.75,288.64a15,15,0,0,0,2.1-7.9,16.41,16.41,0,0,0-9.24-13.89c-8.23-3.75-13.06,4.31-22.72,1.9-11-2.73-11.52-14.8-20.59-14.91-5.32-.06-11.75,4-12.94,9.35a9.48,9.48,0,0,0,.5,5.44" transform="translate(-3.72 9.02)"/><path class="cls-1" d="M843.42,307.85c.17-4.53-.23-9.69-3.06-10.9-4.09-1.74-9.44,6.48-14.47,4.9-5.74-1.81-4.21-14.28-8.71-15.37-1.87-.45-5.18,1-11.4,10.84" transform="translate(-3.72 9.02)"/><ellipse class="cls-1" cx="673.65" cy="144.84" rx="13.5" ry="12.94"/><line class="cls-1" x1="672.23" y1="11.77" x2="670.71" y2="131.88"/><path class="cls-1" d="M650.46,174.18l45.47.53,35.91-49.28a143,143,0,0,1-26.72-21A138.34,138.34,0,0,1,677.48,65a235.26,235.26,0,0,1-26.55,38.32,240.78,240.78,0,0,1-26.73,26.83Z" transform="translate(-3.72 9.02)"/><polygon class="cls-1" points="624.6 190.72 624.68 220.45 721.72 221.58 720.68 187.97 624.6 190.72"/><path class="cls-1" d="M628.41,211.43a771.62,771.62,0,0,0,25.28,328.24l38.2.45A867.08,867.08,0,0,0,722.06,398.5a862.84,862.84,0,0,0,3.38-185.95" transform="translate(-3.72 9.02)"/><path class="cls-1" d="M644.87,250.75c0,.85-.07,8.23,6.07,12.71,5.44,4,12.47,3.26,16.81,1.11,9.28-4.6,12.69-19,6.76-28.26-6.54-10.21-22-10.47-31.73-6.63-8.76,3.48-15.91,11.55-17.24,20.45-2.91,19.56,22.62,41.34,46.73,42.36,8.22.35,15.9-2.32,18.24-3.11,4-1.35,14.78-5,22.65-14.26,7.66-9,16.64-28.19,6.49-40.15-6.82-8-21.91-12.4-31.81-5.55-11.63,8.05-10.77,27.92-2.39,33.29,3.89,2.5,9.64,2,13.72.26a16.84,16.84,0,0,0,9.35-11" transform="translate(-3.72 9.02)"/><path class="cls-1" d="M645.54,298c-10.84-.36-20.15,5.88-22.61,14.28-2.85,9.74,4.61,18.72,11.18,22.23,11.35,6,29.77.92,42.35-14.85" transform="translate(-3.72 9.02)"/><path class="cls-1" d="M711.24,299.6c10.63.18,18.24,7,18.68,15.57.5,10-8.84,18.7-16.06,21.91-12.45,5.54-29.18-.56-37.74-17.14" transform="translate(-3.72 9.02)"/><path class="cls-1" d="M652.32,387c5.75-6.68,13.3-9.12,17.73-6.59,6,3.44,4.47,14.87-.29,20.88-7.78,9.8-30.77,9.25-40.41-4.72-10.26-14.87-1.33-36.06,14.76-43.75,12.51-6,26,.45,27.79,1.51" transform="translate(-3.72 9.02)"/><path class="cls-1" d="M696.13,386.39c-5.56-6-13.17-7.79-17.85-5-6.36,3.82-5.35,14.77-.77,20.22,7.47,8.89,31.08,6.53,41.69-7.79,11.28-15.23,3.21-35.07-12.9-41.25-12.52-4.8-26.67,2.5-28.58,3.67" transform="translate(-3.72 9.02)"/><path class="cls-1" d="M630.2,445.74a18.88,18.88,0,0,1,.64-10.21,21.28,21.28,0,0,1,16.54-13.21c11.31-1.48,13.89,9.9,26.38,10.55,14.18.74,19.63-13.48,30.5-10.3,6.39,1.86,12.44,9.09,11.74,15.88a12.23,12.23,0,0,1-2.75,6.32" transform="translate(-3.72 9.02)"/><line class="cls-1" x1="670.02" y1="548.93" x2="673.14" y2="300.93"/><ellipse class="cls-1" cx="140.94" cy="652.69" rx="13.17" ry="12.94"/><line class="cls-1" x1="5.5" y1="655.66" x2="127.77" y2="655.66"/><path class="cls-1" d="M184,669V625.41l-50.58-33.82a138.11,138.11,0,0,1-21,25.86,141.28,141.28,0,0,1-39.82,27,240.63,240.63,0,0,1,39.32,25,238.69,238.69,0,0,1,27.62,25.3Z" transform="translate(-3.72 9.02)"/><polygon class="cls-1" points="188.21 699.13 218.47 698.69 218.47 605.7 184.27 607.1 188.21 699.13"/><path class="cls-1" d="M222.19,689.66a832.13,832.13,0,0,0,167.16,3A831.44,831.44,0,0,0,556,661.47v-36.6a931.35,931.35,0,0,0-333.81-28.19" transform="translate(-3.72 9.02)"/><path class="cls-1" d="M262,673.42c.85,0,8.37,0,12.85-6,4-5.26,3.17-12,.93-16.12-4.79-8.84-19.48-11.93-28.84-6.14-10.31,6.39-10.39,21.25-6.37,30.48,3.64,8.35,12,15.11,21,16.27,19.95,2.55,41.82-22.17,42.57-45.28.26-7.89-2.55-15.21-3.38-17.44-1.42-3.78-5.28-14.11-14.78-21.53-9.27-7.24-28.89-15.61-40.94-5.73-8.08,6.62-12.37,21.14-5.27,30.54,8.33,11,28.54,10,33.91,1.89,2.5-3.76,1.93-9.26.1-13.15-3.25-6.91-10.46-8.63-11.34-8.82" transform="translate(-3.72 9.02)"/><path class="cls-1" d="M310.08,672.2c-.24,10.39,6.22,19.24,14.79,21.49,9.95,2.62,19-4.63,22.5-11,6-11,.59-28.53-15.62-40.4" transform="translate(-3.72 9.02)"/><path class="cls-1" d="M311,609.23c.06-10.19,6.87-17.56,15.63-18.08,10.16-.61,19.14,8.24,22.49,15.12,5.79,11.86-.22,28-17,36.37" transform="translate(-3.72 9.02)"/><path class="cls-1" d="M400.64,664.63c-6.87-5.43-9.44-12.63-6.92-16.91,3.43-5.82,15.08-4.46,21.25,0,10.07,7.33,9.78,29.37-4.33,38.78-15,10-36.68,1.71-44.7-13.62-6.23-11.91.15-24.9,1.21-26.65" transform="translate(-3.72 9.02)"/><path class="cls-1" d="M399.48,622.66c-6.06,5.4-7.77,12.72-4.86,17.16,4,6,15.1,4.95,20.59.5,9-7.27,6.28-29.87-8.42-39.85-15.64-10.63-35.74-2.66-41.84,12.85-4.74,12.06,2.86,25.53,4.08,27.34" transform="translate(-3.72 9.02)"/><path class="cls-1" d="M460.66,685.11a20.21,20.21,0,0,1-10.39-.48c-7.32-2.41-12.66-9.2-13.64-15.69-1.65-10.83,9.91-13.43,10.42-25.4.58-13.6-13.95-18.65-10.85-29.11,1.83-6.14,9.11-12,16-11.44a12.83,12.83,0,0,1,6.47,2.56" transform="translate(-3.72 9.02)"/><line class="cls-1" x1="552.28" y1="651.28" x2="299.81" y2="651.28"/><ellipse class="cls-1" cx="1204.42" cy="652.69" rx="13.17" ry="12.94"/><line class="cls-1" x1="1339.82" y1="655.66" x2="1217.58" y2="655.66"/><path class="cls-1" d="M1168.78,669V625.41l50.57-33.82a138.11,138.11,0,0,0,21,25.86,141.26,141.26,0,0,0,39.81,27,240.59,240.59,0,0,0-39.31,25,237.7,237.7,0,0,0-27.61,25.3Z" transform="translate(-3.72 9.02)"/><polygon class="cls-1" points="1157.15 699.13 1126.9 698.69 1126.9 605.7 1161.09 607.1 1157.15 699.13"/><path class="cls-1" d="M1130.62,689.66a831.75,831.75,0,0,1-167.12,3,831.13,831.13,0,0,1-166.61-31.16v-36.6a930.88,930.88,0,0,1,333.73-28.19" transform="translate(-3.72 9.02)"/><path class="cls-1" d="M1090.8,673.42c-.86,0-8.38,0-12.86-6-4-5.26-3.17-12-.93-16.12,4.79-8.84,19.48-11.93,28.83-6.14,10.32,6.39,10.4,21.25,6.37,30.48-3.63,8.35-11.94,15.11-21,16.27-19.94,2.55-41.81-22.17-42.56-45.28-.26-7.89,2.55-15.21,3.38-17.44,1.42-3.78,5.27-14.11,14.78-21.53,9.27-7.24,28.88-15.61,40.93-5.73,8.08,6.62,12.36,21.14,5.27,30.54-8.33,11-28.53,10-33.9,1.89-2.5-3.76-1.94-9.26-.11-13.15,3.26-6.91,10.46-8.63,11.35-8.82" transform="translate(-3.72 9.02)"/><path class="cls-1" d="M1042.76,672.2c.23,10.39-6.23,19.24-14.8,21.49-10,2.62-19-4.63-22.49-11-6-11-.59-28.53,15.61-40.4" transform="translate(-3.72 9.02)"/><path class="cls-1" d="M1041.87,609.23c-.06-10.19-6.86-17.56-15.62-18.08-10.17-.61-19.14,8.24-22.49,15.12-5.79,11.86.22,28,17,36.37" transform="translate(-3.72 9.02)"/><path class="cls-1" d="M952.21,664.63c6.87-5.43,9.44-12.63,6.92-16.91-3.43-5.82-15.07-4.46-21.25,0-10.06,7.33-9.78,29.37,4.33,38.78,15,10,36.68,1.71,44.69-13.62,6.23-11.91-.15-24.9-1.21-26.65" transform="translate(-3.72 9.02)"/><path class="cls-1" d="M953.37,622.66c6.07,5.4,7.77,12.72,4.86,17.16-4,6-15.09,4.95-20.59.5-8.95-7.27-6.27-29.87,8.42-39.85,15.64-10.63,35.73-2.66,41.83,12.85,4.74,12.06-2.86,25.53-4.08,27.34" transform="translate(-3.72 9.02)"/><path class="cls-1" d="M892.2,685.11a20.25,20.25,0,0,0,10.4-.48c7.31-2.41,12.65-9.2,13.64-15.69,1.64-10.83-9.91-13.43-10.43-25.4-.58-13.6,14-18.65,10.85-29.11-1.83-6.14-9.11-12-16-11.44a12.79,12.79,0,0,0-6.46,2.56" transform="translate(-3.72 9.02)"/><line class="cls-1" x1="793.17" y1="651.28" x2="1045.57" y2="651.28"/><path class="cls-1" d="M676.81-3.52C308.33-3.52,9.62,269.09,9.62,605.38c0,336.74.87,220.08,663.88,220.08,670,0,670.5,116.21,670.5-220.08S1045.29-3.52,676.81-3.52Zm-1,771.93c-64.32,0-116.47-50-116.47-111.61s52.15-111.61,116.47-111.61,116.48,50,116.48,111.61S740.1,768.41,675.77,768.41Z" transform="translate(-3.72 9.02)"/></svg>