<svg id="Layer_1" data-name="Layer 1" xmlns="http://www.w3.org/2000/svg" viewBox="0 0 1351.69 1093.01"><defs><style>.cls-1,.cls-5{fill:none;}.cls-1,.cls-3{stroke:#c6c6c6;}.cls-1,.cls-3,.cls-5{stroke-linecap:round;stroke-linejoin:round;stroke-width:11px;}.cls-2{fill:#dadada;}.cls-3{fill:#0f0505;}.cls-4{opacity:0.07;}.cls-5{stroke:#1d1d1b;}</style></defs><line class="cls-1" x1="59.39" y1="410.88" x2="577.39" y2="620.04"/><path class="cls-1" d="M142.09,331.61c-20.44-5.6-30.66,6.3-30.66,24.49,0,11.8,17.36,20.69,30.66,18.9,18.95-2.57,24.91-26,25.55-28.7,2.19-18.89-15.62-23.85-15.33-44.78,0-1.22.71-24.91,19-32.89,11.59-5.07,28.6-3.09,37.23,8.39,9,12.06,7,32.15-5.11,37.79-9.63,4.47-24.48-.65-29.93-11.19a22,22,0,0,1-1.46-15.4" transform="translate(-1.81 -2.99)"/><path class="cls-1" d="M50.08,540.86C31,532,31.6,516.58,44.24,503c8.21-8.8,27.33-4.35,36,5.49,12.35,14,.5,35.3-.9,37.72-11.5,15.48-28.22,7.81-42.56,23.6-.83.92-16.78,19-8.71,36.65,5.12,11.18,19.19,20.57,33.6,17.52,15.12-3.2,27.6-19.47,22.45-31.44-4.07-9.49-18.7-15.15-30.09-10.77a23.4,23.4,0,0,0-11.79,10.54" transform="translate(-1.81 -2.99)"/><path class="cls-1" d="M87.34,475.77c1.17.49,11.48,4.68,21.17-.7,8.59-4.78,11.53-14.22,10.95-21-1.24-14.51-19.49-26.93-35.77-24.49-17.94,2.69-27,22.49-27,37.09,0,13.21,7.28,26.91,19,33.59,25.75,14.68,70.51-6,85.41-36.39,5.08-10.38,5.64-21.74,5.84-25.19.33-5.85,1.25-21.81-7.3-37.09-8.34-14.9-30.15-37.16-52.56-30.79C92,375.07,77.45,392,81.5,408.59,86.27,428,114.56,438,126.76,430.28c5.68-3.61,8.2-11.27,8-17.49-.3-11.08-9.12-17.44-10.22-18.2" transform="translate(-1.81 -2.99)"/><path class="cls-1" d="M158.88,491.86c-5.06,11.11-1.94,23.36,6.57,29.39,9.88,7,23.33,3,30.14-2.37,11.76-9.27,13.83-30.51,1.25-50.11" transform="translate(-1.81 -2.99)"/><path class="cls-1" d="M189.49,426.55c4.47-10.39,14.81-15.2,24.23-12.21,10.94,3.46,16.54,16.11,17.09,24.49.94,14.45-12.33,28.5-33.59,30.36" transform="translate(-1.81 -2.99)"/><path class="cls-1" d="M245,510.76c-2.9-7.61-1.35-14.9,2.92-17.5,5.8-3.54,14.72,2.6,17.52,9.1,4.56,10.6-6.92,29.43-23.36,31.49-17.49,2.2-31.14-14.19-29.93-30.79.94-12.9,12.83-21.34,14.6-22.39" transform="translate(-1.81 -2.99)"/><path class="cls-1" d="M265.4,474.52c-8,1.94-13.26,7.15-13.1,11.87.21,6.42,10.27,9.94,17.27,8.53,11.42-2.3,20.93-21.51,13.63-35.34-7.76-14.72-29-16.26-42.32-6.2C230.56,461.19,230,475,230.08,477" transform="translate(-1.81 -2.99)"/><path class="cls-1" d="M286.62,541.55a16.41,16.41,0,0,1-7.29-4.2,15.91,15.91,0,0,1-3.65-16.1c3.07-8.22,12.43-5.76,17.51-14,5.78-9.35-2.71-18.29,3.65-24.49,3.74-3.65,11.31-5.09,16.06-2.1a9.92,9.92,0,0,1,3.65,4.19" transform="translate(-1.81 -2.99)"/><path class="cls-1" d="M318,538.75c-3.45-3.1-7-7-5.84-9.8,1.63-4,11.47-1.78,13.87-6.3,2.75-5.16-7.5-13-5.11-16.79,1-1.58,4.38-2.82,16.06,0" transform="translate(-1.81 -2.99)"/><ellipse class="cls-1" cx="304.89" cy="300.97" rx="13.5" ry="12.95"/><line class="cls-1" x1="204.52" y1="208.95" x2="293.15" y2="293.92"/><path class="cls-1" d="M316.55,349.23l32.16-30.82L337,259.33a149.52,149.52,0,0,1-83.07-4.9,227.64,227.64,0,0,1,10.08,45,227.07,227.07,0,0,1,1.35,37.08Z" transform="translate(-1.81 -2.99)"/><polygon class="cls-1" points="304.89 366.68 327.15 387.4 395.77 321.62 369.94 298.84 304.89 366.68"/><path class="cls-1" d="M329,390.39A820.47,820.47,0,0,0,448,508.66a842,842,0,0,0,143.8,93.77l27-25.89a899.46,899.46,0,0,0-84.68-119.67,921.24,921.24,0,0,0-136.5-132.26" transform="translate(-1.81 -2.99)"/><path class="cls-1" d="M369.83,406.58c.61.6,6.1,5.8,13.72,4.71a15.91,15.91,0,0,0,12.57-10.75c3.06-9.59-5.32-22-16.37-24.39-12.19-2.65-23.22,7.81-27.12,17.14-3.52,8.44-2.49,19,3.23,26.11,12.58,15.66,46.67,13.37,64.28-2.45,6-5.4,9.37-12.53,10.41-14.69,1.77-3.66,6.59-13.64,5.17-25.5-1.38-11.56-9.42-31.12-25.44-32.51-10.75-.93-24.57,6.36-26.37,17.94-2.11,13.61,13.33,26.9,23.19,24.91,4.59-.92,8.24-5.21,9.78-9.23,2.74-7.16-1.21-13.37-1.71-14.13" transform="translate(-1.81 -2.99)"/><path class="cls-1" d="M405.56,439.11c-7.84,7.19-9.68,17.94-5.13,25.49,5.28,8.77,17.2,9.93,24.41,7.86,12.44-3.56,21.48-19.77,18.49-39.42" transform="translate(-1.81 -2.99)"/><path class="cls-1" d="M452.67,395.18c7.56-7.16,17.93-7.65,24.67-1.93,7.82,6.64,7.79,19.14,5.15,26.33-4.56,12.41-20.8,19.63-39.17,13.91" transform="translate(-1.81 -2.99)"/><path class="cls-1" d="M476.79,496.7c-1-8.62,2.48-15.5,7.47-16.77,6.78-1.74,14.22,7.32,15.38,14.79,1.89,12.18-14.58,27.57-31.75,24.42-18.26-3.35-27.86-24.28-22.36-40.7,4.28-12.76,18.49-17.51,20.55-18" transform="translate(-1.81 -2.99)"/><path class="cls-1" d="M506.93,466.2c-8.38-.39-15,3.59-16.19,8.76-1.6,7,7.29,14,14.56,14.66,11.86,1.09,26.59-16.76,23.3-34-3.49-18.38-23.94-26.71-39.81-20-12.33,5.23-16.76,20-17.22,22.18" transform="translate(-1.81 -2.99)"/><path class="cls-1" d="M505.19,552.9a19.25,19.25,0,0,1-5.48-28.15C506.5,516,516.8,522.14,526,514c10.45-9.21,3.64-22.89,13.61-28.13,5.86-3.07,15.48-2.18,20.06,3.05a12.09,12.09,0,0,1,2.8,6.3" transform="translate(-1.81 -2.99)"/><line class="cls-1" x1="604.12" y1="585.85" x2="421.1" y2="410.39"/><line class="cls-1" x1="1304.21" y1="410.88" x2="786.22" y2="620.04"/><path class="cls-1" d="M1225.14,331.61c20.44-5.6,30.66,6.3,30.66,24.49,0,11.8-17.36,20.69-30.66,18.9-19-2.57-24.91-26-25.55-28.7-2.19-18.89,15.61-23.85,15.33-44.78,0-1.22-.71-24.91-19-32.89-11.59-5.07-28.6-3.09-37.23,8.39-9,12.06-7,32.15,5.11,37.79,9.63,4.47,24.48-.65,29.93-11.19a22,22,0,0,0,1.46-15.4" transform="translate(-1.81 -2.99)"/><path class="cls-1" d="M1317.15,540.86c19.13-8.88,18.48-24.28,5.83-37.84-8.2-8.8-27.32-4.35-36,5.49-12.35,14-.5,35.3.89,37.72,11.5,15.48,28.23,7.81,42.57,23.6.83.92,16.78,19,8.71,36.65-5.13,11.18-19.19,20.57-33.6,17.52-15.13-3.2-27.6-19.47-22.46-31.44,4.08-9.49,18.71-15.15,30.1-10.77A23.44,23.44,0,0,1,1325,592.33" transform="translate(-1.81 -2.99)"/><path class="cls-1" d="M1279.89,475.77c-1.17.49-11.49,4.68-21.17-.7-8.6-4.78-11.54-14.22-11-21,1.24-14.51,19.48-26.93,35.77-24.49,17.94,2.69,27,22.49,27,37.09,0,13.21-7.27,26.91-19,33.59-25.74,14.68-70.5-6-85.4-36.39-5.09-10.38-5.64-21.74-5.84-25.19-.34-5.85-1.25-21.81,7.3-37.09,8.34-14.9,30.15-37.16,52.56-30.79,15,4.27,29.6,21.23,25.55,37.79C1281,428,1252.67,438,1240.47,430.28c-5.68-3.61-8.2-11.27-8-17.49.3-11.08,9.12-17.44,10.22-18.2" transform="translate(-1.81 -2.99)"/><path class="cls-1" d="M1208.35,491.86c5.06,11.11,1.94,23.36-6.57,29.39-9.89,7-23.33,3-30.14-2.37-11.77-9.27-13.84-30.51-1.25-50.11" transform="translate(-1.81 -2.99)"/><path class="cls-1" d="M1177.74,426.55c-4.47-10.39-14.81-15.2-24.23-12.21-10.94,3.46-16.54,16.11-17.09,24.49-.94,14.45,12.33,28.5,33.59,30.36" transform="translate(-1.81 -2.99)"/><path class="cls-1" d="M1122.21,510.76c2.9-7.61,1.34-14.9-2.92-17.5-5.8-3.54-14.72,2.6-17.52,9.1-4.56,10.6,6.92,29.43,23.36,31.49,17.49,2.2,31.14-14.19,29.93-30.79-.94-12.9-12.83-21.34-14.6-22.39" transform="translate(-1.81 -2.99)"/><path class="cls-1" d="M1101.83,474.52c8,1.94,13.26,7.15,13.1,11.87-.21,6.42-10.27,9.94-17.27,8.53-11.42-2.3-20.93-21.51-13.63-35.34,7.76-14.72,29-16.26,42.32-6.2,10.32,7.81,10.88,21.63,10.79,23.57" transform="translate(-1.81 -2.99)"/><path class="cls-1" d="M1080.6,541.55a16.38,16.38,0,0,0,7.3-4.2,15.91,15.91,0,0,0,3.65-16.1c-3.08-8.22-12.43-5.76-17.52-14-5.77-9.35,2.71-18.29-3.65-24.49-3.73-3.65-11.3-5.09-16.06-2.1a10.06,10.06,0,0,0-3.65,4.19" transform="translate(-1.81 -2.99)"/><path class="cls-1" d="M1049.22,538.75c3.44-3.1,7-7,5.83-9.8-1.62-4-11.46-1.78-13.86-6.3-2.75-5.16,7.5-13,5.11-16.79-1-1.58-4.38-2.82-16.06,0" transform="translate(-1.81 -2.99)"/><ellipse class="cls-1" cx="1058.72" cy="300.97" rx="13.5" ry="12.95"/><line class="cls-1" x1="1159.09" y1="208.95" x2="1070.45" y2="293.92"/><path class="cls-1" d="M1050.67,349.23l-32.15-30.82,11.72-59.08a149.52,149.52,0,0,0,83.07-4.9,226.42,226.42,0,0,0-11.43,82.07Z" transform="translate(-1.81 -2.99)"/><polygon class="cls-1" points="1058.72 366.68 1036.45 387.4 967.84 321.62 993.66 298.84 1058.72 366.68"/><path class="cls-1" d="M1038.27,390.39a821,821,0,0,1-119,118.27,842.34,842.34,0,0,1-143.8,93.77l-27-25.89a900.23,900.23,0,0,1,84.67-119.67A921.26,921.26,0,0,1,969.65,324.61" transform="translate(-1.81 -2.99)"/><path class="cls-1" d="M997.4,406.58c-.62.6-6.1,5.8-13.72,4.71a15.92,15.92,0,0,1-12.58-10.75c-3.05-9.59,5.32-22,16.38-24.39,12.19-2.65,23.22,7.81,27.11,17.14,3.53,8.44,2.49,19-3.22,26.11-12.58,15.66-46.67,13.37-64.28-2.45-6-5.4-9.37-12.53-10.41-14.69-1.77-3.66-6.59-13.64-5.17-25.5,1.38-11.56,9.42-31.12,25.44-32.51,10.75-.93,24.57,6.36,26.37,17.94,2.11,13.61-13.33,26.9-23.2,24.91-4.58-.92-8.23-5.21-9.77-9.23-2.74-7.16,1.21-13.37,1.71-14.13" transform="translate(-1.81 -2.99)"/><path class="cls-1" d="M961.67,439.11c7.84,7.19,9.68,17.94,5.13,25.49-5.28,8.77-17.2,9.93-24.41,7.86C930,468.9,920.91,452.69,923.9,433" transform="translate(-1.81 -2.99)"/><path class="cls-1" d="M914.56,395.18c-7.56-7.16-17.93-7.65-24.67-1.93-7.82,6.64-7.79,19.14-5.15,26.33,4.56,12.41,20.8,19.63,39.16,13.91" transform="translate(-1.81 -2.99)"/><path class="cls-1" d="M890.43,496.7c1-8.62-2.47-15.5-7.46-16.77-6.78-1.74-14.22,7.32-15.38,14.79-1.9,12.18,14.58,27.57,31.75,24.42,18.26-3.35,27.85-24.28,22.36-40.7-4.28-12.76-18.49-17.51-20.55-18" transform="translate(-1.81 -2.99)"/><path class="cls-1" d="M860.3,466.2c8.38-.39,15,3.59,16.19,8.76,1.59,7-7.29,14-14.56,14.66-11.86,1.09-26.59-16.76-23.3-34,3.49-18.38,23.94-26.71,39.81-20,12.33,5.23,16.76,20,17.22,22.18" transform="translate(-1.81 -2.99)"/><path class="cls-1" d="M862,552.9a19.24,19.24,0,0,0,5.49-28.15c-6.79-8.8-17.09-2.61-26.3-10.72-10.45-9.21-3.64-22.89-13.61-28.13-5.86-3.07-15.48-2.18-20.07,3.05a12.15,12.15,0,0,0-2.79,6.3" transform="translate(-1.81 -2.99)"/><line class="cls-1" x1="759.49" y1="585.85" x2="942.5" y2="410.39"/><line class="cls-1" x1="422.05" y1="62.45" x2="635.98" y2="560.73"/><path class="cls-1" d="M541.72,61.68C531.33,43.91,515.34,45.45,502,58.36c-8.67,8.37-2.89,26.41,7.87,34.12,15.33,11,36.78-1.63,39.22-3.11,15.44-11.93,6.44-27.48,22-42.14C572,46.37,589.9,30,608.73,36.7,620.68,40.94,631.3,53.83,629,67.81c-2.43,14.66-18.62,27.57-31.39,23.36-10.12-3.33-16.9-17-13-28.15,2.37-6.83,8-10.56,10.28-11.92" transform="translate(-1.81 -2.99)"/><path class="cls-1" d="M322.65,148.05c-7-19.22,4.73-29.71,23.67-30.8,12.29-.7,22.59,15.38,21.51,28.21-1.54,18.29-25.58,25.39-28.35,26.17-19.54,3.22-25.77-13.52-47.55-12-1.27.09-25.89,2.17-33.12,20.13-4.58,11.4-1.5,27.56,11,35.12,13.09,8,33.89,4.83,39.05-7.14,4.08-9.49-2.15-23.39-13.45-28a24.89,24.89,0,0,0-16.12-.47" transform="translate(-1.81 -2.99)"/><path class="cls-1" d="M396.93,127c.47,1.14,4.71,11.08,15.54,13.8,9.61,2.41,18.63-2.3,23.2-7.5,9.78-11.14,6-32.28-7.39-41.54-14.71-10.21-35.67-2.26-46.42,8.08-9.73,9.35-14.62,24-11.21,36.66,7.48,27.81,54.41,43.38,87.35,31.85,11.24-3.93,20-11.62,22.66-13.94,4.53-3.92,16.91-14.63,22.07-31.25,5-16.21,5.91-46.74-14.67-57.35-13.81-7.12-36.61-4.93-45.9,9.57-10.91,17,1.81,43.23,16.18,46,6.68,1.27,14.1-2.46,18.55-7,7.92-8.07,6.34-18.54,6.12-19.82" transform="translate(-1.81 -2.99)"/><path class="cls-1" d="M435.88,186.76c-11.75,4.46-18.55,15.26-16.94,25.29,1.87,11.65,14.35,17.89,23.14,18.68,15.16,1.36,32.23-12.31,37.71-34.73" transform="translate(-1.81 -2.99)"/><path class="cls-1" d="M505.6,161.08c10.81-4.36,21.67-.79,26.17,7.69,5.22,9.85-.11,22.61-5.87,28.93-9.95,10.89-29.7,11.9-46.15-1.14" transform="translate(-1.81 -2.99)"/><path class="cls-1" d="M483.13,258.34c3.53-7.35,10-11.48,14.92-10.44,6.73,1.4,8.54,11.78,5.75,18.28-4.55,10.61-26.53,16.22-39.72,6.58-14-10.25-11.67-31.1,1.39-42.07,10.15-8.52,24.79-6.48,26.82-6" transform="translate(-1.81 -2.99)"/><path class="cls-1" d="M524.22,246.39c-7.09-4-14.66-3.88-18-.43-4.57,4.71,0,14,6,17.72,9.79,6.08,30.66-1.13,35.64-15.87,5.31-15.69-8.66-31.15-25.47-33-13.07-1.43-23.63,8-25,9.45" transform="translate(-1.81 -2.99)"/><path class="cls-1" d="M490,308.29a15.08,15.08,0,0,1-2.1-7.91,16.4,16.4,0,0,1,9.24-13.88c8.23-3.76,13.06,4.3,22.72,1.9,11-2.74,11.52-14.82,20.59-14.92,5.33-.07,11.75,4,12.94,9.35a9.52,9.52,0,0,1-.5,5.45" transform="translate(-1.81 -2.99)"/><path class="cls-1" d="M514.36,327.51c-.17-4.53.24-9.7,3.06-10.9,4.09-1.75,9.45,6.48,14.47,4.9,5.74-1.81,4.22-14.29,8.72-15.37,1.86-.45,5.17.95,11.39,10.84" transform="translate(-1.81 -2.99)"/><line class="cls-1" x1="936.1" y1="62.45" x2="722.17" y2="560.73"/><path class="cls-1" d="M820.06,61.68c10.39-17.77,26.38-16.23,39.75-3.32,8.67,8.37,2.89,26.41-7.87,34.12-15.33,11-36.78-1.63-39.22-3.11-15.44-11.93-6.44-27.48-22-42.14-.91-.86-18.81-17.2-37.64-10.53-11.95,4.24-22.57,17.13-20.25,31.11,2.43,14.66,18.62,27.57,31.4,23.36,10.12-3.33,16.89-17,13-28.15-2.37-6.83-8-10.56-10.28-11.92" transform="translate(-1.81 -2.99)"/><path class="cls-1" d="M1039.13,148.05c7-19.22-4.73-29.71-23.67-30.8-12.28-.7-22.58,15.38-21.51,28.21,1.54,18.29,25.58,25.39,28.35,26.17,19.55,3.22,25.77-13.52,47.55-12,1.27.09,25.89,2.17,33.12,20.13,4.58,11.4,1.5,27.56-11,35.12-13.09,8-33.89,4.83-39-7.14-4.08-9.49,2.14-23.39,13.44-28a24.88,24.88,0,0,1,16.12-.47" transform="translate(-1.81 -2.99)"/><path class="cls-1" d="M964.85,127c-.47,1.14-4.71,11.08-15.54,13.8-9.61,2.41-18.63-2.3-23.2-7.5-9.78-11.14-6-32.28,7.39-41.54,14.71-10.21,35.67-2.26,46.42,8.08,9.73,9.35,14.62,24,11.22,36.66-7.49,27.81-54.42,43.38-87.36,31.85-11.23-3.93-20-11.62-22.66-13.94-4.53-3.92-16.91-14.63-22.07-31.25-5-16.21-5.91-46.74,14.67-57.35,13.81-7.12,36.61-4.93,45.9,9.57,10.92,17-1.81,43.23-16.17,46-6.68,1.27-14.11-2.46-18.56-7-7.92-8.07-6.33-18.54-6.12-19.82" transform="translate(-1.81 -2.99)"/><path class="cls-1" d="M925.9,186.76c11.75,4.46,18.55,15.26,16.94,25.29-1.87,11.65-14.35,17.89-23.14,18.68C904.55,232.09,887.47,218.42,882,196" transform="translate(-1.81 -2.99)"/><path class="cls-1" d="M856.18,161.08c-10.81-4.36-21.67-.79-26.17,7.69-5.22,9.85.11,22.61,5.88,28.93,10,10.89,29.69,11.9,46.14-1.14" transform="translate(-1.81 -2.99)"/><path class="cls-1" d="M878.66,258.34c-3.54-7.35-10-11.48-14.93-10.44-6.72,1.4-8.54,11.78-5.75,18.28,4.55,10.61,26.53,16.22,39.72,6.58,14-10.25,11.67-31.1-1.39-42.07-10.14-8.52-24.79-6.48-26.82-6" transform="translate(-1.81 -2.99)"/><path class="cls-1" d="M837.56,246.39c7.09-4,14.66-3.88,18-.43,4.57,4.71,0,14-6,17.72-9.79,6.08-30.66-1.13-35.64-15.87-5.31-15.69,8.66-31.15,25.47-33,13.07-1.43,23.63,8,25,9.45" transform="translate(-1.81 -2.99)"/><path class="cls-1" d="M871.75,308.29a15,15,0,0,0,2.1-7.91,16.4,16.4,0,0,0-9.24-13.88c-8.23-3.76-13.06,4.3-22.72,1.9-11-2.74-11.52-14.82-20.59-14.92-5.32-.07-11.75,4-12.94,9.35a9.52,9.52,0,0,0,.5,5.45" transform="translate(-1.81 -2.99)"/><path class="cls-1" d="M847.42,327.51c.17-4.53-.23-9.7-3.06-10.9-4.09-1.75-9.44,6.48-14.47,4.9-5.74-1.81-4.21-14.29-8.71-15.37-1.87-.45-5.18.95-11.4,10.84" transform="translate(-1.81 -2.99)"/><ellipse class="cls-1" cx="679.55" cy="152.41" rx="13.5" ry="12.95"/><line class="cls-1" x1="678.14" y1="19.27" x2="676.62" y2="139.44"/><path class="cls-1" d="M654.46,193.78l45.47.53L735.84,145a143,143,0,0,1-26.72-20.95,138.41,138.41,0,0,1-27.64-39.47,234.9,234.9,0,0,1-26.55,38.34,240.94,240.94,0,0,1-26.73,26.84Z" transform="translate(-1.81 -2.99)"/><polygon class="cls-1" points="630.5 198.31 630.59 228.05 727.63 229.18 726.59 195.55 630.5 198.31"/><path class="cls-1" d="M632.41,231.05a772.33,772.33,0,0,0,25.28,328.39l38.2.44A867.67,867.67,0,0,0,726.06,418.2a863.58,863.58,0,0,0,3.38-186" transform="translate(-1.81 -2.99)"/><path class="cls-1" d="M648.87,270.39c0,.84-.07,8.23,6.07,12.71,5.44,4,12.47,3.26,16.81,1.11,9.28-4.6,12.69-19,6.76-28.27-6.54-10.22-22-10.47-31.73-6.63-8.76,3.48-15.91,11.55-17.24,20.45-2.91,19.57,22.62,41.36,46.73,42.38,8.22.35,15.9-2.32,18.24-3.11,4-1.34,14.78-5,22.65-14.27,7.66-9,16.64-28.2,6.49-40.16-6.82-8-21.91-12.41-31.81-5.55-11.63,8.05-10.77,27.93-2.39,33.3,3.89,2.51,9.64,2,13.72.26a16.84,16.84,0,0,0,9.35-11" transform="translate(-1.81 -2.99)"/><path class="cls-1" d="M649.54,317.63c-10.84-.36-20.15,5.88-22.61,14.28-2.85,9.75,4.61,18.73,11.18,22.24,11.35,6,29.77.92,42.35-14.86" transform="translate(-1.81 -2.99)"/><path class="cls-1" d="M715.24,319.26c10.63.18,18.24,7,18.68,15.57.5,10-8.84,18.71-16.06,21.93-12.45,5.54-29.18-.56-37.74-17.15" transform="translate(-1.81 -2.99)"/><path class="cls-1" d="M656.32,406.72c5.75-6.69,13.3-9.13,17.73-6.6,6,3.45,4.47,14.88-.29,20.89-7.78,9.81-30.77,9.26-40.41-4.72-10.26-14.87-1.33-36.08,14.76-43.77,12.51-6,26,.45,27.79,1.51" transform="translate(-1.81 -2.99)"/><path class="cls-1" d="M700.13,406.09c-5.56-6-13.17-7.79-17.85-5-6.36,3.82-5.35,14.78-.77,20.23,7.47,8.9,31.08,6.53,41.69-7.79,11.28-15.24,3.21-35.09-12.9-41.27-12.52-4.8-26.67,2.5-28.58,3.68" transform="translate(-1.81 -2.99)"/><path class="cls-1" d="M634.2,465.46a18.88,18.88,0,0,1,.64-10.21A21.29,21.29,0,0,1,651.38,442c11.31-1.48,13.89,9.91,26.38,10.55,14.18.74,19.63-13.48,30.5-10.3,6.39,1.87,12.44,9.09,11.74,15.89a12.19,12.19,0,0,1-2.75,6.32" transform="translate(-1.81 -2.99)"/><line class="cls-1" x1="675.93" y1="556.68" x2="679.05" y2="308.57"/><ellipse class="cls-1" cx="146.84" cy="660.48" rx="13.17" ry="12.95"/><line class="cls-1" x1="11.41" y1="663.45" x2="133.68" y2="663.45"/><path class="cls-1" d="M188,688.8V645.21l-50.58-33.83a138.14,138.14,0,0,1-21,25.87,141.35,141.35,0,0,1-39.82,27,240.2,240.2,0,0,1,39.32,25,238.69,238.69,0,0,1,27.62,25.3Z" transform="translate(-1.81 -2.99)"/><polygon class="cls-1" points="194.12 706.95 224.38 706.5 224.38 613.47 190.18 614.87 194.12 706.95"/><path class="cls-1" d="M226.19,709.49a832.13,832.13,0,0,0,167.16,3A830.67,830.67,0,0,0,560,681.29V644.67a931,931,0,0,0-333.81-28.2" transform="translate(-1.81 -2.99)"/><path class="cls-1" d="M266,693.24c.85,0,8.37,0,12.85-6,4-5.26,3.17-12,.93-16.13C275,662.3,260.33,659.21,251,665c-10.31,6.39-10.39,21.26-6.37,30.5,3.64,8.35,12,15.11,21,16.27,19.95,2.56,41.82-22.18,42.57-45.3.26-7.89-2.55-15.21-3.38-17.45-1.42-3.78-5.28-14.11-14.78-21.54-9.27-7.24-28.89-15.61-40.94-5.73-8.08,6.63-12.37,21.15-5.27,30.56,8.33,11,28.54,10,33.91,1.89,2.5-3.77,1.93-9.27.1-13.16-3.25-6.91-10.46-8.63-11.34-8.83" transform="translate(-1.81 -2.99)"/><path class="cls-1" d="M314.08,692c-.24,10.4,6.22,19.25,14.79,21.5,9.95,2.62,19-4.63,22.5-11,6-11,.59-28.55-15.62-40.42" transform="translate(-1.81 -2.99)"/><path class="cls-1" d="M315,629c.06-10.19,6.87-17.56,15.63-18.08,10.16-.61,19.14,8.24,22.49,15.12,5.79,11.87-.22,28-17,36.39" transform="translate(-1.81 -2.99)"/><path class="cls-1" d="M404.64,684.45c-6.87-5.43-9.44-12.64-6.92-16.91,3.43-5.83,15.08-4.47,21.25,0,10.07,7.34,9.78,29.39-4.33,38.8-15,10-36.68,1.71-44.7-13.63-6.23-11.91.15-24.91,1.21-26.66" transform="translate(-1.81 -2.99)"/><path class="cls-1" d="M403.48,642.46c-6.06,5.4-7.77,12.72-4.86,17.17,4,6.06,15.1,5,20.59.49,9-7.26,6.28-29.87-8.42-39.86-15.64-10.63-35.74-2.66-41.84,12.86-4.74,12.06,2.86,25.54,4.08,27.35" transform="translate(-1.81 -2.99)"/><path class="cls-1" d="M464.66,704.94a20.12,20.12,0,0,1-10.39-.49c-7.32-2.4-12.66-9.19-13.64-15.69-1.65-10.83,9.91-13.44,10.42-25.41.58-13.6-13.95-18.66-10.85-29.12,1.83-6.15,9.11-12,16-11.45a12.83,12.83,0,0,1,6.47,2.56" transform="translate(-1.81 -2.99)"/><line class="cls-1" x1="558.19" y1="659.07" x2="305.72" y2="659.07"/><ellipse class="cls-1" cx="1210.33" cy="660.48" rx="13.17" ry="12.95"/><line class="cls-1" x1="1345.73" y1="663.45" x2="1223.49" y2="663.45"/><path class="cls-1" d="M1172.78,688.8V645.21l50.57-33.83a138.14,138.14,0,0,0,21,25.87,141.33,141.33,0,0,0,39.81,27,240.16,240.16,0,0,0-39.31,25,237.7,237.7,0,0,0-27.61,25.3Z" transform="translate(-1.81 -2.99)"/><polygon class="cls-1" points="1163.06 706.95 1132.81 706.5 1132.81 613.47 1167 614.87 1163.06 706.95"/><path class="cls-1" d="M1134.62,709.49a831.75,831.75,0,0,1-167.12,3,830.36,830.36,0,0,1-166.61-31.17V644.67a930.54,930.54,0,0,1,333.73-28.2" transform="translate(-1.81 -2.99)"/><path class="cls-1" d="M1094.8,693.24c-.86,0-8.38,0-12.86-6-4-5.26-3.17-12-.93-16.13,4.79-8.84,19.48-11.93,28.83-6.14,10.32,6.39,10.4,21.26,6.37,30.5-3.63,8.35-11.94,15.11-21,16.27-19.94,2.56-41.81-22.18-42.56-45.3-.26-7.89,2.55-15.21,3.38-17.45,1.42-3.78,5.27-14.11,14.78-21.54,9.27-7.24,28.88-15.61,40.93-5.73,8.08,6.63,12.36,21.15,5.27,30.56-8.33,11-28.53,10-33.9,1.89-2.5-3.77-1.94-9.27-.11-13.16,3.26-6.91,10.46-8.63,11.35-8.83" transform="translate(-1.81 -2.99)"/><path class="cls-1" d="M1046.76,692c.23,10.4-6.23,19.25-14.8,21.5-10,2.62-19-4.63-22.49-11-6-11-.59-28.55,15.61-40.42" transform="translate(-1.81 -2.99)"/><path class="cls-1" d="M1045.87,629c-.06-10.19-6.86-17.56-15.62-18.08-10.17-.61-19.14,8.24-22.49,15.12-5.79,11.87.22,28,17,36.39" transform="translate(-1.81 -2.99)"/><path class="cls-1" d="M956.21,684.45c6.87-5.43,9.44-12.64,6.92-16.91-3.43-5.83-15.07-4.47-21.25,0-10.06,7.34-9.78,29.39,4.33,38.8,15,10,36.68,1.71,44.69-13.63,6.23-11.91-.15-24.91-1.21-26.66" transform="translate(-1.81 -2.99)"/><path class="cls-1" d="M957.37,642.46c6.07,5.4,7.77,12.72,4.86,17.17-4,6.06-15.09,5-20.59.49-8.95-7.26-6.27-29.87,8.42-39.86,15.64-10.63,35.73-2.66,41.83,12.86,4.74,12.06-2.86,25.54-4.08,27.35" transform="translate(-1.81 -2.99)"/><path class="cls-1" d="M896.2,704.94a20.16,20.16,0,0,0,10.4-.49c7.31-2.4,12.65-9.19,13.64-15.69,1.64-10.83-9.91-13.44-10.43-25.41-.58-13.6,14-18.66,10.85-29.12-1.83-6.15-9.11-12-16-11.45a12.79,12.79,0,0,0-6.46,2.56" transform="translate(-1.81 -2.99)"/><line class="cls-1" x1="799.08" y1="659.07" x2="1051.48" y2="659.07"/><path class="cls-1" d="M680.81,16C312.33,16,13.62,288.74,13.62,625.17c0,336.89-.13,465.33,662.88,465.33,670,0,671.5-105,671.5-465.33C1348,288.74,1049.29,16,680.81,16Zm-1,772.28c-64.32,0-116.47-50-116.47-111.66S615.45,565,679.77,565s116.48,50,116.48,111.67S744.1,788.28,679.77,788.28Z" transform="translate(-1.81 -2.99)"/><path class="cls-2" d="M306.71,998.28H243.29V828.6H310.6c56.13,0,90.15,24.31,90.15,82.65C400.75,972.51,361.87,998.28,306.71,998.28ZM307,868.46h-10.7v89.47H307.2c25.76,0,38.88-17.51,38.88-44C346.08,887.91,336.84,868.46,307,868.46Z" transform="translate(-1.81 -2.99)"/><path class="cls-2" d="M505.48,1002.66c-54.91,0-86.5-20.91-86.5-89.22,0-56.16,31.1-89.22,88-89.22,53.7,0,86.51,22.85,86.51,87.52C593.45,971.05,563.56,1002.66,505.48,1002.66Zm.49-135.9c-25.76,0-31.35,20.67-31.35,44.49,0,33.55,7.54,48.86,31.84,48.86,24.78,0,31.34-19.44,31.34-46.18C537.8,883.54,530.76,866.76,506,866.76Z" transform="translate(-1.81 -2.99)"/><path class="cls-2" d="M618,998.28V828.6H729.28v39.86H671v23.1h49.09V930.7H671v27.71h59v39.87Z" transform="translate(-1.81 -2.99)"/><path class="cls-2" d="M922.47,998.28c0-39.38-.73-84.6-2.43-117.9h-.25l-32.07,117.9H837.66L806.8,880.38h-.24c-1.7,33.3-3.16,78.52-3.16,117.9H756c0-51.54,3.41-115.72,8-169.68H841.3l24.3,93.59,25.52-93.59h77.27c4.38,54,7.29,118.14,7.29,169.68Z" transform="translate(-1.81 -2.99)"/><path class="cls-2" d="M1109.09,998.28c-1.94-8.51-4.38-19.45-6.8-29.41h-51.52c-2.92,10.69-5.35,20.42-7.53,29.41H992c15.31-54.45,32.08-107.45,54.68-169.68h67.07c20.65,57.13,40.33,115.71,55.16,169.68Zm-31.35-120.82h-.24c-5.83,18-10.94,34.76-15.79,51.78h30.61C1087.46,911.25,1083.33,895.45,1077.74,877.46Z" transform="translate(-1.81 -2.99)"/><line class="cls-3" x1="12.69" y1="749.36" x2="590.69" y2="749.36"/><line class="cls-3" x1="763.69" y1="749.51" x2="1340.69" y2="749.36"/><g class="cls-4"><line class="cls-5" x1="53.48" y1="403.38" x2="571.48" y2="612.53"/><path class="cls-5" d="M136.18,324.1c-20.44-5.59-30.66,6.3-30.66,24.5,0,11.79,17.36,20.69,30.66,18.89,18.95-2.56,24.91-26,25.55-28.69C163.92,319.9,146.12,315,146.4,294c0-1.22.71-24.9,19-32.89,11.59-5.06,28.6-3.08,37.23,8.4,9,12.05,7,32.14-5.11,37.79-9.63,4.47-24.48-.66-29.93-11.2a22,22,0,0,1-1.46-15.39" transform="translate(-1.81 -2.99)"/><path class="cls-5" d="M44.17,533.36c-19.13-8.88-18.48-24.28-5.83-37.85,8.2-8.8,27.32-4.34,36,5.5,12.35,14,.5,35.29-.89,37.71-11.51,15.49-28.23,7.81-42.57,23.6-.83.93-16.78,19-8.71,36.65,5.13,11.19,19.19,20.57,33.6,17.52,15.13-3.2,27.6-19.46,22.46-31.44-4.08-9.48-18.71-15.15-30.1-10.77a23.45,23.45,0,0,0-11.79,10.55" transform="translate(-1.81 -2.99)"/><path class="cls-5" d="M81.43,468.26c1.17.5,11.49,4.69,21.17-.7,8.6-4.77,11.54-14.21,11-21-1.24-14.51-19.48-26.94-35.77-24.49-17.94,2.69-27,22.49-27,37.08,0,13.21,7.27,26.92,19,33.59,25.75,14.69,70.51-6,85.41-36.38,5.08-10.38,5.64-21.74,5.84-25.2.34-5.84,1.25-21.8-7.3-37.09-8.34-14.9-30.15-37.16-52.56-30.79-15,4.28-29.6,21.23-25.55,37.79,4.77,19.45,33.06,29.45,45.26,21.69,5.68-3.6,8.2-11.27,8-17.49-.3-11.07-9.12-17.43-10.22-18.19" transform="translate(-1.81 -2.99)"/><path class="cls-5" d="M153,484.36c-5.06,11.1-1.94,23.35,6.57,29.39,9.89,7,23.33,3,30.14-2.37,11.77-9.27,13.84-30.51,1.25-50.12" transform="translate(-1.81 -2.99)"/><path class="cls-5" d="M183.58,419c4.47-10.39,14.81-15.19,24.23-12.21,10.94,3.47,16.54,16.12,17.09,24.5.94,14.45-12.33,28.5-33.59,30.36" transform="translate(-1.81 -2.99)"/><path class="cls-5" d="M239.11,503.25c-2.9-7.6-1.34-14.89,2.92-17.49,5.8-3.54,14.72,2.59,17.52,9.09,4.56,10.61-6.92,29.43-23.36,31.5-17.49,2.19-31.14-14.19-29.93-30.8.94-12.9,12.83-21.34,14.6-22.39" transform="translate(-1.81 -2.99)"/><path class="cls-5" d="M259.49,467c-8,1.95-13.26,7.15-13.1,11.87.21,6.43,10.27,9.94,17.27,8.53,11.42-2.29,20.93-21.5,13.63-35.34-7.76-14.71-29-16.25-42.32-6.2-10.32,7.81-10.88,21.64-10.79,23.58" transform="translate(-1.81 -2.99)"/><path class="cls-5" d="M280.72,534a16.38,16.38,0,0,1-7.3-4.2,15.9,15.9,0,0,1-3.65-16.09c3.08-8.22,12.43-5.77,17.52-14,5.77-9.34-2.71-18.29,3.65-24.49,3.73-3.64,11.3-5.08,16.05-2.1a10,10,0,0,1,3.65,4.2" transform="translate(-1.81 -2.99)"/><path class="cls-5" d="M312.1,531.24c-3.44-3.1-7-7-5.84-9.79,1.63-4,11.47-1.79,13.87-6.3,2.75-5.17-7.5-13-5.11-16.8,1-1.58,4.38-2.82,16.06,0" transform="translate(-1.81 -2.99)"/><ellipse class="cls-5" cx="298.98" cy="293.47" rx="13.5" ry="12.95"/><line class="cls-5" x1="198.61" y1="201.44" x2="287.24" y2="286.42"/><path class="cls-5" d="M310.64,341.73,342.8,310.9l-11.72-59.07a149.77,149.77,0,0,1-83.07-4.9,227.53,227.53,0,0,1,10.08,45A226,226,0,0,1,259.44,329Z" transform="translate(-1.81 -2.99)"/><polygon class="cls-5" points="298.98 359.18 321.24 379.89 389.86 314.11 364.04 291.33 298.98 359.18"/><path class="cls-5" d="M323.05,382.89A821,821,0,0,0,442,501.15a843.08,843.08,0,0,0,143.8,93.78l27-25.9a899.54,899.54,0,0,0-84.67-119.66A920.75,920.75,0,0,0,391.67,317.11" transform="translate(-1.81 -2.99)"/><path class="cls-5" d="M363.92,399.08c.62.6,6.1,5.79,13.72,4.71A15.93,15.93,0,0,0,390.22,393c3-9.58-5.32-22-16.38-24.38-12.19-2.65-23.22,7.81-27.11,17.13-3.53,8.44-2.49,19,3.22,26.11,12.58,15.67,46.67,13.38,64.28-2.45,6-5.4,9.37-12.53,10.41-14.69,1.77-3.65,6.59-13.64,5.17-25.5-1.38-11.56-9.42-31.11-25.44-32.5-10.75-.93-24.57,6.36-26.37,17.94-2.11,13.6,13.33,26.89,23.19,24.9,4.59-.92,8.24-5.2,9.78-9.23,2.74-7.15-1.21-13.37-1.71-14.12" transform="translate(-1.81 -2.99)"/><path class="cls-5" d="M399.65,431.61c-7.84,7.19-9.68,17.93-5.13,25.48,5.28,8.77,17.2,9.93,24.41,7.87,12.44-3.56,21.48-19.77,18.49-39.43" transform="translate(-1.81 -2.99)"/><path class="cls-5" d="M446.76,387.68c7.56-7.17,17.93-7.65,24.67-1.94,7.82,6.64,7.79,19.14,5.15,26.34C472,424.49,455.78,431.7,437.42,426" transform="translate(-1.81 -2.99)"/><path class="cls-5" d="M470.89,489.2c-1-8.62,2.47-15.51,7.46-16.78,6.78-1.73,14.22,7.32,15.38,14.79,1.89,12.19-14.58,27.58-31.75,24.42-18.26-3.35-27.85-24.28-22.36-40.7,4.28-12.75,18.49-17.51,20.55-18" transform="translate(-1.81 -2.99)"/><path class="cls-5" d="M501,458.7c-8.38-.4-15,3.59-16.19,8.76-1.59,7,7.29,14,14.56,14.66,11.86,1.09,26.59-16.76,23.3-34-3.49-18.39-23.94-26.72-39.81-20-12.33,5.23-16.76,20-17.22,22.17" transform="translate(-1.81 -2.99)"/><path class="cls-5" d="M499.29,545.39a19.24,19.24,0,0,1-5.49-28.14c6.79-8.8,17.09-2.62,26.3-10.73,10.45-9.21,3.64-22.89,13.61-28.12,5.86-3.08,15.48-2.19,20.07,3a12.21,12.21,0,0,1,2.79,6.3" transform="translate(-1.81 -2.99)"/><line class="cls-5" x1="598.21" y1="578.34" x2="415.19" y2="402.89"/><line class="cls-5" x1="1298.3" y1="403.38" x2="780.31" y2="612.53"/><path class="cls-5" d="M1219.23,324.1c20.44-5.59,30.66,6.3,30.66,24.5,0,11.79-17.36,20.69-30.66,18.89-19-2.56-24.91-26-25.55-28.69C1191.49,319.9,1209.3,315,1209,294c0-1.22-.71-24.9-19-32.89-11.59-5.06-28.6-3.08-37.23,8.4-9,12.05-7,32.14,5.11,37.79,9.63,4.47,24.48-.66,29.93-11.2a22,22,0,0,0,1.46-15.39" transform="translate(-1.81 -2.99)"/><path class="cls-5" d="M1311.24,533.36c19.13-8.88,18.48-24.28,5.83-37.85-8.2-8.8-27.32-4.34-36,5.5-12.35,14-.5,35.29.9,37.71,11.5,15.49,28.22,7.81,42.56,23.6.83.93,16.78,19,8.71,36.65-5.12,11.19-19.19,20.57-33.6,17.52-15.12-3.2-27.6-19.46-22.46-31.44,4.08-9.48,18.71-15.15,30.1-10.77a23.45,23.45,0,0,1,11.79,10.55" transform="translate(-1.81 -2.99)"/><path class="cls-5" d="M1274,468.26c-1.17.5-11.48,4.69-21.17-.7-8.6-4.77-11.53-14.21-11-21,1.24-14.51,19.49-26.94,35.77-24.49,17.94,2.69,27,22.49,27,37.08,0,13.21-7.28,26.92-19,33.59-25.75,14.69-70.51-6-85.41-36.38-5.08-10.38-5.64-21.74-5.84-25.2-.34-5.84-1.25-21.8,7.3-37.09,8.34-14.9,30.15-37.16,52.56-30.79,15,4.28,29.6,21.23,25.55,37.79-4.77,19.45-33.06,29.45-45.26,21.69-5.68-3.6-8.2-11.27-8-17.49.3-11.07,9.12-17.43,10.22-18.19" transform="translate(-1.81 -2.99)"/><path class="cls-5" d="M1202.44,484.36c5.06,11.1,1.94,23.35-6.57,29.39-9.88,7-23.33,3-30.14-2.37-11.76-9.27-13.83-30.51-1.25-50.12" transform="translate(-1.81 -2.99)"/><path class="cls-5" d="M1171.83,419c-4.47-10.39-14.81-15.19-24.23-12.21-10.94,3.47-16.54,16.12-17.09,24.5-.94,14.45,12.33,28.5,33.59,30.36" transform="translate(-1.81 -2.99)"/><path class="cls-5" d="M1116.3,503.25c2.9-7.6,1.35-14.89-2.92-17.49-5.8-3.54-14.72,2.59-17.52,9.09-4.56,10.61,6.92,29.43,23.36,31.5,17.49,2.19,31.14-14.19,29.93-30.8-.94-12.9-12.83-21.34-14.6-22.39" transform="translate(-1.81 -2.99)"/><path class="cls-5" d="M1095.92,467c8,1.95,13.26,7.15,13.1,11.87-.21,6.43-10.27,9.94-17.27,8.53-11.42-2.29-20.93-21.5-13.63-35.34,7.76-14.71,29-16.25,42.32-6.2,10.32,7.81,10.89,21.64,10.8,23.58" transform="translate(-1.81 -2.99)"/><path class="cls-5" d="M1074.69,534a16.38,16.38,0,0,0,7.3-4.2,15.9,15.9,0,0,0,3.65-16.09c-3.07-8.22-12.43-5.77-17.51-14-5.78-9.34,2.71-18.29-3.65-24.49-3.74-3.64-11.31-5.08-16.06-2.1a10,10,0,0,0-3.65,4.2" transform="translate(-1.81 -2.99)"/><path class="cls-5" d="M1043.31,531.24c3.45-3.1,7-7,5.84-9.79-1.63-4-11.47-1.79-13.87-6.3-2.75-5.17,7.5-13,5.11-16.8-1-1.58-4.38-2.82-16.06,0" transform="translate(-1.81 -2.99)"/><ellipse class="cls-5" cx="1052.81" cy="293.47" rx="13.5" ry="12.95"/><line class="cls-5" x1="1153.18" y1="201.44" x2="1064.54" y2="286.42"/><path class="cls-5" d="M1044.77,341.73l-32.16-30.83,11.72-59.07a149.77,149.77,0,0,0,83.07-4.9A226.35,226.35,0,0,0,1096,329Z" transform="translate(-1.81 -2.99)"/><polygon class="cls-5" points="1052.81 359.18 1030.54 379.89 961.93 314.11 987.75 291.33 1052.81 359.18"/><path class="cls-5" d="M1032.36,382.89a821,821,0,0,1-119,118.26,842.69,842.69,0,0,1-143.8,93.78l-27-25.9a898.77,898.77,0,0,1,84.68-119.66,920.73,920.73,0,0,1,136.5-132.26" transform="translate(-1.81 -2.99)"/><path class="cls-5" d="M991.49,399.08c-.61.6-6.1,5.79-13.72,4.71A15.92,15.92,0,0,1,965.2,393c-3.06-9.58,5.31-22,16.37-24.38,12.19-2.65,23.22,7.81,27.12,17.13,3.52,8.44,2.48,19-3.23,26.11-12.58,15.67-46.67,13.38-64.28-2.45-6-5.4-9.37-12.53-10.41-14.69-1.77-3.65-6.59-13.64-5.17-25.5C927,357.69,935,338.14,951,336.75c10.75-.93,24.57,6.36,26.37,17.94,2.11,13.6-13.33,26.89-23.19,24.9-4.59-.92-8.24-5.2-9.78-9.23-2.74-7.15,1.21-13.37,1.71-14.12" transform="translate(-1.81 -2.99)"/><path class="cls-5" d="M955.76,431.61c7.84,7.19,9.68,17.93,5.13,25.48-5.28,8.77-17.2,9.93-24.41,7.87C924,461.4,915,445.19,918,425.53" transform="translate(-1.81 -2.99)"/><path class="cls-5" d="M908.65,387.68c-7.56-7.17-17.93-7.65-24.67-1.94-7.82,6.64-7.79,19.14-5.15,26.34,4.56,12.41,20.8,19.62,39.17,13.91" transform="translate(-1.81 -2.99)"/><path class="cls-5" d="M884.53,489.2c1-8.62-2.48-15.51-7.47-16.78-6.78-1.73-14.22,7.32-15.38,14.79-1.89,12.19,14.58,27.58,31.75,24.42,18.26-3.35,27.86-24.28,22.36-40.7-4.28-12.75-18.49-17.51-20.55-18" transform="translate(-1.81 -2.99)"/><path class="cls-5" d="M854.39,458.7c8.38-.4,15,3.59,16.19,8.76,1.6,7-7.29,14-14.56,14.66-11.86,1.09-26.59-16.76-23.3-34,3.49-18.39,23.94-26.72,39.81-20,12.33,5.23,16.76,20,17.22,22.17" transform="translate(-1.81 -2.99)"/><path class="cls-5" d="M856.13,545.39a19.25,19.25,0,0,0,5.48-28.14c-6.79-8.8-17.09-2.62-26.3-10.73-10.45-9.21-3.64-22.89-13.61-28.12-5.86-3.08-15.48-2.19-20.06,3a12.16,12.16,0,0,0-2.8,6.3" transform="translate(-1.81 -2.99)"/><line class="cls-5" x1="753.58" y1="578.34" x2="936.6" y2="402.89"/><line class="cls-5" x1="416.14" y1="54.95" x2="630.08" y2="553.22"/><path class="cls-5" d="M535.82,54.18c-10.4-17.78-26.39-16.24-39.76-3.32-8.67,8.37-2.89,26.4,7.87,34.11,15.34,11,36.78-1.63,39.22-3.11,15.44-11.93,6.44-27.47,22-42.14.91-.85,18.81-17.19,37.64-10.52,11.95,4.23,22.57,17.13,20.25,31.1C620.64,75,604.45,87.87,591.68,83.67c-10.12-3.33-16.9-17-13-28.16,2.37-6.82,8-10.56,10.28-11.91" transform="translate(-1.81 -2.99)"/><path class="cls-5" d="M316.74,140.55c-7.05-19.23,4.73-29.72,23.67-30.8C352.7,109,363,125.12,361.92,138c-1.54,18.29-25.58,25.39-28.35,26.16-19.54,3.23-25.77-13.52-47.55-12-1.27.09-25.89,2.17-33.11,20.12-4.59,11.4-1.51,27.56,11,35.13,13.09,7.94,33.9,4.82,39.05-7.15,4.08-9.48-2.15-23.39-13.45-28a24.91,24.91,0,0,0-16.12-.48" transform="translate(-1.81 -2.99)"/><path class="cls-5" d="M391,119.52c.46,1.14,4.7,11.07,15.53,13.8,9.61,2.41,18.63-2.3,23.2-7.51,9.78-11.14,6-32.28-7.38-41.54C407.66,74.06,386.7,82,376,92.35c-9.73,9.35-14.62,24-11.21,36.66,7.48,27.81,54.42,43.38,87.35,31.85,11.24-3.93,20-11.61,22.66-13.93,4.53-3.92,16.91-14.63,22.08-31.25,5-16.21,5.9-46.74-14.68-57.35-13.81-7.12-36.61-4.93-45.9,9.56-10.91,17,1.82,43.23,16.18,46,6.68,1.28,14.1-2.46,18.55-7,7.92-8.06,6.34-18.53,6.12-19.81" transform="translate(-1.81 -2.99)"/><path class="cls-5" d="M430,179.25c-11.75,4.47-18.54,15.26-16.94,25.3,1.87,11.65,14.35,17.88,23.14,18.67,15.16,1.37,32.23-12.31,37.71-34.72" transform="translate(-1.81 -2.99)"/><path class="cls-5" d="M499.69,153.57c10.81-4.36,21.67-.79,26.17,7.7,5.22,9.84-.11,22.6-5.87,28.92-9.95,10.9-29.7,11.9-46.15-1.13" transform="translate(-1.81 -2.99)"/><path class="cls-5" d="M477.22,250.84c3.53-7.36,10-11.48,14.93-10.45,6.72,1.41,8.53,11.78,5.74,18.29-4.54,10.61-26.53,16.21-39.72,6.57-14-10.25-11.67-31.1,1.39-42.06,10.15-8.53,24.79-6.49,26.82-6" transform="translate(-1.81 -2.99)"/><path class="cls-5" d="M518.31,238.88c-7.09-4-14.66-3.88-18-.42-4.58,4.7,0,14,6,17.72,9.79,6.08,30.66-1.14,35.64-15.88,5.31-15.69-8.65-31.14-25.47-33-13.07-1.43-23.63,8-25,9.44" transform="translate(-1.81 -2.99)"/><path class="cls-5" d="M484.12,300.79a15.15,15.15,0,0,1-2.09-7.91A16.39,16.39,0,0,1,491.26,279c8.23-3.75,13.06,4.3,22.72,1.9,11-2.73,11.52-14.81,20.59-14.92,5.33-.06,11.75,4,12.94,9.36a9.58,9.58,0,0,1-.49,5.44" transform="translate(-1.81 -2.99)"/><path class="cls-5" d="M508.45,320c-.16-4.53.24-9.69,3.06-10.9,4.09-1.74,9.45,6.48,14.47,4.9,5.75-1.81,4.22-14.28,8.72-15.37,1.86-.45,5.17.95,11.39,10.85" transform="translate(-1.81 -2.99)"/><line class="cls-5" x1="930.2" y1="54.95" x2="716.26" y2="553.22"/><path class="cls-5" d="M814.15,54.18c10.39-17.78,26.39-16.24,39.76-3.32,8.67,8.37,2.88,26.4-7.88,34.11-15.33,11-36.78-1.63-39.22-3.11-15.43-11.93-6.44-27.47-22-42.14-.91-.85-18.81-17.19-37.64-10.52-11.95,4.23-22.56,17.13-20.25,31.1,2.43,14.67,18.62,27.57,31.4,23.37,10.12-3.33,16.89-17,13-28.16-2.37-6.82-8-10.56-10.28-11.91" transform="translate(-1.81 -2.99)"/><path class="cls-5" d="M1033.22,140.55c7-19.23-4.72-29.72-23.67-30.8C997.27,109,987,125.12,988,138c1.54,18.29,25.59,25.39,28.35,26.16,19.55,3.23,25.77-13.52,47.55-12,1.28.09,25.9,2.17,33.12,20.12,4.58,11.4,1.5,27.56-11,35.13-13.09,7.94-33.89,4.82-39-7.15-4.08-9.48,2.14-23.39,13.44-28a24.9,24.9,0,0,1,16.12-.48" transform="translate(-1.81 -2.99)"/><path class="cls-5" d="M958.94,119.52c-.47,1.14-4.71,11.07-15.54,13.8-9.61,2.41-18.63-2.3-23.2-7.51-9.78-11.14-6-32.28,7.39-41.54C942.3,74.06,963.26,82,974,92.35c9.73,9.35,14.62,24,11.22,36.66-7.49,27.81-54.42,43.38-87.36,31.85-11.23-3.93-20-11.61-22.66-13.93-4.53-3.92-16.91-14.63-22.07-31.25-5-16.21-5.91-46.74,14.67-57.35,13.81-7.12,36.62-4.93,45.91,9.56,10.91,17-1.82,43.23-16.18,46-6.68,1.28-14.1-2.46-18.56-7-7.92-8.06-6.33-18.53-6.12-19.81" transform="translate(-1.81 -2.99)"/><path class="cls-5" d="M920,179.25c11.75,4.47,18.54,15.26,16.93,25.3-1.86,11.65-14.35,17.88-23.14,18.67-15.15,1.37-32.23-12.31-37.7-34.72" transform="translate(-1.81 -2.99)"/><path class="cls-5" d="M850.28,153.57c-10.82-4.36-21.68-.79-26.18,7.7-5.21,9.84.11,22.6,5.88,28.92,9.95,10.9,29.69,11.9,46.14-1.13" transform="translate(-1.81 -2.99)"/><path class="cls-5" d="M872.75,250.84c-3.54-7.36-10-11.48-14.93-10.45-6.72,1.41-8.54,11.78-5.75,18.29,4.55,10.61,26.54,16.21,39.72,6.57,14-10.25,11.67-31.1-1.39-42.06-10.14-8.53-24.79-6.49-26.81-6" transform="translate(-1.81 -2.99)"/><path class="cls-5" d="M831.65,238.88c7.09-4,14.66-3.88,18-.42,4.57,4.7,0,14-6,17.72C833.89,262.26,813,255,808,240.3c-5.3-15.69,8.66-31.14,25.48-33,13.06-1.43,23.62,8,25,9.44" transform="translate(-1.81 -2.99)"/><path class="cls-5" d="M865.84,300.79a15,15,0,0,0,2.1-7.91A16.4,16.4,0,0,0,858.7,279c-8.22-3.75-13.06,4.3-22.72,1.9-11-2.73-11.51-14.81-20.59-14.92-5.32-.06-11.75,4-12.94,9.36a9.49,9.49,0,0,0,.5,5.44" transform="translate(-1.81 -2.99)"/><path class="cls-5" d="M841.51,320c.17-4.53-.23-9.69-3.06-10.9-4.09-1.74-9.44,6.48-14.47,4.9-5.74-1.81-4.21-14.28-8.71-15.37-1.87-.45-5.18.95-11.4,10.85" transform="translate(-1.81 -2.99)"/><ellipse class="cls-5" cx="673.65" cy="144.91" rx="13.5" ry="12.95"/><line class="cls-5" x1="672.23" y1="11.77" x2="670.71" y2="131.93"/><path class="cls-5" d="M648.55,186.28l45.47.53,35.92-49.3a143.2,143.2,0,0,1-26.73-21,138.39,138.39,0,0,1-27.64-39.46A235.84,235.84,0,0,1,649,115.43a240.8,240.8,0,0,1-26.74,26.83Z" transform="translate(-1.81 -2.99)"/><polygon class="cls-5" points="624.6 190.81 624.68 220.55 721.72 221.67 720.68 188.05 624.6 190.81"/><path class="cls-5" d="M626.5,223.54a772.3,772.3,0,0,0,25.28,328.39l38.2.45A867.9,867.9,0,0,0,720.15,410.7a863.58,863.58,0,0,0,3.38-186" transform="translate(-1.81 -2.99)"/><path class="cls-5" d="M643,262.89c0,.84-.07,8.23,6.07,12.7,5.44,4,12.47,3.26,16.81,1.11,9.28-4.6,12.69-19,6.76-28.27-6.54-10.21-22.05-10.47-31.73-6.62-8.76,3.47-15.91,11.55-17.23,20.45-2.92,19.57,22.61,41.36,46.72,42.38,8.23.35,15.9-2.32,18.24-3.12,4-1.34,14.78-5,22.65-14.26,7.66-9,16.64-28.2,6.49-40.16-6.82-8-21.91-12.41-31.81-5.56-11.63,8.06-10.76,27.93-2.39,33.31,3.89,2.5,9.64,2,13.72.26a16.86,16.86,0,0,0,9.35-11" transform="translate(-1.81 -2.99)"/><path class="cls-5" d="M643.63,310.12c-10.84-.35-20.15,5.89-22.6,14.28-2.86,9.75,4.6,18.74,11.18,22.24,11.35,6.05,29.76.93,42.34-14.85" transform="translate(-1.81 -2.99)"/><path class="cls-5" d="M709.33,311.75c10.63.19,18.24,7,18.68,15.58.5,10-8.84,18.71-16.06,21.92-12.45,5.54-29.18-.56-37.74-17.15" transform="translate(-1.81 -2.99)"/><path class="cls-5" d="M650.41,399.22c5.75-6.69,13.3-9.13,17.73-6.6,6,3.44,4.47,14.87-.29,20.88-7.78,9.81-30.77,9.26-40.41-4.72-10.26-14.87-1.33-36.07,14.76-43.77,12.51-6,26,.45,27.79,1.52" transform="translate(-1.81 -2.99)"/><path class="cls-5" d="M694.22,398.58c-5.56-6-13.17-7.79-17.85-5-6.36,3.82-5.35,14.78-.77,20.23,7.47,8.89,31.09,6.53,41.69-7.8,11.28-15.23,3.21-35.08-12.9-41.27-12.52-4.8-26.67,2.51-28.58,3.68" transform="translate(-1.81 -2.99)"/><path class="cls-5" d="M628.3,458a18.76,18.76,0,0,1,.63-10.21,21.28,21.28,0,0,1,16.54-13.21c11.32-1.49,13.89,9.9,26.38,10.55,14.18.74,19.63-13.49,30.5-10.31,6.39,1.87,12.44,9.1,11.74,15.89a12.14,12.14,0,0,1-2.75,6.33" transform="translate(-1.81 -2.99)"/><line class="cls-5" x1="670.02" y1="549.17" x2="673.14" y2="301.06"/><ellipse class="cls-5" cx="140.94" cy="652.98" rx="13.17" ry="12.95"/><line class="cls-5" x1="5.5" y1="655.94" x2="127.77" y2="655.94"/><path class="cls-5" d="M182.11,681.3V637.7l-50.58-33.83a138.12,138.12,0,0,1-21,25.87,140.94,140.94,0,0,1-39.83,27,240.2,240.2,0,0,1,39.32,25A237.81,237.81,0,0,1,137.64,707Z" transform="translate(-1.81 -2.99)"/><polygon class="cls-5" points="188.21 699.44 218.47 699 218.47 605.97 184.27 607.36 188.21 699.44"/><path class="cls-5" d="M220.28,702a832.9,832.9,0,0,0,167.16,3,831.31,831.31,0,0,0,166.65-31.18V637.17A930.68,930.68,0,0,0,220.28,609" transform="translate(-1.81 -2.99)"/><path class="cls-5" d="M260.12,685.74c.86,0,8.37,0,12.85-6,4-5.26,3.17-12,.94-16.12-4.79-8.85-19.48-11.94-28.84-6.14-10.32,6.38-10.4,21.26-6.37,30.49,3.63,8.36,11.94,15.11,21,16.28,19.94,2.55,41.81-22.18,42.56-45.31.26-7.89-2.54-15.21-3.38-17.45-1.41-3.78-5.27-14.11-14.78-21.53-9.27-7.24-28.89-15.61-40.94-5.74-8.08,6.63-12.37,21.15-5.27,30.56,8.33,11.05,28.54,10,33.91,1.89,2.5-3.76,1.93-9.26.1-13.15-3.25-6.92-10.45-8.64-11.34-8.83" transform="translate(-1.81 -2.99)"/><path class="cls-5" d="M308.17,684.52c-.24,10.39,6.22,19.24,14.79,21.5,10,2.61,19-4.64,22.5-11,6-10.95.59-28.54-15.61-40.41" transform="translate(-1.81 -2.99)"/><path class="cls-5" d="M309.05,621.52c.06-10.19,6.87-17.57,15.63-18.09,10.17-.61,19.14,8.25,22.49,15.13,5.79,11.87-.22,28-17,36.38" transform="translate(-1.81 -2.99)"/><path class="cls-5" d="M398.73,677c-6.87-5.44-9.44-12.64-6.92-16.92,3.43-5.83,15.08-4.47,21.25,0,10.07,7.33,9.78,29.38-4.32,38.79-15,10-36.69,1.71-44.71-13.62-6.23-11.92.15-24.91,1.21-26.66" transform="translate(-1.81 -2.99)"/><path class="cls-5" d="M397.57,635c-6.06,5.4-7.77,12.72-4.86,17.16,4,6.06,15.1,5,20.59.5,9-7.27,6.28-29.87-8.42-39.87-15.64-10.63-35.74-2.65-41.84,12.87-4.74,12.06,2.86,25.53,4.08,27.35" transform="translate(-1.81 -2.99)"/><path class="cls-5" d="M458.75,697.44a20.23,20.23,0,0,1-10.39-.49c-7.32-2.4-12.66-9.2-13.64-15.7-1.65-10.82,9.91-13.43,10.42-25.41.58-13.6-13.95-18.65-10.84-29.12,1.82-6.14,9.1-12,16-11.44a12.71,12.71,0,0,1,6.47,2.56" transform="translate(-1.81 -2.99)"/><line class="cls-5" x1="552.28" y1="651.57" x2="299.81" y2="651.57"/><ellipse class="cls-5" cx="1204.42" cy="652.98" rx="13.17" ry="12.95"/><line class="cls-5" x1="1339.82" y1="655.94" x2="1217.58" y2="655.94"/><path class="cls-5" d="M1166.88,681.3V637.7l50.57-33.83a137.72,137.72,0,0,0,21,25.87,140.89,140.89,0,0,0,39.81,27,240.16,240.16,0,0,0-39.31,25A237.65,237.65,0,0,0,1211.34,707Z" transform="translate(-1.81 -2.99)"/><polygon class="cls-5" points="1157.15 699.44 1126.9 699 1126.9 605.97 1161.09 607.36 1157.15 699.44"/><path class="cls-5" d="M1128.71,702a832.47,832.47,0,0,1-167.12,3A831,831,0,0,1,795,673.78V637.17A930.27,930.27,0,0,1,1128.71,609" transform="translate(-1.81 -2.99)"/><path class="cls-5" d="M1088.89,685.74c-.86,0-8.38,0-12.86-6-4-5.26-3.17-12-.93-16.12,4.79-8.85,19.48-11.94,28.84-6.14,10.31,6.38,10.39,21.26,6.37,30.49-3.64,8.36-11.94,15.11-21,16.28-19.94,2.55-41.8-22.18-42.56-45.31-.26-7.89,2.55-15.21,3.38-17.45,1.42-3.78,5.28-14.11,14.78-21.53,9.27-7.24,28.88-15.61,40.93-5.74,8.08,6.63,12.36,21.15,5.27,30.56-8.32,11.05-28.53,10-33.9,1.89-2.5-3.76-1.93-9.26-.1-13.15,3.25-6.92,10.45-8.64,11.34-8.83" transform="translate(-1.81 -2.99)"/><path class="cls-5" d="M1040.85,684.52c.23,10.39-6.22,19.24-14.8,21.5-9.95,2.61-19-4.64-22.49-11-6-10.95-.59-28.54,15.61-40.41" transform="translate(-1.81 -2.99)"/><path class="cls-5" d="M1040,621.52c-.06-10.19-6.86-17.57-15.62-18.09-10.16-.61-19.14,8.25-22.49,15.13-5.78,11.87.23,28,17,36.38" transform="translate(-1.81 -2.99)"/><path class="cls-5" d="M950.3,677c6.87-5.44,9.45-12.64,6.92-16.92-3.43-5.83-15.07-4.47-21.25,0-10.06,7.33-9.77,29.38,4.33,38.79,15,10,36.68,1.71,44.7-13.62,6.22-11.92-.15-24.91-1.22-26.66" transform="translate(-1.81 -2.99)"/><path class="cls-5" d="M951.46,635c6.07,5.4,7.77,12.72,4.87,17.16-4,6.06-15.1,5-20.59.5-9-7.27-6.28-29.87,8.41-39.87,15.64-10.63,35.73-2.65,41.83,12.87,4.74,12.06-2.86,25.53-4.08,27.35" transform="translate(-1.81 -2.99)"/><path class="cls-5" d="M890.3,697.44a20.24,20.24,0,0,0,10.39-.49c7.31-2.4,12.65-9.2,13.64-15.7,1.64-10.82-9.91-13.43-10.43-25.41-.58-13.6,14-18.65,10.85-29.12-1.83-6.14-9.11-12-16-11.44a12.7,12.7,0,0,0-6.46,2.56" transform="translate(-1.81 -2.99)"/><line class="cls-5" x1="793.17" y1="651.57" x2="1045.57" y2="651.57"/><path class="cls-5" d="M674.9,8.49C306.42,8.49,7.71,281.23,7.71,617.67,7.71,954.56,7.58,1083,670.59,1083c670,0,671.5-105,671.5-465.32C1342.09,281.23,1043.38,8.49,674.9,8.49Zm-1,772.28c-64.33,0-116.48-50-116.48-111.66s52.15-111.66,116.48-111.66,116.47,50,116.47,111.66S738.2,780.77,673.87,780.77Z" transform="translate(-1.81 -2.99)"/></g></svg>