<svg id="Layer_1" data-name="Layer 1" xmlns="http://www.w3.org/2000/svg" xmlns:xlink="http://www.w3.org/1999/xlink" viewBox="0 0 919.56 870.31">
    <defs>
        <style>.cls-1,.cls-3,.cls-5{fill:none;}.cls-2{clip-path:url(#clip-path);}.cls-3,.cls-4,.cls-5,.cls-6{stroke:#878787;stroke-miterlimit:10;}.cls-3{stroke-width:4px;}.cls-4{fill:#fff;}.cls-4,.cls-5{stroke-width:3px;}.cls-6{fill:#878787;}.cls-7{fill:#1d1d1b;}</style>
        <clipPath id="clip-path" transform="translate(-40.22 -179.18)">
            <rect class="cls-1" x="32.76" y="166.25" width="934.48" height="477.19" />
        </clipPath>
    </defs>
    <g class="cls-2">
        <line class="cls-3" x1="40.16" y1="284.91" x2="393.25" y2="433.63" />
        <path class="cls-3" d="M135.51,405.6c-13.93-4-20.9,4.47-20.9,17.41,0,8.39,11.83,14.72,20.9,13.44,12.92-1.82,17-18.49,17.42-20.4,1.49-13.44-10.65-17-10.45-31.85,0-.87.48-17.71,12.94-23.39,7.9-3.6,19.49-2.19,25.37,6,6.17,8.57,4.81,22.86-3.48,26.87-6.56,3.18-16.69-.46-20.4-8a16.31,16.31,0,0,1-1-10.94" transform="translate(-40.22 -179.18)" />
        <path class="cls-3" d="M72.79,554.39c-13-6.32-12.6-17.27-4-26.91,5.59-6.26,18.63-3.09,24.54,3.9,8.42,10,.34,25.1-.61,26.82-7.84,11-19.24,5.55-29,16.78-.57.66-11.44,13.53-5.94,26.06,3.49,8,13.08,14.63,22.9,12.46C91,611.22,99.5,599.66,96,591.15c-2.78-6.75-12.76-10.78-20.52-7.66a16.3,16.3,0,0,0-8,7.5" transform="translate(-40.22 -179.18)" />
        <path class="cls-3" d="M98.19,508.1c.8.35,7.83,3.33,14.43-.5,5.86-3.39,7.86-10.1,7.47-14.92-.85-10.32-13.29-19.16-24.39-17.42-12.23,1.91-18.38,16-18.41,26.37,0,9.39,5,19.14,12.94,23.89,17.55,10.44,48.06-4.24,58.22-25.88,3.46-7.38,3.84-15.46,4-17.91.23-4.16.85-15.51-5-26.37-5.68-10.6-20.55-26.43-35.82-21.9-10.25,3-20.19,15.1-17.42,26.87,3.25,13.83,22.53,20.94,30.85,15.43,3.87-2.57,5.59-8,5.48-12.44-.21-7.87-6.22-12.4-7-12.94" transform="translate(-40.22 -179.18)" />
        <path class="cls-3" d="M147,519.55c-3.45,7.89-1.33,16.6,4.47,20.89,6.74,5,15.91,2.14,20.55-1.68,8-6.59,9.43-21.69.85-35.64" transform="translate(-40.22 -179.18)" />
        <path class="cls-3" d="M167.82,473.1c3.05-7.39,10.09-10.8,16.52-8.68,7.46,2.46,11.27,11.46,11.65,17.42.64,10.27-8.41,20.26-22.9,21.59" transform="translate(-40.22 -179.18)" />
        <path class="cls-3" d="M205.67,533c-2-5.41-.91-10.59,2-12.44,4-2.52,10,1.85,12,6.47,3.11,7.54-4.72,20.92-15.93,22.39-11.92,1.56-21.22-10.09-20.4-21.89.64-9.18,8.75-15.18,9.95-15.93" transform="translate(-40.22 -179.18)" />
        <path class="cls-3" d="M219.57,507.21c-5.45,1.38-9,5.08-8.93,8.44.14,4.57,7,7.07,11.77,6.07,7.78-1.63,14.26-15.29,9.29-25.13-5.29-10.46-19.79-11.56-28.85-4.41-7,5.55-7.42,15.38-7.36,16.76" transform="translate(-40.22 -179.18)" />
        <path class="cls-3" d="M234,554.87a11,11,0,0,1-5-3,11.69,11.69,0,0,1-2.49-11.45c2.1-5.84,8.48-4.1,11.94-10,3.94-6.64-1.84-13,2.49-17.41,2.55-2.59,7.71-3.62,10.95-1.5a7.13,7.13,0,0,1,2.49,3" transform="translate(-40.22 -179.18)" />
        <path class="cls-3" d="M255.43,552.88c-2.35-2.2-4.74-5-4-7,1.11-2.85,7.82-1.27,9.46-4.48,1.87-3.67-5.12-9.23-3.49-11.94.68-1.12,3-2,10.95,0" transform="translate(-40.22 -179.18)" />
        <circle class="cls-3" cx="207.5" cy="206.76" r="9.21" />
        <line class="cls-3" x1="139.08" y1="141.33" x2="199.5" y2="201.75" />
        <path class="cls-3" d="M254.44,418.13l21.92-21.92-8-42a98.11,98.11,0,0,1-56.63-3.49,167.5,167.5,0,0,1,7.79,58.36Z" transform="translate(-40.22 -179.18)" />
        <polygon class="cls-3" points="207.5 253.49 222.68 268.21 269.45 221.44 251.85 205.24 207.5 253.49" />
        <path class="cls-3" d="M262.9,447.39A571.68,571.68,0,0,0,442,598.17l18.41-18.42a640.2,640.2,0,0,0-57.72-85.08,641,641,0,0,0-93.05-94.05" transform="translate(-40.22 -179.18)" />
        <path class="cls-3" d="M290.75,458.91c.42.42,4.16,4.12,9.36,3.35a11,11,0,0,0,8.57-7.65c2.08-6.82-3.63-15.63-11.17-17.34-8.31-1.89-15.82,5.55-18.48,12.18-2.4,6-1.69,13.5,2.2,18.57,8.57,11.14,31.82,9.51,43.82-1.74a34.09,34.09,0,0,0,7.1-10.45c1.2-2.6,4.48-9.7,3.52-18.13-.94-8.22-6.43-22.13-17.35-23.11-7.32-.67-16.74,4.52-18,12.75-1.44,9.68,9.09,19.13,15.81,17.71,3.13-.65,5.61-3.7,6.67-6.56a11.9,11.9,0,0,0-1.17-10.05" transform="translate(-40.22 -179.18)" />
        <path class="cls-3" d="M315.11,482c-5.34,5.11-6.6,12.75-3.5,18.12,3.6,6.23,11.73,7.06,16.64,5.59,8.48-2.53,14.65-14.06,12.6-28" transform="translate(-40.22 -179.18)" />
        <path class="cls-3" d="M347.22,450.8c5.16-5.1,12.23-5.44,16.82-1.37,5.33,4.72,5.31,13.6,3.51,18.72-3.11,8.82-14.18,14-26.7,9.89" transform="translate(-40.22 -179.18)" />
        <path class="cls-3" d="M363.67,523c-.66-6.13,1.69-11,5.08-11.93,4.63-1.23,9.7,5.2,10.49,10.52,1.29,8.66-9.94,19.6-21.64,17.36-12.45-2.38-19-17.27-15.24-28.94,2.91-9.07,12.6-12.45,14-12.8" transform="translate(-40.22 -179.18)" />
        <path class="cls-3" d="M384.21,501.3c-5.71-.28-10.24,2.55-11,6.23-1.08,5,5,10,9.93,10.42,8.08.78,18.12-11.92,15.88-24.2-2.38-13.07-16.32-19-27.14-14.21-8.4,3.72-11.42,14.25-11.73,15.77" transform="translate(-40.22 -179.18)" />
        <path class="cls-3" d="M383,563a14,14,0,0,1-4.9-5.39,14.65,14.65,0,0,1,1.16-14.63c4.63-6.25,11.65-1.86,17.92-7.62,7.13-6.55,2.49-16.28,9.28-20,4-2.19,10.55-1.55,13.68,2.16a8.86,8.86,0,0,1,1.91,4.48" transform="translate(-40.22 -179.18)" />
        <line class="cls-3" x1="411.47" y1="409.32" x2="286.72" y2="284.56" />
        <line class="cls-3" x1="888.7" y1="284.91" x2="535.61" y2="433.63" />
        <path class="cls-3" d="M873.79,405.6c13.93-4,20.9,4.47,20.9,17.41,0,8.39-11.83,14.72-20.9,13.44-12.92-1.82-17-18.49-17.42-20.4-1.49-13.44,10.65-17,10.45-31.85,0-.87-.48-17.71-12.94-23.39-7.9-3.6-19.49-2.19-25.37,6-6.17,8.57-4.81,22.86,3.48,26.87,6.56,3.18,16.69-.46,20.4-8a16.31,16.31,0,0,0,1-10.94" transform="translate(-40.22 -179.18)" />
        <path class="cls-3" d="M936.51,554.39c13-6.32,12.6-17.27,4-26.91-5.59-6.26-18.63-3.09-24.54,3.9-8.42,10-.34,25.1.61,26.82,7.84,11,19.24,5.55,29,16.78.57.66,11.44,13.53,5.94,26.06-3.49,8-13.08,14.63-22.9,12.46-10.31-2.28-18.81-13.84-15.31-22.35,2.78-6.75,12.75-10.78,20.52-7.66a16.22,16.22,0,0,1,8,7.5" transform="translate(-40.22 -179.18)" />
        <path class="cls-3" d="M911.11,508.1c-.8.35-7.83,3.33-14.43-.5-5.86-3.39-7.86-10.1-7.47-14.92.85-10.32,13.29-19.16,24.39-17.42,12.23,1.91,18.38,16,18.41,26.37,0,9.39-5,19.14-12.94,23.89C901.52,536,871,521.28,860.85,499.64c-3.47-7.38-3.85-15.46-4-17.91-.23-4.16-.85-15.51,5-26.37,5.68-10.6,20.55-26.43,35.82-21.9,10.25,3,20.18,15.1,17.42,26.87-3.25,13.83-22.54,20.94-30.85,15.43-3.87-2.57-5.59-8-5.48-12.44.21-7.87,6.22-12.4,7-12.94" transform="translate(-40.22 -179.18)" />
        <path class="cls-3" d="M862.34,519.55c3.45,7.89,1.33,16.6-4.48,20.89-6.73,5-15.9,2.14-20.54-1.68-8-6.59-9.43-21.69-.85-35.64" transform="translate(-40.22 -179.18)" />
        <path class="cls-3" d="M841.48,473.1c-3.05-7.39-10.1-10.8-16.52-8.68-7.46,2.46-11.27,11.46-11.65,17.42-.64,10.27,8.41,20.26,22.9,21.59" transform="translate(-40.22 -179.18)" />
        <path class="cls-3" d="M803.63,533c2-5.41.91-10.59-2-12.44-4-2.52-10,1.85-11.95,6.47-3.11,7.54,4.72,20.92,15.93,22.39,11.92,1.56,21.22-10.09,20.4-21.89-.64-9.18-8.75-15.18-9.95-15.93" transform="translate(-40.22 -179.18)" />
        <path class="cls-3" d="M789.73,507.21c5.44,1.38,9,5.08,8.93,8.44-.14,4.57-7,7.07-11.77,6.07-7.78-1.63-14.27-15.29-9.29-25.13,5.29-10.46,19.79-11.56,28.85-4.41,7,5.55,7.42,15.38,7.36,16.76" transform="translate(-40.22 -179.18)" />
        <path class="cls-3" d="M775.26,554.87a11,11,0,0,0,5-3,11.69,11.69,0,0,0,2.49-11.45c-2.1-5.84-8.48-4.1-11.94-10-3.94-6.64,1.84-13-2.49-17.41-2.55-2.59-7.71-3.62-10.95-1.5a7.13,7.13,0,0,0-2.49,3" transform="translate(-40.22 -179.18)" />
        <path class="cls-3" d="M753.87,552.88c2.35-2.2,4.74-5,4-7-1.11-2.85-7.82-1.27-9.46-4.48-1.87-3.67,5.12-9.23,3.49-11.94-.68-1.12-3-2-11,0" transform="translate(-40.22 -179.18)" />
        <circle class="cls-3" cx="721.36" cy="206.76" r="9.21" />
        <line class="cls-3" x1="789.78" y1="141.33" x2="729.36" y2="201.75" />
        <path class="cls-3" d="M754.86,418.13l-21.92-21.92,8-42a98.11,98.11,0,0,0,56.63-3.49,167.86,167.86,0,0,0-7.8,58.36Z" transform="translate(-40.22 -179.18)" />
        <polygon class="cls-3" points="721.36 253.49 706.18 268.21 659.41 221.44 677.01 205.24 721.36 253.49" />
        <path class="cls-3" d="M746.4,447.39A571.68,571.68,0,0,1,567.27,598.17l-18.41-18.42A640,640,0,0,1,699.63,400.62" transform="translate(-40.22 -179.18)" />
        <path class="cls-3" d="M718.55,458.91c-.42.42-4.16,4.12-9.36,3.35a11,11,0,0,1-8.57-7.65c-2.08-6.82,3.63-15.63,11.17-17.34,8.31-1.89,15.82,5.55,18.48,12.18,2.4,6,1.69,13.5-2.2,18.57-8.57,11.14-31.82,9.51-43.82-1.74a33.9,33.9,0,0,1-7.1-10.45c-1.2-2.6-4.49-9.7-3.52-18.13.94-8.22,6.43-22.13,17.34-23.11,7.33-.67,16.75,4.52,18,12.75,1.43,9.68-9.09,19.13-15.81,17.71-3.13-.65-5.62-3.7-6.67-6.56a11.9,11.9,0,0,1,1.17-10.05" transform="translate(-40.22 -179.18)" />
        <path class="cls-3" d="M694.19,482c5.34,5.11,6.6,12.75,3.5,18.12-3.6,6.23-11.73,7.06-16.64,5.59-8.48-2.53-14.65-14.06-12.61-28" transform="translate(-40.22 -179.18)" />
        <path class="cls-3" d="M662.08,450.8c-5.16-5.1-12.23-5.44-16.82-1.37-5.33,4.72-5.31,13.6-3.51,18.72,3.11,8.82,14.18,14,26.7,9.89" transform="translate(-40.22 -179.18)" />
        <path class="cls-3" d="M645.63,523c.66-6.13-1.69-11-5.08-11.93-4.63-1.23-9.7,5.2-10.49,10.52-1.29,8.66,9.94,19.6,21.64,17.36,12.45-2.38,19-17.27,15.24-28.94-2.91-9.07-12.6-12.45-14-12.8" transform="translate(-40.22 -179.18)" />
        <path class="cls-3" d="M625.09,501.3c5.71-.28,10.24,2.55,11,6.23,1.08,5-5,10-9.93,10.42-8.08.78-18.12-11.92-15.88-24.2,2.38-13.07,16.32-19,27.14-14.21,8.4,3.72,11.42,14.25,11.73,15.77" transform="translate(-40.22 -179.18)" />
        <path class="cls-3" d="M626.27,563a14,14,0,0,0,4.89-5.39A14.63,14.63,0,0,0,630,542.93c-4.63-6.25-11.65-1.86-17.92-7.62-7.13-6.55-2.49-16.28-9.29-20-4-2.19-10.55-1.55-13.67,2.16a8.86,8.86,0,0,0-1.91,4.48" transform="translate(-40.22 -179.18)" />
        <line class="cls-3" x1="517.39" y1="409.32" x2="642.14" y2="284.56" />
        <line class="cls-3" x1="287.37" y1="37.16" x2="433.2" y2="391.46" />
        <path class="cls-3" d="M407.93,213.66c-7.09-12.64-18-11.54-27.1-2.36-5.91,5.95-2,18.78,5.36,24.26,10.46,7.81,25.08-1.16,26.74-2.21,10.52-8.48,4.39-19.54,15-30,.62-.61,12.82-12.23,25.65-7.49,8.15,3,15.39,12.18,13.81,22.12-1.66,10.43-12.69,19.6-21.4,16.61-6.9-2.36-11.52-12.08-8.87-20a16.29,16.29,0,0,1,7-8.47" transform="translate(-40.22 -179.18)" />
        <path class="cls-3" d="M258.59,275.08c-4.8-13.67,3.22-21.13,16.14-21.9,8.37-.5,15.39,10.93,14.66,20.06-1.05,13-17.44,18.05-19.33,18.6-13.32,2.29-17.56-9.61-32.41-8.53-.87.06-17.65,1.54-22.57,14.31-3.13,8.11-1,19.6,7.47,25,8.93,5.65,23.11,3.43,26.62-5.08,2.78-6.75-1.46-16.63-9.17-19.89a16.23,16.23,0,0,0-11-.34" transform="translate(-40.22 -179.18)" />
        <path class="cls-3" d="M309.23,260.12c.32.81,3.21,7.88,10.59,9.82,6.55,1.71,12.7-1.64,15.82-5.34,6.66-7.92,4.06-23-5-29.54-10-7.26-24.32-1.6-31.65,5.75-6.63,6.65-10,17.07-7.64,26.06,5.1,19.78,37.1,30.85,59.55,22.65,7.66-2.79,13.62-8.26,15.44-9.9,3.09-2.79,11.53-10.41,15.05-22.23,3.43-11.52,4-33.23-10-40.78-9.42-5.06-25-3.5-31.29,6.81-7.44,12.1,1.24,30.73,11,32.68,4.55.9,9.61-1.75,12.64-5,5.4-5.73,4.32-13.17,4.17-14.09" transform="translate(-40.22 -179.18)" />
        <path class="cls-3" d="M335.78,302.6c-8,3.17-12.64,10.85-11.55,18,1.27,8.28,9.78,12.71,15.77,13.27,10.34,1,22-8.75,25.71-24.69" transform="translate(-40.22 -179.18)" />
        <path class="cls-3" d="M383.3,284.34c7.37-3.1,14.78-.56,17.84,5.47,3.56,7-.07,16.08-4,20.57-6.78,7.74-20.24,8.46-31.46-.81" transform="translate(-40.22 -179.18)" />
        <path class="cls-3" d="M368,353.5c2.41-5.23,6.82-8.16,10.18-7.43,4.58,1,5.82,8.38,3.92,13C379,366.62,364,370.6,355,363.75c-9.56-7.29-7.95-22.11.95-29.91,6.91-6.06,16.9-4.61,18.28-4.29" transform="translate(-40.22 -179.18)" />
        <path class="cls-3" d="M396,345c-4.84-2.85-10-2.76-12.29-.3-3.11,3.34,0,9.95,4.08,12.6,6.68,4.32,20.9-.81,24.3-11.29,3.62-11.16-5.9-22.15-17.36-23.45-8.91-1-16.11,5.69-17,6.71" transform="translate(-40.22 -179.18)" />
        <path class="cls-3" d="M372.69,389a11.07,11.07,0,0,1-1.43-5.63,11.66,11.66,0,0,1,6.3-9.87c5.61-2.67,8.9,3.06,15.48,1.35,7.48-1.94,7.86-10.53,14-10.61,3.63,0,8,2.86,8.82,6.65a7,7,0,0,1-.34,3.88" transform="translate(-40.22 -179.18)" />
        <path class="cls-3" d="M389.28,402.68c-.12-3.22.16-6.89,2.08-7.75,2.79-1.24,6.44,4.61,9.86,3.48,3.92-1.28,2.88-10.15,5.95-10.93,1.27-.32,3.53.68,7.76,7.72" transform="translate(-40.22 -179.18)" />
        <line class="cls-3" x1="637.78" y1="37.16" x2="491.95" y2="391.46" />
        <path class="cls-3" d="M597.66,213.66c7.08-12.64,18-11.54,27.1-2.36,5.91,5.95,2,18.78-5.37,24.26-10.45,7.81-25.07-1.16-26.73-2.21-10.53-8.48-4.39-19.54-15-30-.62-.61-12.82-12.23-25.66-7.49-8.14,3-15.38,12.18-13.8,22.12,1.65,10.43,12.69,19.6,21.4,16.61,6.9-2.36,11.51-12.08,8.87-20a16.34,16.34,0,0,0-7-8.47" transform="translate(-40.22 -179.18)" />
        <path class="cls-3" d="M747,275.08c4.81-13.67-3.22-21.13-16.13-21.9-8.38-.5-15.4,10.93-14.66,20.06,1,13,17.43,18.05,19.32,18.6,13.32,2.29,17.57-9.61,32.42-8.53.86.06,17.64,1.54,22.57,14.31,3.12,8.11,1,19.6-7.48,25-8.92,5.65-23.1,3.43-26.61-5.08-2.78-6.75,1.46-16.63,9.16-19.89a16.26,16.26,0,0,1,11-.34" transform="translate(-40.22 -179.18)" />
        <path class="cls-3" d="M696.36,260.12c-.32.81-3.21,7.88-10.6,9.82-6.54,1.71-12.69-1.64-15.81-5.34-6.66-7.92-4.06-23,5-29.54,10-7.26,24.31-1.6,31.64,5.75,6.63,6.65,10,17.07,7.65,26.06-5.11,19.78-37.1,30.85-59.55,22.65-7.66-2.79-13.62-8.26-15.45-9.9-3.09-2.79-11.52-10.41-15-22.23-3.43-11.52-4-33.23,10-40.78,9.41-5.06,25-3.5,31.29,6.81,7.44,12.1-1.24,30.73-11,32.68-4.55.9-9.61-1.75-12.65-5-5.4-5.73-4.32-13.17-4.17-14.09" transform="translate(-40.22 -179.18)" />
        <path class="cls-3" d="M669.81,302.6c8,3.17,12.64,10.85,11.54,18-1.27,8.28-9.78,12.71-15.77,13.27-10.33,1-22-8.75-25.7-24.69" transform="translate(-40.22 -179.18)" />
        <path class="cls-3" d="M622.28,284.34c-7.37-3.1-14.77-.56-17.84,5.47-3.55,7,.08,16.08,4,20.57,6.78,7.74,20.24,8.46,31.46-.81" transform="translate(-40.22 -179.18)" />
        <path class="cls-3" d="M637.6,353.5c-2.41-5.23-6.81-8.16-10.17-7.43-4.59,1-5.82,8.38-3.92,13,3.1,7.54,18.09,11.52,27.07,4.67,9.56-7.29,8-22.11-.94-29.91-6.92-6.06-16.9-4.61-18.28-4.29" transform="translate(-40.22 -179.18)" />
        <path class="cls-3" d="M609.59,345c4.83-2.85,10-2.76,12.28-.3,3.12,3.34,0,9.95-4.08,12.6-6.67,4.32-20.9-.81-24.3-11.29-3.61-11.16,5.91-22.15,17.37-23.45,8.91-1,16.1,5.69,17,6.71" transform="translate(-40.22 -179.18)" />
        <path class="cls-3" d="M632.9,389a11.17,11.17,0,0,0,1.43-5.63,11.7,11.7,0,0,0-6.3-9.87c-5.61-2.67-8.9,3.06-15.49,1.35-7.47-1.94-7.85-10.53-14-10.61-3.63,0-8,2.86-8.82,6.65a7.12,7.12,0,0,0,.33,3.88" transform="translate(-40.22 -179.18)" />
        <path class="cls-3" d="M616.31,402.68c.11-3.22-.16-6.89-2.08-7.75-2.79-1.24-6.44,4.61-9.87,3.48-3.91-1.28-2.87-10.15-5.94-10.93-1.27-.32-3.53.68-7.77,7.72" transform="translate(-40.22 -179.18)" />
        <circle class="cls-3" cx="462.9" cy="101.12" r="9.21" />
        <line class="cls-3" x1="461.93" y1="6.46" x2="460.9" y2="91.9" />
        <path class="cls-3" d="M484.78,307.6l31,.37,24.48-35.06a98.09,98.09,0,0,1-37.06-43,167.44,167.44,0,0,1-36.32,46.34Z" transform="translate(-40.22 -179.18)" />
        <polygon class="cls-3" points="429.46 133.76 429.52 154.91 495.67 155.71 494.96 131.8 429.46 133.76" />
        <path class="cls-3" d="M469.74,334.09A572,572,0,0,0,487,567.6l26,.31a640,640,0,0,0,20.58-100.74,640.72,640.72,0,0,0,2.3-132.28" transform="translate(-40.22 -179.18)" />
        <path class="cls-3" d="M481,362.07c0,.6,0,5.85,4.14,9a11,11,0,0,0,11.46.79c6.33-3.27,8.65-13.51,4.61-20.1-4.46-7.26-15-7.44-21.63-4.71-6,2.47-10.85,8.21-11.75,14.54-2,13.91,15.42,29.41,31.85,30.13a33.78,33.78,0,0,0,12.44-2.21c2.7-1,10.07-3.56,15.43-10.14,5.23-6.42,11.35-20.06,4.43-28.56-4.65-5.71-14.94-8.82-21.68-3.95-7.93,5.73-7.34,19.86-1.63,23.68,2.65,1.78,6.57,1.43,9.35.19a12,12,0,0,0,6.37-7.85" transform="translate(-40.22 -179.18)" />
        <path class="cls-3" d="M481.42,395.65c-7.39-.25-13.73,4.19-15.41,10.16-1.94,6.93,3.14,13.32,7.62,15.81,7.74,4.3,20.29.66,28.87-10.56" transform="translate(-40.22 -179.18)" />
        <path class="cls-3" d="M526.21,396.81c7.25.13,12.43,4.95,12.73,11.08.34,7.11-6,13.3-11,15.59-8.48,3.94-19.89-.4-25.72-12.19" transform="translate(-40.22 -179.18)" />
        <path class="cls-3" d="M486,459c3.92-4.76,9.07-6.5,12.09-4.7,4.11,2.45,3.05,10.58-.2,14.86-5.3,7-21,6.58-27.55-3.36-7-10.58-.9-25.65,10.07-31.12,8.52-4.26,17.71.32,18.94,1.07" transform="translate(-40.22 -179.18)" />
        <path class="cls-3" d="M515.91,458.56c-3.79-4.29-9-5.55-12.17-3.55-4.34,2.72-3.65,10.51-.52,14.39,5.09,6.32,21.18,4.64,28.41-5.55,7.69-10.83,2.19-25-8.79-29.34-8.53-3.42-18.18,1.78-19.48,2.61" transform="translate(-40.22 -179.18)" />
        <path class="cls-3" d="M471,500.77a13.89,13.89,0,0,1,.43-7.26,14.66,14.66,0,0,1,11.28-9.4c7.71-1.05,9.47,7,18,7.51,9.66.52,13.38-9.59,20.79-7.33,4.35,1.33,8.48,6.46,8,11.3a8.84,8.84,0,0,1-1.87,4.49" transform="translate(-40.22 -179.18)" />
        <line class="cls-3" x1="460.43" y1="388.58" x2="462.56" y2="212.16" />
        <ellipse class="cls-3" cx="99.77" cy="462.39" rx="8.98" ry="9.21" />
        <line class="cls-3" x1="7.45" y1="464.5" x2="90.79" y2="464.5" />
        <path class="cls-3" d="M166.82,659.58v-31l-34.48-24.05A97.36,97.36,0,0,1,118,622.92a96.07,96.07,0,0,1-27.14,19.19,162.73,162.73,0,0,1,26.8,17.76,166.09,166.09,0,0,1,18.83,18Z" transform="translate(-40.22 -179.18)" />
        <polygon class="cls-3" points="132 495.43 152.62 495.11 152.62 428.96 129.31 429.96 132 495.43" />
        <path class="cls-3" d="M192.84,674.29a544.66,544.66,0,0,0,113.94,2.12,546.1,546.1,0,0,0,113.6-22.17v-26a609.27,609.27,0,0,0-227.54-20.05" transform="translate(-40.22 -179.18)" />
        <path class="cls-3" d="M220,662.74c.59,0,5.71,0,8.77-4.25a11.24,11.24,0,0,0,.63-11.47c-3.26-6.29-13.28-8.48-19.66-4.36-7,4.54-7.08,15.11-4.34,21.68,2.48,5.94,8.14,10.75,14.32,11.57,13.6,1.82,28.51-15.77,29-32.21a34.51,34.51,0,0,0-2.31-12.41c-1-2.69-3.59-10-10.07-15.31-6.32-5.15-19.69-11.1-27.91-4.08-5.51,4.71-8.43,15-3.59,21.73,5.68,7.86,19.45,7.1,23.12,1.34,1.7-2.67,1.31-6.58.06-9.35a11.6,11.6,0,0,0-7.73-6.28" transform="translate(-40.22 -179.18)" />
        <path class="cls-3" d="M252.75,661.87c-.16,7.39,4.24,13.69,10.08,15.29,6.79,1.86,13-3.3,15.34-7.81,4.1-7.79.4-20.3-10.64-28.74" transform="translate(-40.22 -179.18)" />
        <path class="cls-3" d="M253.35,617.07c0-7.24,4.68-12.49,10.65-12.86,6.93-.43,13.05,5.87,15.34,10.76,3.94,8.44-.16,19.89-11.59,25.87" transform="translate(-40.22 -179.18)" />
        <path class="cls-3" d="M314.48,656.49c-4.68-3.87-6.43-9-4.72-12,2.35-4.14,10.28-3.18,14.49,0,6.87,5.21,6.67,20.89-2.95,27.58-10.23,7.12-25,1.22-30.47-9.68-4.25-8.48.1-17.72.83-19" transform="translate(-40.22 -179.18)" />
        <path class="cls-3" d="M313.69,626.63c-4.13,3.84-5.3,9-3.31,12.21,2.7,4.3,10.29,3.52,14,.35,6.11-5.17,4.28-21.24-5.74-28.35C308,603.28,294.31,609,290.16,620c-3.24,8.57,1.95,18.15,2.78,19.45" transform="translate(-40.22 -179.18)" />
        <path class="cls-3" d="M355.4,671.06a13.38,13.38,0,0,1-7.09-.35,14.54,14.54,0,0,1-9.3-11.16c-1.12-7.7,6.76-9.55,7.11-18.07.4-9.67-9.51-13.26-7.39-20.7,1.24-4.37,6.2-8.56,10.92-8.14a8.55,8.55,0,0,1,4.41,1.82" transform="translate(-40.22 -179.18)" />
        <line class="cls-3" x1="380.17" y1="461.39" x2="208.07" y2="461.39" />
        <ellipse class="cls-3" cx="824.71" cy="462.39" rx="8.98" ry="9.21" />
        <line class="cls-3" x1="917.01" y1="464.5" x2="833.68" y2="464.5" />
        <path class="cls-3" d="M838.1,659.58v-31l34.47-24.05a97.36,97.36,0,0,0,14.32,18.39A96.07,96.07,0,0,0,914,642.11a162.73,162.73,0,0,0-26.8,17.76,165.93,165.93,0,0,0-18.82,18Z" transform="translate(-40.22 -179.18)" />
        <polygon class="cls-3" points="792.49 495.43 771.87 495.11 771.87 428.96 795.17 429.96 792.49 495.43" />
        <path class="cls-3" d="M812.09,674.29a544.48,544.48,0,0,1-113.92,2.12,546,546,0,0,1-113.58-22.17v-26a609.1,609.1,0,0,1,227.5-20.05" transform="translate(-40.22 -179.18)" />
        <path class="cls-3" d="M784.94,662.74c-.59,0-5.71,0-8.76-4.25a11.27,11.27,0,0,1-.64-11.47c3.27-6.29,13.28-8.48,19.66-4.36,7,4.54,7.08,15.11,4.34,21.68-2.48,5.94-8.14,10.75-14.32,11.57-13.59,1.82-28.5-15.77-29-32.21a34.57,34.57,0,0,1,2.3-12.41c1-2.69,3.6-10,10.08-15.31,6.31-5.15,19.69-11.1,27.9-4.08,5.5,4.71,8.43,15,3.59,21.73-5.67,7.86-19.45,7.1-23.11,1.34-1.7-2.67-1.32-6.58-.07-9.35a11.64,11.64,0,0,1,7.73-6.28" transform="translate(-40.22 -179.18)" />
        <path class="cls-3" d="M752.19,661.87c.16,7.39-4.24,13.69-10.08,15.29-6.79,1.86-13-3.3-15.33-7.81-4.1-7.79-.41-20.3,10.64-28.74" transform="translate(-40.22 -179.18)" />
        <path class="cls-3" d="M751.59,617.07c0-7.24-4.68-12.49-10.65-12.86-6.93-.43-13.05,5.87-15.33,10.76-3.94,8.44.15,19.89,11.58,25.87" transform="translate(-40.22 -179.18)" />
        <path class="cls-3" d="M690.47,656.49c4.68-3.87,6.44-9,4.72-12-2.34-4.14-10.28-3.18-14.49,0-6.86,5.21-6.66,20.89,2.95,27.58,10.23,7.12,25,1.22,30.47-9.68,4.24-8.48-.1-17.72-.83-19" transform="translate(-40.22 -179.18)" />
        <path class="cls-3" d="M691.26,626.63c4.13,3.84,5.3,9,3.32,12.21-2.71,4.3-10.3,3.52-14,.35-6.11-5.17-4.28-21.24,5.74-28.35,10.66-7.56,24.35-1.89,28.51,9.15,3.23,8.57-1.95,18.15-2.78,19.45" transform="translate(-40.22 -179.18)" />
        <path class="cls-3" d="M649.57,671.06a13.34,13.34,0,0,0,7.08-.35,14.56,14.56,0,0,0,9.3-11.16c1.12-7.7-6.76-9.55-7.11-18.07-.4-9.67,9.51-13.26,7.39-20.7-1.24-4.37-6.2-8.56-10.92-8.14a8.55,8.55,0,0,0-4.41,1.82" transform="translate(-40.22 -179.18)" />
        <line class="cls-3" x1="544.37" y1="461.39" x2="716.43" y2="461.39" />
        <path class="cls-3" d="M502.74,181.18c-251.18,0-454.81,193.93-454.81,433.16s203.63,433.15,454.81,433.15,454.8-193.93,454.8-433.15S753.92,181.18,502.74,181.18Zm0,551.83a82.1,82.1,0,1,1,82.1-82.1A82.11,82.11,0,0,1,502.74,733Z" transform="translate(-40.22 -179.18)" />
    </g>
    <path class="cls-4" d="M499.48,660.61c-67.38-30.73-122-35.86-160.09-34.54-65.12,2.26-112.21,24.38-233.15,32.62-15.39,1-28.09,1.61-36.53,1.92V626.28c8.44-.31,21.14-.87,36.53-1.92,120.94-8.24,168-30.36,233.15-32.62,38.14-1.33,92.71,3.8,160.09,34.54Z" transform="translate(-40.22 -179.18)" />
    <path class="cls-5" d="M69.89,632.66c8.45-.31,21.15-.87,36.53-1.92,120.94-8.24,168-30.36,233.15-32.62,38.14-1.32,92.71,3.81,160.09,34.54" transform="translate(-40.22 -179.18)" />
    <path class="cls-5" d="M69.71,637.72c8.44-.31,21.14-.87,36.53-1.91,120.94-8.25,168-30.37,233.15-32.63,38.14-1.32,92.71,3.81,160.09,34.54" transform="translate(-40.22 -179.18)" />
    <path class="cls-5" d="M69.71,649.17c8.44-.31,21.14-.87,36.53-1.92,120.94-8.24,168-30.36,233.15-32.62,38.14-1.33,92.71,3.8,160.09,34.54" transform="translate(-40.22 -179.18)" />
    <path class="cls-5" d="M69.89,655.55c8.45-.31,21.15-.87,36.53-1.92,120.94-8.24,168-30.36,233.15-32.62,38.14-1.32,92.71,3.81,160.09,34.54" transform="translate(-40.22 -179.18)" />
    <path class="cls-5" d="M69.89,644.11c8.45-.31,21.15-.87,36.53-1.92,120.94-8.25,168-30.36,233.15-32.62,38.14-1.33,92.71,3.8,160.09,34.54" transform="translate(-40.22 -179.18)" />
    <path class="cls-4" d="M930,626.28c-8.44-.31-21.14-.87-36.52-1.92-120.95-8.24-168-30.36-233.15-32.62-38.14-1.33-92.71,3.8-160.1,34.54v34.33c67.39-30.73,122-35.86,160.1-34.54,65.12,2.26,112.2,24.38,233.15,32.62,15.38,1,28.08,1.61,36.52,1.92Z" transform="translate(-40.22 -179.18)" />
    <path class="cls-5" d="M929.77,632.66c-8.44-.31-21.14-.87-36.53-1.92-120.94-8.24-168-30.36-233.15-32.62C622,596.8,567.38,601.93,500,632.66" transform="translate(-40.22 -179.18)" />
    <path class="cls-5" d="M930,637.72c-8.44-.31-21.14-.87-36.52-1.91-120.95-8.25-168-30.37-233.15-32.63-38.14-1.32-92.71,3.81-160.1,34.54" transform="translate(-40.22 -179.18)" />
    <path class="cls-5" d="M930,649.17c-8.44-.31-21.14-.87-36.52-1.92-120.95-8.24-168-30.36-233.15-32.62-38.14-1.33-92.71,3.8-160.1,34.54" transform="translate(-40.22 -179.18)" />
    <path class="cls-5" d="M929.77,655.55c-8.44-.31-21.14-.87-36.53-1.92-120.94-8.24-168-30.36-233.15-32.62C622,619.69,567.38,624.82,500,655.55" transform="translate(-40.22 -179.18)" />
    <path class="cls-5" d="M929.77,644.11c-8.44-.31-21.14-.87-36.53-1.92-120.94-8.25-168-30.36-233.15-32.62-38.13-1.33-92.71,3.8-160.09,34.54" transform="translate(-40.22 -179.18)" />
    <path class="cls-6" d="M60.13,663.35c-11.7.49-20.3-6.35-19.34-12.54.85-5.47,9.19-10.46,19.34-9.85,301.76-25.37,407-21.66,418.25-6,1.1,1.54,9.81,8.2,21.37,9s20-5,21.36-6.46c13.46-14.53,121.64-17.9,415,3.48,10.77,2.7,23.38,6.78,23.21,11.54-.2,5.57-10.15,12-23.21,10.85Z" transform="translate(-40.22 -179.18)" />
    <path class="cls-7" d="M193.67,710.34a248.82,248.82,0,0,1,37.61-2.55c23.36,0,38.51,4.2,50.38,13.14,12.78,9.49,20.81,24.64,20.81,46.37,0,23.55-8.58,39.79-20.44,49.83-13,10.78-32.68,15.89-56.78,15.89a241.28,241.28,0,0,1-31.58-1.83Zm27.93,100.4c2.37.55,6.21.55,9.68.55,25.19.19,41.62-13.69,41.62-43.08.18-25.56-14.79-39.07-38.7-39.07a57.61,57.61,0,0,0-12.6,1.1Z" transform="translate(-40.22 -179.18)" />
    <path class="cls-7" d="M433.36,768.94c0,40.34-24.46,64.81-60.42,64.81-36.51,0-57.87-27.57-57.87-62.62,0-36.87,23.55-64.44,59.88-64.44C412.74,706.69,433.36,735,433.36,768.94Zm-88.9,1.64c0,24.1,11.32,41.08,29.94,41.08,18.8,0,29.57-17.89,29.57-41.81,0-22.08-10.58-41.07-29.75-41.07C355.42,728.78,344.46,746.67,344.46,770.58Z" transform="translate(-40.22 -179.18)" />
    <path class="cls-7" d="M524.83,779.71H479.55v29.21h50.57v22.82h-78.5v-123h75.94v22.82h-48v25.56h45.28Z" transform="translate(-40.22 -179.18)" />
    <path class="cls-7" d="M653.16,784.64c-.54-14.79-1.09-32.68-1.09-50.57h-.55c-3.83,15.7-8.94,33.23-13.69,47.65l-15,48H601.14L588,782.08c-4-14.42-8.21-31.94-11.13-48h-.37c-.73,16.62-1.28,35.6-2.19,50.94l-2.19,46.73H546.37l7.85-123h37.06l12.05,41.07c3.83,14.24,7.66,29.58,10.4,44h.55c3.47-14.24,7.67-30.49,11.68-44.18l13.15-40.89h36.32l6.76,123H655Z" transform="translate(-40.22 -179.18)" />
    <path class="cls-7" d="M731.67,800.16l-8.77,31.58H694.06l37.61-123h36.51l38.15,123H776.39l-9.49-31.58Zm31.21-20.81-7.66-26.11c-2.2-7.3-4.39-16.43-6.21-23.73h-.37c-1.82,7.3-3.65,16.61-5.66,23.73l-7.3,26.11Z" transform="translate(-40.22 -179.18)" />
</svg>