<?xml version="1.0" encoding="utf-8"?>
<!-- Generator: Adobe Illustrator 25.0.0, SVG Export Plug-In . SVG Version: 6.00 Build 0)  -->
<svg version="1.1" id="Layer_1" xmlns="http://www.w3.org/2000/svg" xmlns:xlink="http://www.w3.org/1999/xlink" x="0px" y="0px"
	 viewBox="0 0 89.3 68.5" style="enable-background:new 0 0 89.3 68.5;" xml:space="preserve">
<style type="text/css">
	.st0{clip-path:url(#SVGID_2_);}
	.st1{fill:none;stroke:#C53C2D;stroke-width:0.75;stroke-miterlimit:10;}
	.st2{clip-path:url(#SVGID_4_);fill:none;stroke:#C53C2D;stroke-width:0.75;stroke-miterlimit:10;}
	.st3{fill:#FFFFFF;stroke:#878787;stroke-width:0.25;stroke-miterlimit:10;}
	.st4{fill:none;stroke:#878787;stroke-width:0.25;stroke-miterlimit:10;}
	.st5{fill:#878787;}
	.st6{fill:url(#SVGID_5_);}
</style>
<g>
	<g>
		<g>
			<defs>
				<rect id="SVGID_1_" x="-0.8" y="-0.9" width="90.8" height="46.4"/>
			</defs>
			<clipPath id="SVGID_2_">
				<use xlink:href="#SVGID_1_"  style="overflow:visible;"/>
			</clipPath>
			<g class="st0">
				<g>
					<line class="st1" x1="3.9" y1="28" x2="38.2" y2="42.5"/>
					<path class="st1" d="M9.2,22.4c-1.4-0.4-2,0.4-2,1.7c0,0.8,1.1,1.4,2,1.3c1.3-0.2,1.6-1.8,1.7-2c0.1-1.3-1-1.7-1-3.1
						c0-0.1,0.1-1.7,1.3-2.3c0.8-0.4,1.9-0.2,2.5,0.6c0.6,0.8,0.5,2.2-0.3,2.6c-0.6,0.3-1.6,0-2-0.8c-0.2-0.5-0.1-0.9-0.1-1.1"/>
					<path class="st1" d="M3.1,36.8c-1.3-0.6-1.2-1.7-0.4-2.6c0.5-0.6,1.8-0.3,2.4,0.4c0.8,1,0,2.4-0.1,2.6
						c-0.8,1.1-1.9,0.5-2.8,1.6c-0.1,0.1-1.1,1.3-0.6,2.5c0.3,0.8,1.3,1.4,2.2,1.2c1-0.2,1.8-1.3,1.5-2.2c-0.3-0.7-1.2-1-2-0.7
						c-0.5,0.2-0.7,0.6-0.8,0.7"/>
					<path class="st1" d="M5.6,32.3c0.1,0,0.8,0.3,1.4,0c0.6-0.3,0.8-1,0.7-1.4c-0.1-1-1.3-1.9-2.4-1.7c-1.2,0.2-1.8,1.5-1.8,2.6
						c0,0.9,0.5,1.9,1.3,2.3c1.7,1,4.7-0.4,5.7-2.5c0.3-0.7,0.4-1.5,0.4-1.7c0-0.4,0.1-1.5-0.5-2.6c-0.6-1-2-2.6-3.5-2.1
						c-1,0.3-2,1.5-1.7,2.6c0.3,1.3,2.2,2,3,1.5c0.4-0.2,0.5-0.8,0.5-1.2c0-0.8-0.6-1.2-0.7-1.3"/>
					<path class="st1" d="M10.3,33.4c-0.3,0.8-0.1,1.6,0.4,2c0.6,0.5,1.5,0.2,2-0.2c0.8-0.6,0.9-2.1,0.1-3.5"/>
					<path class="st1" d="M12.3,28.9c0.3-0.7,1-1,1.6-0.8c0.7,0.2,1.1,1.1,1.1,1.7c0.1,1-0.8,2-2.2,2.1"/>
					<path class="st1" d="M16,34.7c-0.2-0.5-0.1-1,0.2-1.2c0.4-0.2,1,0.2,1.2,0.6c0.3,0.7-0.5,2-1.5,2.2c-1.2,0.2-2.1-1-2-2.1
						c0.1-0.9,0.9-1.5,1-1.5"/>
					<path class="st1" d="M17.4,32.2c-0.5,0.1-0.9,0.5-0.9,0.8c0,0.4,0.7,0.7,1.1,0.6c0.8-0.2,1.4-1.5,0.9-2.4
						c-0.5-1-1.9-1.1-2.8-0.4c-0.7,0.5-0.7,1.5-0.7,1.6"/>
					<path class="st1" d="M18.8,36.9c-0.1,0-0.3-0.1-0.5-0.3c-0.3-0.3-0.4-0.8-0.2-1.1c0.2-0.6,0.8-0.4,1.2-1
						c0.4-0.7-0.2-1.3,0.2-1.7c0.2-0.2,0.8-0.3,1.1-0.2c0.1,0.1,0.2,0.2,0.2,0.3"/>
					<path class="st1" d="M20.9,36.7c-0.2-0.2-0.5-0.5-0.4-0.7c0.1-0.3,0.8-0.1,0.9-0.4c0.2-0.4-0.5-0.9-0.3-1.2
						c0.1-0.1,0.3-0.2,1.1,0"/>
				</g>
				<g>
					<circle class="st1" cx="20.1" cy="20.5" r="0.9"/>
					<line class="st1" x1="13.5" y1="14.1" x2="19.3" y2="20"/>
					<path class="st1" d="M20.8,23.6l2.1-2.1l-0.8-4.1c-0.6,0.1-1.4,0.3-2.3,0.3c-1.4,0-2.5-0.3-3.2-0.6c0.3,0.9,0.5,1.9,0.7,3.1
						c0.1,1,0.1,1.8,0.1,2.6C18.5,23,19.6,23.3,20.8,23.6z"/>
					<polygon class="st1" points="20.1,25 21.6,26.4 26.1,21.9 24.4,20.3 					"/>
					<path class="st1" d="M21.6,26.4c1.9,2.4,4.5,5.3,7.9,8.2c3.4,2.9,6.8,5,9.5,6.5c0.6-0.6,1.2-1.2,1.8-1.8
						c-1.4-2.5-3.3-5.3-5.6-8.3c-3.1-3.9-6.3-6.9-9-9.1"/>
					<path class="st1" d="M24.3,27.5c0,0,0.4,0.4,0.9,0.3c0.5-0.1,0.7-0.4,0.8-0.7c0.2-0.7-0.4-1.5-1.1-1.7
						c-0.8-0.2-1.5,0.5-1.8,1.2c-0.2,0.6-0.2,1.3,0.2,1.8c0.8,1.1,3.1,0.9,4.3-0.2c0.4-0.4,0.6-0.9,0.7-1c0.1-0.2,0.4-0.9,0.3-1.8
						c-0.1-0.8-0.6-2.2-1.7-2.2c-0.7-0.1-1.6,0.4-1.8,1.2c-0.1,0.9,0.9,1.9,1.5,1.7c0.3-0.1,0.5-0.4,0.7-0.6c0.2-0.5-0.1-0.9-0.1-1"
						/>
					<path class="st1" d="M26.7,29.8c-0.5,0.5-0.6,1.2-0.3,1.8c0.3,0.6,1.1,0.7,1.6,0.5c0.8-0.2,1.4-1.4,1.2-2.7"/>
					<path class="st1" d="M29.8,26.8c0.5-0.5,1.2-0.5,1.6-0.1c0.5,0.5,0.5,1.3,0.3,1.8c-0.3,0.9-1.4,1.4-2.6,1"/>
					<path class="st1" d="M31.4,33.8c-0.1-0.6,0.2-1.1,0.5-1.2c0.5-0.1,0.9,0.5,1,1c0.1,0.8-1,1.9-2.1,1.7c-1.2-0.2-1.8-1.7-1.5-2.8
						c0.3-0.9,1.2-1.2,1.4-1.2"/>
					<path class="st1" d="M33.4,31.7c-0.6,0-1,0.2-1.1,0.6c-0.1,0.5,0.5,1,1,1c0.8,0.1,1.8-1.2,1.5-2.3c-0.2-1.3-1.6-1.8-2.6-1.4
						c-0.8,0.4-1.1,1.4-1.1,1.5"/>
					<path class="st1" d="M33.3,37.7c-0.1-0.1-0.3-0.2-0.5-0.5c-0.2-0.5-0.2-1.1,0.1-1.4c0.5-0.6,1.1-0.2,1.7-0.7
						c0.7-0.6,0.2-1.6,0.9-1.9c0.4-0.2,1-0.2,1.3,0.2c0.1,0.2,0.2,0.3,0.2,0.4"/>
					<line class="st1" x1="39.9" y1="40.1" x2="27.8" y2="28"/>
				</g>
				<g>
					<line class="st1" x1="86.3" y1="28" x2="52" y2="42.5"/>
					<path class="st1" d="M81,22.4c1.3-0.4,2,0.4,2,1.7c0,0.8-1.2,1.4-2,1.3c-1.3-0.2-1.7-1.8-1.7-2c-0.2-1.3,1-1.7,1-3.1
						c0-0.1-0.1-1.7-1.3-2.3c-0.8-0.4-1.9-0.2-2.5,0.6c-0.6,0.8-0.5,2.2,0.3,2.6c0.6,0.3,1.6,0,2-0.8c0.2-0.5,0.1-0.9,0.1-1.1"/>
					<path class="st1" d="M87.1,36.8c1.3-0.6,1.2-1.7,0.4-2.6c-0.5-0.6-1.8-0.3-2.4,0.4c-0.8,1,0,2.4,0.1,2.6
						c0.8,1.1,1.9,0.5,2.8,1.6c0.1,0.1,1.1,1.3,0.6,2.5c-0.3,0.8-1.3,1.4-2.2,1.2c-1-0.2-1.8-1.3-1.5-2.2c0.3-0.7,1.2-1,2-0.7
						c0.5,0.2,0.7,0.6,0.8,0.7"/>
					<path class="st1" d="M84.6,32.3c-0.1,0-0.8,0.3-1.4,0c-0.6-0.3-0.8-1-0.7-1.4c0.1-1,1.3-1.9,2.4-1.7c1.2,0.2,1.8,1.5,1.8,2.6
						c0,0.9-0.5,1.9-1.3,2.3c-1.7,1-4.7-0.4-5.7-2.5c-0.3-0.7-0.4-1.5-0.4-1.7c0-0.4-0.1-1.5,0.5-2.6c0.6-1,2-2.6,3.5-2.1
						c1,0.3,2,1.5,1.7,2.6c-0.3,1.3-2.2,2-3,1.5c-0.4-0.2-0.5-0.8-0.5-1.2c0-0.8,0.6-1.2,0.7-1.3"/>
					<path class="st1" d="M79.8,33.4c0.3,0.8,0.1,1.6-0.4,2c-0.7,0.5-1.6,0.2-2-0.2c-0.8-0.6-0.9-2.1-0.1-3.5"/>
					<path class="st1" d="M77.8,28.9c-0.3-0.7-1-1-1.6-0.8c-0.7,0.2-1.1,1.1-1.1,1.7c-0.1,1,0.8,2,2.2,2.1"/>
					<path class="st1" d="M74.1,34.7c0.2-0.5,0.1-1-0.2-1.2c-0.4-0.2-1,0.2-1.2,0.6c-0.3,0.7,0.5,2,1.6,2.2c1.2,0.2,2.1-1,2-2.1
						c-0.1-0.9-0.8-1.5-1-1.5"/>
					<path class="st1" d="M72.8,32.2c0.5,0.1,0.9,0.5,0.9,0.8c0,0.4-0.7,0.7-1.1,0.6c-0.8-0.2-1.4-1.5-0.9-2.4
						c0.5-1,1.9-1.1,2.8-0.4c0.7,0.5,0.7,1.5,0.7,1.6"/>
					<path class="st1" d="M71.4,36.9c0.1,0,0.3-0.1,0.5-0.3c0.3-0.3,0.4-0.8,0.2-1.1c-0.2-0.6-0.8-0.4-1.2-1
						c-0.4-0.7,0.2-1.3-0.2-1.7c-0.2-0.2-0.8-0.3-1.1-0.2c-0.1,0.1-0.2,0.2-0.2,0.3"/>
					<path class="st1" d="M69.3,36.7c0.2-0.2,0.5-0.5,0.4-0.7c-0.1-0.3-0.8-0.1-0.9-0.4c-0.2-0.4,0.5-0.9,0.3-1.2
						c-0.1-0.1-0.3-0.2-1.1,0"/>
				</g>
				<g>
					<circle class="st1" cx="70.1" cy="20.5" r="0.9"/>
					<line class="st1" x1="76.7" y1="14.1" x2="70.8" y2="20"/>
					<path class="st1" d="M69.4,23.6l-2.1-2.1l0.8-4.1c0.6,0.1,1.4,0.3,2.3,0.3c1.4,0,2.5-0.3,3.2-0.6c-0.3,0.9-0.5,1.9-0.7,3.1
						c-0.1,1-0.1,1.8-0.1,2.6C71.7,23,70.5,23.3,69.4,23.6z"/>
					<polygon class="st1" points="70.1,25 68.6,26.4 64,21.9 65.7,20.3 					"/>
					<path class="st1" d="M68.6,26.4c-1.9,2.4-4.5,5.3-7.9,8.2c-3.4,2.9-6.8,5-9.5,6.5c-0.6-0.6-1.2-1.2-1.8-1.8
						c1.4-2.5,3.3-5.3,5.6-8.3c3.1-3.9,6.3-6.9,9-9.1"/>
					<path class="st1" d="M65.9,27.5c0,0-0.4,0.4-0.9,0.3c-0.4-0.1-0.7-0.4-0.8-0.7c-0.2-0.7,0.3-1.5,1.1-1.7
						c0.8-0.2,1.5,0.5,1.8,1.2c0.2,0.6,0.2,1.3-0.2,1.8c-0.8,1.1-3.1,0.9-4.3-0.2c-0.4-0.4-0.6-0.9-0.7-1c-0.1-0.2-0.4-0.9-0.3-1.8
						c0.1-0.8,0.6-2.2,1.7-2.2c0.7-0.1,1.6,0.4,1.8,1.2c0.1,0.9-0.9,1.9-1.5,1.7c-0.3-0.1-0.6-0.4-0.7-0.6c-0.2-0.5,0.1-0.9,0.1-1"
						/>
					<path class="st1" d="M63.5,29.8c0.5,0.5,0.6,1.2,0.3,1.8c-0.3,0.6-1.1,0.7-1.6,0.5c-0.8-0.2-1.4-1.4-1.2-2.7"/>
					<path class="st1" d="M60.4,26.8c-0.5-0.5-1.2-0.5-1.6-0.1c-0.5,0.5-0.5,1.3-0.3,1.8c0.3,0.9,1.4,1.4,2.6,1"/>
					<path class="st1" d="M58.8,33.8c0.1-0.6-0.2-1.1-0.5-1.2c-0.5-0.1-0.9,0.5-1,1c-0.1,0.8,1,1.9,2.1,1.7c1.2-0.2,1.8-1.7,1.5-2.8
						c-0.3-0.9-1.2-1.2-1.4-1.2"/>
					<path class="st1" d="M56.8,31.7c0.6,0,1,0.2,1.1,0.6c0.1,0.5-0.5,1-1,1c-0.8,0.1-1.8-1.2-1.5-2.3c0.2-1.3,1.6-1.8,2.6-1.4
						c0.8,0.4,1.1,1.4,1.1,1.5"/>
					<path class="st1" d="M56.9,37.7c0.1-0.1,0.3-0.2,0.5-0.5c0.2-0.5,0.2-1.1-0.1-1.4c-0.5-0.6-1.1-0.2-1.7-0.7
						c-0.7-0.6-0.2-1.6-0.9-1.9c-0.4-0.2-1-0.2-1.3,0.2c-0.1,0.2-0.2,0.3-0.2,0.4"/>
					<line class="st1" x1="50.2" y1="40.1" x2="62.4" y2="28"/>
				</g>
				<g>
					<line class="st1" x1="27.9" y1="4" x2="42.1" y2="38.4"/>
					<path class="st1" d="M35.7,3.7c-0.7-1.2-1.8-1.1-2.6-0.2c-0.6,0.6-0.2,1.8,0.5,2.4c1,0.8,2.4-0.1,2.6-0.2
						c1-0.8,0.4-1.9,1.5-2.9c0.1-0.1,1.2-1.2,2.5-0.7c0.8,0.3,1.5,1.2,1.3,2.1c-0.2,1-1.2,1.9-2.1,1.6c-0.7-0.2-1.1-1.2-0.9-2
						c0.2-0.5,0.5-0.7,0.7-0.8"/>
					<path class="st1" d="M21.2,9.7c-0.5-1.3,0.3-2,1.6-2.1c0.8,0,1.5,1.1,1.4,2c-0.1,1.3-1.7,1.8-1.9,1.8c-1.3,0.2-1.7-0.9-3.1-0.8
						c-0.1,0-1.7,0.1-2.2,1.4c-0.3,0.8-0.1,1.9,0.7,2.4c0.9,0.5,2.2,0.3,2.6-0.5c0.3-0.7-0.1-1.6-0.9-1.9c-0.5-0.2-0.9-0.1-1.1,0"/>
					<path class="st1" d="M26.1,8.2c0,0.1,0.3,0.8,1,1c0.6,0.2,1.2-0.2,1.5-0.5c0.7-0.8,0.4-2.2-0.5-2.9c-1-0.7-2.4-0.2-3.1,0.6
						c-0.6,0.6-1,1.7-0.7,2.5c0.5,1.9,3.6,3,5.8,2.2c0.7-0.3,1.3-0.8,1.5-1c0.3-0.3,1.1-1,1.5-2.2c0.3-1.1,0.4-3.2-1-4
						c-0.9-0.5-2.4-0.3-3,0.7c-0.7,1.2,0.1,3,1.1,3.2c0.4,0.1,0.9-0.2,1.2-0.5c0.5-0.6,0.4-1.3,0.4-1.4"/>
					<path class="st1" d="M28.7,12.4c-0.8,0.3-1.2,1-1.1,1.8c0.1,0.8,1,1.2,1.5,1.3c1,0.1,2.1-0.9,2.5-2.4"/>
					<path class="st1" d="M33.3,10.6c0.7-0.3,1.4,0,1.7,0.5c0.3,0.7,0,1.6-0.4,2c-0.7,0.8-2,0.8-3.1-0.1"/>
					<path class="st1" d="M31.8,17.3c0.2-0.5,0.7-0.8,1-0.7c0.5,0.1,0.6,0.8,0.4,1.3c-0.3,0.7-1.8,1.1-2.6,0.5
						c-0.9-0.7-0.8-2.1,0.1-2.9c0.7-0.6,1.6-0.5,1.8-0.4"/>
					<path class="st1" d="M34.5,16.5c-0.5-0.3-1-0.3-1.2,0c-0.3,0.3,0,1,0.4,1.2c0.7,0.4,2-0.1,2.4-1.1c0.3-1.1-0.6-2.1-1.7-2.3
						c-0.9-0.1-1.6,0.5-1.7,0.6"/>
					<path class="st1" d="M32.3,20.8c-0.1-0.1-0.2-0.3-0.1-0.5c0-0.4,0.3-0.8,0.6-1c0.5-0.3,0.9,0.3,1.5,0.1c0.7-0.2,0.8-1,1.4-1
						c0.3,0,0.8,0.3,0.9,0.7c0,0.2,0,0.3,0,0.4"/>
					<path class="st1" d="M33.9,22.1c0-0.3,0-0.7,0.2-0.8c0.3-0.1,0.6,0.5,1,0.3c0.4-0.1,0.3-1,0.6-1.1c0.1,0,0.3,0.1,0.8,0.8"/>
				</g>
				<g>
					<line class="st1" x1="61.9" y1="4" x2="47.8" y2="38.4"/>
					<path class="st1" d="M54.1,3.7c0.7-1.2,1.8-1.1,2.6-0.2c0.6,0.6,0.2,1.8-0.5,2.4c-1,0.8-2.4-0.1-2.6-0.2
						c-1-0.8-0.4-1.9-1.5-2.9c-0.1-0.1-1.2-1.2-2.5-0.7c-0.8,0.3-1.5,1.2-1.3,2.1c0.2,1,1.2,1.9,2.1,1.6c0.7-0.2,1.1-1.2,0.9-2
						c-0.2-0.5-0.5-0.7-0.7-0.8"/>
					<path class="st1" d="M68.6,9.7c0.5-1.3-0.3-2-1.6-2.1c-0.8,0-1.5,1.1-1.4,2c0.1,1.3,1.7,1.8,1.9,1.8c1.3,0.2,1.7-0.9,3.2-0.8
						c0.1,0,1.7,0.1,2.2,1.4c0.3,0.8,0.1,1.9-0.7,2.4c-0.9,0.5-2.2,0.3-2.6-0.5c-0.3-0.7,0.1-1.6,0.9-1.9c0.5-0.2,0.9-0.1,1.1,0"/>
					<path class="st1" d="M63.7,8.2c0,0.1-0.3,0.8-1,1C62,9.3,61.5,9,61.1,8.7c-0.7-0.8-0.4-2.2,0.5-2.9c1-0.7,2.4-0.2,3.1,0.6
						c0.6,0.6,1,1.7,0.7,2.5c-0.5,1.9-3.6,3-5.8,2.2c-0.7-0.3-1.3-0.8-1.5-1c-0.3-0.3-1.1-1-1.5-2.2c-0.3-1.1-0.4-3.2,1-4
						c0.9-0.5,2.4-0.3,3,0.7c0.7,1.2-0.1,3-1.1,3.2c-0.4,0.1-0.9-0.2-1.2-0.5C57.9,6.8,58,6.1,58,6"/>
					<path class="st1" d="M61.1,12.4c0.8,0.3,1.2,1,1.1,1.8c-0.1,0.8-0.9,1.2-1.5,1.3c-1,0.1-2.1-0.9-2.5-2.4"/>
					<path class="st1" d="M56.5,10.6c-0.7-0.3-1.4,0-1.7,0.5c-0.3,0.7,0,1.6,0.4,2c0.7,0.8,2,0.8,3.1-0.1"/>
					<path class="st1" d="M58,17.3c-0.2-0.5-0.7-0.8-1-0.7c-0.5,0.1-0.6,0.8-0.4,1.3c0.3,0.7,1.8,1.1,2.6,0.5
						c0.9-0.7,0.8-2.1-0.1-2.9c-0.7-0.6-1.6-0.5-1.8-0.4"/>
					<path class="st1" d="M55.3,16.5c0.5-0.3,1-0.3,1.2,0c0.3,0.3,0,1-0.4,1.2c-0.7,0.4-2-0.1-2.4-1.1c-0.3-1.1,0.6-2.1,1.7-2.3
						c0.9-0.1,1.6,0.5,1.7,0.6"/>
					<path class="st1" d="M57.5,20.8c0.1-0.1,0.2-0.3,0.1-0.5c0-0.4-0.3-0.8-0.6-1c-0.5-0.3-0.9,0.3-1.5,0.1c-0.7-0.2-0.8-1-1.4-1
						c-0.3,0-0.8,0.3-0.9,0.7c0,0.2,0,0.3,0,0.4"/>
					<path class="st1" d="M55.9,22.1c0-0.3,0-0.7-0.2-0.8c-0.3-0.1-0.6,0.5-1,0.3c-0.4-0.1-0.3-1-0.6-1.1c-0.1,0-0.3,0.1-0.8,0.8"/>
				</g>
				<g>
					<circle class="st1" cx="44.9" cy="10.2" r="0.9"/>
					<line class="st1" x1="44.8" y1="1" x2="44.7" y2="9.3"/>
					<path class="st1" d="M43.2,12.8l3,0l2.4-3.4C48,9.1,47.4,8.7,46.8,8c-1-1-1.5-2-1.8-2.7c-0.4,0.8-1,1.7-1.8,2.6
						c-0.6,0.8-1.2,1.4-1.8,1.9C42,10.8,42.6,11.8,43.2,12.8z"/>
					<polygon class="st1" points="41.7,13.4 41.7,15.4 48.1,15.5 48.1,13.2 					"/>
					<path class="st1" d="M41.7,15.4c-0.4,3.1-0.7,6.9-0.3,11.4c0.3,4.5,1.2,8.3,2,11.3c0.8,0,1.7,0,2.5,0c0.8-2.8,1.5-6.1,2-9.8
						c0.6-4.9,0.5-9.3,0.2-12.9"/>
					<path class="st1" d="M42.8,18.1c0,0.1,0,0.6,0.4,0.9c0.4,0.3,0.8,0.2,1.1,0.1c0.6-0.3,0.8-1.3,0.5-2c-0.4-0.7-1.5-0.7-2.1-0.5
						c-0.6,0.2-1,0.8-1.1,1.4C41.3,19.4,43,21,44.6,21c0.5,0,1-0.2,1.2-0.2c0.3-0.1,1-0.3,1.5-1c0.5-0.6,1.1-2,0.4-2.8
						c-0.5-0.5-1.5-0.9-2.1-0.4c-0.8,0.6-0.7,1.9-0.2,2.3c0.3,0.2,0.6,0.1,0.9,0c0.5-0.2,0.6-0.7,0.6-0.8"/>
					<path class="st1" d="M42.8,21.4c-0.7,0-1.3,0.4-1.5,1c-0.2,0.7,0.3,1.3,0.7,1.5c0.8,0.4,2,0.1,2.8-1"/>
					<path class="st1" d="M47.2,21.5c0.7,0,1.2,0.5,1.2,1.1c0,0.7-0.6,1.3-1.1,1.5c-0.8,0.4-1.9,0-2.5-1.2"/>
					<path class="st1" d="M43.3,27.6c0.4-0.5,0.9-0.6,1.2-0.5c0.4,0.2,0.3,1,0,1.4c-0.5,0.7-2,0.6-2.7-0.3c-0.7-1-0.1-2.5,1-3
						c0.8-0.4,1.7,0,1.8,0.1"/>
					<path class="st1" d="M46.2,27.5c-0.4-0.4-0.9-0.5-1.2-0.3c-0.4,0.3-0.3,1,0,1.4c0.5,0.6,2.1,0.5,2.8-0.5c0.8-1,0.2-2.4-0.8-2.8
						c-0.8-0.3-1.8,0.2-1.9,0.2"/>
					<path class="st1" d="M41.8,31.6c0-0.2-0.1-0.4,0-0.7c0.2-0.5,0.7-0.8,1.1-0.9c0.8-0.1,0.9,0.7,1.8,0.7c0.9,0,1.3-0.9,2-0.7
						c0.4,0.1,0.8,0.6,0.8,1.1c0,0.2-0.1,0.3-0.2,0.4"/>
					<line class="st1" x1="44.7" y1="38.1" x2="44.9" y2="21"/>
				</g>
				<g>
					<ellipse class="st1" cx="9.6" cy="45.3" rx="0.9" ry="0.9"/>
					<line class="st1" x1="0.7" y1="45.5" x2="8.8" y2="45.5"/>
					<path class="st1" d="M12.3,47v-3l-3.4-2.3c-0.3,0.5-0.8,1.2-1.4,1.8c-1,1-1.9,1.5-2.6,1.9c0.8,0.4,1.7,1,2.6,1.7
						c0.7,0.6,1.3,1.2,1.8,1.8C10.3,48.2,11.3,47.6,12.3,47z"/>
					<polygon class="st1" points="12.8,48.5 14.8,48.5 14.8,42 12.5,42.1 					"/>
					<path class="st1" d="M14.8,48.5c3,0.4,6.8,0.6,11.1,0.2c4.4-0.4,8.1-1.2,11-2.2c0-0.8,0-1.7,0-2.5c-2.7-0.8-5.9-1.5-9.6-1.9
						c-4.8-0.5-9.1-0.4-12.5-0.1"/>
					<path class="st1" d="M17.4,47.4c0.1,0,0.5,0,0.9-0.4c0.3-0.4,0.2-0.8,0.1-1.1C18,45.2,17,45,16.4,45.4
						c-0.7,0.4-0.7,1.5-0.4,2.1c0.2,0.6,0.8,1,1.4,1.1c1.3,0.2,2.8-1.5,2.8-3.1c0-0.5-0.2-1-0.2-1.2c-0.1-0.3-0.4-1-1-1.5
						c-0.6-0.5-1.9-1.1-2.7-0.4c-0.5,0.5-0.8,1.5-0.4,2.1c0.5,0.8,1.9,0.7,2.2,0.1c0.2-0.3,0.1-0.6,0-0.9c-0.2-0.5-0.7-0.6-0.8-0.6"
						/>
					<path class="st1" d="M20.6,47.3c0,0.7,0.4,1.3,1,1.5c0.7,0.2,1.3-0.3,1.5-0.8c0.4-0.8,0-2-1-2.8"/>
					<path class="st1" d="M20.7,42.9c0-0.7,0.5-1.2,1-1.2c0.7,0,1.3,0.6,1.5,1c0.4,0.8,0,1.9-1.1,2.5"/>
					<path class="st1" d="M26.6,46.7c-0.5-0.4-0.6-0.9-0.5-1.2c0.2-0.4,1-0.3,1.4,0c0.7,0.5,0.7,2-0.3,2.7c-1,0.7-2.4,0.1-3-0.9
						c-0.4-0.8,0-1.7,0.1-1.8"/>
					<path class="st1" d="M26.5,43.8c-0.4,0.4-0.5,0.9-0.3,1.2c0.3,0.4,1,0.3,1.4,0c0.6-0.5,0.4-2.1-0.6-2.8c-1-0.7-2.4-0.2-2.8,0.9
						c-0.3,0.8,0.2,1.8,0.3,1.9"/>
					<path class="st1" d="M30.6,48.2c-0.1,0-0.4,0.1-0.7,0C29.4,48,29,47.5,29,47.1c-0.1-0.8,0.7-0.9,0.7-1.8c0-0.9-0.9-1.3-0.7-2
						c0.1-0.4,0.6-0.8,1.1-0.8c0.2,0,0.3,0.1,0.4,0.2"/>
					<line class="st1" x1="36.9" y1="45.2" x2="20.2" y2="45.2"/>
				</g>
				<g>
					<ellipse class="st1" cx="80.1" cy="45.3" rx="0.9" ry="0.9"/>
					<line class="st1" x1="89.1" y1="45.5" x2="81" y2="45.5"/>
					<path class="st1" d="M77.5,47v-3l3.3-2.3c0.3,0.5,0.8,1.2,1.4,1.8c1,1,1.9,1.5,2.6,1.9c-0.8,0.4-1.7,1-2.6,1.7
						c-0.7,0.6-1.3,1.2-1.8,1.8C79.5,48.2,78.5,47.6,77.5,47z"/>
					<polygon class="st1" points="77,48.5 75,48.5 75,42 77.2,42.1 					"/>
					<path class="st1" d="M75,48.5c-3,0.4-6.8,0.6-11.1,0.2c-4.4-0.4-8.1-1.2-11-2.2c0-0.8,0-1.7,0-2.5c2.7-0.8,5.9-1.5,9.6-1.9
						c4.8-0.5,9.1-0.4,12.5-0.1"/>
					<path class="st1" d="M72.3,47.4c-0.1,0-0.6,0-0.8-0.4c-0.3-0.4-0.2-0.8-0.1-1.1c0.3-0.6,1.3-0.8,1.9-0.4
						c0.7,0.4,0.7,1.5,0.4,2.1c-0.2,0.6-0.8,1-1.4,1.1c-1.3,0.2-2.8-1.5-2.8-3.1c0-0.5,0.2-1,0.2-1.2c0.1-0.3,0.3-1,1-1.5
						c0.6-0.5,1.9-1.1,2.7-0.4c0.5,0.5,0.8,1.5,0.3,2.1c-0.6,0.8-1.9,0.7-2.2,0.1c-0.2-0.3-0.1-0.6,0-0.9c0.2-0.5,0.7-0.6,0.8-0.6"
						/>
					<path class="st1" d="M69.1,47.3c0,0.7-0.4,1.3-1,1.5c-0.7,0.2-1.3-0.3-1.5-0.8c-0.4-0.8,0-2,1-2.8"/>
					<path class="st1" d="M69.1,42.9c0-0.7-0.4-1.2-1-1.2c-0.7,0-1.3,0.6-1.5,1c-0.4,0.8,0,1.9,1.1,2.5"/>
					<path class="st1" d="M63.1,46.7c0.5-0.4,0.6-0.9,0.5-1.2c-0.2-0.4-1-0.3-1.4,0c-0.7,0.5-0.7,2,0.3,2.7c1,0.7,2.4,0.1,3-0.9
						c0.4-0.8,0-1.7-0.1-1.8"/>
					<path class="st1" d="M63.2,43.8c0.4,0.4,0.5,0.9,0.3,1.2c-0.3,0.4-1,0.3-1.4,0c-0.6-0.5-0.4-2.1,0.6-2.8c1-0.7,2.4-0.2,2.8,0.9
						c0.3,0.8-0.2,1.8-0.3,1.9"/>
					<path class="st1" d="M59.2,48.2c0.1,0,0.4,0.1,0.7,0c0.5-0.2,0.8-0.6,0.9-1.1c0.1-0.8-0.7-0.9-0.7-1.8c0-0.9,0.9-1.3,0.7-2
						c-0.1-0.4-0.6-0.8-1.1-0.8c-0.2,0-0.3,0.1-0.4,0.2"/>
					<line class="st1" x1="52.9" y1="45.2" x2="69.6" y2="45.2"/>
				</g>
			</g>
		</g>
		<g>
			<defs>
				<rect id="SVGID_3_" x="-0.8" y="-0.9" width="90.8" height="46.4"/>
			</defs>
			<clipPath id="SVGID_4_">
				<use xlink:href="#SVGID_3_"  style="overflow:visible;"/>
			</clipPath>
			<path class="st2" d="M44.9,0.6C20.5,0.6,0.7,19.4,0.7,42.7s19.8,42.1,44.2,42.1s44.2-18.8,44.2-42.1S69.3,0.6,44.9,0.6z
				 M44.9,54.2c-4.4,0-8-3.6-8-8s3.6-8,8-8s8,3.6,8,8S49.3,54.2,44.9,54.2z"/>
		</g>
	</g>
	<g>
		<g>
			<g>
				<path class="st3" d="M44.6,47.1c-6.5-3-11.8-3.5-15.6-3.4C22.7,44,18.1,46.2,6.4,47c-1.5,0.1-2.7,0.2-3.6,0.2v-3.3
					c0.8,0,2.1-0.1,3.6-0.2c11.8-0.8,16.3-3,22.7-3.2c3.7-0.1,9,0.4,15.6,3.4V47.1z"/>
				<path class="st4" d="M2.8,44.4c0.8,0,2.1-0.1,3.6-0.2c11.8-0.8,16.3-3,22.7-3.2c3.7-0.1,9,0.4,15.6,3.4"/>
				<path class="st4" d="M2.8,44.9c0.8,0,2.1-0.1,3.6-0.2c11.7-0.8,16.3-3,22.7-3.2c3.7-0.1,9,0.4,15.6,3.4"/>
				<path class="st4" d="M2.8,46c0.8,0,2.1-0.1,3.6-0.2c11.7-0.8,16.3-3,22.7-3.2c3.7-0.1,9,0.4,15.6,3.4"/>
				<path class="st4" d="M2.8,46.7c0.8,0,2.1-0.1,3.6-0.2c11.8-0.8,16.3-3,22.7-3.2c3.7-0.1,9,0.4,15.6,3.4"/>
				<path class="st4" d="M2.8,45.5c0.8,0,2.1-0.1,3.6-0.2c11.8-0.8,16.3-3,22.7-3.2c3.7-0.1,9,0.4,15.6,3.4"/>
			</g>
			<g>
				<path class="st3" d="M86.4,43.8c-0.8,0-2.1-0.1-3.6-0.2c-11.8-0.8-16.3-3-22.7-3.2c-3.7-0.1-9,0.4-15.6,3.4v3.3
					c6.5-3,11.9-3.5,15.6-3.4c6.3,0.2,10.9,2.4,22.7,3.2c1.5,0.1,2.7,0.2,3.6,0.2C86.4,47.2,86.4,43.8,86.4,43.8z"/>
				<path class="st4" d="M86.4,44.4c-0.8,0-2.1-0.1-3.6-0.2c-11.8-0.8-16.3-3-22.7-3.2c-3.7-0.1-9,0.4-15.6,3.4"/>
				<path class="st4" d="M86.4,44.9c-0.8,0-2.1-0.1-3.6-0.2c-11.8-0.8-16.3-3-22.7-3.2c-3.7-0.1-9,0.4-15.6,3.4"/>
				<path class="st4" d="M86.4,46c-0.8,0-2.1-0.1-3.6-0.2c-11.8-0.8-16.3-3-22.7-3.2c-3.7-0.1-9,0.4-15.6,3.4"/>
				<path class="st4" d="M86.4,46.7c-0.8,0-2.1-0.1-3.6-0.2c-11.8-0.8-16.3-3-22.7-3.2c-3.7-0.1-9,0.4-15.6,3.4"/>
				<path class="st4" d="M86.4,45.5c-0.8,0-2.1-0.1-3.6-0.2c-11.8-0.8-16.3-3-22.7-3.2c-3.7-0.1-9,0.4-15.6,3.4"/>
			</g>
		</g>
		<path class="st5" d="M1.9,47.4c-1.1,0-2-0.6-1.9-1.2c0.1-0.5,0.9-1,1.9-1c29.3-2.5,39.6-2.1,40.7-0.6c0.1,0.2,1,0.8,2.1,0.9
			c1.1,0.1,2-0.5,2.1-0.6c1.3-1.4,11.8-1.7,40.3,0.3c1.1,0.3,2.3,0.7,2.3,1.1c0,0.5-1,1.2-2.3,1C58.6,47.4,30.3,47.4,1.9,47.4z"/>
		
			<linearGradient id="SVGID_5_" gradientUnits="userSpaceOnUse" x1="43.5067" y1="25.964" x2="45.7669" y2="25.964" gradientTransform="matrix(1 0 0 -1 0 73.9574)">
			<stop  offset="0.3586" style="stop-color:#C53C2E"/>
			<stop  offset="0.9247" style="stop-color:#ED754D"/>
		</linearGradient>
		<path class="st6" d="M43.5,45.4V51l1-0.5c0.1-0.1,0.2-0.1,0.3,0l1,0.6l0-5.4c0-0.1-0.2-0.5-0.7-0.7C44.5,44.8,43.9,45,43.5,45.4z"
			/>
	</g>
	<g>
		<path class="st5" d="M11.6,54.9c1.1-0.2,2.6-0.3,4.1-0.3c2.6,0,4.2,0.5,5.5,1.4c1.4,1,2.3,2.7,2.3,5.1c0,2.6-0.9,4.4-2.2,5.5
			c-1.4,1.2-3.6,1.8-6.2,1.8c-1.6,0-2.7-0.1-3.5-0.2L11.6,54.9L11.6,54.9z M14.7,65.9C15,66,15.4,66,15.8,66c2.8,0,4.6-1.5,4.6-4.7
			c0-2.8-1.6-4.3-4.3-4.3c-0.7,0-1.1,0.1-1.4,0.1L14.7,65.9L14.7,65.9z"/>
		<path class="st5" d="M38,61.3c0,4.4-2.7,7.1-6.7,7.1c-4,0-6.4-3-6.4-6.9c0-4.1,2.6-7.1,6.6-7.1C35.7,54.5,38,57.6,38,61.3z
			 M28.2,61.5c0,2.7,1.2,4.5,3.3,4.5c2.1,0,3.2-2,3.2-4.6c0-2.4-1.2-4.5-3.3-4.5C29.4,56.9,28.2,58.9,28.2,61.5z"/>
		<path class="st5" d="M48.1,62.5h-5v3.2h5.6v2.5H40V54.7h8.4v2.5h-5.3V60h5C48.1,60,48.1,62.5,48.1,62.5z"/>
		<path class="st5" d="M62.2,63.1c-0.1-1.6-0.1-3.6-0.1-5.6H62c-0.4,1.7-1,3.7-1.5,5.2L58.8,68h-2.4L55,62.8
			c-0.4-1.6-0.9-3.5-1.2-5.3h0c-0.1,1.8-0.1,3.9-0.2,5.6l-0.2,5.1h-2.8l0.9-13.5h4.1l1.3,4.5c0.4,1.6,0.8,3.2,1.2,4.8h0.1
			c0.4-1.6,0.8-3.3,1.3-4.9l1.4-4.5h4l0.7,13.5h-3L62.2,63.1z"/>
		<path class="st5" d="M70.8,64.9l-1,3.3h-3.2l4.1-13.5h4L79,68.2h-3.3l-1-3.3C74.7,64.9,70.8,64.9,70.8,64.9z M74.3,62.5l-0.8-2.9
			c-0.2-0.8-0.5-1.8-0.7-2.6h0c-0.2,0.8-0.4,1.8-0.6,2.6l-0.8,2.9H74.3z"/>
	</g>
</g>
</svg>
