<svg class="img-fluid" id="outputsvg" xmlns="http://www.w3.org/2000/svg" style="transform: matrix(1.3, 0, 0, 1.3, 27.077, -16.6154); transform-origin: 50% 50%; cursor: move; max-height: none; transition: transform 200ms ease-in-out 0s;" width="700" height="600" viewBox="0 0 7000 6000"><g id="l7OVHxyDr9mBM" fill="none" stroke="rgb(255,255,255)" stroke-width="10" style="transform: none;"> <g fill="none">
  <path d="M2531 3614C2532 3654 2564 3698 2588 3728C2634 3788 2682 3851 2734 3908C2752 3930 2762 3984 2797 3990C2830 3994 2865 3967 2895 3957C2902 3955 2924 3954 2930 3948C2948 3930 2958 3874 2937 3854C2924 3842 2904 3841 2888 3842C2867 3844 2845 3850 2825 3858C2798 3871 2764 3892 2737 3870C2731 3864 2727 3858 2724 3852C2697 3812 2671 3771 2641 3732C2622 3710 2598 3688 2584 3664C2572 3644 2607 3628 2594 3612C2580 3597 2547 3608 2531 3614C2527 3605 2517 3584 2520 3574C2522 3562 2538 3554 2545 3547C2565 3527 2591 3507 2598 3478C2607 3447 2611 3417 2621 3385C2637 3341 2661 3295 2665 3247C2670 3202 2652 3157 2650 3112C2650 3102 2651 3091 2648 3081C2648 3074 2642 3068 2642 3061C2642 3031 2645 3001 2624 2974C2605 2950 2571 2941 2545 2927C2530 2918 2514 2908 2502 2895C2494 2885 2487 2871 2474 2865C2458 2860 2441 2865 2425 2865C2400 2864 2375 2860 2351 2851C2334 2845 2318 2840 2301 2834C2297 2832 2285 2831 2288 2824C2290 2815 2307 2807 2314 2802C2338 2785 2362 2770 2387 2752C2418 2730 2451 2707 2482 2684C2498 2672 2514 2658 2530 2648C2545 2638 2565 2644 2581 2637C2620 2620 2652 2587 2680 2555C2707 2522 2725 2485 2752 2452C2777 2424 2808 2400 2828 2368C2840 2348 2842 2328 2850 2307C2855 2288 2865 2271 2875 2255C2911 2202 2961 2164 2991 2107C2998 2092 3005 2078 3008 2062C3011 2055 3010 2047 3012 2040C3017 2031 3027 2031 3028 2020C3030 2004 3017 1981 3025 1967C3030 1960 3044 1958 3051 1954C3065 1944 3078 1930 3090 1917C3097 1907 3105 1894 3107 1882C3110 1862 3104 1841 3114 1822C3120 1808 3137 1804 3148 1794C3164 1778 3175 1757 3182 1735C3187 1721 3182 1710 3184 1697C3185 1687 3191 1680 3187 1670C3182 1657 3157 1654 3164 1638C3167 1628 3185 1628 3194 1625C3210 1621 3222 1611 3230 1597C3238 1575 3227 1561 3227 1541C3228 1525 3240 1514 3242 1500C3245 1488 3242 1477 3244 1465C3245 1448 3255 1434 3267 1421C3272 1414 3287 1392 3298 1398C3307 1402 3310 1417 3321 1418C3334 1420 3345 1395 3352 1415C3354 1418 3355 1420 3355 1422C3357 1425 3357 1430 3357 1432C3364 1434 3370 1441 3378 1441C3384 1441 3390 1432 3395 1434C3401 1437 3400 1450 3402 1455C3407 1462 3414 1457 3421 1460C3427 1462 3445 1485 3455 1472C3460 1468 3452 1461 3450 1460C3441 1454 3432 1455 3424 1460M3327 1420C3327 1425 3325 1434 3328 1440C3335 1451 3351 1444 3355 1434M3458 1474C3462 1482 3465 1494 3475 1497C3481 1500 3488 1495 3494 1498C3497 1501 3494 1504 3492 1507L3485 1498M3695 1501L3661 1527C3652 1510 3664 1494 3682 1494C3701 1494 3715 1517 3714 1534C3712 1548 3697 1557 3694 1570L3705 1565L3698 1558M3497 1504C3500 1510 3500 1518 3505 1520C3520 1525 3537 1492 3542 1522C3542 1525 3542 1530 3542 1532C3535 1532 3521 1538 3525 1548C3528 1552 3535 1552 3534 1560C3532 1568 3521 1580 3530 1590C3534 1595 3554 1600 3557 1591C3561 1582 3555 1565 3552 1557C3548 1548 3547 1540 3542 1532M3491 1507C3484 1514 3478 1521 3475 1531C3475 1535 3475 1541 3481 1541C3491 1540 3495 1525 3501 1518M3661 1527C3661 1530 3661 1534 3661 1537C3665 1565 3695 1531 3711 1540M3627 1528C3620 1537 3615 1545 3608 1554C3594 1570 3577 1571 3557 1568M3627 1531C3631 1538 3631 1545 3635 1552C3648 1574 3674 1591 3694 1570M3714 1540C3717 1544 3720 1551 3724 1554C3732 1561 3744 1554 3745 1571L3728 1571C3728 1575 3728 1584 3732 1587C3742 1595 3752 1581 3745 1571M3668 1551L3672 1578M3721 1554L3705 1565M3724 1557L3724 1567L3712 1564M3702 1560L3704 1561M3724 1567L3728 1571M3751 1581C3765 1597 3771 1614 3780 1632C3794 1658 3807 1685 3817 1712C3822 1727 3834 1747 3834 1762C3834 1772 3821 1770 3820 1780C3818 1800 3831 1805 3848 1805C3848 1791 3844 1780 3834 1768M3681 1582C3681 1610 3711 1592 3728 1588M3780 1634C3775 1641 3774 1651 3767 1655C3751 1664 3731 1638 3735 1624C3740 1612 3757 1611 3767 1611M3170 1657C3170 1670 3174 1685 3184 1694M3825 1802C3807 1814 3792 1827 3775 1840C3771 1844 3762 1852 3755 1850C3745 1847 3761 1831 3764 1828C3778 1812 3798 1785 3818 1777M3848 1805C3865 1828 3868 1867 3878 1894C3881 1902 3884 1914 3891 1921C3897 1927 3908 1924 3915 1922C3932 1918 3961 1900 3978 1908C3985 1912 3997 1931 3992 1940C3988 1947 3968 1954 3961 1961C3952 1970 3951 1980 3945 1988C3932 2005 3912 2018 3892 2024M4134 1877C4134 1871 4130 1861 4134 1857C4142 1850 4154 1862 4151 1871C4150 1878 4138 1877 4132 1881C4125 1890 4124 1904 4124 1915C4121 1937 4148 1934 4160 1924C4165 1920 4167 1912 4170 1907C4155 1898 4158 1890 4154 1875M4105 1900L4095 1901L4094 1902L4101 1910C4111 1892 4105 1861 4131 1858M4171 1907C4182 1914 4185 1924 4190 1937C4191 1941 4194 1948 4200 1948C4205 1948 4208 1941 4208 1937C4211 1924 4207 1911 4215 1900C4232 1880 4271 1897 4290 1904C4397 1945 4492 2007 4601 2044C4617 2050 4631 2065 4647 2070C4654 2071 4657 2065 4657 2058C4655 2047 4650 2035 4665 2032C4681 2030 4700 2032 4711 2042C4717 2048 4725 2064 4734 2064C4741 2064 4740 2052 4744 2048C4750 2041 4764 2041 4772 2041C4782 2042 4794 2047 4798 2058C4800 2064 4797 2070 4800 2074C4802 2078 4808 2081 4810 2085C4815 2094 4817 2104 4820 2112C4824 2130 4835 2151 4828 2170C4824 2177 4817 2178 4812 2184C4810 2188 4811 2194 4807 2198C4797 2212 4780 2228 4765 2240C4751 2251 4734 2255 4720 2265C4691 2287 4670 2312 4635 2324C4615 2331 4592 2327 4572 2334C4562 2338 4550 2355 4540 2357C4527 2357 4528 2322 4514 2327C4494 2332 4511 2345 4507 2354L4497 2344C4481 2360 4472 2381 4461 2400C4457 2405 4447 2412 4450 2421C4451 2425 4460 2422 4464 2425C4470 2431 4470 2440 4472 2447C4484 2440 4494 2425 4495 2412C4507 2412 4518 2415 4528 2421C4535 2424 4542 2431 4551 2430C4561 2428 4574 2407 4568 2397C4565 2391 4555 2390 4551 2384C4547 2380 4542 2367 4537 2367C4528 2367 4520 2385 4515 2391C4511 2397 4505 2404 4504 2411M4107 1901L4124 1894M3995 1942C3997 1950 4000 1964 4007 1967C4014 1970 4021 1967 4028 1968C4032 1971 4042 1980 4047 1975C4051 1972 4050 1962 4052 1958C4055 1952 4061 1950 4064 1942C4071 1921 4064 1907 4094 1902M4101 1911C4085 1931 4114 1941 4128 1931M4001 1967C3992 1994 3947 2034 3915 2017M4798 2074C4794 2078 4787 2085 4787 2092C4788 2108 4804 2128 4820 2117M4795 2118C4795 2140 4790 2154 4778 2171C4772 2181 4758 2198 4758 2211C4760 2218 4767 2227 4770 2232M4795 2144C4818 2144 4802 2171 4814 2182M4825 2180C4825 2190 4824 2198 4824 2208C4825 2227 4831 2251 4824 2268C4818 2278 4811 2282 4804 2290C4790 2305 4775 2320 4757 2330C4747 2335 4735 2337 4725 2342C4708 2351 4705 2371 4690 2382C4652 2410 4612 2407 4570 2408M4814 2182L4824 2192M4518 2325C4527 2301 4571 2301 4592 2295C4618 2288 4648 2275 4668 2258C4677 2251 4678 2240 4687 2234C4702 2221 4725 2215 4742 2205C4752 2200 4754 2191 4765 2188M4810 2201C4810 2214 4810 2248 4825 2251M4747 2204L4757 2211M4758 2205L4760 2207M4770 2238C4781 2257 4782 2275 4802 2288M4498 2342L4500 2342M4507 2354C4504 2367 4492 2377 4480 2377M4538 2358L4538 2365M4460 2402C4470 2412 4481 2411 4494 2411M4448 2422C4432 2441 4424 2462 4410 2481C4398 2498 4377 2510 4370 2530C4365 2538 4371 2572 4382 2574C4388 2575 4398 2558 4401 2554C4421 2532 4435 2507 4452 2484L4460 2491L4462 2478L4461 2477L4457 2480L4452 2482M4550 2431C4548 2452 4522 2474 4511 2491C4490 2522 4464 2554 4442 2585C4435 2597 4431 2610 4424 2620C4420 2624 4414 2628 4411 2632C4407 2637 4407 2642 4402 2648C4395 2654 4388 2658 4385 2667C4371 2707 4405 2734 4407 2771C4407 2788 4398 2797 4392 2811C4384 2828 4381 2854 4382 2872C4384 2890 4390 2905 4392 2922C4392 2928 4397 2935 4394 2941C4390 2947 4381 2948 4377 2952C4355 2975 4332 2998 4311 3021C4302 3031 4287 3044 4282 3057C4280 3064 4287 3068 4290 3072C4297 3080 4305 3094 4302 3104C4297 3128 4292 3150 4292 3174C4292 3184 4291 3195 4297 3204C4308 3191 4317 3171 4294 3167M4471 2448L4461 2477M4460 2491C4455 2505 4442 2530 4425 2528M4428 2518L4435 2525M4381 2692C4377 2691 4370 2691 4367 2687C4364 2682 4368 2674 4370 2670C4372 2660 4374 2648 4371 2638C4367 2622 4354 2620 4345 2607C4332 2585 4344 2542 4367 2534M4408 2548L4422 2575L4441 2584M4385 2578L4408 2630M4404 2610L4428 2605M4365 2688C4338 2721 4345 2761 4358 2798C4362 2812 4367 2834 4384 2834M4357 2708C4365 2712 4374 2711 4382 2710M4390 2728C4385 2735 4388 2741 4388 2750C4388 2765 4385 2792 4392 2807M2192 2918C2194 2940 2204 2962 2214 2981C2218 2988 2225 2998 2234 3000C2244 3001 2255 2991 2264 2987C2287 2971 2310 2940 2341 2944C2375 2950 2404 2972 2438 2977C2467 2980 2495 2967 2522 2978C2538 2985 2541 2998 2550 3011C2562 3027 2590 3045 2611 3047C2614 2997 2557 2975 2520 2960C2504 2952 2488 2942 2477 2931C2470 2924 2465 2914 2457 2908C2442 2900 2422 2901 2405 2901C2390 2901 2374 2898 2358 2894C2340 2890 2320 2877 2301 2877C2290 2878 2280 2887 2271 2894C2254 2908 2218 2932 2194 2918C2187 2912 2188 2898 2194 2894C2207 2881 2224 2872 2238 2862C2252 2850 2268 2834 2285 2827M4385 2947C4378 2938 4381 2934 4391 2931M4377 2941L4375 2950M4395 2942C4402 2954 4402 2967 4405 2980C4411 3000 4422 3022 4417 3045C4414 3060 4398 3075 4388 3087C4364 3117 4337 3144 4310 3172M4370 2964L4378 3012C4392 3007 4395 2992 4405 2982M4378 3012C4377 3024 4361 3031 4352 3038C4332 3054 4322 3075 4304 3092M4377 3020C4388 3035 4390 3048 4410 3055M2612 3047L2641 3061M4291 3154C4280 3151 4277 3137 4274 3127C4272 3121 4267 3117 4265 3111C4262 3098 4268 3072 4278 3064M4305 3108C4314 3117 4327 3135 4327 3147M4265 3114C4260 3122 4260 3135 4260 3145C4260 3170 4261 3195 4267 3218C4271 3231 4282 3245 4297 3238C4301 3247 4302 3255 4307 3264C4318 3280 4341 3297 4341 3320C4341 3325 4335 3327 4332 3331C4328 3337 4328 3344 4325 3350C4314 3392 4295 3445 4308 3490C4322 3485 4338 3467 4337 3451C4335 3437 4325 3421 4311 3427M4297 3204L4297 3238M4341 3325C4350 3340 4351 3361 4354 3378C4354 3384 4358 3390 4360 3395C4365 3432 4360 3471 4350 3507C4342 3531 4345 3548 4322 3565C4310 3577 4291 3585 4274 3587C4257 3588 4241 3582 4224 3588C4210 3592 4195 3598 4181 3605C4175 3608 4168 3614 4161 3612C4150 3612 4137 3598 4128 3592C4100 3575 4072 3552 4037 3554C4007 3555 3974 3565 3947 3577C3931 3584 3917 3595 3900 3598L3877 3558L3868 3545L3854 3558L3818 3591L3738 3641L3655 3702C3658 3710 3654 3712 3650 3717L3648 3715L3644 3705C3631 3715 3608 3712 3592 3718C3575 3724 3561 3734 3544 3740C3508 3751 3471 3757 3437 3770C3418 3777 3398 3788 3384 3802C3375 3812 3368 3824 3358 3832L3337 3792C3324 3804 3325 3821 3320 3837C3308 3867 3290 3902 3287 3935C3304 3931 3304 3941 3315 3951L3338 3897L3364 3912L3357 3935L3335 4000C3328 3995 3325 3991 3321 3982C3320 3978 3318 3970 3314 3968C3307 3967 3304 3980 3301 3984C3292 4001 3282 4021 3268 4034C3262 4027 3258 4000 3247 3998C3237 3997 3232 4018 3231 4025C3230 4032 3224 4035 3221 4042C3214 4060 3207 4085 3207 4104C3207 4111 3207 4142 3217 4142C3224 4142 3228 4130 3231 4125C3235 4120 3240 4114 3241 4108C3242 4092 3224 4084 3212 4087M4354 3385C4342 3401 4354 3430 4338 3444M3632 3668L3634 3674L3632 3675L3631 3674L3630 3672C3635 3662 3651 3655 3660 3648C3692 3620 3730 3600 3767 3577C3802 3554 3827 3518 3860 3491C3885 3471 3920 3457 3952 3450C3978 3445 4007 3438 4032 3450C4060 3462 4082 3491 4114 3495C4140 3498 4162 3482 4187 3477C4212 3471 4242 3475 4267 3467C4281 3460 4290 3447 4304 3441M4295 3445L4304 3454M4337 3465L4350 3504M3828 3580C3818 3557 3832 3552 3844 3535C3850 3527 3851 3518 3858 3511L3871 3537C3904 3512 3941 3481 3984 3481C4021 3481 4050 3515 4084 3525C4140 3541 4185 3511 4238 3502C4261 3500 4291 3505 4310 3490M4307 3492C4317 3510 4318 3534 4344 3534M3851 3501L3858 3510M3857 3508L3850 3517M3851 3511L3854 3511M3841 3512L3850 3515M3871 3537L3871 3541M3828 3585C3835 3597 3840 3615 3852 3622C3861 3628 3875 3627 3878 3615C3882 3605 3865 3602 3862 3594C3860 3580 3894 3597 3898 3600M3897 3601L3882 3614M3867 3630C3862 3644 3848 3654 3838 3662C3812 3685 3782 3700 3754 3717C3730 3732 3707 3751 3682 3768C3675 3774 3671 3781 3661 3784C3650 3788 3637 3784 3624 3788C3597 3797 3572 3812 3545 3821C3490 3840 3420 3848 3377 3892C3372 3897 3370 3905 3365 3911M3338 3791C3348 3765 3385 3751 3410 3741C3444 3725 3481 3720 3517 3708C3540 3700 3560 3685 3582 3678C3598 3674 3612 3677 3628 3671M3635 3671L3637 3678L3634 3675M3637 3680C3642 3688 3644 3700 3655 3702M3645 3701L3645 3704M3657 3710C3660 3715 3658 3720 3660 3727C3661 3741 3665 3755 3675 3765C3685 3754 3677 3742 3664 3738M3650 3717L3655 3724M3670 3748L3671 3750L3670 3748M2600 3752C2601 3762 2604 3772 2617 3770M3685 3758L3687 3762M2614 3761L2607 3768M3677 3765L3680 3768M3358 3832L3374 3890M3320 3841L3330 3875L3338 3897M3358 3844L3337 3885M2738 3908C2777 3912 2814 3910 2850 3892C2862 3887 2888 3870 2901 3881C2912 3890 2908 3908 2910 3921C2911 3931 2912 3940 2915 3950M3285 3937L3247 3994M2930 3951C2947 3965 2928 3977 2915 3985C2902 3994 2888 4002 2874 4008C2865 4011 2857 4011 2848 4017C2838 4022 2830 4034 2822 4044C2810 4062 2800 4082 2794 4104C2788 4128 2788 4150 2774 4172C2760 4195 2722 4220 2722 4248C2722 4257 2730 4268 2732 4277C2741 4300 2752 4324 2761 4347C2770 4367 2797 4371 2811 4387C2825 4404 2835 4427 2841 4448C2844 4455 2848 4468 2857 4470C2867 4470 2877 4454 2882 4447C2887 4440 2894 4432 2895 4424C2895 4414 2887 4407 2881 4400C2871 4390 2860 4380 2847 4374C2830 4368 2815 4370 2804 4352C2787 4330 2795 4298 2777 4275C2765 4264 2742 4245 2728 4258M3314 3952L3314 3967M3268 3964L3290 3998M3335 4000C3335 4017 3327 4044 3305 4028C3298 4024 3294 4015 3290 4008M3230 4034C3245 4062 3237 4105 3281 4105C3280 4127 3261 4137 3254 4152C3250 4162 3251 4172 3248 4182C3241 4204 3227 4224 3212 4240C3197 4257 3168 4274 3161 4298C3152 4332 3167 4378 3175 4411C3178 4421 3191 4448 3185 4458C3181 4464 3167 4461 3164 4457C3155 4447 3164 4421 3174 4415M3268 4034C3268 4047 3255 4070 3247 4080M3325 4034C3324 4061 3298 4087 3281 4105M3267 4047L3275 4062L3294 4082M3248 4092L3241 4101M3134 4154L3138 4170C3161 4151 3177 4114 3205 4102M3241 4114C3248 4124 3251 4137 3252 4148M3215 4144C3214 4160 3188 4177 3177 4188C3171 4195 3164 4204 3161 4212C3158 4230 3168 4260 3177 4274M3214 4152C3227 4168 3231 4167 3250 4165M3138 4170C3140 4182 3152 4202 3161 4211M3138 4177C3127 4192 3128 4224 3132 4241C3134 4247 3134 4252 3135 4258C3142 4268 3158 4277 3170 4282M3165 4231C3175 4234 3188 4242 3190 4254M3134 4261L3135 4270L3137 4271L3141 4267L3144 4264M3137 4271C3138 4288 3141 4301 3160 4298M3161 4458C3154 4487 3158 4518 3152 4548C3147 4572 3141 4595 3132 4618C3128 4630 3121 4641 3118 4654C3117 4662 3130 4674 3132 4682C3134 4685 3135 4691 3138 4692C3144 4694 3147 4684 3148 4681C3155 4668 3160 4654 3165 4641C3181 4597 3188 4550 3188 4502C3188 4488 3191 4475 3188 4461M2855 4471C2858 4481 2862 4495 2870 4504C2875 4508 2882 4511 2888 4517C2897 4528 2902 4542 2908 4557C2914 4571 2920 4585 2908 4598C2891 4575 2877 4537 2872 4508M3192 4480C3208 4497 3200 4531 3198 4552C3195 4617 3191 4680 3164 4740C3161 4748 3154 4754 3150 4762C3145 4772 3145 4785 3135 4791C3131 4792 3124 4790 3120 4790C3105 4787 3091 4781 3075 4778C3050 4774 3022 4774 3000 4761C2965 4740 2957 4691 2944 4657C2937 4640 2920 4625 2917 4608C2915 4602 2918 4598 2918 4592M2882 4511L2875 4518M2908 4598L2912 4604M2945 4654C2960 4654 2975 4660 2990 4662C3011 4665 3032 4667 3054 4674C3070 4678 3085 4692 3101 4685L3102 4687L3105 4720C3121 4721 3138 4711 3138 4694M3117 4661L3102 4685M2958 4690L3035 4705L3058 4718L3104 4721M3137 4707L3151 4758M3107 4721L3125 4790M3122 4780L3114 4788"></path>
 </g>
</g></svg>