<?xml version="1.0" encoding="utf-8"?>
<!-- Generator: Adobe Illustrator 25.2.1, SVG Export Plug-In . SVG Version: 6.00 Build 0)  -->
<svg version="1.1" id="outputsvg" xmlns="http://www.w3.org/2000/svg" xmlns:xlink="http://www.w3.org/1999/xlink" x="0px" y="0px"
	 viewBox="0 0 265.1 340.4" style="enable-background:new 0 0 265.1 340.4;" xml:space="preserve">
<style type="text/css">
	.st0{fill:none;stroke:#FFFFFF;stroke-miterlimit:10;}
</style>
<g id="l7OVHxyDr9mBM">
	<path class="st0" d="M34.7,222.2c0.1,4,3.3,8.4,5.7,11.4c4.6,6,9.4,12.3,14.6,18c1.8,2.2,2.8,7.6,6.3,8.2c3.3,0.4,6.8-2.3,9.8-3.3
		c0.7-0.2,2.9-0.3,3.5-0.9c1.8-1.8,2.8-7.4,0.7-9.4c-1.3-1.2-3.3-1.3-4.9-1.2c-2.2,0.2-4.3,0.8-6.3,1.6c-2.7,1.3-6.1,3.4-8.8,1.2
		c-0.5-0.5-1-1.1-1.3-1.8c-2.7-4-5.3-8.1-8.3-12c-1.9-2.2-4.3-4.4-5.7-6.8c-1.2-2,2.3-3.6,1-5.2C39.7,220.4,36.3,221.6,34.7,222.2
		c-0.4-0.9-1.4-3-1.1-4c0.2-1.2,1.8-2,2.5-2.7c2-2,4.6-4,5.3-6.9c0.9-3.1,1.3-6.1,2.3-9.3c1.6-4.4,4-9,4.4-13.8
		c0.5-4.5-1.3-9-1.5-13.5c0.1-1,0-2.1-0.2-3.1c0-0.7-0.6-1.3-0.6-2c0-3,0.3-6-1.8-8.7c-1.9-2.4-5.3-3.3-7.9-4.7
		c-1.6-0.9-3-1.9-4.3-3.2c-0.8-1-1.5-2.4-2.8-3c-1.6-0.5-3.3,0-4.9,0c-2.5-0.1-5-0.5-7.4-1.4c-1.7-0.6-3.3-1.1-5-1.7
		c-0.4-0.2-1.6-0.3-1.3-1c0.2-0.9,1.9-1.7,2.6-2.2c2.4-1.7,4.8-3.2,7.3-5c3.1-2.2,6.4-4.5,9.5-6.8c1.6-1.2,3.2-2.6,4.8-3.6
		s3.5-0.4,5.1-1.1c3.9-1.7,7.1-5,9.9-8.2c2.8-3.2,4.5-7,7.2-10.3c2.5-2.8,5.6-5.2,7.6-8.4c1.2-2,1.4-4,2.2-6.1
		c0.6-1.8,1.4-3.6,2.5-5.2c3.6-5.3,8.6-9.1,11.6-14.8c0.8-1.4,1.3-2.9,1.7-4.5c0.2-0.7,0.3-1.5,0.4-2.2c0.5-0.9,1.5-0.9,1.6-2
		c0.2-1.6-1.1-3.9-0.3-5.3c0.5-0.7,1.9-0.9,2.6-1.3c1.4-1.1,2.7-2.3,3.9-3.7c0.8-1,1.4-2.2,1.7-3.5c0.3-2-0.3-4.1,0.7-6
		c0.6-1.4,2.3-1.8,3.4-2.8c1.6-1.7,2.8-3.7,3.4-5.9c0.5-1.4,0-2.5,0.2-3.8c0.1-1,0.7-1.7,0.3-2.7c-0.5-1.3-3-1.6-2.3-3.2
		c0.3-1,2.1-1,3-1.3c1.5-0.4,2.8-1.4,3.6-2.8c0.8-2.2-0.3-3.6-0.3-5.6c0.1-1.6,1.3-2.7,1.5-4.1c0.3-1.2,0-2.3,0.2-3.5
		c0.2-1.7,1-3.2,2.3-4.4c0.5-0.7,2-2.9,3.1-2.3c0.9,0.4,1.2,1.9,2.3,2c1.3,0.2,2.4-2.3,3.1-0.3c0.2,0.2,0.3,0.4,0.3,0.7
		c0.2,0.3,0.2,0.7,0.2,1c0.7,0.2,1.3,0.9,2.1,0.9c0.6,0,1.2-0.9,1.7-0.7s0.5,1.6,0.7,2.1c0.5,0.7,1.2,0.2,1.9,0.5s2.4,2.5,3.4,1.2
		c0.5-0.4-0.3-1.1-0.5-1.2c-0.8-0.6-1.8-0.6-2.6,0 M114.3,2.8c-0.1,0.7-0.1,1.3,0.1,2c0.7,1.1,2.3,0.4,2.7-0.6 M127.4,8.2
		c0.4,0.8,0.7,2,1.7,2.3c0.6,0.3,1.3-0.2,1.9,0.1c0.3,0.3,0,0.6-0.2,0.9l-0.7-0.9 M151.1,10.9l-3.4,2.6c-0.6-1-0.3-2.4,0.8-3
		c0.4-0.2,0.9-0.3,1.3-0.3c1.9,0,3.3,2.3,3.2,4c-0.2,1.4-1.7,2.3-2,3.6l1.1-0.5l-0.7-0.7 M131.3,11.2c0.3,0.6,0.3,1.4,0.8,1.6
		c1.5,0.5,3.2-2.8,3.7,0.2v1c-0.7,0-2.1,0.6-1.7,1.6c0.3,0.4,1,0.4,0.9,1.2s-1.3,2-0.4,3c0.4,0.5,2.4,1,2.7,0.1s-0.2-2.6-0.5-3.4
		c-0.3-0.9-0.6-1.7-1-2.5 M130.7,11.5c-0.7,0.6-1.3,1.5-1.6,2.4c0,0.4,0,1,0.6,1c1-0.1,1.4-1.6,2-2.3 M147.7,13.5v1
		c0.4,2.8,3.4-0.6,5,0.3 M144.3,13.6c-0.7,0.9-1.2,1.7-1.9,2.6c-1.4,1.6-3.1,1.7-5.1,1.4 M144.3,13.9c0.4,0.7,0.4,1.4,0.8,2.1
		c1.3,2.2,3.9,3.9,5.9,1.8 M153,14.8c0.3,0.5,0.6,1,1,1.4c0.8,0.7,2,0,2.1,1.7h-1.7c0,0.4,0,1.3,0.4,1.6c1,0.8,2-0.6,1.3-1.6
		 M148.4,15.9l0.4,2.7 M153.7,16.2l-1.6,1.1 M154,16.5v1l-1.2-0.3 M151.8,16.8l0.2,0.1 M154,17.5l0.4,0.4 M156.7,18.9
		c1.2,1.6,2.2,3.3,2.9,5.1c1.4,2.6,2.7,5.3,3.7,8c0.5,1.5,1.7,3.5,1.7,5c0,1-1.3,0.8-1.4,1.8c-0.2,2,1.1,2.5,2.8,2.5
		c0-1.4-0.5-2.7-1.4-3.7 M149.7,19c0,2.8,3,1,4.7,0.6 M159.6,24.2c-0.5,0.7-0.6,1.7-1.3,2.1c-1.6,0.9-3.6-1.7-3.2-3.1
		c0.5-1.2,2.2-1.3,3.2-1.3 M98.6,26.5c-0.1,1.4,0.4,2.7,1.4,3.7 M164.1,41c-1.8,1.2-3.3,2.5-5,3.8c-0.4,0.4-1.3,1.2-2,1
		c-1-0.3,0.6-1.9,0.9-2.2c1.4-1.6,3.4-4.3,5.4-5.1 M166.4,41.3c1.7,2.3,2,6.2,3,8.9c0.2,1,0.7,1.9,1.3,2.7c0.6,0.6,1.7,0.3,2.4,0.1
		c1.7-0.4,4.6-2.2,6.3-1.4c0.7,0.4,1.9,2.3,1.4,3.2c-0.4,0.7-2.4,1.4-3.1,2.1c-0.9,0.9-1,1.9-1.6,2.7c-1.4,1.7-3.2,3-5.3,3.6
		 M195,48.5c0-0.6-0.4-1.6,0-2c0.8-0.7,2,0.5,1.7,1.4c-0.1,0.7-1.3,0.6-1.9,1c-0.6,1-0.9,2.2-0.8,3.4c-0.3,2.2,2.4,1.9,3.6,0.9
		c0.5-0.4,0.7-1.2,1-1.7c-1.5-0.9-1.2-1.7-1.6-3.2 M192.1,50.8l-1,0.1L191,51l0.7,0.8c1-1.8,0.4-4.9,3-5.2 M198.7,51.5
		c1.1,0.7,1.4,1.7,1.9,3c0.1,0.4,0.4,1.1,1,1.1s0.8-0.7,0.8-1.1c0.3-1.3-0.1-2.6,0.7-3.7c1.7-2,5.6-0.3,7.5,0.4
		c10.7,4.1,20.2,10.3,31.1,14c1.6,0.6,3,2.1,4.6,2.6c0.7,0.1,1-0.5,1-1.2c-0.2-1.1-0.7-2.3,0.8-2.6c1.6-0.3,3.3,0.1,4.6,1
		c0.6,0.6,1.4,2.2,2.3,2.2c0.7,0,0.6-1.2,1-1.6c0.6-0.7,2-0.7,2.8-0.7c1.1,0,2.1,0.7,2.6,1.7c0.2,0.6-0.1,1.2,0.2,1.6
		c0.3,0.4,0.8,0.7,1,1.1c0.4,0.9,0.7,1.8,1,2.7c0.4,1.8,1.5,3.9,0.8,5.8c-0.4,0.7-1.1,0.8-1.6,1.4c-0.2,0.4-0.1,1-0.5,1.4
		c-1.2,1.6-2.6,3-4.2,4.2c-1.4,1.1-3.1,1.5-4.5,2.5c-2.9,2.2-5,4.7-8.5,5.9c-2,0.7-4.3,0.3-6.3,1c-1,0.4-2.2,2.1-3.2,2.3
		c-1.3,0-1.2-3.5-2.6-3c-2,0.5-0.3,1.8-0.7,2.7l-1-1c-1.6,1.6-2.5,3.7-3.6,5.6c-0.4,0.5-1.4,1.2-1.1,2.1c0.1,0.4,1,0.1,1.4,0.4
		c0.5,0.7,0.7,1.4,0.8,2.2c1.3-0.8,2.1-2,2.3-3.5c1.2,0,2.3,0.3,3.3,0.9c0.7,0.3,1.4,1,2.3,0.9c0.9-0.1,2.3-2.3,1.7-3.3
		c-0.3-0.6-1.3-0.7-1.7-1.3c-0.4-0.4-0.9-1.7-1.4-1.7c-0.9,0-1.7,1.8-2.2,2.4c-0.5,0.6-0.9,1.3-1.1,2 M192.3,50.9l1.7-0.7 M181.1,55
		c0.2,0.8,0.5,2.2,1.2,2.5s1.4,0,2.1,0.1c0.4,0.3,1.4,1.2,1.9,0.7c0.4-0.3,0.3-1.3,0.5-1.7c0.3-0.6,0.9-0.8,1.2-1.6
		c0.7-2.1,0-3.5,3-4 M191.7,51.9c-1.6,2,1.3,3,2.7,2 M181.7,57.5c-0.9,2.7-5.4,6.7-8.6,5 M261.4,68.2c-0.4,0.4-1.1,1.1-1.1,1.8
		c0.1,1.6,1.7,3.6,3.3,2.5 M261.1,72.6c0.1,1.9-0.5,3.8-1.7,5.3c-0.6,1-2,2.7-2,4c0.3,0.7,0.7,1.4,1.2,2.1 M261.1,75.2
		c2.3,0,0.7,2.7,1.9,3.8 M264.1,78.8c0,1-0.1,1.8-0.1,2.8c0.1,1.9,0.7,4.3,0,6c-0.6,0.8-1.3,1.5-2,2.2c-1.4,1.6-2.9,2.9-4.7,4
		c-1,0.5-2.2,0.7-3.2,1.2c-1.7,0.9-2,2.9-3.5,4c-3.8,2.8-7.8,2.5-12,2.6 M263,79l1,1 M233.4,93.3c0.9-2.4,5.3-2.4,7.4-3
		c2.8-0.7,5.3-2,7.6-3.7c0.9-0.7,1-1.8,1.9-2.4c1.5-1.3,3.8-1.9,5.5-2.9c1-0.5,1.2-1.4,2.3-1.7 M262.6,80.9c0,1.3,0,4.7,1.5,5
		 M256.3,81.2l1,0.7 M257.4,81.3l0.2,0.2 M258.6,84.6c1.1,1.9,1.2,3.7,3.2,5 M231.4,95h0.2 M232.3,96.2c-0.3,1.3-1.4,2.2-2.7,2.3
		 M235.4,96.6v0.7 M227.6,101c1,1,2.1,0.9,3.4,0.9 M226.4,103c-1.6,1.9-2.4,4-3.8,5.9c-1.2,1.7-3.3,2.9-4,4.9
		c-0.5,0.8,0.1,4.2,1.2,4.4c0.6,0.1,1.6-1.6,1.9-2c1.8-2.2,3.5-4.6,5.1-7l0.8,0.7l0.2-1.3l-0.1-0.1l-0.4,0.3l-0.5,0.2 M236.6,103.9
		c-0.2,2.1-2.8,4.3-3.9,6c-2.1,3.1-4.7,6.3-6.9,9.4c-0.7,1.2-1.1,2.5-1.8,3.5c-0.5,0.4-0.9,0.8-1.3,1.2c-0.4,0.5-0.4,1-0.9,1.6
		c-0.7,0.6-1.4,1-1.7,1.9c-1.4,4,2,6.7,2.2,10.4c0,1.7-0.9,2.6-1.5,4c-0.8,1.9-1.1,4-1,6.1c0.2,1.8,0.8,3.3,1,5
		c0,0.6,0.5,1.3,0.2,1.9s-1.3,0.7-1.7,1.1c-2.2,2.3-4.5,4.6-6.6,6.9c-0.9,1-2.4,2.3-2.9,3.6c-0.2,0.7,0.5,1.1,0.8,1.5
		c0.7,0.8,1.5,2.2,1.2,3.2c-0.6,2.3-0.9,4.6-1,7c-0.1,1,0,2.1,0.5,3c1.1-1.3,2-3.3-0.3-3.7 M228.7,105.6l-1,2.9 M227.6,109.9
		c-0.5,1.4-1.8,3.9-3.5,3.7 M224.4,112.6l0.7,0.7 M219.7,130c-0.4-0.1-1.1-0.1-1.4-0.5s0.1-1.3,0.3-1.7c0.3-1,0.3-2.1,0.1-3.2
		c-0.4-1.6-1.7-1.8-2.6-3.1c-1.3-2.2-0.1-6.5,2.2-7.3 M222.4,115.6l1.4,2.7l1.9,0.9 M220.1,118.6l2.3,5.2 M222,121.8l2.4-0.5
		 M218.1,129.6c-2.7,3.3-2,7.3-0.7,11c0.4,1.4,0.9,3.6,2.6,3.6 M217.3,131.6c0.8,0.3,1.7,0.4,2.5,0.2 M220.6,133.6
		c-0.5,0.7-0.2,1.3-0.2,2.2c0,1.5-0.3,4.2,0.4,5.7 M0.8,152.6c0.3,2.2,1.1,4.4,2.2,6.3c0.4,0.9,1.1,1.5,2,1.9c1,0.1,2.1-0.9,3-1.3
		c2.3-1.6,4.6-4.7,7.7-4.3c3.4,0.6,6.3,2.8,9.7,3.3c2.9,0.3,5.7-1,8.4,0.1c1.6,0.7,1.9,2,2.8,3.3c1.5,1.9,3.7,3.2,6.1,3.6
		c0.3-5-5.4-7.2-9.1-8.7c-1.6-0.7-3-1.7-4.3-2.9c-0.6-0.8-1.3-1.6-2-2.3c-1.5-0.8-3.5-0.7-5.2-0.7c-1.6,0-3.2-0.3-4.7-0.7
		c-1.8-0.4-3.8-1.7-5.7-1.7c-1.1,0.3-2.2,0.9-3,1.7C7,151.6,3.4,154,1,152.6c-0.7-0.7-0.7-1.7,0-2.4c1.4-1.2,2.8-2.3,4.4-3.2
		c1.4-1.2,3-2.8,4.7-3.5 M220.1,155.5c-0.7-0.9-0.4-1.3,0.6-1.6 M219.3,154.9l-0.2,0.9 M221.1,155c0.5,1.2,0.9,2.5,1,3.8
		c0.6,2,1.7,4.2,1.2,6.5c-0.3,1.5-1.9,3-2.9,4.2c-2.4,3-5.1,5.7-7.8,8.5 M218.6,157.2l0.8,4.8c1.4-0.5,1.7-2,2.7-3 M219.4,162
		c-0.1,1.2-1.7,1.9-2.6,2.6c-2,1.6-3,3.7-4.8,5.4 M219.3,162.8c1.1,1.5,1.3,2.8,3.3,3.5 M42.8,165.5l2.9,1.4 M210.7,176.2
		c-1.1-0.3-1.4-1.7-1.7-2.7c-0.2-0.6-0.7-1-0.9-1.6c-0.3-1.3,0.3-3.9,1.3-4.7 M212.1,171.6c0.9,0.9,2.2,2.7,2.2,3.9 M208.1,172.2
		c-0.4,1-0.6,2-0.5,3.1c-0.1,2.5,0.2,4.9,0.7,7.3c0.4,1.3,1.5,2.7,3,2c0.3,0.9,0.6,1.8,1,2.6c1.1,1.6,3.4,3.3,3.4,5.6
		c0,0.5-0.6,0.7-0.9,1.1c-0.3,0.6-0.5,1.3-0.7,1.9c-1.1,4.2-3,9.5-1.7,14c1.4-0.5,3-2.3,2.9-3.9c-0.2-1.4-1.2-3-2.6-2.4
		 M211.3,181.2v3.4 M215.7,193.3c0.9,1.5,1,3.6,1.3,5.3c0.1,0.6,0.3,1.2,0.6,1.7c0.4,3.8,0.1,7.6-1,11.2c-0.8,2.4-0.5,4.1-2.8,5.8
		c-1.3,1.2-3,2-4.8,2.2c-1.7,0.1-3.3-0.5-5,0.1c-1.5,0.4-2.9,1-4.3,1.7c-0.6,0.3-1.3,0.9-2,0.7c-1.1,0-2.4-1.4-3.3-2
		c-2.8-1.7-5.6-4-9.1-3.8c-3.1,0.2-6.2,1-9,2.3c-1.6,0.7-3,1.8-4.7,2.1l-2.3-4l-0.9-1.3l-1.4,1.3l-3.6,3.3l-8,5l-8.3,6.1
		c0.3,0.8-0.1,1-0.5,1.5l-0.2-0.2l-0.4-1c-1.3,1-3.6,0.7-5.2,1.3s-3.1,1.6-4.8,2.2c-3.6,1.1-7.3,1.7-10.7,3c-2,0.7-3.8,1.8-5.3,3.2
		c-0.8,1.1-1.7,2.1-2.6,3l-2.1-4c-1.3,1.2-1.2,2.9-1.7,4.5c-1.2,3-3,6.5-3.3,9.8c1.7-0.4,1.7,0.6,2.8,1.6l2.3-5.4l2.6,1.5l-0.7,2.3
		l-2.2,6.5c-0.6-0.4-1.1-1.1-1.4-1.8c-0.1-0.4-0.3-1.2-0.7-1.4c-0.7-0.1-1,1.2-1.3,1.6c-0.8,1.8-1.9,3.5-3.3,5
		c-0.6-0.7-1-3.4-2.1-3.6s-1.5,2-1.6,2.7s-0.7,1-1,1.7c-0.8,2-1.3,4.1-1.4,6.2c0,0.7,0,3.8,1,3.8c0.7,0,1.1-1.2,1.4-1.7
		c0.5-0.5,0.8-1.1,1-1.7c0.1-1.6-1.7-2.4-2.9-2.1 M217,199.3c-1.2,1.6,0,4.5-1.6,5.9 M144.8,227.6l0.2,0.6l-0.2,0.1l-0.1-0.1
		l-0.1-0.2c0.5-1,2.1-1.7,3-2.4c3.2-2.8,7-4.8,10.7-7.1c3.5-2.3,6-5.9,9.3-8.6c2.7-2,5.9-3.4,9.2-4.1c2.6-0.5,5.5-1.2,8,0
		c2.8,1.2,5,4.1,8.2,4.5c2.6,0.3,4.8-1.3,7.3-1.8s5.5-0.2,8-1c1.4-0.7,2.3-2,3.7-2.6 M211.1,205.3l0.9,0.9 M215.3,207.3l1.3,3.9
		 M164.4,218.8c-1-2.3,0.4-2.8,1.6-4.5c0.6-0.8,0.7-1.7,1.4-2.4l1.3,2.6c3.3-2.5,7-5.6,11.3-5.6c3.7,0,6.6,3.4,10,4.4
		c5.6,1.6,10.1-1.4,15.4-2.3c2.3-0.2,5.3,0.3,7.2-1.2 M212.3,210c1,1.8,1.1,4.2,3.7,4.2 M166.7,210.9l0.7,0.9 M167.3,211.6l-0.7,0.9
		 M166.7,211.9h0.3 M165.7,212l0.9,0.3 M168.7,214.5v0.4 M164.4,219.3c0.7,1.2,1.2,3,2.4,3.7c0.7,0.6,1.7,0.5,2.3-0.2
		c0.1-0.2,0.2-0.3,0.3-0.5c0.4-1-1.3-1.3-1.6-2.1c-0.2-1.4,3.2,0.3,3.6,0.6 M171.3,220.9l-1.5,1.3 M168.3,223.8
		c-0.5,1.4-1.9,2.4-2.9,3.2c-2.6,2.3-5.6,3.8-8.4,5.5c-2.4,1.5-4.7,3.4-7.2,5.1c-0.7,0.6-1.1,1.3-2.1,1.6s-2.4,0-3.7,0.4
		c-2.7,0.9-5.2,2.4-7.9,3.3c-5.5,1.9-12.5,2.7-16.8,7.1c-0.5,0.5-0.7,1.3-1.2,1.9 M115.4,239.9c1-2.6,4.7-4,7.2-5
		c3.4-1.6,7.1-2.1,10.7-3.3c2.3-0.8,4.3-2.3,6.5-3c1.6-0.4,3-0.1,4.6-0.7 M145.1,227.9l0.2,0.7l-0.3-0.3 M145.3,228.8
		c0.5,0.8,0.7,2,1.8,2.2 M146.1,230.9v0.3 M147.3,231.8c0.3,0.5,0.1,1,0.3,1.7c0,1.4,0.6,2.8,1.5,3.8c1-1.1,0.2-2.3-1.1-2.7
		 M146.6,232.5l0.5,0.7 M148.6,235.6l0.1,0.2L148.6,235.6 M41.6,236c0.1,1,0.4,2,1.7,1.8 M150.1,236.6l0.2,0.4 M43,236.9l-0.7,0.7
		 M149.3,237.3l0.3,0.3 M117.4,244l1.6,5.8 M113.6,244.9l1,3.4l0.8,2.2 M117.4,245.2l-2.1,4.1 M55.4,251.6c3.9,0.4,7.6,0.2,11.2-1.6
		c1.2-0.5,3.8-2.2,5.1-1.1c1.1,0.9,0.7,2.7,0.9,4c0.1,1,0.2,2,0.5,2.9 M110.1,254.5l-3.8,5.7 M74.6,255.9c1.7,1.4-0.2,2.6-1.5,3.4
		c-1.3,0.9-2.7,1.7-4.1,2.3c-0.9,0.2-1.8,0.5-2.6,0.9c-1,0.7-1.9,1.6-2.6,2.7c-1.3,1.8-2.2,3.9-2.8,6c-0.6,2.4-0.6,4.6-2,6.8
		s-5.2,4.8-5.2,7.6c0,0.9,0.8,2,1,2.9c0.9,2.3,2,4.7,2.9,7c0.9,2,3.6,2.4,5,4c1.4,1.8,2.4,3.9,3,6.1c0.3,0.7,0.7,2,1.6,2.2
		c1,0,2-1.6,2.5-2.3c0.6-0.7,1-1.4,1.3-2.3c0-1-0.8-1.7-1.4-2.4c-1-1.1-2.1-1.9-3.4-2.6c-1.7-0.6-3.2-0.4-4.3-2.2
		c-1.7-2.2-0.9-5.4-2.7-7.7c-1.2-1.1-3.5-3-4.9-1.7 M113,256v1.5 M108.4,257.2l2.2,3.4 M115.1,260.8c0,1.7-0.8,4.4-3,2.8
		c-0.7-0.5-1.2-1.2-1.5-2 M104.6,264.2c1.5,2.8,0.7,7.1,5.1,7.1c-0.1,2.2-2,3.2-2.7,4.7c-0.4,1-0.3,2-0.6,3c-0.8,2.2-2,4.2-3.6,5.8
		c-1.5,1.7-4.4,3.4-5.1,5.8c-0.9,3.4,0.6,8,1.4,11.3c0.3,1,1.6,3.7,1,4.7c-0.4,0.6-1.8,0.3-2.1-0.1c-0.9-1,0-3.6,1-4.2 M108.4,264.2
		c0,1.3-1.3,3.6-2.1,4.6 M114.1,264.2c-0.1,2.7-2.7,5.3-4.4,7.1 M108.3,265.5l0.8,1.5l1.9,2 M106.4,270l-0.7,0.9 M95,276.2l0.4,1.6
		c2.3-1.9,3.9-5.6,6.7-6.8 M105.7,272.2c0.6,1,1,2.2,1.1,3.4 M103.1,275.2c-0.1,1.6-2.7,3.3-3.8,4.4c-0.7,0.7-1.2,1.5-1.6,2.4
		c-0.3,1.8,0.7,4.8,1.6,6.2 M103,276c1.3,1.6,1.7,1.5,3.6,1.3 M95.4,277.8c0.4,1.5,1.2,2.9,2.3,4.1 M95.4,278.5
		c-1.1,1.5-1,4.7-0.6,6.4c0.1,0.6,0.2,1.1,0.3,1.7c1,1.1,2.2,1.9,3.5,2.4 M98.1,283.9c1.2,0.3,2.1,1.1,2.5,2.3 M95,286.9l0.1,0.9
		l0.2,0.1l0.4-0.4l0.3-0.3 M95.3,287.9c0.1,1.7,0.4,3,2.3,2.7 M97.7,306.6c-0.7,2.9-0.3,6-0.9,9c-0.5,2.4-1.1,4.7-2,7
		c-0.5,1.2-1,2.4-1.4,3.6c-0.1,0.8,1.2,2,1.4,2.8c0.2,0.3,0.3,0.9,0.6,1c0.6,0.2,0.9-0.8,1-1.1c0.7-1.3,1.2-2.6,1.7-4
		c1.6-4.5,2.4-9.2,2.3-13.9c0.2-1.4,0.2-2.7,0-4.1 M67.1,307.9c0.3,1.2,0.8,2.3,1.5,3.3c0.6,0.4,1.2,0.8,1.8,1.3
		c0.9,1.2,1.5,2.6,2,4c0.6,1.4,1.2,2.8,0,4.1c-1.8-2.7-3-5.8-3.6-9 M100.8,308.8c1.6,1.7,0.8,5.1,0.6,7.2
		c-0.3,6.5-0.7,12.8-3.4,18.8c-0.3,0.8-1,1.4-1.4,2.2c-0.5,1-0.5,2.3-1.5,2.9c-0.5,0-1,0-1.5-0.1c-1.5-0.3-2.9-0.9-4.5-1.2
		c-2.5-0.4-5.3-0.4-7.5-1.7c-3.5-2.1-4.3-7-5.6-10.4c-0.7-1.7-2.4-3.2-2.7-4.9c-0.2-0.6,0.1-1,0.1-1.6 M69.8,311.9l-0.7,0.7
		 M72.4,320.6l0.4,0.6 M76.1,326.2c1.5,0.2,3,0.4,4.5,0.8c2.2,0.2,4.3,0.6,6.4,1.2c1.6,0.4,3.1,1.8,4.7,1.1l0.1,0.2l0.3,3.3
		c1.6,0.1,3.3-0.9,3.3-2.6 M93.3,326.9l-1.5,2.4 M77.4,329.8l7.7,1.5l2.3,1.3l4.6,0.3 M95.3,331.5l1.4,5.1 M92.3,332.9l1.8,6.9
		 M93.8,338.8l-0.8,0.8"/>
</g>
</svg>
